<svg width="281" height="194" viewBox="0 0 281 194" fill="none" xmlns="http://www.w3.org/2000/svg">
<path d="M95.1615 188.223V188.903H94.6704C94.544 188.903 94.4556 188.929 94.4063 188.981C94.3561 189.033 94.3319 189.126 94.3319 189.258V189.484H95.0908V190.224H94.3319V192.723H93.4427V190.224H93V189.484H93.4427V189.258C93.4427 188.907 93.5264 188.647 93.6957 188.479C93.8641 188.309 94.1254 188.223 94.4807 188.223L95.1615 188.223Z" fill="black"/>
<path d="M97.6141 190.367C97.5341 190.324 97.4559 190.292 97.3797 190.272C97.3025 190.252 97.2253 190.241 97.149 190.241C96.9202 190.241 96.7444 190.327 96.6207 190.497C96.4961 190.668 96.4347 190.912 96.4347 191.229V192.723H95.5455V189.483H96.4347V190.016C96.5482 189.803 96.6802 189.648 96.829 189.553C96.9779 189.455 97.1546 189.405 97.3611 189.405C97.3908 189.405 97.4224 189.408 97.4578 189.41C97.4922 189.413 97.5434 189.418 97.6103 189.427L97.6141 190.367Z" fill="black"/>
<path d="M99.3795 190.146C99.1804 190.146 99.0297 190.228 98.9256 190.393C98.8233 190.557 98.7731 190.796 98.7731 191.107C98.7731 191.417 98.8233 191.653 98.9256 191.818C99.0298 191.982 99.1804 192.064 99.3795 192.064C99.5729 192.064 99.7199 191.982 99.8222 191.818C99.9264 191.653 99.9784 191.417 99.9784 191.107C99.9784 190.796 99.9264 190.557 99.8222 190.393C99.7199 190.228 99.5729 190.146 99.3795 190.146ZM99.3795 189.406C99.8575 189.406 100.231 189.556 100.499 189.856C100.769 190.157 100.905 190.574 100.905 191.107C100.905 191.639 100.769 192.055 100.499 192.355C100.231 192.656 99.8575 192.805 99.3795 192.805C98.8977 192.805 98.5219 192.656 98.2522 192.355C97.9815 192.055 97.8467 191.639 97.8467 191.107C97.8467 190.574 97.9815 190.157 98.2522 189.856C98.5219 189.556 98.8977 189.406 99.3795 189.406Z" fill="black"/>
<path d="M104.129 190.02C104.243 189.821 104.377 189.67 104.531 189.566C104.687 189.46 104.857 189.406 105.041 189.406C105.361 189.406 105.604 189.521 105.77 189.752C105.938 189.98 106.023 190.313 106.023 190.748V192.723H105.13V191.034V190.956C105.132 190.93 105.134 190.891 105.134 190.839C105.134 190.612 105.104 190.445 105.045 190.341C104.987 190.237 104.894 190.185 104.766 190.185C104.596 190.185 104.466 190.266 104.375 190.428C104.283 190.59 104.235 190.825 104.234 191.133V192.723H103.337V191.034C103.337 190.677 103.309 190.445 103.255 190.341C103.203 190.237 103.11 190.185 102.976 190.185C102.805 190.185 102.672 190.267 102.578 190.432C102.486 190.594 102.44 190.826 102.44 191.129V192.723H101.547V189.483H102.44V189.955C102.549 189.774 102.675 189.637 102.816 189.544C102.957 189.452 103.114 189.405 103.285 189.405C103.478 189.405 103.648 189.461 103.795 189.57C103.943 189.677 104.055 189.828 104.129 190.02L104.129 190.02Z" fill="black"/>
<path d="M109.597 188.561V189.483H110.516V190.224H109.597V191.597C109.597 191.747 109.622 191.85 109.672 191.904C109.724 191.956 109.826 191.982 109.981 191.982H110.438V192.723H109.676C109.323 192.723 109.074 192.638 108.928 192.467C108.781 192.297 108.708 192.007 108.708 191.597V190.224H108.266V189.483H108.708V188.561L109.597 188.561Z" fill="black"/>
<path d="M113.856 190.748V192.723H112.963V191.22C112.963 190.934 112.957 190.739 112.945 190.635C112.935 190.529 112.916 190.451 112.889 190.402C112.854 190.332 112.807 190.279 112.748 190.241C112.688 190.205 112.619 190.185 112.543 190.185C112.359 190.185 112.214 190.269 112.108 190.436C112.001 190.604 111.948 190.835 111.948 191.129V192.723H111.059V188.223H111.948V189.956C112.082 189.768 112.224 189.63 112.376 189.54C112.526 189.451 112.693 189.406 112.874 189.406C113.196 189.406 113.44 189.521 113.607 189.752C113.773 189.981 113.856 190.313 113.856 190.748L113.856 190.748Z" fill="black"/>
<path d="M117.461 191.094V191.389H115.382C115.401 191.631 115.476 191.813 115.605 191.935C115.733 192.056 115.915 192.116 116.148 192.116C116.334 192.116 116.525 192.085 116.721 192.021C116.919 191.958 117.121 191.86 117.327 191.727V192.528C117.116 192.621 116.905 192.69 116.695 192.736C116.487 192.781 116.276 192.805 116.066 192.805C115.562 192.805 115.171 192.657 114.891 192.359C114.612 192.062 114.474 191.644 114.474 191.107C114.474 190.579 114.61 190.163 114.883 189.86C115.158 189.557 115.536 189.406 116.018 189.406C116.454 189.406 116.804 189.559 117.067 189.865C117.329 190.171 117.461 190.581 117.461 191.094H117.461ZM116.546 190.748C116.546 190.552 116.496 190.395 116.397 190.276C116.298 190.155 116.168 190.094 116.01 190.094C115.839 190.094 115.699 190.15 115.59 190.263C115.483 190.376 115.416 190.538 115.389 190.748L116.546 190.748Z" fill="black"/>
<path d="M119.946 188.405H121.014L122.365 191.367V188.405H123.269V192.723H122.201L120.85 189.76V192.723H119.946V188.405Z" fill="black"/>
<path d="M125.489 190.146C125.29 190.146 125.139 190.228 125.035 190.393C124.933 190.557 124.882 190.796 124.882 191.107C124.882 191.417 124.933 191.653 125.035 191.818C125.139 191.982 125.29 192.064 125.489 192.064C125.682 192.064 125.829 191.982 125.931 191.818C126.036 191.653 126.088 191.417 126.088 191.107C126.088 190.796 126.036 190.557 125.931 190.393C125.829 190.228 125.682 190.146 125.489 190.146ZM125.489 189.406C125.967 189.406 126.341 189.556 126.609 189.856C126.878 190.157 127.014 190.574 127.014 191.107C127.014 191.639 126.878 192.055 126.609 192.355C126.341 192.656 125.967 192.805 125.489 192.805C125.007 192.805 124.631 192.656 124.362 192.355C124.091 192.055 123.956 191.639 123.956 191.107C123.956 190.574 124.091 190.157 124.362 189.856C124.631 189.556 125.007 189.406 125.489 189.406Z" fill="black"/>
<path d="M127.631 191.463V189.484H128.524V189.808C128.524 189.982 128.522 190.201 128.52 190.467V190.999C128.52 191.259 128.525 191.447 128.535 191.562C128.547 191.678 128.568 191.761 128.598 191.813C128.632 191.88 128.68 191.932 128.739 191.969C128.799 192.004 128.867 192.021 128.944 192.021C129.127 192.021 129.272 191.939 129.379 191.774C129.485 191.608 129.539 191.376 129.539 191.082V189.484H130.428V192.723H129.539V192.255C129.405 192.444 129.262 192.582 129.111 192.671C128.963 192.76 128.797 192.805 128.617 192.805C128.294 192.805 128.048 192.692 127.88 192.463C127.714 192.232 127.631 191.899 127.631 191.463L127.631 191.463Z" fill="black"/>
<path d="M134.082 190.748V192.723H133.189V191.211C133.189 190.932 133.182 190.739 133.17 190.635C133.16 190.529 133.142 190.451 133.115 190.402C133.079 190.332 133.033 190.279 132.973 190.241C132.914 190.205 132.845 190.185 132.769 190.185C132.584 190.185 132.439 190.269 132.333 190.436C132.226 190.604 132.173 190.835 132.173 191.129V192.723H131.284V189.483H132.173V189.955C132.307 189.768 132.45 189.629 132.601 189.54C132.752 189.451 132.918 189.405 133.1 189.405C133.421 189.405 133.666 189.521 133.833 189.752C133.998 189.98 134.082 190.313 134.082 190.748L134.082 190.748Z" fill="black"/>
<path d="M136.72 188.405H138.304C138.778 188.405 139.141 188.528 139.394 188.773C139.647 189.016 139.774 189.362 139.774 189.812C139.774 190.266 139.647 190.616 139.394 190.86C139.141 191.103 138.778 191.224 138.304 191.224H137.676V192.723H136.72V188.405ZM137.676 189.211V190.419H138.204C138.39 190.419 138.532 190.367 138.632 190.263C138.733 190.157 138.784 190.006 138.784 189.812C138.784 189.62 138.733 189.47 138.632 189.366C138.532 189.262 138.39 189.211 138.204 189.211H137.676Z" fill="black"/>
<path d="M142.477 190.367C142.397 190.324 142.319 190.292 142.242 190.272C142.165 190.252 142.088 190.241 142.012 190.241C141.783 190.241 141.607 190.327 141.483 190.497C141.359 190.668 141.297 190.912 141.297 191.229V192.723H140.408V189.483H141.297V190.016C141.411 189.803 141.543 189.648 141.692 189.553C141.84 189.455 142.017 189.405 142.224 189.405C142.253 189.405 142.285 189.408 142.32 189.41C142.355 189.413 142.406 189.418 142.473 189.427L142.477 190.367Z" fill="black"/>
<path d="M144.243 190.146C144.044 190.146 143.893 190.228 143.789 190.393C143.687 190.557 143.637 190.796 143.637 191.107C143.637 191.417 143.687 191.653 143.789 191.818C143.893 191.982 144.044 192.064 144.243 192.064C144.436 192.064 144.583 191.982 144.686 191.818C144.79 191.653 144.842 191.417 144.842 191.107C144.842 190.796 144.79 190.557 144.686 190.393C144.583 190.228 144.436 190.146 144.243 190.146ZM144.243 189.406C144.721 189.406 145.095 189.556 145.363 189.856C145.633 190.157 145.768 190.574 145.768 191.107C145.768 191.639 145.633 192.055 145.363 192.355C145.095 192.656 144.721 192.805 144.243 192.805C143.761 192.805 143.385 192.656 143.116 192.355C142.845 192.055 142.71 191.639 142.71 191.107C142.71 190.574 142.845 190.157 143.116 189.856C143.385 189.556 143.761 189.406 144.243 189.406Z" fill="black"/>
<path d="M146.415 189.483H147.304V192.666C147.304 193.099 147.215 193.429 147.036 193.658C146.857 193.885 146.598 194 146.258 194H145.819V193.32H145.972C146.14 193.32 146.256 193.275 146.318 193.186C146.382 193.099 146.415 192.926 146.415 192.666L146.415 189.483ZM146.415 188.223H147.304V189.068H146.415V188.223Z" fill="black"/>
<path d="M150.939 191.094V191.389H148.859C148.879 191.631 148.953 191.813 149.082 191.935C149.211 192.056 149.392 192.116 149.625 192.116C149.811 192.116 150.002 192.085 150.198 192.021C150.396 191.958 150.598 191.86 150.805 191.727V192.528C150.594 192.621 150.383 192.69 150.172 192.736C149.964 192.781 149.754 192.805 149.544 192.805C149.039 192.805 148.648 192.657 148.368 192.359C148.09 192.062 147.951 191.644 147.951 191.107C147.951 190.579 148.087 190.163 148.361 189.86C148.636 189.557 149.013 189.406 149.495 189.406C149.931 189.406 150.281 189.559 150.544 189.865C150.807 190.171 150.939 190.581 150.939 191.094H150.939ZM150.024 190.748C150.024 190.552 149.973 190.395 149.875 190.276C149.775 190.155 149.646 190.094 149.488 190.094C149.317 190.094 149.176 190.15 149.067 190.263C148.96 190.376 148.893 190.538 148.866 190.748L150.024 190.748Z" fill="black"/>
<path d="M153.858 189.583V190.428C153.739 190.332 153.617 190.262 153.494 190.215C153.372 190.17 153.246 190.146 153.118 190.146C152.867 190.146 152.672 190.232 152.534 190.402C152.397 190.569 152.329 190.804 152.329 191.107C152.329 191.408 152.397 191.643 152.534 191.813C152.672 191.981 152.867 192.064 153.118 192.064C153.256 192.064 153.388 192.042 153.512 191.995C153.639 191.946 153.754 191.874 153.858 191.779V192.627C153.719 192.688 153.577 192.732 153.434 192.762C153.293 192.79 153.149 192.805 153.006 192.805C152.502 192.805 152.11 192.657 151.827 192.359C151.544 192.059 151.403 191.642 151.403 191.107C151.403 190.574 151.544 190.157 151.827 189.856C152.11 189.556 152.502 189.406 153.006 189.406C153.149 189.406 153.293 189.422 153.434 189.453C153.577 189.482 153.719 189.526 153.858 189.583V189.583Z" fill="black"/>
<path d="M155.598 188.561V189.483H156.517V190.224H155.598V191.597C155.598 191.747 155.623 191.85 155.673 191.904C155.725 191.956 155.827 191.982 155.982 191.982H156.439V192.723H155.677C155.324 192.723 155.075 192.638 154.929 192.467C154.782 192.297 154.709 192.007 154.709 191.597V190.224H154.267V189.483H154.709V188.561L155.598 188.561Z" fill="black"/>
<rect width="281" height="186" fill="#F7FBFF"/>
<path d="M109.632 161.846H166.641C171.561 161.846 175.564 157.185 175.564 151.458V31.3878C175.564 25.6607 171.561 21 166.641 21H109.632C104.706 21 100.699 25.6607 100.699 31.3878V50.3969H100.002C98.3289 50.3969 96.9682 51.9819 96.9682 53.9296V62.3992C96.9682 64.3469 98.3299 65.9319 100.002 65.9319H100.699V70.493H100.002C98.3289 70.493 96.9682 72.0781 96.9682 74.0257V82.4953C96.9682 84.443 98.3299 86.028 100.002 86.028H100.699V151.459C100.699 157.184 104.702 161.845 109.632 161.845V161.846ZM109.632 23.3697H166.641C170.439 23.3697 173.529 26.9672 173.529 31.3878V151.458C173.529 155.879 170.439 159.476 166.641 159.476L109.623 159.475C105.824 159.475 102.734 155.877 102.734 151.457C102.74 39.8151 102.739 54.4102 102.734 31.3868C102.734 26.9664 105.829 23.3697 109.633 23.3697L109.632 23.3697ZM100.002 63.5602C99.4517 63.5602 99.0034 63.0384 99.0034 62.3975V53.9278C99.0034 53.2869 99.4507 52.7651 100.002 52.7651H100.699V63.5601L100.002 63.5602ZM100.002 83.6552C99.4517 83.6552 99.0034 83.1334 99.0034 82.4925V74.0228C99.0034 73.3819 99.4507 72.8601 100.002 72.8601H100.699V83.6551L100.002 83.6552Z" fill="black"/>
<path d="M107.477 144.607H168.796C169.065 144.607 169.325 144.482 169.516 144.259C169.706 144.037 169.813 143.735 169.813 143.42V82.5784V39.4223C169.813 38.7673 169.357 38.2379 168.796 38.2379L107.477 38.2368C106.916 38.2368 106.46 38.7662 106.46 39.4212V143.419C106.46 144.075 106.916 144.605 107.477 144.605V144.607ZM167.777 40.6061C167.777 43.1806 167.777 21.6361 167.776 142.237H108.496V40.6061H167.777Z" fill="black"/>
<path d="M138.121 147.508C135.973 147.508 134.225 149.543 134.225 152.043C134.225 154.545 135.973 156.579 138.121 156.579C140.286 156.579 142.047 154.544 142.047 152.043C142.047 149.543 140.285 147.508 138.121 147.508ZM138.121 154.21C137.095 154.21 136.26 153.238 136.26 152.044C136.26 150.849 137.095 149.877 138.121 149.877C139.181 149.877 140.012 150.828 140.012 152.044C140.011 153.258 139.181 154.21 138.121 154.21Z" fill="black"/>
<path d="M148.248 29.6224H150.681V31.9924H148.248V29.6224Z" fill="black"/>
<path d="M131.647 29.6224H144.621V31.9924H131.647V29.6224Z" fill="black"/>
<path d="M119.402 84.0228H130.364C130.925 84.0228 131.381 83.4933 131.381 82.8384V70.0772C131.381 69.4222 130.925 68.8928 130.364 68.8928H119.402C118.84 68.8928 118.384 69.4222 118.384 70.0772L118.383 82.8384C118.383 83.4934 118.839 84.0228 119.402 84.0228ZM120.419 71.2616H129.345V81.6528H120.419V71.2616Z" fill="black"/>
<path d="M126.483 73.4104H123.284C122.722 73.4104 122.267 73.9398 122.267 74.5948V78.3181C122.267 78.9731 122.722 79.5025 123.284 79.5025H126.483C127.044 79.5025 127.5 78.9731 127.5 78.3181V74.5948C127.501 73.9398 127.045 73.4104 126.483 73.4104ZM125.465 77.1337H124.303V75.7804H125.465V77.1337Z" fill="black"/>
<path d="M145.909 84.0228H156.871C157.433 84.0228 157.889 83.4933 157.889 82.8384V70.0772C157.889 69.4222 157.433 68.8928 156.871 68.8928H145.909C145.348 68.8928 144.892 69.4222 144.892 70.0772V82.8384C144.892 83.4934 145.348 84.0228 145.909 84.0228ZM146.927 71.2616H155.853V81.6528H146.927V71.2616Z" fill="black"/>
<path d="M152.988 73.4104H149.79C149.228 73.4104 148.772 73.9398 148.772 74.5948V78.3181C148.772 78.9731 149.228 79.5025 149.79 79.5025H152.988C153.55 79.5025 154.006 78.9731 154.006 78.3181V74.5948C154.007 73.9398 153.551 73.4104 152.988 73.4104ZM151.971 77.1337H150.808V75.7804H151.971V77.1337Z" fill="black"/>
<path d="M119.402 114.857H130.364C130.925 114.857 131.381 114.327 131.381 113.672V100.912C131.381 100.257 130.925 99.7277 130.364 99.7277H119.402C118.84 99.7277 118.384 100.257 118.384 100.912V113.672C118.383 114.327 118.839 114.857 119.402 114.857ZM120.419 102.096H129.345V112.487H120.419V102.096Z" fill="black"/>
<path d="M126.483 104.247H123.284C122.722 104.247 122.267 104.776 122.267 105.431V109.153C122.267 109.808 122.722 110.338 123.284 110.338H126.483C127.044 110.338 127.5 109.808 127.5 109.153L127.501 105.431C127.501 104.776 127.045 104.247 126.483 104.247H126.483ZM125.465 107.969H124.303V106.617H125.465V107.969Z" fill="black"/>
<path d="M156.872 105.198H150.608C150.047 105.198 149.591 105.727 149.591 106.382V113.673C149.591 114.328 150.047 114.857 150.608 114.857H156.872C157.433 114.857 157.889 114.328 157.889 113.673V106.382C157.889 105.728 157.433 105.198 156.872 105.198ZM155.854 112.488H151.626V107.568H155.854V112.488Z" fill="black"/>
<path d="M139.44 107.972V102.429C139.44 101.774 138.984 101.244 138.423 101.244H133.661C133.099 101.244 132.643 101.774 132.643 102.429V107.972C132.643 108.627 133.099 109.156 133.661 109.156H138.423C138.984 109.156 139.44 108.627 139.44 107.972ZM137.404 106.788H134.678V103.614H137.404V106.788Z" fill="black"/>
<path d="M156.872 85.4335H152.11C151.548 85.4335 151.092 85.9629 151.092 86.6179V92.161C151.092 92.816 151.548 93.3454 152.11 93.3454H156.872C157.433 93.3454 157.889 92.816 157.889 92.161V86.6179C157.889 85.9629 157.433 85.4335 156.872 85.4335ZM155.854 90.9766H153.128V87.8034H155.854V90.9766Z" fill="black"/>
<path d="M134.84 85.6857H136.876V71.2594H137.815C138.377 71.2594 138.833 70.73 138.833 70.075C138.833 69.4201 138.377 68.8906 137.815 68.8906H133.901V71.2605H134.84L134.84 85.6857Z" fill="black"/>
<path d="M141.095 69.1726H143.131V70.9795H141.095V69.1726Z" fill="black"/>
<path d="M141.095 77.881H143.131V79.689H141.095V77.881Z" fill="black"/>
<path d="M118.385 91.8746H120.421V93.6816H118.385V91.8746Z" fill="black"/>
<path d="M122.923 96.5557H124.959V98.3626H122.923V96.5557Z" fill="black"/>
<path d="M146.074 108.221H148.11V110.028H146.074V108.221Z" fill="black"/>
<path d="M139.224 81.6531H142.891V84.023H139.224V81.6531Z" fill="black"/>
<path d="M147.369 87.2544H149.405V91.5221H147.369V87.2544Z" fill="black"/>
<path d="M139.197 75.0095H141.233V76.8164H139.197V75.0095Z" fill="black"/>
<path d="M134.338 112.487H146.637V114.857H134.338V112.487Z" fill="black"/>
<path d="M147.705 105.173V102.803H142.609C142.047 102.803 141.591 103.332 141.591 103.987V110.027H143.627V105.172L147.705 105.173Z" fill="black"/>
<path d="M135.131 98.8675C135.131 99.5225 135.586 100.052 136.148 100.052H139.477V97.682H137.165V94.5326H140.485V92.1627L124.96 92.1638V88.2512H126.253V89.8849H128.289V87.0667C128.289 86.4117 127.833 85.8823 127.271 85.8823H119.403V88.2522H122.924V93.3505C122.924 94.0055 123.38 94.5349 123.941 94.5349H135.129L135.131 98.8675Z" fill="black"/>
<path d="M143.105 97.1572C143.105 97.8122 143.56 98.3416 144.122 98.3416H148.897V101.412H150.933V98.3416H156.872C157.433 98.3416 157.889 97.8122 157.889 97.1572C157.889 96.5022 157.433 95.9728 156.872 95.9728H145.14V88.9172C145.14 88.2622 144.685 87.7328 144.123 87.7328L131.511 87.7317V90.1016H143.104L143.105 97.1572Z" fill="black"/>
<path d="M186.546 36.0595H178.769V38.4294H185.528V49.718H178.769V52.0879H186.546C187.108 52.0879 187.564 51.5585 187.564 50.9035V37.2439C187.564 36.5899 187.108 36.0594 186.546 36.0594V36.0595Z" fill="black"/>
<path d="M177.948 42.0778V46.0631C177.948 46.7181 178.404 47.2475 178.966 47.2475H182.389C182.95 47.2475 183.406 46.7181 183.406 46.0631V42.0778C183.406 41.4228 182.95 40.8934 182.389 40.8934H178.966C178.404 40.8934 177.948 41.4239 177.948 42.0778ZM179.984 43.2633H181.371V44.8786H179.984V43.2633Z" fill="black"/>
<path d="M215.93 37.2419C215.93 36.5869 215.475 36.0575 214.913 36.0575H203.181C202.619 36.0575 202.163 36.5869 202.163 37.2419V50.8983C202.163 51.5533 202.619 52.0827 203.181 52.0827H214.913C215.475 52.0827 215.93 51.5532 215.93 50.8983V37.2419ZM213.894 49.714H204.198V38.4273H213.894V49.714Z" fill="black"/>
<path d="M207.335 47.2469H210.758C211.319 47.2469 211.775 46.7174 211.775 46.0625V42.0772C211.775 41.4222 211.319 40.8928 210.758 40.8928H207.335C206.773 40.8928 206.317 41.4222 206.317 42.0772V46.0625C206.317 46.7175 206.773 47.2469 207.335 47.2469ZM208.352 43.2627H209.739V44.878H208.352V43.2627Z" fill="black"/>
<path d="M178.767 82.7119V85.0818H186.545C187.107 85.0818 187.562 84.5524 187.562 83.8974V70.2377C187.562 69.5827 187.107 69.0533 186.545 69.0533H178.767V71.4233H185.526V82.713L178.767 82.7119Z" fill="black"/>
<path d="M177.948 79.0643C177.948 79.7193 178.404 80.2487 178.966 80.2487H182.389C182.95 80.2487 183.406 79.7193 183.406 79.0643L183.407 75.0802C183.407 74.4252 182.951 73.8958 182.39 73.8958H178.967C178.405 73.8958 177.949 74.4252 177.949 75.0802L177.948 79.0643ZM179.984 76.2644H181.371V77.8787H179.984V76.2644Z" fill="black"/>
<path d="M214.911 74.9126H208.208C207.646 74.9126 207.191 75.442 207.191 76.097V83.8995C207.191 84.5545 207.646 85.0839 208.208 85.0839H214.911C215.473 85.0839 215.929 84.5545 215.929 83.8995V76.097C215.929 75.4431 215.473 74.9126 214.911 74.9126ZM213.893 82.7151H209.225V77.2815H213.893V82.7151Z" fill="black"/>
<path d="M196.185 77.7979V71.8651C196.185 71.2101 195.729 70.6807 195.167 70.6807H190.07C189.508 70.6807 189.053 71.2101 189.053 71.8651V77.7979C189.053 78.4529 189.508 78.9823 190.07 78.9823H195.167C195.729 78.9834 196.185 78.4529 196.185 77.7979ZM194.15 76.6135H191.089V73.0495H194.15V76.6135Z" fill="black"/>
<path d="M214.911 53.7599H209.814C209.253 53.7599 208.797 54.2893 208.797 54.9443V60.8771C208.797 61.5321 209.253 62.0615 209.814 62.0615H214.911C215.473 62.0615 215.929 61.5321 215.929 60.8771V54.9443C215.929 54.2904 215.473 53.7599 214.911 53.7599ZM213.893 59.6927H210.832V56.1287H213.893V59.6927Z" fill="black"/>
<path d="M193.442 53.9484V38.4276H194.518C195.08 38.4276 195.535 37.8982 195.535 37.2432C195.535 36.5883 195.08 36.0588 194.518 36.0588H190.329V38.4288H191.405V53.9507L193.442 53.9484Z" fill="black"/>
<path d="M198.099 36.275H200.135V38.2097H198.099V36.275Z" fill="black"/>
<path d="M198.099 45.595H200.135V47.5286H198.099V45.595Z" fill="black"/>
<path d="M178.653 65.5807H180.689V67.5154H178.653V65.5807Z" fill="black"/>
<path d="M203.43 78.0638H205.466V79.9985H203.43V78.0638Z" fill="black"/>
<path d="M196.025 49.7134H199.949V52.0833H196.025V49.7134Z" fill="black"/>
<path d="M204.816 55.6279H206.852V60.1955H204.816V55.6279Z" fill="black"/>
<path d="M196.068 42.5212H198.104V44.4559H196.068V42.5212Z" fill="black"/>
<path d="M190.794 82.7146H203.956V85.0845H190.794V82.7146Z" fill="black"/>
<path d="M205.101 74.7185V72.3486H199.648C199.086 72.3486 198.63 72.8781 198.63 73.533V79.9986H200.666V74.7173L205.101 74.7185Z" fill="black"/>
<path d="M184.249 58.4468V55.4252C184.249 54.7702 183.793 54.2408 183.231 54.2408H178.768V56.6108H182.214V58.448L184.249 58.4468Z" fill="black"/>
<path d="M179.67 63.3329H191.715V68.0543C191.715 68.7093 192.171 69.2387 192.733 69.2387H196.296V66.8688H193.751V63.3317H197.376V60.9618L179.67 60.9629L179.67 63.3329Z" fill="black"/>
<path d="M187.77 58.5907H200.25V66.2245C200.25 66.8795 200.706 67.4089 201.267 67.4089H206.449V70.778H208.485V67.4089H214.912C215.474 67.4089 215.929 66.8794 215.929 66.2245C215.929 65.5695 215.474 65.0401 214.912 65.0401H202.285V57.4063C202.285 56.7513 201.829 56.2219 201.268 56.2219L187.77 56.2208L187.77 58.5907Z" fill="black"/>
<path d="M222.176 89.5104V30.6727C222.176 30.0177 221.72 29.4883 221.158 29.4883H178.757V31.8582H220.139V88.3262H178.769V90.6961H221.158C221.72 90.695 222.176 90.1656 222.176 89.5106V89.5104Z" fill="black"/>
<path d="M96.311 186.56C96.137 186.667 95.9547 186.747 95.7641 186.798C95.5725 186.853 95.3744 186.881 95.1688 186.881C94.5485 186.881 94.0574 186.68 93.6956 186.279C93.3356 185.878 93.1561 185.333 93.1561 184.642C93.1561 183.952 93.3356 183.407 93.6956 183.005C94.0574 182.604 94.5485 182.403 95.1688 182.403C95.3744 182.403 95.5725 182.431 95.7641 182.485C95.9547 182.537 96.137 182.617 96.311 182.723V183.616C96.1343 183.475 95.9594 183.372 95.7864 183.308C95.6153 183.242 95.4339 183.208 95.2433 183.208C94.9028 183.208 94.635 183.336 94.4397 183.59C94.2434 183.844 94.1457 184.195 94.1457 184.642C94.1457 185.09 94.2434 185.441 94.4397 185.694C94.635 185.949 94.9028 186.075 95.2433 186.075C95.4339 186.075 95.6153 186.044 95.7864 185.98C95.9594 185.914 96.1343 185.81 96.311 185.668V186.56Z" fill="black"/>
<path d="M99.1347 184.443C99.0548 184.399 98.9766 184.368 98.9004 184.347C98.8232 184.328 98.746 184.317 98.6697 184.317C98.4409 184.317 98.2651 184.403 98.1414 184.573C98.0168 184.744 97.9554 184.987 97.9554 185.305V186.799H97.0662V183.559H97.9554V184.092C98.0689 183.879 98.2009 183.724 98.3497 183.628C98.4985 183.531 98.6753 183.481 98.8817 183.481C98.9115 183.481 98.9431 183.483 98.9785 183.486C99.0129 183.489 99.064 183.494 99.131 183.503L99.1347 184.443Z" fill="black"/>
<path d="M102.355 185.17V185.465H100.275C100.295 185.707 100.369 185.889 100.498 186.01C100.627 186.132 100.808 186.192 101.042 186.192C101.228 186.192 101.418 186.161 101.614 186.097C101.813 186.034 102.014 185.936 102.221 185.802V186.604C102.01 186.697 101.799 186.766 101.588 186.811C101.38 186.857 101.17 186.881 100.96 186.881C100.456 186.881 100.064 186.732 99.7841 186.435C99.506 186.138 99.3674 185.72 99.3674 185.183C99.3674 184.655 99.5032 184.239 99.7767 183.936C100.052 183.633 100.43 183.481 100.911 183.481C101.348 183.481 101.697 183.635 101.96 183.94C102.223 184.247 102.355 184.657 102.355 185.17H102.355ZM101.44 184.824C101.44 184.628 101.389 184.471 101.291 184.352C101.191 184.23 101.062 184.17 100.904 184.17C100.733 184.17 100.592 184.226 100.484 184.339C100.377 184.451 100.31 184.614 100.283 184.824L101.44 184.824Z" fill="black"/>
<path d="M104.274 185.339C104.088 185.339 103.947 185.377 103.853 185.452C103.761 185.524 103.716 185.632 103.716 185.776C103.716 185.906 103.753 186.009 103.827 186.084C103.903 186.156 104.009 186.192 104.143 186.192C104.309 186.192 104.449 186.123 104.564 185.984C104.677 185.846 104.735 185.671 104.735 185.46V185.339L104.274 185.339ZM105.635 184.949V186.798H104.735V186.318C104.616 186.515 104.482 186.658 104.333 186.746C104.184 186.835 104.003 186.881 103.79 186.881C103.502 186.881 103.267 186.784 103.087 186.591C102.908 186.395 102.819 186.14 102.819 185.828C102.819 185.447 102.931 185.169 103.154 184.993C103.379 184.814 103.732 184.724 104.214 184.724H104.735V184.642C104.735 184.48 104.679 184.362 104.568 184.287C104.458 184.209 104.286 184.17 104.05 184.17C103.859 184.17 103.682 184.194 103.518 184.239C103.355 184.282 103.202 184.347 103.061 184.434V183.646C103.251 183.592 103.442 183.55 103.634 183.525C103.827 183.496 104.021 183.481 104.214 183.481C104.714 183.481 105.077 183.597 105.3 183.828C105.524 184.056 105.635 184.43 105.635 184.949L105.635 184.949Z" fill="black"/>
<path d="M107.433 182.637V183.559H108.352V184.3H107.433V185.672C107.433 185.823 107.457 185.926 107.507 185.98C107.56 186.032 107.662 186.058 107.816 186.058H108.274V186.798H107.511C107.159 186.798 106.909 186.714 106.763 186.543C106.616 186.373 106.544 186.083 106.544 185.672V184.3H106.101V183.559H106.544V182.637L107.433 182.637Z" fill="black"/>
<path d="M111.673 185.17V185.465H109.594C109.613 185.707 109.688 185.889 109.817 186.01C109.945 186.132 110.127 186.192 110.36 186.192C110.546 186.192 110.737 186.161 110.933 186.097C111.131 186.034 111.333 185.936 111.539 185.802V186.604C111.328 186.697 111.117 186.766 110.907 186.811C110.699 186.857 110.488 186.881 110.278 186.881C109.774 186.881 109.383 186.732 109.103 186.435C108.824 186.138 108.686 185.72 108.686 185.183C108.686 184.655 108.822 184.239 109.095 183.936C109.37 183.633 109.748 183.481 110.23 183.481C110.666 183.481 111.016 183.635 111.279 183.94C111.541 184.247 111.673 184.657 111.673 185.17H111.673ZM110.758 184.824C110.758 184.628 110.708 184.471 110.609 184.352C110.51 184.23 110.381 184.17 110.222 184.17C110.051 184.17 109.911 184.226 109.802 184.339C109.695 184.451 109.628 184.614 109.601 184.824L110.758 184.824Z" fill="black"/>
<path d="M114.239 184.031V182.299H115.132V186.798H114.239V186.33C114.115 186.521 113.98 186.662 113.834 186.751C113.687 186.837 113.516 186.88 113.321 186.88C112.978 186.88 112.696 186.723 112.476 186.408C112.255 186.091 112.145 185.683 112.145 185.183C112.145 184.684 112.255 184.276 112.476 183.957C112.696 183.64 112.978 183.481 113.321 183.481C113.514 183.481 113.683 183.526 113.83 183.615C113.979 183.705 114.115 183.844 114.239 184.031L114.239 184.031ZM113.652 186.131C113.842 186.131 113.987 186.051 114.087 185.889C114.188 185.724 114.239 185.489 114.239 185.183C114.239 184.874 114.188 184.64 114.087 184.477C113.987 184.316 113.842 184.235 113.652 184.235C113.463 184.235 113.318 184.316 113.216 184.477C113.117 184.639 113.068 184.874 113.068 185.183C113.068 185.489 113.117 185.724 113.216 185.889C113.318 186.051 113.463 186.131 113.652 186.131Z" fill="black"/>
<path d="M119.241 186.132C119.432 186.132 119.577 186.052 119.677 185.889C119.778 185.725 119.829 185.49 119.829 185.183C119.829 184.875 119.778 184.64 119.677 184.477C119.577 184.316 119.432 184.235 119.241 184.235C119.05 184.235 118.904 184.316 118.802 184.477C118.7 184.64 118.65 184.875 118.65 185.183C118.65 185.49 118.7 185.725 118.802 185.889C118.904 186.052 119.05 186.132 119.241 186.132ZM118.65 184.031C118.771 183.844 118.907 183.705 119.055 183.616C119.206 183.527 119.379 183.481 119.572 183.481C119.915 183.481 120.196 183.64 120.417 183.958C120.637 184.276 120.748 184.684 120.748 185.183C120.748 185.683 120.637 186.092 120.417 186.409C120.196 186.724 119.915 186.881 119.572 186.881C119.379 186.881 119.206 186.835 119.055 186.747C118.907 186.658 118.771 186.519 118.65 186.331V186.799H117.761V182.299H118.65V184.031Z" fill="black"/>
<path d="M121.039 183.559H121.928L122.676 185.759L123.312 183.559H124.202L123.03 187.106C122.912 187.466 122.777 187.718 122.62 187.859C122.464 188.003 122.257 188.076 121.999 188.076H121.486V187.396H121.765C121.915 187.396 122.025 187.368 122.092 187.314C122.161 187.259 122.215 187.158 122.252 187.011L122.278 186.924L121.039 183.559Z" fill="black"/>
<path d="M126.091 182.481H127.051L128.037 185.668L129.019 182.481H129.979L128.606 186.799H127.464L126.091 182.481Z" fill="black"/>
<path d="M133.21 185.17V185.465H131.131C131.15 185.707 131.225 185.889 131.354 186.01C131.482 186.132 131.664 186.192 131.897 186.192C132.083 186.192 132.274 186.161 132.47 186.097C132.668 186.034 132.87 185.936 133.076 185.802V186.604C132.865 186.697 132.654 186.766 132.444 186.811C132.236 186.857 132.025 186.881 131.815 186.881C131.311 186.881 130.92 186.732 130.64 186.435C130.362 186.138 130.223 185.72 130.223 185.183C130.223 184.655 130.359 184.239 130.632 183.936C130.908 183.633 131.285 183.481 131.767 183.481C132.203 183.481 132.553 183.635 132.816 183.94C133.078 184.247 133.21 184.657 133.21 185.17H133.21ZM132.295 184.824C132.295 184.628 132.245 184.471 132.146 184.352C132.047 184.23 131.918 184.17 131.759 184.17C131.588 184.17 131.448 184.226 131.339 184.339C131.232 184.451 131.165 184.614 131.138 184.824L132.295 184.824Z" fill="black"/>
<path d="M136.13 183.659V184.503C136.011 184.408 135.889 184.338 135.765 184.291C135.643 184.246 135.518 184.222 135.389 184.222C135.138 184.222 134.944 184.307 134.805 184.477C134.669 184.645 134.601 184.88 134.601 185.183C134.601 185.484 134.669 185.719 134.805 185.889C134.944 186.057 135.138 186.14 135.389 186.14C135.528 186.14 135.659 186.117 135.784 186.071C135.91 186.022 136.026 185.95 136.13 185.854V186.703C135.99 186.764 135.849 186.808 135.706 186.837C135.564 186.866 135.421 186.881 135.278 186.881C134.774 186.881 134.381 186.732 134.098 186.435C133.816 186.135 133.674 185.718 133.674 185.183C133.674 184.649 133.816 184.233 134.098 183.932C134.381 183.632 134.774 183.481 135.278 183.481C135.421 183.481 135.564 183.497 135.706 183.529C135.849 183.558 135.99 183.601 136.13 183.659V183.659Z" fill="black"/>
<path d="M137.871 182.637V183.559H138.79V184.3H137.871V185.672C137.871 185.823 137.895 185.926 137.945 185.98C137.997 186.032 138.1 186.058 138.254 186.058H138.712V186.798H137.949C137.597 186.798 137.347 186.714 137.201 186.543C137.054 186.373 136.982 186.083 136.982 185.672V184.3H136.539V183.559H136.982V182.637L137.871 182.637Z" fill="black"/>
<path d="M140.658 184.222C140.458 184.222 140.308 184.304 140.204 184.469C140.101 184.633 140.051 184.871 140.051 185.183C140.051 185.493 140.101 185.729 140.204 185.893C140.308 186.058 140.459 186.14 140.658 186.14C140.851 186.14 140.998 186.058 141.1 185.893C141.204 185.729 141.257 185.493 141.257 185.183C141.257 184.871 141.204 184.633 141.1 184.469C140.998 184.304 140.851 184.222 140.658 184.222ZM140.658 183.481C141.136 183.481 141.509 183.632 141.777 183.932C142.047 184.233 142.183 184.649 142.183 185.183C142.183 185.715 142.047 186.13 141.777 186.43C141.509 186.731 141.136 186.881 140.658 186.881C140.176 186.881 139.8 186.731 139.53 186.43C139.26 186.13 139.125 185.715 139.125 185.183C139.125 184.649 139.26 184.233 139.53 183.932C139.8 183.632 140.176 183.481 140.658 183.481Z" fill="black"/>
<path d="M144.898 184.443C144.818 184.399 144.74 184.368 144.663 184.347C144.586 184.328 144.509 184.317 144.433 184.317C144.204 184.317 144.028 184.403 143.904 184.573C143.78 184.744 143.718 184.987 143.718 185.305V186.799H142.829V183.559H143.718V184.092C143.832 183.879 143.964 183.724 144.113 183.628C144.261 183.531 144.438 183.481 144.645 183.481C144.674 183.481 144.706 183.483 144.741 183.486C144.776 183.489 144.827 183.494 144.894 183.503L144.898 184.443Z" fill="black"/>
<path d="M147.511 183.659V184.447C147.322 184.355 147.139 184.286 146.961 184.239C146.784 184.194 146.617 184.17 146.458 184.17C146.289 184.17 146.165 184.195 146.083 184.243C146.001 184.293 145.96 184.368 145.96 184.469C145.96 184.553 145.991 184.618 146.053 184.663C146.114 184.707 146.226 184.739 146.388 184.759L146.544 184.785C147 184.852 147.307 184.962 147.463 185.118C147.619 185.272 147.697 185.514 147.697 185.846C147.697 186.19 147.588 186.448 147.37 186.621C147.151 186.794 146.825 186.881 146.391 186.881C146.207 186.881 146.018 186.863 145.822 186.829C145.626 186.797 145.424 186.749 145.216 186.682V185.893C145.394 185.995 145.577 186.07 145.763 186.119C145.949 186.168 146.137 186.192 146.328 186.192C146.504 186.192 146.635 186.165 146.723 186.11C146.809 186.056 146.853 185.973 146.853 185.863C146.853 185.771 146.823 185.702 146.764 185.655C146.704 185.61 146.583 185.573 146.403 185.547L146.246 185.525C145.849 185.468 145.571 185.361 145.413 185.205C145.254 185.049 145.175 184.813 145.175 184.495C145.175 184.151 145.275 183.897 145.476 183.732C145.679 183.566 145.99 183.481 146.406 183.481C146.57 183.481 146.742 183.496 146.923 183.525C147.104 183.554 147.3 183.598 147.511 183.659L147.511 183.659Z" fill="black"/>
<path d="M150.181 182.481H151.766C152.239 182.481 152.603 182.604 152.856 182.849C153.109 183.092 153.235 183.438 153.235 183.888C153.235 184.342 153.109 184.692 152.856 184.936C152.603 185.179 152.239 185.3 151.766 185.3H151.137V186.799H150.181V182.481ZM151.137 183.286V184.495H151.665C151.851 184.495 151.993 184.443 152.093 184.339C152.194 184.233 152.245 184.082 152.245 183.888C152.245 183.696 152.194 183.546 152.093 183.442C151.993 183.338 151.851 183.286 151.665 183.286H151.137Z" fill="black"/>
<path d="M155.194 184.222C154.995 184.222 154.844 184.304 154.74 184.469C154.638 184.633 154.587 184.871 154.587 185.183C154.587 185.493 154.638 185.729 154.74 185.893C154.844 186.058 154.995 186.14 155.194 186.14C155.387 186.14 155.534 186.058 155.637 185.893C155.741 185.729 155.793 185.493 155.793 185.183C155.793 184.871 155.741 184.633 155.637 184.469C155.534 184.304 155.387 184.222 155.194 184.222ZM155.194 183.481C155.672 183.481 156.046 183.632 156.314 183.932C156.583 184.233 156.719 184.649 156.719 185.183C156.719 185.715 156.583 186.13 156.314 186.43C156.046 186.731 155.672 186.881 155.194 186.881C154.712 186.881 154.336 186.731 154.067 186.43C153.796 186.13 153.661 185.715 153.661 185.183C153.661 184.649 153.796 184.233 154.067 183.932C154.336 183.632 154.712 183.481 155.194 183.481Z" fill="black"/>
<path d="M157.366 183.559H158.255V186.798H157.366V183.559ZM157.366 182.299H158.255V183.143H157.366V182.299Z" fill="black"/>
<path d="M161.908 184.824V186.799H161.015V185.287C161.015 185.008 161.009 184.815 160.997 184.711C160.986 184.605 160.968 184.527 160.941 184.477C160.905 184.408 160.859 184.355 160.799 184.317C160.74 184.28 160.671 184.261 160.595 184.261C160.411 184.261 160.266 184.345 160.16 184.512C160.053 184.68 160 184.91 160 185.205V186.799H159.11V183.559H160V184.031C160.134 183.844 160.276 183.705 160.427 183.615C160.578 183.527 160.745 183.481 160.926 183.481C161.248 183.481 161.492 183.597 161.659 183.828C161.824 184.056 161.908 184.388 161.908 184.824L161.908 184.824Z" fill="black"/>
<path d="M163.704 182.637V183.559H164.623V184.3H163.704V185.672C163.704 185.823 163.728 185.926 163.778 185.98C163.831 186.032 163.933 186.058 164.087 186.058H164.545V186.798H163.782C163.43 186.798 163.18 186.714 163.034 186.543C162.887 186.373 162.815 186.083 162.815 185.672V184.3H162.372V183.559H162.815V182.637L163.704 182.637Z" fill="black"/>
<rect x="65" y="164" width="106" height="24" fill="#F7FBFF"/>
<rect x="65" y="164" width="106" height="24" fill="#F7FBFF"/>
<rect x="65" y="164" width="106" height="24" fill="#F7FBFF"/>
<path d="M222.937 132.667H208.063C207.476 132.667 207 132.172 207 131.563V116.105C207 115.495 207.476 115.001 208.063 115.001H222.937C223.524 115.001 224 115.495 224 116.105V131.563C224 132.172 223.524 132.667 222.937 132.667ZM209.125 130.459H221.875V117.209H209.125V130.459Z" fill="black"/>
<path d="M256.937 132.667H242.062C241.476 132.667 241 132.172 241 131.563V116.105C241 115.495 241.476 115 242.062 115H256.937C257.524 115 258 115.495 258 116.105V131.563C258 132.172 257.524 132.667 256.937 132.667ZM243.125 130.458H255.875V117.208H243.125V130.458Z" fill="black"/>
<path d="M222.937 168H208.063C207.476 168 207 167.505 207 166.896V151.438C207 150.828 207.476 150.333 208.063 150.333H222.937C223.524 150.333 224 150.828 224 151.438V166.896C224 167.505 223.524 168 222.937 168ZM209.125 165.792H221.875V152.542H209.125V165.792Z" fill="black"/>
<path d="M222.937 139.292C222.351 139.292 221.875 138.797 221.875 138.188V137.083H209.125C208.538 137.083 208.062 136.589 208.062 135.979C208.062 135.37 208.538 134.875 209.125 134.875H222.937C223.524 134.875 224 135.37 224 135.98V138.188C224 138.797 223.524 139.292 222.937 139.292H222.937Z" fill="black"/>
<path d="M221.875 148.125H208.063C207.476 148.125 207 147.63 207 147.021V144.813C207 144.203 207.476 143.708 208.063 143.708C208.649 143.708 209.125 144.203 209.125 144.813V145.917H221.875C222.462 145.917 222.938 146.411 222.938 147.021C222.938 147.63 222.462 148.125 221.875 148.125H221.875Z" fill="black"/>
<path d="M256.937 168H252.687C252.1 168 251.624 167.505 251.624 166.896C251.624 166.286 252.1 165.791 252.687 165.791L255.875 165.792V151.437C255.875 150.828 256.351 150.333 256.937 150.333C257.524 150.333 258 150.828 258 151.437V166.895C258 167.505 257.524 168 256.937 168V168Z" fill="black"/>
<path d="M227.188 166.896C226.601 166.896 226.125 166.401 226.125 165.792V151.437C226.125 150.828 226.601 150.333 227.188 150.333H229.312C229.899 150.333 230.375 150.828 230.375 151.437C230.375 152.047 229.899 152.542 229.312 152.542H228.25V165.792C228.25 166.401 227.774 166.895 227.188 166.895V166.896Z" fill="black"/>
<path d="M246.313 168H233.563C232.976 168 232.5 167.505 232.5 166.896C232.5 166.286 232.976 165.792 233.563 165.792H246.313C246.899 165.792 247.375 166.286 247.375 166.896C247.375 167.505 246.899 168 246.313 168Z" fill="black"/>
<path d="M237.812 163.583H231.437C230.85 163.583 230.374 163.088 230.374 162.479C230.374 161.869 230.85 161.375 231.437 161.375H237.812C238.399 161.375 238.875 161.869 238.875 162.479C238.875 163.088 238.399 163.583 237.812 163.583Z" fill="black"/>
<path d="M252.688 163.583H246.313C245.726 163.583 245.25 163.088 245.25 162.479C245.25 161.869 245.726 161.375 246.313 161.375H252.688C253.274 161.375 253.75 161.869 253.75 162.479C253.75 163.088 253.274 163.583 252.688 163.583Z" fill="black"/>
<path d="M250.562 152.542H246.312C245.725 152.542 245.249 152.047 245.249 151.438C245.249 150.828 245.725 150.333 246.312 150.333H250.562C251.149 150.333 251.625 150.828 251.625 151.438C251.625 152.047 251.149 152.542 250.562 152.542Z" fill="black"/>
<path d="M242.062 152.542H239.937C239.351 152.542 238.875 152.047 238.875 151.438C238.875 150.828 239.351 150.333 239.937 150.333H242.062C242.649 150.333 243.125 150.828 243.125 151.438C243.125 152.047 242.649 152.542 242.062 152.542Z" fill="black"/>
<path d="M235.687 152.542H233.562C232.976 152.542 232.5 152.047 232.5 151.438C232.5 150.828 232.976 150.333 233.562 150.333H235.687C236.274 150.333 236.75 150.828 236.75 151.438C236.75 152.047 236.274 152.542 235.687 152.542Z" fill="black"/>
<path d="M246.313 159.167C245.726 159.167 245.25 158.672 245.25 158.063V155.855C245.25 155.245 245.726 154.75 246.313 154.75C246.899 154.75 247.375 155.245 247.375 155.855V158.063C247.375 158.672 246.899 159.167 246.313 159.167Z" fill="black"/>
<path d="M252.688 159.167C252.101 159.167 251.625 158.672 251.625 158.063V155.855C251.625 155.245 252.101 154.75 252.688 154.75C253.274 154.75 253.75 155.245 253.75 155.855V158.063C253.75 158.672 253.274 159.167 252.688 159.167Z" fill="black"/>
<path d="M231.437 159.167C230.85 159.167 230.374 158.672 230.374 158.063V155.855C230.374 155.245 230.85 154.75 231.437 154.75C232.024 154.75 232.5 155.245 232.5 155.855V158.063C232.5 158.672 232.024 159.167 231.437 159.167Z" fill="black"/>
<path d="M237.812 159.167C237.225 159.167 236.749 158.672 236.749 158.063V155.855C236.749 155.245 237.225 154.75 237.812 154.75C238.399 154.75 238.875 155.245 238.875 155.855V158.063C238.875 158.672 238.399 159.167 237.812 159.167Z" fill="black"/>
<path d="M212.312 141.5H210.187C209.601 141.5 209.125 141.005 209.125 140.396C209.125 139.787 209.601 139.292 210.187 139.292H212.312C212.899 139.292 213.375 139.787 213.375 140.396C213.375 141.005 212.899 141.5 212.312 141.5Z" fill="black"/>
<path d="M218.687 143.708H216.562C215.976 143.708 215.5 143.213 215.5 142.604C215.5 141.995 215.976 141.5 216.562 141.5H218.687C219.274 141.5 219.75 141.995 219.75 142.604C219.75 143.213 219.274 143.708 218.687 143.708Z" fill="black"/>
<path d="M256.937 148.125H239.937C239.35 148.125 238.874 147.63 238.874 147.021C238.874 146.411 239.35 145.917 239.937 145.917H256.937C257.524 145.917 258 146.411 258 147.021C258 147.63 257.524 148.125 256.937 148.125Z" fill="black"/>
<path d="M256.937 137.083H239.937C239.35 137.083 238.874 136.589 238.874 135.979C238.874 135.37 239.35 134.875 239.937 134.875H256.937C257.524 134.875 258 135.37 258 135.979C258 136.589 257.524 137.083 256.937 137.083Z" fill="black"/>
<path d="M237.812 117.208H227.187C226.6 117.208 226.124 116.714 226.124 116.105C226.124 115.495 226.6 115 227.187 115H237.812C238.399 115 238.875 115.495 238.875 116.105C238.875 116.714 238.399 117.208 237.812 117.208Z" fill="black"/>
<path d="M227.188 132.667C226.601 132.667 226.125 132.172 226.125 131.563V120.521C226.125 119.912 226.601 119.417 227.188 119.417C227.774 119.417 228.25 119.912 228.25 120.521V131.563C228.25 132.172 227.774 132.667 227.188 132.667Z" fill="black"/>
<path d="M231.437 123.833C230.851 123.833 230.375 123.339 230.375 122.729V120.521C230.375 119.912 230.851 119.417 231.437 119.417C232.024 119.417 232.5 119.912 232.5 120.521V122.729C232.5 123.339 232.024 123.833 231.437 123.833Z" fill="black"/>
<path d="M233.563 130.458C232.976 130.458 232.5 129.963 232.5 129.354V127.146C232.5 126.536 232.976 126.042 233.563 126.042C234.149 126.042 234.625 126.536 234.625 127.146V129.354C234.625 129.963 234.149 130.458 233.563 130.458Z" fill="black"/>
<path d="M237.812 130.458C237.226 130.458 236.75 129.963 236.75 129.354V116.104C236.75 115.495 237.226 115 237.812 115C238.399 115 238.875 115.495 238.875 116.104V129.354C238.875 129.964 238.399 130.458 237.812 130.458Z" fill="black"/>
<path d="M248.437 147.021C247.851 147.021 247.375 146.526 247.375 145.916V142.604C247.375 141.994 247.851 141.5 248.437 141.5C249.024 141.5 249.5 141.994 249.5 142.604V145.917C249.5 146.526 249.024 147.021 248.437 147.021Z" fill="black"/>
<path d="M256.937 143.708C256.35 143.708 255.874 143.213 255.874 142.604V140.396C255.874 139.786 256.35 139.291 256.937 139.291C257.524 139.291 258 139.786 258 140.396V142.604C258 143.213 257.524 143.708 256.937 143.708Z" fill="black"/>
<path d="M239.938 143.708C239.351 143.708 238.875 143.213 238.875 142.604V140.396C238.875 139.786 239.351 139.291 239.938 139.291C240.524 139.291 241 139.786 241 140.396V142.604C241 143.213 240.524 143.708 239.938 143.708Z" fill="black"/>
<path d="M244.187 143.708C243.6 143.708 243.124 143.213 243.124 142.604V140.396C243.124 139.786 243.6 139.291 244.187 139.291C244.774 139.291 245.25 139.786 245.25 140.396V142.604C245.25 143.213 244.774 143.708 244.187 143.708Z" fill="black"/>
<path d="M227.188 148.125C226.601 148.125 226.125 147.63 226.125 147.021V135.979C226.125 135.37 226.601 134.875 227.188 134.875C227.774 134.875 228.25 135.37 228.25 135.979V147.021C228.25 147.63 227.774 148.125 227.188 148.125Z" fill="black"/>
<path d="M231.437 139.292H228.25C227.663 139.292 227.187 138.797 227.187 138.188C227.187 137.578 227.663 137.083 228.25 137.083H231.437C232.024 137.083 232.5 137.578 232.5 138.188C232.5 138.797 232.024 139.292 231.437 139.292Z" fill="black"/>
<path d="M235.687 145.917C235.101 145.917 234.625 145.422 234.625 144.813V133.771C234.625 133.162 235.101 132.667 235.687 132.667C236.274 132.667 236.75 133.162 236.75 133.771V144.813C236.75 145.422 236.274 145.917 235.687 145.917Z" fill="black"/>
<path d="M234.625 143.708H231.437C230.85 143.708 230.374 143.213 230.374 142.604C230.374 141.994 230.85 141.5 231.437 141.5L234.625 141.5C235.211 141.5 235.687 141.995 235.687 142.604C235.687 143.213 235.211 143.708 234.625 143.708V143.708Z" fill="black"/>
<path d="M218.687 128.25H212.312C211.726 128.25 211.25 127.756 211.25 127.146V120.521C211.25 119.912 211.726 119.417 212.312 119.417H218.687C219.274 119.417 219.75 119.912 219.75 120.521V127.146C219.75 127.756 219.274 128.25 218.687 128.25ZM213.375 126.042H217.625V121.625H213.375V126.042Z" fill="black"/>
<path d="M252.688 128.25H246.313C245.726 128.25 245.25 127.756 245.25 127.146V120.521C245.25 119.912 245.726 119.417 246.313 119.417H252.688C253.274 119.417 253.75 119.912 253.75 120.521V127.146C253.75 127.756 253.274 128.25 252.688 128.25ZM247.375 126.042H251.625V121.625H247.375V126.042Z" fill="black"/>
<path d="M218.687 163.583H212.312C211.726 163.583 211.25 163.088 211.25 162.479V155.854C211.25 155.245 211.726 154.75 212.312 154.75H218.687C219.274 154.75 219.75 155.245 219.75 155.854V162.479C219.75 163.088 219.274 163.583 218.687 163.583ZM213.375 161.375H217.625V156.958H213.375V161.375Z" fill="black"/>
<path d="M42.6266 32H45.1405V34.373H42.6266V32Z" fill="black"/>
<path d="M50.1688 32H52.6834V34.373H50.1688V32Z" fill="black"/>
<path d="M20 32V48.6129H37.5988V32H20ZM35.0844 46.2394H22.5144V34.3735H35.0844V46.2394Z" fill="black"/>
<path d="M45.1401 34.373H50.1685V36.746H52.6823V39.1201H47.6546V36.746H45.1401V34.373Z" fill="black"/>
<path d="M55.1976 32V48.6129H72.7955V32H55.1976ZM70.2811 46.2394H57.712V34.3735H70.2821V46.2394H70.2811Z" fill="black"/>
<path d="M25.0278 36.7461H32.5704V43.8661H25.0278V36.7461Z" fill="black"/>
<path d="M40.1132 36.7461H42.627V39.1202H45.1408V41.4931H50.1692V43.8661H52.683V50.9862H50.1692V53.3592H52.683V55.7321H47.6554V58.1058H45.1408V53.3592H47.6554V50.9862H45.1408V53.3592H42.627V48.6128H45.1408V43.8661H42.627V41.4931H40.1132V36.7461Z" fill="black"/>
<path d="M60.2245 36.7461H67.7671V43.8661H60.2245V36.7461Z" fill="black"/>
<path d="M40.1132 46.2393H42.6277V48.613H40.1132V46.2393Z" fill="black"/>
<path d="M27.5422 50.9865H32.5698V53.3594H35.0836V55.7324H37.5982V58.1061H35.0836V60.4791H37.5982V58.1061H40.1124V60.4791H42.6262V62.8521H47.6546V60.4791H50.1684V65.2255H47.6546V67.5992H40.1124V62.8521H27.5424V60.4791H30.0562V58.1061H32.57V55.7324H30.0562V53.3594H27.5424L27.5422 50.9865Z" fill="black"/>
<path d="M35.0845 50.9865H40.1121V53.3602H35.0845V50.9865Z" fill="black"/>
<path d="M62.7388 50.9865H67.7676V53.3594H65.2538V58.1061H62.7388V55.7324H60.2243V58.1061H62.7388V60.4791H67.7676V58.1061H70.2807V60.4791H72.7952V62.8521H70.2807V65.2255H67.7676V67.5992H72.7952V72.3451H70.2807V69.9714H67.7676V72.3451H65.2538V67.5992H62.7388V65.2255H65.2538V62.8521H57.7112V65.2255H52.6824V58.1061H57.7112V55.7324H55.1974V53.3594H62.7388V50.9865Z" fill="black"/>
<path d="M20 53.3591H25.0276V55.7321H30.0564V58.1058H25.0276V60.4788H22.5138V55.7321H20V53.3591Z" fill="black"/>
<path d="M40.1132 53.3591H42.6277V58.1051H40.1132V53.3591Z" fill="black"/>
<path d="M70.2811 53.3591H72.7956V58.1051H70.2811V53.3591Z" fill="black"/>
<path d="M20 60.4788H22.5138V62.8525H20V60.4788Z" fill="black"/>
<path d="M20 65.2249V81.8377H37.5988V65.2249H20ZM35.0844 79.4642H22.5144V67.5993H35.0844V79.4642Z" fill="black"/>
<path d="M50.1688 67.5984H52.6834V69.9714H50.1688V67.5984Z" fill="black"/>
<path d="M25.0278 69.9711H32.5704V77.0911H25.0278V69.9711Z" fill="black"/>
<path d="M40.1132 69.9711H42.627V72.3448H45.1408V74.7178H47.6554V77.0918H50.1692V79.4641H45.1408V81.8378H42.627V74.7178H40.1132V69.9711Z" fill="black"/>
<path d="M45.1401 69.9711H50.1677V72.3448H45.1401V69.9711Z" fill="black"/>
<path d="M55.1976 69.9711H57.7115V72.3448H60.2245V69.9711H62.7391V74.7178H65.254V79.4641H62.7391V77.0918H60.2245V79.4641H62.7391V81.8378H57.7115V74.7178H55.1976V69.9711Z" fill="black"/>
<path d="M67.7676 74.7183H72.7953V79.4642H67.7676V74.7183Z" fill="black"/>
<path d="M52.6823 77.0917H55.1969V79.4647H52.6823V77.0917Z" fill="black"/>
<path d="M50.1688 79.4642H52.6834V81.8379H50.1688V79.4642Z" fill="black"/>
<path d="M65.2542 79.4642H67.768V81.8379H65.2542V79.4642Z" fill="black"/>
<path d="M22.7208 93.1857C22.5801 93.2546 22.4339 93.306 22.2818 93.3401C22.1305 93.3752 21.9717 93.3929 21.806 93.3929C21.3129 93.3929 20.9222 93.2633 20.6334 93.0036C20.3454 92.7432 20.2018 92.39 20.2018 91.944C20.2018 91.4973 20.3454 91.1441 20.6334 90.8844C20.9221 90.624 21.3129 90.4937 21.806 90.4937C21.9717 90.4937 22.1305 90.5114 22.2818 90.5465C22.4339 90.5809 22.5801 90.6324 22.7208 90.7008V91.2793C22.5794 91.1886 22.4398 91.1218 22.3024 91.0791C22.1647 91.0367 22.02 91.0151 21.8679 91.0151C21.5957 91.0151 21.3818 91.0979 21.2256 91.2626C21.0695 91.4278 20.9914 91.6548 20.9914 91.944C20.9914 92.2325 21.0695 92.4592 21.2256 92.624C21.3818 92.7881 21.5957 92.8701 21.8679 92.8701C22.02 92.8701 22.1647 92.8493 22.3024 92.8075C22.4398 92.7651 22.5794 92.6984 22.7208 92.6073V93.1857Z" fill="black"/>
<path d="M24.9721 91.8133C24.9091 91.7855 24.8469 91.7654 24.785 91.7522C24.7238 91.7393 24.6627 91.7327 24.6008 91.7327C24.4182 91.7327 24.2771 91.788 24.1781 91.8982C24.0797 92.0087 24.0308 92.1665 24.0308 92.3723V93.3388H23.3222V91.2418H24.0308V91.5867C24.1221 91.4497 24.2267 91.3496 24.3445 91.2863C24.4631 91.2234 24.6056 91.1918 24.7717 91.1918C24.7953 91.1918 24.8207 91.1928 24.8483 91.1946C24.8756 91.1966 24.9161 91.2008 24.9691 91.2071L24.9721 91.8133Z" fill="black"/>
<path d="M27.5423 92.2848V92.4753H25.8821C25.8987 92.6331 25.9587 92.7513 26.0618 92.8299C26.1649 92.9088 26.3093 92.9481 26.4949 92.9481C26.6441 92.9481 26.7969 92.9272 26.9531 92.8855C27.1099 92.8431 27.2712 92.7795 27.4362 92.695V93.2109C27.2683 93.2714 27.1004 93.3166 26.9324 93.3471C26.7645 93.3777 26.5966 93.393 26.4286 93.393C26.0268 93.393 25.7145 93.2967 25.4917 93.1038C25.2686 92.9112 25.1573 92.6404 25.1573 92.2917C25.1573 91.9507 25.2667 91.6823 25.4858 91.4866C25.7046 91.2902 26.0058 91.1918 26.3888 91.1918C26.7383 91.1918 27.0179 91.2912 27.227 91.4894C27.437 91.6879 27.5423 91.9531 27.5423 92.2848H27.5423ZM26.8116 92.0623C26.8116 91.9354 26.7722 91.8328 26.6938 91.755C26.6149 91.6764 26.5126 91.6368 26.3859 91.6368C26.2481 91.6368 26.1362 91.6736 26.05 91.7466C25.9646 91.82 25.9108 91.9253 25.8895 92.0623L26.8116 92.0623Z" fill="black"/>
<path d="M29.0739 92.396C28.9265 92.396 28.815 92.4196 28.7395 92.4669C28.6647 92.5142 28.6275 92.5837 28.6275 92.6755C28.6275 92.761 28.6573 92.8277 28.7174 92.8757C28.7781 92.924 28.8621 92.948 28.9693 92.948C29.1026 92.948 29.2153 92.9028 29.3066 92.8118C29.3979 92.721 29.4436 92.608 29.4436 92.4725V92.396L29.0739 92.396ZM30.1596 92.1429V93.3388H29.4436V93.0287C29.3483 93.1559 29.2407 93.2484 29.121 93.3068C29.0021 93.3642 28.8577 93.393 28.6879 93.393C28.4581 93.393 28.271 93.3301 28.1267 93.2039C27.9831 93.077 27.9116 92.9126 27.9116 92.7103C27.9116 92.4638 28.0007 92.2834 28.1797 92.1693C28.3594 92.0546 28.6412 91.9969 29.0253 91.9969H29.4436V91.9441C29.4436 91.8384 29.3987 91.7612 29.3096 91.7118C29.2212 91.6618 29.0831 91.6368 28.8957 91.6368C28.7432 91.6368 28.6018 91.6514 28.4714 91.6799C28.3407 91.7087 28.2188 91.7518 28.1061 91.8092V91.2988C28.2582 91.2637 28.411 91.2373 28.5642 91.2196C28.7181 91.2012 28.8721 91.1918 29.0253 91.1918C29.426 91.1918 29.7151 91.2665 29.8929 91.4157C30.0704 91.5651 30.1596 91.8074 30.1596 92.1429V92.1429Z" fill="black"/>
<path d="M31.5946 90.6466V91.2418H32.3268V91.7215H31.5946V92.6101C31.5946 92.7074 31.6145 92.7735 31.655 92.8075C31.6963 92.842 31.7777 92.859 31.8996 92.859H32.2649V93.3387H31.6565C31.3755 93.3387 31.1767 93.2838 31.0599 93.1733C30.9428 93.0631 30.8846 92.8753 30.8846 92.6101V91.7215H30.5311V91.2418H30.8846V90.6466L31.5946 90.6466Z" fill="black"/>
<path d="M34.9784 92.2848V92.4753H33.3183C33.3348 92.6331 33.3949 92.7513 33.498 92.8299C33.6011 92.9088 33.7455 92.9481 33.9311 92.9481C34.0802 92.9481 34.2331 92.9272 34.3892 92.8855C34.5461 92.8431 34.7074 92.7795 34.8724 92.695V93.2109C34.7045 93.2714 34.5365 93.3166 34.3686 93.3471C34.2006 93.3777 34.0327 93.393 33.8648 93.393C33.463 93.393 33.1507 93.2967 32.9279 93.1038C32.7047 92.9112 32.5935 92.6404 32.5935 92.2917C32.5935 91.9507 32.7029 91.6823 32.922 91.4866C33.1408 91.2902 33.442 91.1918 33.825 91.1918C34.1745 91.1918 34.454 91.2912 34.6632 91.4894C34.8731 91.6879 34.9784 91.9531 34.9784 92.2848H34.9784ZM34.2478 92.0623C34.2478 91.9354 34.2084 91.8328 34.1299 91.755C34.0511 91.6764 33.9487 91.6368 33.822 91.6368C33.6843 91.6368 33.5724 91.6736 33.4862 91.7466C33.4007 91.82 33.347 91.9253 33.3256 92.0623L34.2478 92.0623Z" fill="black"/>
<path d="M37.0256 91.5491V90.4255H37.7401V93.3387H37.0256V93.0356C36.9284 93.159 36.8209 93.2494 36.703 93.3068C36.5852 93.3641 36.4489 93.393 36.295 93.393C36.021 93.393 35.796 93.2908 35.6203 93.0857C35.4443 92.8799 35.3566 92.6153 35.3566 92.2916C35.3566 91.969 35.4443 91.7055 35.6203 91.5004C35.796 91.2946 36.021 91.1917 36.295 91.1917C36.4482 91.1917 36.5837 91.2209 36.7016 91.2793C36.8201 91.337 36.9284 91.4267 37.0256 91.5491V91.5491ZM36.5587 92.9063C36.7097 92.9063 36.8253 92.8542 36.9048 92.7492C36.9851 92.6445 37.0256 92.4919 37.0256 92.2917C37.0256 92.0925 36.9851 91.9406 36.9048 91.8356C36.8253 91.7309 36.7097 91.6784 36.5587 91.6784C36.4073 91.6784 36.2913 91.7309 36.211 91.8356C36.1315 91.9406 36.0917 92.0925 36.0917 92.2917C36.0917 92.4919 36.1315 92.6445 36.211 92.7492C36.2913 92.8542 36.4073 92.9063 36.5587 92.9063Z" fill="black"/>
<path d="M41.018 92.9063C41.1701 92.9063 41.2861 92.8541 41.3656 92.7491C41.4459 92.6445 41.4864 92.4919 41.4864 92.2916C41.4864 92.0924 41.4459 91.9405 41.3656 91.8355C41.2861 91.7309 41.1701 91.6784 41.018 91.6784C40.8655 91.6784 40.7487 91.7312 40.6674 91.8369C40.5856 91.9419 40.5451 92.0935 40.5451 92.2916C40.5451 92.4912 40.5856 92.6435 40.6674 92.7491C40.7487 92.8541 40.8655 92.9063 41.018 92.9063ZM40.5451 91.5491C40.6431 91.4267 40.7517 91.337 40.8707 91.2793C40.9892 91.2209 41.1262 91.1917 41.2816 91.1917C41.5556 91.1917 41.7803 91.2946 41.9563 91.5004C42.132 91.7055 42.22 91.969 42.22 92.2916C42.22 92.6153 42.132 92.8799 41.9563 93.0857C41.7803 93.2908 41.5556 93.393 41.2816 93.393C41.1262 93.393 40.9892 93.3641 40.8707 93.3068C40.7517 93.2484 40.6431 93.158 40.5451 93.0356V93.3387H39.8365V90.4255H40.5451V91.5491Z" fill="black"/>
<path d="M42.4521 91.2418H43.1621L43.7587 92.6643L44.2655 91.2418H44.9755L44.0415 93.5377C43.948 93.7702 43.8386 93.9329 43.713 94.0257C43.5882 94.1193 43.4236 94.1662 43.2196 94.1662H42.8086V93.7268H43.031C43.1507 93.7268 43.238 93.7087 43.2932 93.6725C43.3481 93.6364 43.3908 93.5714 43.4214 93.4779L43.4405 93.4195L42.4521 91.2418Z" fill="black"/>
<path d="M46.836 90.5437H47.8081L48.4813 92.0399L49.1604 90.5437H50.1297V93.3387H49.4079V91.2946L48.7259 92.802H48.2427L47.5592 91.2946V93.3387H46.8359L46.836 90.5437Z" fill="black"/>
<path d="M51.9027 91.6715C51.7454 91.6715 51.6257 91.7251 51.5432 91.8314C51.4607 91.9382 51.4195 92.0915 51.4195 92.2917C51.4195 92.493 51.4607 92.647 51.5432 92.7534C51.6257 92.8601 51.7454 92.9133 51.9027 92.9133C52.0577 92.9133 52.1759 92.8601 52.2577 92.7534C52.3391 92.647 52.3799 92.493 52.3799 92.2917C52.3799 92.0915 52.3391 91.9382 52.2577 91.8314C52.1759 91.7251 52.0577 91.6715 51.9027 91.6715ZM51.9027 91.1918C52.2846 91.1918 52.5832 91.2891 52.7983 91.4838C53.0134 91.6785 53.1209 91.9479 53.1209 92.2917C53.1209 92.6366 53.0134 92.9063 52.7983 93.101C52.5832 93.2957 52.2846 93.393 51.9027 93.393C51.5197 93.393 51.2195 93.2957 51.0026 93.101C50.7864 92.9063 50.6785 92.6366 50.6785 92.2917C50.6785 91.9479 50.7864 91.6785 51.0026 91.4838C51.2195 91.2891 51.5197 91.1918 51.9027 91.1918Z" fill="black"/>
<path d="M55.8682 92.0622V93.3388H55.1552V92.3653C55.1552 92.1818 55.1508 92.0559 55.142 91.9871C55.1331 91.9186 55.1184 91.8682 55.0978 91.8355C55.0691 91.7921 55.0308 91.7583 54.9829 91.734C54.9357 91.709 54.882 91.6965 54.8223 91.6965C54.6739 91.6965 54.5572 91.7507 54.4717 91.8592C54.387 91.9669 54.345 92.1161 54.345 92.3069V93.3387H53.6365V90.4255H54.345V91.5491C54.4529 91.4267 54.5667 91.3371 54.6868 91.2793C54.8076 91.2209 54.9405 91.1917 55.086 91.1917C55.3423 91.1917 55.5368 91.2661 55.6693 91.4142C55.8019 91.5627 55.8682 91.7786 55.8682 92.0622L55.8682 92.0622Z" fill="black"/>
<path d="M57.5217 92.396C57.3744 92.396 57.2628 92.4196 57.1873 92.4669C57.1126 92.5142 57.0754 92.5837 57.0754 92.6755C57.0754 92.761 57.1052 92.8277 57.1652 92.8757C57.226 92.924 57.31 92.948 57.4171 92.948C57.5505 92.948 57.6632 92.9028 57.7545 92.8118C57.8458 92.721 57.8915 92.608 57.8915 92.4725V92.396L57.5217 92.396ZM58.6074 92.1429V93.3388H57.8915V93.0287C57.7961 93.1559 57.6886 93.2484 57.5689 93.3068C57.4499 93.3642 57.3056 93.393 57.1358 93.393C56.906 93.393 56.7189 93.3301 56.5746 93.2039C56.4309 93.077 56.3595 92.9126 56.3595 92.7103C56.3595 92.4638 56.4486 92.2834 56.6276 92.1693C56.8073 92.0546 57.089 91.9969 57.4732 91.9969H57.8915V91.9441C57.8915 91.8384 57.8466 91.7612 57.7575 91.7118C57.6691 91.6618 57.531 91.6368 57.3435 91.6368C57.1911 91.6368 57.0496 91.6514 56.9193 91.6799C56.7885 91.7087 56.6666 91.7518 56.554 91.8092V91.2988C56.7061 91.2637 56.8589 91.2373 57.0121 91.2196C57.166 91.2012 57.32 91.1918 57.4732 91.1918C57.8738 91.1918 58.1629 91.2665 58.3408 91.4157C58.5183 91.5651 58.6074 91.8074 58.6074 92.1429V92.1429Z" fill="black"/>
<path d="M61.326 91.5909C61.4151 91.4612 61.5219 91.3625 61.6457 91.2947C61.7694 91.2262 61.9053 91.1918 62.0537 91.1918C62.3089 91.1918 62.5034 91.2662 62.637 91.4143C62.7704 91.5627 62.8374 91.7786 62.8374 92.0623V93.3388H62.1229V92.2459C62.1237 92.2292 62.1248 92.2125 62.1259 92.1958C62.1266 92.1784 62.1274 92.1534 62.1274 92.1207C62.1274 91.9716 62.1041 91.8635 62.0581 91.7967C62.0117 91.73 61.9373 91.6966 61.8342 91.6966C61.6987 91.6966 61.5941 91.7494 61.5204 91.8551C61.4475 91.9601 61.41 92.1117 61.407 92.3098V93.3388H60.6926V92.2458C60.6926 92.0133 60.6712 91.8634 60.6292 91.7967C60.5869 91.7299 60.5117 91.6966 60.4038 91.6966C60.2672 91.6966 60.1615 91.7494 60.0871 91.8551C60.0135 91.9608 59.9766 92.1116 59.9766 92.307V93.3388H59.2637V91.2419H59.9766V91.5492C60.0639 91.4307 60.1641 91.3417 60.2772 91.2822C60.3909 91.2221 60.5158 91.1918 60.6513 91.1918C60.8045 91.1918 60.9401 91.2273 61.0579 91.2975C61.1757 91.3671 61.2649 91.4651 61.326 91.5909L61.326 91.5909Z" fill="black"/>
<path d="M65.7169 92.2848V92.4753H64.0568C64.0734 92.6331 64.1334 92.7513 64.2365 92.8299C64.3396 92.9088 64.484 92.9481 64.6696 92.9481C64.8188 92.9481 64.9716 92.9272 65.1277 92.8855C65.2846 92.8431 65.4459 92.7795 65.6109 92.695V93.2109C65.443 93.2714 65.275 93.3166 65.1071 93.3471C64.9392 93.3777 64.7712 93.393 64.6033 93.393C64.2015 93.393 63.8892 93.2967 63.6664 93.1038C63.4433 92.9112 63.332 92.6404 63.332 92.2917C63.332 91.9507 63.4414 91.6823 63.6605 91.4866C63.8793 91.2902 64.1805 91.1918 64.5635 91.1918C64.913 91.1918 65.1925 91.2912 65.4017 91.4894C65.6116 91.6879 65.717 91.9531 65.717 92.2848H65.7169ZM64.9863 92.0623C64.9863 91.9354 64.9469 91.8328 64.8684 91.755C64.7896 91.6764 64.6872 91.6368 64.5606 91.6368C64.4228 91.6368 64.3109 91.6736 64.2247 91.7466C64.1393 91.82 64.0855 91.9253 64.0641 92.0623L64.9863 92.0623Z" fill="black"/>
<path d="M67.7642 91.5491V90.4255H68.4786V93.3387H67.7642V93.0356C67.6669 93.159 67.5594 93.2494 67.4416 93.3068C67.3237 93.3641 67.1874 93.393 67.0335 93.393C66.7595 93.393 66.5345 93.2908 66.3588 93.0857C66.1828 92.8799 66.0952 92.6153 66.0952 92.2916C66.0952 91.969 66.1828 91.7055 66.3588 91.5004C66.5345 91.2946 66.7595 91.1917 67.0335 91.1917C67.1867 91.1917 67.3222 91.2209 67.4401 91.2793C67.5587 91.337 67.6669 91.4267 67.7642 91.5491V91.5491ZM67.2972 92.9063C67.4482 92.9063 67.5638 92.8542 67.6434 92.7492C67.7237 92.6445 67.7642 92.4919 67.7642 92.2917C67.7642 92.0925 67.7236 91.9406 67.6434 91.8356C67.5638 91.7309 67.4482 91.6784 67.2972 91.6784C67.1458 91.6784 67.0298 91.7309 66.9495 91.8356C66.87 91.9406 66.8302 92.0925 66.8302 92.2917C66.8302 92.4919 66.87 92.6445 66.9495 92.7492C67.0298 92.8542 67.1458 92.9063 67.2972 92.9063Z" fill="black"/>
<path d="M70.6061 90.5437H71.5783L72.2515 92.0399L72.9306 90.5437H73.8998V93.3387H73.178V91.2946L72.496 92.802H72.0128L71.3293 91.2946V93.3387H70.606L70.6061 90.5437Z" fill="black"/>
<path d="M75.798 92.9063C75.9501 92.9063 76.0661 92.8541 76.1456 92.7491C76.2259 92.6445 76.2664 92.4919 76.2664 92.2916C76.2664 92.0924 76.2259 91.9405 76.1456 91.8355C76.0661 91.7309 75.9501 91.6784 75.798 91.6784C75.6455 91.6784 75.5288 91.7312 75.4474 91.8369C75.3656 91.9419 75.3251 92.0935 75.3251 92.2916C75.3251 92.4912 75.3656 92.6435 75.4474 92.7491C75.5288 92.8541 75.6455 92.9063 75.798 92.9063ZM75.3251 91.5491C75.4231 91.4267 75.5317 91.337 75.6507 91.2793C75.7693 91.2209 75.9063 91.1917 76.0617 91.1917C76.3357 91.1917 76.5603 91.2946 76.7363 91.5004C76.912 91.7055 77 91.969 77 92.2916C77 92.6153 76.912 92.8799 76.7363 93.0857C76.5603 93.2908 76.3357 93.393 76.0617 93.393C75.9063 93.393 75.7693 93.3641 75.6507 93.3068C75.5317 93.2484 75.4231 93.158 75.3251 93.0356V93.3387H74.6166V90.4255H75.3251V91.5491Z" fill="black"/>
<path d="M21.8031 94.2593V94.7001H21.4097C21.3096 94.7001 21.2392 94.7175 21.1991 94.7515C21.1597 94.786 21.1402 94.8454 21.1402 94.9295V95.0755H21.7471V95.5553H21.1402V97.1725H20.4301V95.5553H20.0781V95.0755H20.4301V94.9295C20.4301 94.7015 20.4972 94.5329 20.6319 94.4234C20.7675 94.3142 20.9766 94.2593 21.2595 94.2593L21.8031 94.2593Z" fill="black"/>
<path d="M36.7203 95.8959V97.1725H36.0073V96.1991C36.0073 96.0155 36.0029 95.8897 35.9941 95.8208C35.9853 95.7523 35.9705 95.7019 35.9499 95.6693C35.9212 95.6258 35.8829 95.5921 35.835 95.5677C35.7879 95.5427 35.7341 95.5302 35.6744 95.5302C35.526 95.5302 35.4093 95.5844 35.3238 95.6929C35.2391 95.8007 35.1971 95.9498 35.1971 96.1407V97.1725H34.4886V94.2593H35.1971V95.3829C35.305 95.2605 35.4188 95.1708 35.5389 95.1131C35.6597 95.0547 35.7926 95.0255 35.9381 95.0255C36.1944 95.0255 36.3889 95.0999 36.5214 95.248C36.654 95.3964 36.7203 95.6123 36.7203 95.896L36.7203 95.8959Z" fill="black"/>
<path d="M62.7026 95.0755H63.4112V97.135C63.4112 97.4159 63.3397 97.63 63.1976 97.7774C63.0551 97.9255 62.8485 97.9999 62.5774 97.9999H62.2253V97.5605H62.3491C62.4835 97.5605 62.5759 97.5317 62.626 97.4743C62.6768 97.4166 62.7026 97.3036 62.7026 97.135V95.0755ZM62.7026 94.2593H63.4112V94.8058H62.7026V94.2593Z" fill="black"/>
<rect x="15" y="90" width="64" height="9" fill="#F7FBFF"/>
<rect x="73" y="170" width="100" height="24" fill="#F7FBFF"/>
</svg>
