<svg width="281" height="201" viewBox="0 0 281 201" fill="none" xmlns="http://www.w3.org/2000/svg">
<rect width="281" height="186" fill="white"/>
<path d="M99.8898 166.545H157.781C162.777 166.545 166.843 161.695 166.843 155.737V30.8082C166.843 24.8493 162.778 20 157.781 20H99.8898C94.8877 20 90.8179 24.8493 90.8179 30.8082V50.5864H90.1105C88.4114 50.5864 87.0297 52.2356 87.0297 54.262V63.0744C87.0297 65.1008 88.4124 66.7499 90.1105 66.7499H90.8179V71.4957H90.1105C88.4114 71.4957 87.0297 73.1448 87.0297 75.1713V83.9836C87.0297 86.0101 88.4124 87.6592 90.1105 87.6592H90.8179V155.738C90.8179 161.695 94.8829 166.544 99.8898 166.544V166.545ZM99.8898 22.4656H157.781C161.638 22.4656 164.776 26.2086 164.776 30.8082V155.737C164.776 160.337 161.638 164.079 157.781 164.079L99.8802 164.078C96.0229 164.078 92.8852 160.335 92.8852 155.735C92.8909 39.5764 92.89 54.7621 92.8852 30.807C92.8852 26.2078 96.0275 22.4656 99.8906 22.4656L99.8898 22.4656ZM90.1107 64.2823C89.5516 64.2823 89.0963 63.7394 89.0963 63.0725V54.2602C89.0963 53.5933 89.5506 53.0504 90.1107 53.0504H90.8181V64.2822L90.1107 64.2823ZM90.1107 85.1904C89.5516 85.1904 89.0963 84.6475 89.0963 83.9806V75.1683C89.0963 74.5014 89.5506 73.9585 90.1107 73.9585H90.8181V85.1903L90.1107 85.1904Z" fill="black"/>
<path d="M97.7016 148.608H159.969C160.243 148.608 160.507 148.478 160.7 148.246C160.894 148.015 161.003 147.701 161.003 147.373V84.07V39.1677C161.003 38.4861 160.54 37.9353 159.969 37.9353L97.7016 37.9342C97.1311 37.9342 96.6684 38.4851 96.6684 39.1665V147.372C96.6684 148.055 97.1312 148.607 97.7016 148.607V148.608ZM158.934 40.3994C158.934 43.0781 158.934 20.6617 158.933 146.142H98.7355V40.3994H158.934Z" fill="black"/>
<path d="M128.82 151.627C126.638 151.627 124.863 153.744 124.863 156.346C124.863 158.949 126.638 161.064 128.82 161.064C131.019 161.064 132.806 158.948 132.806 156.346C132.806 153.744 131.018 151.627 128.82 151.627ZM128.82 158.6C127.778 158.6 126.93 157.588 126.93 156.346C126.93 155.104 127.778 154.092 128.82 154.092C129.896 154.092 130.74 155.081 130.74 156.346C130.739 157.61 129.896 158.6 128.82 158.6Z" fill="black"/>
<path d="M139.103 28.9713H141.574V31.4371H139.103V28.9713Z" fill="black"/>
<path d="M122.246 28.9713H135.42V31.4371H122.246V28.9713Z" fill="black"/>
<path d="M109.81 85.5728H120.942C121.513 85.5728 121.975 85.022 121.975 84.3405V71.063C121.975 70.3815 121.513 69.8307 120.942 69.8307H109.81C109.24 69.8307 108.777 70.3815 108.777 71.063L108.776 84.3405C108.776 85.022 109.239 85.5728 109.81 85.5728V85.5728ZM110.844 72.2953H119.908V83.107H110.844V72.2953Z" fill="black"/>
<path d="M117.001 74.531H113.753C113.182 74.531 112.72 75.0819 112.72 75.7633V79.6373C112.72 80.3188 113.183 80.8696 113.753 80.8696H117.001C117.572 80.8696 118.034 80.3188 118.034 79.6373V75.7633C118.035 75.0818 117.573 74.531 117.001 74.531ZM115.968 78.405H114.787V76.9969H115.968V78.405Z" fill="black"/>
<path d="M136.729 85.5728H147.86C148.431 85.5728 148.894 85.022 148.894 84.3405V71.063C148.894 70.3815 148.431 69.8307 147.86 69.8307H136.729C136.158 69.8307 135.695 70.3815 135.695 71.063V84.3405C135.695 85.022 136.158 85.5728 136.729 85.5728ZM137.762 72.2953H146.826V83.107H137.762V72.2953Z" fill="black"/>
<path d="M143.917 74.531H140.669C140.098 74.531 139.636 75.0819 139.636 75.7633V79.6373C139.636 80.3188 140.098 80.8696 140.669 80.8696H143.917C144.487 80.8696 144.95 80.3188 144.95 79.6373V75.7633C144.951 75.0818 144.488 74.531 143.917 74.531ZM142.884 78.405H141.703V76.9969H142.884V78.405Z" fill="black"/>
<path d="M109.81 117.654H120.942C121.513 117.654 121.975 117.103 121.975 116.422V103.146C121.975 102.464 121.512 101.913 120.942 101.913H109.81C109.24 101.913 108.777 102.464 108.777 103.146V116.422C108.776 117.103 109.239 117.654 109.81 117.654V117.654ZM110.844 104.378H119.908V115.188H110.844V104.378Z" fill="black"/>
<path d="M117.001 106.615H113.753C113.182 106.615 112.72 107.166 112.72 107.848V111.72C112.72 112.402 113.183 112.953 113.753 112.953H117.001C117.572 112.953 118.034 112.402 118.034 111.72L118.035 107.848C118.035 107.166 117.573 106.615 117.001 106.615H117.001ZM115.968 110.488H114.787V109.081H115.968V110.488Z" fill="black"/>
<path d="M147.861 107.604H141.5C140.93 107.604 140.467 108.155 140.467 108.837V116.422C140.467 117.104 140.93 117.655 141.5 117.655H147.861C148.431 117.655 148.894 117.104 148.894 116.422V108.837C148.894 108.156 148.431 107.604 147.861 107.604ZM146.827 115.19H142.534V110.07H146.827V115.19Z" fill="black"/>
<path d="M130.159 110.491V104.724C130.159 104.042 129.696 103.491 129.126 103.491H124.29C123.72 103.491 123.257 104.042 123.257 104.724V110.491C123.257 111.173 123.72 111.723 124.29 111.723H129.126C129.696 111.723 130.159 111.173 130.159 110.491ZM128.092 109.259H125.324V105.957H128.092V109.259Z" fill="black"/>
<path d="M147.861 87.0406H143.025C142.454 87.0406 141.992 87.5915 141.992 88.273V94.0404C141.992 94.7219 142.454 95.2727 143.025 95.2727H147.861C148.431 95.2727 148.894 94.7219 148.894 94.0404V88.273C148.894 87.5915 148.431 87.0406 147.861 87.0406ZM146.827 92.8081H144.059V89.5065H146.827V92.8081Z" fill="black"/>
<path d="M125.488 87.3031H127.555V72.293H128.509C129.08 72.293 129.543 71.7422 129.543 71.0607C129.543 70.3792 129.08 69.8284 128.509 69.8284H124.535V72.2942H125.488L125.488 87.3031Z" fill="black"/>
<path d="M131.84 70.1218H133.907V72.0019H131.84V70.1218Z" fill="black"/>
<path d="M131.84 79.1825H133.907V81.0637H131.84V79.1825Z" fill="black"/>
<path d="M108.778 93.7424H110.845V95.6225H108.778V93.7424Z" fill="black"/>
<path d="M113.386 98.6129H115.454V100.493H113.386V98.6129Z" fill="black"/>
<path d="M136.895 110.75H138.963V112.631H136.895V110.75Z" fill="black"/>
<path d="M129.939 83.1073H133.663V85.5731H129.939V83.1073Z" fill="black"/>
<path d="M138.211 88.9352H140.278V93.3755H138.211V88.9352Z" fill="black"/>
<path d="M129.913 76.1949H131.98V78.075H129.913V76.1949Z" fill="black"/>
<path d="M124.978 115.189H137.468V117.654H124.978V115.189Z" fill="black"/>
<path d="M138.552 107.578V105.113H133.377C132.807 105.113 132.344 105.663 132.344 106.345V112.629H134.411V107.578L138.552 107.578Z" fill="black"/>
<path d="M125.783 101.018C125.783 101.7 126.246 102.25 126.816 102.25H130.196V99.7846H127.849V96.5079H131.22V94.0421L115.455 94.0432V89.9722H116.768V91.6721H118.835V88.7399C118.835 88.0584 118.372 87.5076 117.802 87.5076H109.811V89.9734H113.387V95.278C113.387 95.9595 113.85 96.5103 114.42 96.5103H125.782L125.783 101.018Z" fill="black"/>
<path d="M133.88 99.2387C133.88 99.9203 134.343 100.471 134.914 100.471H139.763V103.666H141.83V100.471H147.861C148.431 100.471 148.894 99.9202 148.894 99.2387C148.894 98.5573 148.431 98.0064 147.861 98.0064H135.948V90.6653C135.948 89.9838 135.485 89.433 134.914 89.433L122.107 89.4319V91.8977H133.88L133.88 99.2387Z" fill="black"/>
<path d="M177.995 35.6689H170.097V38.1347H176.96V49.8801H170.097V52.3459H177.995C178.565 52.3459 179.028 51.795 179.028 51.1135V36.9012C179.028 36.2208 178.565 35.6688 177.995 35.6688V35.6689Z" fill="black"/>
<path d="M169.264 41.9307V46.0772C169.264 46.7587 169.726 47.3095 170.297 47.3095H173.773C174.343 47.3095 174.806 46.7587 174.806 46.0772V41.9307C174.806 41.2492 174.343 40.6984 173.773 40.6984H170.297C169.726 40.6984 169.264 41.2503 169.264 41.9307ZM171.331 43.1641H172.739V44.8448H171.331V43.1641Z" fill="black"/>
<path d="M207.834 36.8991C207.834 36.2176 207.371 35.6667 206.8 35.6667H194.887C194.316 35.6667 193.853 36.2176 193.853 36.8991V51.108C193.853 51.7895 194.316 52.3403 194.887 52.3403H206.8C207.371 52.3403 207.834 51.7895 207.834 51.108V36.8991ZM205.766 49.8758H195.92V38.1324H205.766V49.8758Z" fill="black"/>
<path d="M199.105 47.3089H202.581C203.151 47.3089 203.614 46.7581 203.614 46.0766V41.9301C203.614 41.2486 203.151 40.6978 202.581 40.6978H199.105C198.535 40.6978 198.072 41.2486 198.072 41.9301V46.0766C198.072 46.7581 198.535 47.3089 199.105 47.3089ZM200.138 43.1636H201.547V44.8442H200.138V43.1636Z" fill="black"/>
<path d="M170.095 84.2089V86.6747H177.993C178.564 86.6747 179.026 86.1239 179.026 85.4424V71.23C179.026 70.5485 178.564 69.9977 177.993 69.9977H170.095V72.4635H176.959V84.21L170.095 84.2089Z" fill="black"/>
<path d="M169.264 80.4138C169.264 81.0953 169.726 81.6461 170.297 81.6461H173.773C174.343 81.6461 174.806 81.0953 174.806 80.4138L174.807 76.2685C174.807 75.587 174.344 75.0361 173.773 75.0361H170.298C169.727 75.0361 169.265 75.587 169.265 76.2685L169.264 80.4138ZM171.331 77.5007H172.739V79.1802H171.331V77.5007Z" fill="black"/>
<path d="M206.799 76.094H199.992C199.421 76.094 198.959 76.6448 198.959 77.3263V85.4446C198.959 86.1261 199.421 86.6769 199.992 86.6769H206.799C207.369 86.6769 207.832 86.126 207.832 85.4446V77.3263C207.832 76.6459 207.369 76.094 206.799 76.094V76.094ZM205.765 84.2122H201.024V78.5587H205.765V84.2122Z" fill="black"/>
<path d="M187.782 79.096V72.9231C187.782 72.2416 187.319 71.6908 186.749 71.6908H181.573C181.003 71.6908 180.54 72.2416 180.54 72.9231V79.096C180.54 79.7775 181.003 80.3283 181.573 80.3283H186.749C187.319 80.3295 187.782 79.7775 187.782 79.096ZM185.716 77.8637H182.607V74.1555H185.716V77.8637Z" fill="black"/>
<path d="M206.799 54.0854H201.623C201.053 54.0854 200.59 54.6363 200.59 55.3178V61.4907C200.59 62.1722 201.053 62.723 201.623 62.723H206.799C207.369 62.723 207.832 62.1721 207.832 61.4907V55.3178C207.832 54.6374 207.369 54.0854 206.799 54.0854ZM205.765 60.2583H202.656V56.5502H205.765V60.2583Z" fill="black"/>
<path d="M184.997 54.2817V38.1329H186.09C186.66 38.1329 187.123 37.582 187.123 36.9005C187.123 36.2191 186.66 35.6682 186.09 35.6682H181.836V38.134H182.928V54.284L184.997 54.2817Z" fill="black"/>
<path d="M189.726 35.8931H191.794V37.906H189.726V35.8931Z" fill="black"/>
<path d="M189.726 45.5902H191.794V47.6021H189.726V45.5902Z" fill="black"/>
<path d="M169.979 66.3845H172.047V68.3975H169.979V66.3845Z" fill="black"/>
<path d="M195.14 79.3728H197.207V81.3858H195.14V79.3728Z" fill="black"/>
<path d="M187.62 49.8752H191.605V52.3411H187.62V49.8752Z" fill="black"/>
<path d="M196.547 56.0291H198.614V60.7814H196.547V56.0291Z" fill="black"/>
<path d="M187.664 42.3921H189.731V44.4051H187.664V42.3921Z" fill="black"/>
<path d="M182.308 84.2117H195.674V86.6775H182.308V84.2117Z" fill="black"/>
<path d="M196.837 75.8922V73.4264H191.299C190.728 73.4264 190.265 73.9772 190.265 74.6587V81.3859H192.333V75.8909L196.837 75.8922Z" fill="black"/>
<path d="M175.661 58.962V55.8181C175.661 55.1366 175.199 54.5858 174.628 54.5858H170.096V57.0516H173.595V58.9632L175.661 58.962Z" fill="black"/>
<path d="M171.012 64.0458H183.244V68.9582C183.244 69.6397 183.707 70.1906 184.277 70.1906H187.895V67.7247H185.311V64.0445H188.992V61.5787L171.012 61.5799L171.012 64.0458Z" fill="black"/>
<path d="M179.237 59.1118H191.91V67.0544C191.91 67.7359 192.373 68.2867 192.944 68.2867H198.205V71.7922H200.273V68.2867H206.799C207.37 68.2867 207.833 67.7359 207.833 67.0544C207.833 66.3729 207.37 65.8221 206.799 65.8221H193.977V57.8795C193.977 57.1979 193.514 56.6471 192.944 56.6471L179.237 56.646L179.237 59.1118Z" fill="black"/>
<path d="M214.176 91.2825V30.0641C214.176 29.3826 213.713 28.8318 213.142 28.8318H170.085V31.2976H212.108V90.0504H170.097V92.5162H213.142C213.713 92.5151 214.176 91.9643 214.176 91.2828V91.2825Z" fill="black"/>
<path d="M86.3623 192.259C86.1856 192.371 86.0005 192.453 85.8069 192.507C85.6123 192.563 85.4112 192.593 85.2024 192.593C84.5724 192.593 84.0738 192.384 83.7064 191.966C83.3409 191.55 83.1586 190.982 83.1586 190.263C83.1586 189.546 83.3409 188.978 83.7064 188.56C84.0738 188.143 84.5724 187.934 85.2024 187.934C85.4112 187.934 85.6123 187.963 85.8069 188.019C86.0005 188.073 86.1856 188.157 86.3623 188.267V189.195C86.1828 189.049 86.0052 188.942 85.8296 188.875C85.6558 188.807 85.4716 188.772 85.278 188.772C84.9323 188.772 84.6603 188.905 84.462 189.168C84.2627 189.433 84.1635 189.798 84.1635 190.263C84.1635 190.73 84.2627 191.095 84.462 191.358C84.6603 191.623 84.9323 191.755 85.278 191.755C85.4716 191.755 85.6558 191.722 85.8296 191.656C86.0053 191.587 86.1828 191.479 86.3623 191.331V192.259Z" fill="black"/>
<path d="M89.2297 190.056C89.1485 190.011 89.0692 189.978 88.9917 189.957C88.9133 189.937 88.8349 189.925 88.7575 189.925C88.5251 189.925 88.3466 190.014 88.221 190.191C88.0944 190.369 88.0321 190.623 88.0321 190.953V192.507H87.1292V189.137H88.0321V189.691C88.1473 189.469 88.2814 189.308 88.4326 189.209C88.5837 189.107 88.7631 189.056 88.9728 189.056C89.003 189.056 89.0351 189.058 89.071 189.06C89.106 189.063 89.1579 189.069 89.2259 189.078L89.2297 190.056Z" fill="black"/>
<path d="M92.4997 190.813V191.119H90.3878C90.4077 191.372 90.4832 191.561 90.6145 191.687C90.7448 191.813 90.929 191.876 91.1661 191.876C91.355 191.876 91.5486 191.844 91.7479 191.777C91.949 191.712 92.154 191.609 92.3637 191.471V192.304C92.1493 192.401 91.9349 192.473 91.7214 192.521C91.5099 192.568 91.2964 192.593 91.083 192.593C90.571 192.593 90.1734 192.438 89.8891 192.129C89.6067 191.82 89.466 191.385 89.466 190.826C89.466 190.277 89.6039 189.844 89.8816 189.529C90.1611 189.213 90.5446 189.056 91.0339 189.056C91.4768 189.056 91.8319 189.216 92.0992 189.533C92.3656 189.852 92.4997 190.279 92.4997 190.813H92.4997ZM91.5703 190.452C91.5703 190.249 91.5193 190.085 91.4192 189.961C91.3181 189.835 91.1868 189.772 91.0263 189.772C90.8525 189.772 90.7099 189.831 90.5994 189.948C90.4908 190.065 90.4228 190.234 90.3954 190.452L91.5703 190.452Z" fill="black"/>
<path d="M94.4481 190.989C94.2592 190.989 94.1166 191.028 94.0212 191.106C93.9277 191.181 93.8814 191.294 93.8814 191.444C93.8814 191.579 93.9192 191.686 93.9948 191.764C94.0722 191.839 94.1799 191.876 94.3159 191.876C94.484 191.876 94.6266 191.804 94.7428 191.66C94.858 191.516 94.9166 191.334 94.9166 191.115V190.989L94.4481 190.989ZM95.8308 190.583V192.507H94.9166V192.007C94.7957 192.212 94.6597 192.361 94.5086 192.453C94.3575 192.545 94.1733 192.593 93.957 192.593C93.6642 192.593 93.4262 192.492 93.243 192.291C93.0616 192.087 92.971 191.822 92.971 191.498C92.971 191.101 93.0843 190.812 93.311 190.628C93.5395 190.442 93.8985 190.349 94.3877 190.349H94.9166V190.263C94.9166 190.095 94.8599 189.973 94.7466 189.894C94.6351 189.813 94.4604 189.772 94.2215 189.772C94.0269 189.772 93.8474 189.797 93.6812 189.844C93.515 189.889 93.3601 189.957 93.2165 190.047V189.227C93.4101 189.171 93.6038 189.128 93.7983 189.101C93.9948 189.071 94.1912 189.056 94.3877 189.056C94.8958 189.056 95.2641 189.176 95.4908 189.416C95.7175 189.654 95.8308 190.042 95.8308 190.583L95.8308 190.583Z" fill="black"/>
<path d="M97.6565 188.177V189.137H98.5897V189.907H97.6565V191.335C97.6565 191.492 97.6811 191.599 97.7321 191.655C97.785 191.709 97.8888 191.736 98.0456 191.736H98.5103V192.507H97.7359C97.3779 192.507 97.1248 192.419 96.9765 192.241C96.8273 192.064 96.7536 191.762 96.7536 191.335V189.907H96.304V189.137H96.7536V188.177L97.6565 188.177Z" fill="black"/>
<path d="M101.962 190.813V191.119H99.8506C99.8705 191.372 99.946 191.561 100.077 191.687C100.208 191.813 100.392 191.876 100.629 191.876C100.818 191.876 101.011 191.844 101.211 191.777C101.412 191.712 101.617 191.609 101.826 191.471V192.304C101.612 192.401 101.398 192.473 101.184 192.521C100.973 192.568 100.759 192.593 100.546 192.593C100.034 192.593 99.6362 192.438 99.3519 192.129C99.0695 191.82 98.9288 191.385 98.9288 190.826C98.9288 190.277 99.0667 189.844 99.3444 189.529C99.6239 189.213 100.007 189.056 100.497 189.056C100.94 189.056 101.295 189.216 101.562 189.533C101.828 189.852 101.962 190.279 101.962 190.813H101.962ZM101.033 190.452C101.033 190.249 100.982 190.085 100.882 189.961C100.781 189.835 100.65 189.772 100.489 189.772C100.315 189.772 100.173 189.831 100.062 189.948C99.9536 190.065 99.8856 190.234 99.8582 190.452L101.033 190.452Z" fill="black"/>
<path d="M104.568 189.628V187.825H105.475V192.507H104.568V192.02C104.442 192.218 104.305 192.365 104.156 192.457C104.007 192.547 103.833 192.592 103.635 192.592C103.288 192.592 103.001 192.429 102.778 192.101C102.553 191.771 102.441 191.347 102.441 190.826C102.441 190.307 102.553 189.882 102.778 189.551C103.001 189.221 103.288 189.055 103.635 189.055C103.832 189.055 104.003 189.103 104.153 189.195C104.304 189.289 104.442 189.433 104.568 189.628L104.568 189.628ZM103.971 191.813C104.165 191.813 104.312 191.73 104.413 191.561C104.516 191.39 104.568 191.145 104.568 190.826C104.568 190.505 104.516 190.261 104.413 190.092C104.312 189.924 104.165 189.84 103.971 189.84C103.78 189.84 103.632 189.924 103.529 190.092C103.428 190.261 103.378 190.505 103.378 190.826C103.378 191.145 103.428 191.39 103.529 191.561C103.632 191.73 103.78 191.813 103.971 191.813V191.813Z" fill="black"/>
<path d="M109.648 191.813C109.841 191.813 109.989 191.73 110.09 191.561C110.193 191.39 110.245 191.145 110.245 190.827C110.245 190.505 110.193 190.261 110.09 190.092C109.989 189.924 109.841 189.84 109.648 189.84C109.453 189.84 109.305 189.924 109.202 190.092C109.098 190.261 109.047 190.505 109.047 190.827C109.047 191.145 109.098 191.39 109.202 191.561C109.305 191.73 109.453 191.813 109.648 191.813ZM109.047 189.628C109.17 189.433 109.308 189.289 109.459 189.195C109.612 189.103 109.787 189.056 109.984 189.056C110.331 189.056 110.617 189.221 110.842 189.551C111.065 189.883 111.178 190.307 111.178 190.827C111.178 191.347 111.065 191.772 110.842 192.102C110.617 192.43 110.331 192.593 109.984 192.593C109.787 192.593 109.612 192.546 109.459 192.453C109.308 192.361 109.17 192.217 109.047 192.021V192.507H108.144V187.826H109.047V189.628Z" fill="black"/>
<path d="M111.473 189.137H112.376L113.136 191.426L113.782 189.137H114.685L113.495 192.827C113.376 193.202 113.238 193.463 113.079 193.611C112.92 193.761 112.71 193.836 112.448 193.836H111.927V193.129H112.21C112.363 193.129 112.475 193.1 112.543 193.043C112.612 192.986 112.667 192.881 112.705 192.728L112.731 192.638L111.473 189.137Z" fill="black"/>
<path d="M116.604 188.015H117.579L118.58 191.331L119.577 188.015H120.552L119.158 192.507H117.998L116.604 188.015Z" fill="black"/>
<path d="M123.833 190.813V191.119H121.721C121.741 191.372 121.816 191.561 121.948 191.687C122.078 191.813 122.262 191.876 122.499 191.876C122.688 191.876 122.882 191.844 123.081 191.777C123.282 191.712 123.487 191.609 123.697 191.471V192.304C123.483 192.401 123.268 192.473 123.055 192.521C122.843 192.568 122.63 192.593 122.416 192.593C121.904 192.593 121.507 192.438 121.222 192.129C120.94 191.82 120.799 191.385 120.799 190.826C120.799 190.277 120.937 189.844 121.215 189.529C121.494 189.213 121.878 189.056 122.367 189.056C122.81 189.056 123.165 189.216 123.433 189.533C123.699 189.852 123.833 190.279 123.833 190.813H123.833ZM122.904 190.452C122.904 190.249 122.853 190.085 122.752 189.961C122.651 189.835 122.52 189.772 122.36 189.772C122.186 189.772 122.043 189.831 121.933 189.948C121.824 190.065 121.756 190.234 121.729 190.452L122.904 190.452Z" fill="black"/>
<path d="M126.798 189.24V190.119C126.677 190.02 126.553 189.947 126.427 189.898C126.304 189.851 126.176 189.826 126.046 189.826C125.791 189.826 125.593 189.915 125.453 190.092C125.314 190.267 125.245 190.511 125.245 190.826C125.245 191.14 125.314 191.384 125.453 191.561C125.593 191.735 125.791 191.822 126.046 191.822C126.186 191.822 126.32 191.799 126.446 191.75C126.575 191.699 126.692 191.624 126.798 191.525V192.408C126.656 192.471 126.512 192.517 126.367 192.548C126.223 192.577 126.078 192.593 125.932 192.593C125.42 192.593 125.022 192.438 124.735 192.129C124.448 191.817 124.304 191.383 124.304 190.826C124.304 190.271 124.448 189.837 124.735 189.524C125.022 189.212 125.42 189.056 125.932 189.056C126.078 189.056 126.223 189.073 126.367 189.105C126.512 189.136 126.656 189.181 126.798 189.24V189.24Z" fill="black"/>
<path d="M128.566 188.177V189.137H129.499V189.907H128.566V191.335C128.566 191.492 128.59 191.599 128.641 191.655C128.694 191.709 128.798 191.736 128.955 191.736H129.42V192.507H128.645C128.287 192.507 128.034 192.419 127.886 192.241C127.736 192.064 127.663 191.762 127.663 191.335V189.907H127.213V189.137H127.663V188.177L128.566 188.177Z" fill="black"/>
<path d="M131.395 189.826C131.193 189.826 131.04 189.912 130.935 190.083C130.831 190.254 130.78 190.502 130.78 190.826C130.78 191.149 130.831 191.394 130.935 191.565C131.04 191.737 131.193 191.822 131.395 191.822C131.592 191.822 131.741 191.737 131.845 191.565C131.951 191.394 132.004 191.149 132.004 190.826C132.004 190.502 131.951 190.254 131.845 190.083C131.741 189.912 131.592 189.826 131.395 189.826ZM131.395 189.056C131.881 189.056 132.261 189.212 132.533 189.524C132.806 189.837 132.944 190.271 132.944 190.826C132.944 191.38 132.806 191.812 132.533 192.124C132.261 192.437 131.881 192.593 131.395 192.593C130.906 192.593 130.525 192.437 130.251 192.124C129.976 191.812 129.839 191.38 129.839 190.826C129.839 190.271 129.976 189.837 130.251 189.524C130.525 189.212 130.906 189.056 131.395 189.056Z" fill="black"/>
<path d="M135.701 190.056C135.62 190.011 135.541 189.978 135.463 189.957C135.385 189.937 135.306 189.925 135.229 189.925C134.997 189.925 134.818 190.014 134.692 190.191C134.566 190.369 134.504 190.623 134.504 190.953V192.507H133.601V189.137H134.504V189.691C134.619 189.469 134.753 189.308 134.904 189.209C135.055 189.107 135.235 189.056 135.444 189.056C135.475 189.056 135.507 189.058 135.543 189.06C135.577 189.063 135.629 189.069 135.697 189.078L135.701 190.056Z" fill="black"/>
<path d="M138.355 189.24V190.06C138.164 189.965 137.978 189.893 137.796 189.844C137.617 189.797 137.447 189.772 137.286 189.772C137.114 189.772 136.988 189.798 136.905 189.849C136.821 189.901 136.78 189.978 136.78 190.083C136.78 190.171 136.811 190.238 136.874 190.286C136.937 190.331 137.05 190.365 137.214 190.385L137.373 190.412C137.836 190.482 138.148 190.597 138.306 190.759C138.465 190.919 138.544 191.171 138.544 191.516C138.544 191.874 138.433 192.142 138.212 192.322C137.99 192.503 137.658 192.593 137.218 192.593C137.031 192.593 136.838 192.575 136.64 192.539C136.441 192.506 136.236 192.455 136.024 192.385V191.565C136.206 191.671 136.391 191.749 136.58 191.8C136.769 191.852 136.959 191.876 137.154 191.876C137.332 191.876 137.466 191.848 137.554 191.791C137.642 191.734 137.687 191.649 137.687 191.534C137.687 191.438 137.656 191.366 137.596 191.318C137.535 191.27 137.413 191.232 137.229 191.205L137.071 191.182C136.668 191.123 136.385 191.011 136.225 190.849C136.063 190.687 135.983 190.441 135.983 190.11C135.983 189.753 136.085 189.488 136.289 189.317C136.495 189.144 136.81 189.056 137.233 189.056C137.399 189.056 137.574 189.071 137.758 189.101C137.942 189.131 138.141 189.177 138.355 189.24L138.355 189.24Z" fill="black"/>
<path d="M141.066 188.015H142.675C143.156 188.015 143.525 188.143 143.782 188.398C144.039 188.65 144.168 189.011 144.168 189.479C144.168 189.951 144.039 190.315 143.782 190.57C143.525 190.822 143.156 190.948 142.675 190.948H142.037V192.507H141.066V188.015ZM142.037 188.853V190.11H142.573C142.762 190.11 142.907 190.056 143.008 189.948C143.111 189.837 143.163 189.681 143.163 189.479C143.163 189.279 143.111 189.123 143.008 189.015C142.907 188.907 142.762 188.853 142.573 188.853H142.037Z" fill="black"/>
<path d="M146.157 189.826C145.955 189.826 145.802 189.912 145.696 190.083C145.592 190.254 145.541 190.502 145.541 190.826C145.541 191.149 145.592 191.394 145.696 191.565C145.802 191.737 145.955 191.822 146.157 191.822C146.353 191.822 146.502 191.737 146.606 191.565C146.712 191.394 146.765 191.149 146.765 190.826C146.765 190.502 146.712 190.254 146.606 190.083C146.502 189.912 146.353 189.826 146.157 189.826ZM146.157 189.056C146.642 189.056 147.022 189.212 147.294 189.524C147.568 189.837 147.706 190.271 147.706 190.826C147.706 191.38 147.568 191.812 147.294 192.124C147.022 192.437 146.642 192.593 146.157 192.593C145.667 192.593 145.286 192.437 145.012 192.124C144.737 191.812 144.6 191.38 144.6 190.826C144.6 190.271 144.737 189.837 145.012 189.524C145.286 189.212 145.667 189.056 146.157 189.056Z" fill="black"/>
<path d="M148.362 189.137H149.265V192.507H148.362V189.137ZM148.362 187.825H149.265V188.704H148.362V187.825Z" fill="black"/>
<path d="M152.975 190.452V192.507H152.068V190.935C152.068 190.644 152.062 190.443 152.049 190.335C152.039 190.225 152.02 190.144 151.993 190.092C151.957 190.02 151.91 189.965 151.849 189.925C151.789 189.887 151.719 189.867 151.641 189.867C151.454 189.867 151.307 189.955 151.199 190.128C151.091 190.303 151.037 190.543 151.037 190.849V192.507H150.134V189.137H151.037V189.628C151.173 189.433 151.317 189.289 151.471 189.195C151.624 189.103 151.793 189.056 151.978 189.056C152.304 189.056 152.553 189.176 152.722 189.416C152.89 189.654 152.975 189.999 152.975 190.452L152.975 190.452Z" fill="black"/>
<path d="M154.799 188.177V189.137H155.732V189.907H154.799V191.335C154.799 191.492 154.823 191.599 154.874 191.655C154.927 191.709 155.031 191.736 155.188 191.736H155.653V192.507H154.878C154.52 192.507 154.267 192.419 154.119 192.241C153.97 192.064 153.896 191.762 153.896 191.335V189.907H153.446V189.137H153.896V188.177L154.799 188.177Z" fill="black"/>
<path d="M85.195 193.99V194.697H84.6963C84.5679 194.697 84.4781 194.724 84.4281 194.778C84.3771 194.832 84.3525 194.929 84.3525 195.067V195.301H85.1232V196.071H84.3525V198.671H83.4496V196.071H83V195.301H83.4496V195.067C83.4496 194.7 83.5346 194.43 83.7065 194.255C83.8774 194.079 84.1428 193.99 84.5036 193.99L85.195 193.99Z" fill="black"/>
<path d="M87.6855 196.22C87.6043 196.175 87.525 196.142 87.4475 196.121C87.3691 196.101 87.2907 196.089 87.2133 196.089C86.9809 196.089 86.8024 196.178 86.6768 196.355C86.5502 196.533 86.4879 196.787 86.4879 197.117V198.671H85.585V195.301H86.4879V195.855C86.6031 195.633 86.7372 195.472 86.8883 195.373C87.0395 195.271 87.2189 195.219 87.4286 195.219C87.4588 195.219 87.4909 195.222 87.5268 195.224C87.5618 195.227 87.6137 195.233 87.6817 195.242L87.6855 196.22Z" fill="black"/>
<path d="M89.4782 195.99C89.2761 195.99 89.1231 196.076 89.0173 196.247C88.9134 196.418 88.8624 196.666 88.8624 196.99C88.8624 197.313 88.9134 197.558 89.0173 197.729C89.1231 197.901 89.2761 197.986 89.4782 197.986C89.6747 197.986 89.8239 197.901 89.9278 197.729C90.0336 197.558 90.0865 197.313 90.0865 196.99C90.0865 196.666 90.0336 196.418 89.9278 196.247C89.8239 196.076 89.6747 195.99 89.4782 195.99ZM89.4782 195.22C89.9637 195.22 90.3434 195.376 90.6154 195.688C90.8893 196.001 91.0272 196.435 91.0272 196.99C91.0272 197.543 90.8893 197.976 90.6154 198.288C90.3434 198.601 89.9637 198.757 89.4782 198.757C88.989 198.757 88.6074 198.601 88.3335 198.288C88.0587 197.976 87.9217 197.543 87.9217 196.99C87.9217 196.435 88.0587 196.001 88.3335 195.688C88.6074 195.376 88.989 195.22 89.4782 195.22Z" fill="black"/>
<path d="M94.3017 195.859C94.4169 195.652 94.5529 195.495 94.7097 195.386C94.8684 195.276 95.0403 195.22 95.2273 195.22C95.5522 195.22 95.7987 195.34 95.9677 195.58C96.1387 195.818 96.2246 196.164 96.2246 196.616V198.671H95.3179V196.914V196.833C95.3198 196.806 95.3217 196.765 95.3217 196.711C95.3217 196.475 95.2915 196.301 95.231 196.193C95.1725 196.085 95.078 196.031 94.9477 196.031C94.7758 196.031 94.6436 196.115 94.551 196.283C94.4575 196.452 94.4093 196.696 94.4075 197.017V198.671H93.497V196.914C93.497 196.542 93.4686 196.301 93.4139 196.193C93.361 196.085 93.2665 196.031 93.1305 196.031C92.9567 196.031 92.8217 196.116 92.7263 196.288C92.6328 196.456 92.5865 196.698 92.5865 197.013V198.671H91.6798V195.301H92.5865V195.792C92.697 195.602 92.8245 195.461 92.968 195.364C93.1116 195.268 93.2703 195.219 93.4441 195.219C93.6405 195.219 93.8124 195.277 93.9617 195.391C94.1128 195.502 94.2261 195.659 94.3017 195.859L94.3017 195.859Z" fill="black"/>
<path d="M99.8543 194.341V195.301H100.787V196.071H99.8543V197.5C99.8543 197.656 99.8789 197.763 99.9299 197.819C99.9828 197.873 100.087 197.901 100.243 197.901H100.708V198.671H99.9337C99.5757 198.671 99.3226 198.583 99.1743 198.405C99.0251 198.228 98.9514 197.926 98.9514 197.5V196.071H98.5018V195.301H98.9514V194.341L99.8543 194.341Z" fill="black"/>
<path d="M104.179 196.616V198.671H103.272V197.108C103.272 196.81 103.266 196.607 103.254 196.499C103.243 196.389 103.224 196.308 103.197 196.256C103.161 196.184 103.114 196.129 103.053 196.089C102.993 196.051 102.923 196.031 102.846 196.031C102.659 196.031 102.511 196.119 102.404 196.292C102.295 196.467 102.241 196.707 102.241 197.013V198.671H101.338V193.99H102.241V195.792C102.377 195.597 102.522 195.453 102.676 195.359C102.829 195.267 102.998 195.22 103.182 195.22C103.509 195.22 103.757 195.34 103.926 195.58C104.094 195.818 104.179 196.164 104.179 196.617L104.179 196.616Z" fill="black"/>
<path d="M107.84 196.977V197.283H105.728C105.748 197.536 105.824 197.725 105.955 197.851C106.085 197.977 106.269 198.04 106.506 198.04C106.695 198.04 106.889 198.008 107.088 197.941C107.289 197.876 107.494 197.773 107.704 197.635V198.468C107.49 198.565 107.275 198.637 107.062 198.685C106.85 198.732 106.637 198.757 106.423 198.757C105.911 198.757 105.514 198.602 105.229 198.293C104.947 197.984 104.806 197.549 104.806 196.99C104.806 196.441 104.944 196.008 105.222 195.693C105.501 195.377 105.885 195.22 106.374 195.22C106.817 195.22 107.172 195.38 107.44 195.697C107.706 196.016 107.84 196.443 107.84 196.977H107.84ZM106.911 196.616C106.911 196.413 106.86 196.249 106.76 196.125C106.658 195.999 106.527 195.936 106.367 195.936C106.193 195.936 106.05 195.995 105.94 196.112C105.831 196.229 105.763 196.398 105.736 196.616L106.911 196.616Z" fill="black"/>
<path d="M110.364 194.179H111.448L112.819 197.261V194.179H113.737V198.671H112.653L111.282 195.589V198.671H110.364V194.179Z" fill="black"/>
<path d="M115.992 195.99C115.79 195.99 115.637 196.076 115.531 196.247C115.427 196.418 115.376 196.666 115.376 196.99C115.376 197.313 115.427 197.558 115.531 197.729C115.637 197.901 115.79 197.986 115.992 197.986C116.188 197.986 116.337 197.901 116.441 197.729C116.547 197.558 116.6 197.313 116.6 196.99C116.6 196.666 116.547 196.418 116.441 196.247C116.337 196.076 116.188 195.99 115.992 195.99ZM115.992 195.22C116.477 195.22 116.857 195.376 117.129 195.688C117.403 196.001 117.541 196.435 117.541 196.99C117.541 197.543 117.403 197.976 117.129 198.288C116.857 198.601 116.477 198.757 115.992 198.757C115.503 198.757 115.121 198.601 114.847 198.288C114.572 197.976 114.435 197.543 114.435 196.99C114.435 196.435 114.572 196.001 114.847 195.688C115.121 195.376 115.503 195.22 115.992 195.22Z" fill="black"/>
<path d="M118.167 197.36V195.301H119.074V195.639C119.074 195.819 119.072 196.048 119.07 196.324V196.878C119.07 197.148 119.075 197.344 119.085 197.464C119.097 197.584 119.119 197.671 119.149 197.725C119.184 197.795 119.232 197.849 119.293 197.887C119.353 197.923 119.422 197.941 119.501 197.941C119.687 197.941 119.834 197.856 119.943 197.684C120.05 197.511 120.105 197.27 120.105 196.963V195.301H121.008V198.671H120.105V198.185C119.969 198.381 119.824 198.525 119.671 198.617C119.519 198.71 119.351 198.757 119.168 198.757C118.84 198.757 118.591 198.639 118.42 198.401C118.251 198.161 118.167 197.814 118.167 197.36L118.167 197.36Z" fill="black"/>
<path d="M124.718 196.616V198.671H123.811V197.099C123.811 196.808 123.805 196.607 123.792 196.499C123.782 196.389 123.763 196.308 123.736 196.256C123.7 196.184 123.653 196.129 123.592 196.089C123.532 196.051 123.462 196.031 123.384 196.031C123.197 196.031 123.05 196.119 122.942 196.292C122.834 196.467 122.78 196.707 122.78 197.013V198.671H121.877V195.301H122.78V195.792C122.916 195.597 123.06 195.453 123.214 195.359C123.367 195.267 123.536 195.219 123.721 195.219C124.047 195.219 124.296 195.34 124.465 195.58C124.633 195.818 124.718 196.163 124.718 196.616L124.718 196.616Z" fill="black"/>
<path d="M127.396 194.179H129.006C129.487 194.179 129.856 194.307 130.113 194.562C130.37 194.814 130.498 195.174 130.498 195.643C130.498 196.115 130.37 196.479 130.113 196.733C129.856 196.986 129.487 197.112 129.006 197.112H128.367V198.671H127.396V194.179ZM128.367 195.017V196.274H128.904C129.093 196.274 129.237 196.22 129.338 196.112C129.441 196.001 129.493 195.845 129.493 195.643C129.493 195.443 129.441 195.287 129.338 195.179C129.237 195.071 129.093 195.017 128.904 195.017H128.367Z" fill="black"/>
<path d="M133.243 196.22C133.161 196.175 133.082 196.142 133.005 196.121C132.926 196.101 132.848 196.089 132.77 196.089C132.538 196.089 132.36 196.178 132.234 196.355C132.107 196.533 132.045 196.787 132.045 197.117V198.671H131.142V195.301H132.045V195.855C132.16 195.633 132.294 195.472 132.446 195.373C132.597 195.271 132.776 195.219 132.986 195.219C133.016 195.219 133.048 195.222 133.084 195.224C133.119 195.227 133.171 195.233 133.239 195.242L133.243 196.22Z" fill="black"/>
<path d="M135.036 195.99C134.834 195.99 134.681 196.076 134.576 196.247C134.472 196.418 134.421 196.666 134.421 196.99C134.421 197.313 134.472 197.558 134.576 197.729C134.681 197.901 134.834 197.986 135.036 197.986C135.233 197.986 135.382 197.901 135.486 197.729C135.592 197.558 135.645 197.313 135.645 196.99C135.645 196.666 135.592 196.418 135.486 196.247C135.382 196.076 135.233 195.99 135.036 195.99ZM135.036 195.22C135.522 195.22 135.902 195.376 136.174 195.688C136.447 196.001 136.585 196.435 136.585 196.99C136.585 197.543 136.447 197.976 136.174 198.288C135.902 198.601 135.522 198.757 135.036 198.757C134.547 198.757 134.166 198.601 133.892 198.288C133.617 197.976 133.48 197.543 133.48 196.99C133.48 196.435 133.617 196.001 133.892 195.688C134.166 195.376 134.547 195.22 135.036 195.22Z" fill="black"/>
<path d="M137.242 195.301H138.145V198.612C138.145 199.063 138.054 199.406 137.873 199.644C137.691 199.881 137.428 200 137.083 200H136.637V199.293H136.792C136.963 199.293 137.08 199.245 137.144 199.153C137.209 199.063 137.242 198.883 137.242 198.612L137.242 195.301ZM137.242 193.989H138.145V194.868H137.242V193.989Z" fill="black"/>
<path d="M141.836 196.977V197.283H139.724C139.744 197.536 139.819 197.725 139.951 197.851C140.081 197.977 140.265 198.04 140.502 198.04C140.691 198.04 140.885 198.008 141.084 197.941C141.285 197.876 141.49 197.773 141.7 197.635V198.468C141.485 198.565 141.271 198.637 141.058 198.685C140.846 198.732 140.633 198.757 140.419 198.757C139.907 198.757 139.51 198.602 139.225 198.293C138.943 197.984 138.802 197.549 138.802 196.99C138.802 196.441 138.94 196.008 139.218 195.693C139.497 195.377 139.881 195.22 140.37 195.22C140.813 195.22 141.168 195.38 141.435 195.697C141.702 196.016 141.836 196.443 141.836 196.977H141.836ZM140.906 196.616C140.906 196.413 140.855 196.249 140.755 196.125C140.654 195.999 140.523 195.936 140.362 195.936C140.189 195.936 140.046 195.995 139.935 196.112C139.827 196.229 139.759 196.398 139.731 196.616L140.906 196.616Z" fill="black"/>
<path d="M144.8 195.404V196.283C144.679 196.184 144.556 196.111 144.43 196.062C144.306 196.015 144.179 195.99 144.049 195.99C143.794 195.99 143.596 196.079 143.455 196.256C143.317 196.431 143.248 196.675 143.248 196.99C143.248 197.304 143.317 197.548 143.455 197.725C143.596 197.9 143.794 197.986 144.049 197.986C144.189 197.986 144.322 197.963 144.449 197.914C144.577 197.864 144.695 197.788 144.8 197.689V198.572C144.659 198.635 144.515 198.681 144.37 198.712C144.226 198.741 144.081 198.757 143.935 198.757C143.423 198.757 143.025 198.602 142.738 198.293C142.45 197.981 142.307 197.547 142.307 196.991C142.307 196.435 142.451 196.001 142.738 195.688C143.025 195.376 143.423 195.22 143.935 195.22C144.081 195.22 144.226 195.237 144.37 195.269C144.515 195.3 144.659 195.345 144.8 195.404V195.404Z" fill="black"/>
<path d="M146.568 194.341V195.301H147.501V196.071H146.568V197.5C146.568 197.656 146.592 197.763 146.643 197.819C146.696 197.873 146.8 197.901 146.957 197.901H147.421V198.671H146.647C146.289 198.671 146.036 198.583 145.888 198.405C145.738 198.228 145.665 197.926 145.665 197.5V196.071H145.215V195.301H145.665V194.341L146.568 194.341Z" fill="black"/>
<rect x="76" y="177" width="106" height="24" fill="white"/>
<rect x="76" y="177" width="106" height="24" fill="white"/>
<rect x="76" y="177" width="106" height="24" fill="white"/>
</svg>
