<svg width="281" height="206" viewBox="0 0 281 206" fill="none" xmlns="http://www.w3.org/2000/svg">
<rect width="281" height="186" fill="white"/>
<g clip-path="url(#clip0_420_18)">
<path d="M39.8719 46H25.2348C24.503 46 24.0149 46.488 24.0149 47.2199V61.857C24.0149 62.5888 24.503 63.0769 25.2348 63.0769H39.8719C40.6038 63.0769 41.0918 62.5888 41.0918 61.857L41.0914 47.2199C41.0914 46.488 40.6038 46 39.8719 46H39.8719ZM38.652 60.6371H26.4541V48.4392H38.652V60.6371ZM30.1136 58.1977H34.9928C35.7246 58.1977 36.2127 57.7097 36.2127 56.9778V52.0987C36.2127 51.3668 35.7246 50.8788 34.9928 50.8788H30.1136C29.3817 50.8788 28.8937 51.3668 28.8937 52.0987V56.9778C28.8941 57.7097 29.3817 58.1977 30.1136 58.1977ZM31.3335 53.3185H33.7729V55.7579H31.3335V53.3185ZM39.8719 72.835H25.2348C24.503 72.835 24.0149 73.3231 24.0149 74.0549V88.692C24.0149 89.4239 24.503 89.9119 25.2348 89.9119H39.8719C40.6038 89.9119 41.0918 89.4239 41.0918 88.692L41.0914 74.0549C41.0914 73.3231 40.6038 72.8354 39.8719 72.8354L39.8719 72.835ZM38.652 87.4721H26.4541V75.2742H38.652V87.4721ZM30.1136 85.0323H34.9928C35.7246 85.0323 36.2127 84.5443 36.2127 83.8124V78.9333C36.2127 78.2014 35.7246 77.7134 34.9928 77.7134H30.1136C29.3817 77.7134 28.8937 78.2014 28.8937 78.9333V83.8124C28.8941 84.5447 29.3817 85.0323 30.1136 85.0323ZM31.3335 80.1536H33.7729V82.5929H31.3335V80.1536ZM66.7061 46H52.069C51.3372 46 50.8491 46.488 50.8491 47.2199V61.857C50.8491 62.5888 51.3372 63.0769 52.069 63.0769H66.7061C67.438 63.0769 67.926 62.5888 67.926 61.857V47.2199C67.926 46.488 67.438 46 66.7061 46ZM65.4866 60.6371H53.2887V48.4392H65.4866V60.6371ZM56.9482 58.1977H61.8274C62.5592 58.1977 63.0473 57.7097 63.0473 56.9778V52.0987C63.0473 51.3668 62.5592 50.8788 61.8274 50.8788H56.9482C56.2163 50.8788 55.7283 51.3668 55.7283 52.0987V56.9778C55.7283 57.7097 56.2163 58.1977 56.9482 58.1977ZM58.1681 53.3185H60.6075V55.7579H58.1681V53.3185ZM24.0145 67.9556C24.0145 67.2238 24.5026 66.7357 25.2344 66.7357H27.6738C28.4057 66.7357 28.8937 67.2238 28.8937 67.9556C28.8937 68.6875 28.4057 69.1755 27.6738 69.1755H25.2344C24.5026 69.1755 24.0145 68.6875 24.0145 67.9556ZM49.6294 78.9335C49.6294 79.6653 49.1414 80.1534 48.4095 80.1534H47.1896C47.1896 80.8852 46.7016 81.3733 45.9697 81.3733C45.2379 81.3733 44.7498 80.8852 44.7498 80.1534V77.714C44.7498 76.9821 45.2379 76.4941 45.9697 76.4941C46.7016 76.4941 47.1896 76.9821 47.1896 77.714H48.4095C49.1414 77.7136 49.6294 78.2016 49.6294 78.9335ZM44.7503 71.6149V67.9556C44.7503 67.2238 45.2383 66.7357 45.9702 66.7357H55.7281C56.4599 66.7357 56.948 67.2238 56.948 67.9556C56.948 68.6875 56.4599 69.1755 55.7281 69.1755H47.1896V71.6149C47.1896 72.3468 46.7016 72.8348 45.9697 72.8348C45.2383 72.8348 44.7503 72.3468 44.7503 71.6149ZM44.7503 61.857V47.2199C44.7503 46.488 45.2383 46 45.9702 46H47.1901C47.9219 46 48.41 46.488 48.41 47.2199C48.41 47.9518 47.9219 48.4398 47.1901 48.4398V61.8568C47.1901 62.5886 46.702 63.0767 45.9702 63.0767C45.2383 63.0763 44.7503 62.5886 44.7503 61.8568V61.857ZM67.926 67.9556V77.7136C67.926 78.4454 67.438 78.9335 66.7061 78.9335H60.6075C59.8756 78.9335 59.3876 78.4454 59.3876 77.7136C59.3876 76.9817 59.8756 76.4937 60.6075 76.4937H65.4866V67.9552C65.4866 67.2234 65.9747 66.7353 66.7065 66.7353C67.438 66.7357 67.926 67.2238 67.926 67.9556ZM67.926 82.5927C67.926 83.3246 67.438 83.8126 66.7061 83.8126H61.8269V86.252C61.8269 86.9839 61.3389 87.4719 60.607 87.4719C59.8752 87.4719 59.3872 86.9839 59.3872 86.252V82.5927C59.3872 81.8609 59.8752 81.3728 60.607 81.3728H66.7057C67.438 81.3728 67.926 81.8609 67.926 82.5927ZM41.091 66.7355V69.1749C41.091 69.9068 40.603 70.3948 39.8711 70.3948C39.1392 70.3948 38.6512 69.9068 38.6512 69.1749H33.772C33.0402 69.1749 32.5521 68.6869 32.5521 67.955C32.5521 67.2232 33.0402 66.7351 33.772 66.7351H38.6512C38.6512 66.0033 39.1392 65.5152 39.8711 65.5152C40.6034 65.516 41.091 66.0037 41.091 66.7355ZM49.6294 85.0319V88.6912C49.6294 89.423 49.1414 89.9111 48.4095 89.9111H45.9702C45.2383 89.9111 44.7503 89.423 44.7503 88.6912C44.7503 87.9593 45.2383 87.4713 45.9702 87.4713H47.1901V85.0319C47.1901 84.3 47.6781 83.812 48.41 83.812C49.1414 83.8124 49.6294 84.3 49.6294 85.0319ZM59.3874 88.6912C59.3874 89.423 58.8993 89.9111 58.1675 89.9111H54.5082C53.7763 89.9111 53.2883 89.423 53.2883 88.6912L53.2887 75.2742H52.0688C51.337 75.2742 50.8489 74.7861 50.8489 74.0543C50.8489 73.3224 51.337 72.8344 52.0688 72.8344H54.5082C55.24 72.8344 55.7281 73.3224 55.7281 74.0543V87.4713H58.1675C58.8997 87.4717 59.3874 87.9593 59.3874 88.6912H59.3874ZM67.9258 88.6912C67.9258 89.423 67.4378 89.9111 66.7059 89.9111H63.0466C62.3148 89.9111 61.8267 89.423 61.8267 88.6912C61.8267 87.9593 62.3148 87.4713 63.0466 87.4713H66.7059C67.4378 87.4717 67.9258 87.9593 67.9258 88.6912ZM59.3874 71.6149V67.9556C59.3874 67.2238 59.8754 66.7357 60.6073 66.7357C61.3391 66.7357 61.8272 67.2238 61.8272 67.9556V71.6149C61.8272 72.3468 61.3391 72.8348 60.6073 72.8348C59.8754 72.8348 59.3874 72.3468 59.3874 71.6149Z" fill="black"/>
</g>
<path d="M134.762 50.2988H120.977C119.505 50.2988 118.313 51.3145 118.313 52.5674V64.3004V64.2994C118.313 65.5523 119.505 66.5679 120.977 66.5679H134.762C136.233 66.5679 137.426 65.5523 137.426 64.2994V52.5674C137.426 51.3145 136.233 50.2989 134.762 50.2989V50.2988ZM132.098 62.0319H123.643L123.641 54.835H132.097L132.098 62.0319Z" fill="black"/>
<path d="M155.961 66.5659H169.744C171.216 66.5659 172.409 65.5503 172.409 64.2984V52.5675C172.409 51.3146 171.216 50.299 169.744 50.299H155.961C154.489 50.299 153.296 51.3146 153.296 52.5675V64.3006V64.2995C153.297 65.5514 154.491 66.566 155.961 66.566V66.5659ZM158.625 54.8329H167.08V62.0298H158.625V54.8329Z" fill="black"/>
<path d="M134.762 80.5758H120.977C119.505 80.5758 118.313 81.5914 118.313 82.8433V94.5785C118.313 95.8304 119.505 96.846 120.977 96.846H134.762C136.233 96.846 137.426 95.8304 137.426 94.5785V82.8433C137.426 81.5914 136.233 80.5758 134.762 80.5758ZM132.098 92.3099H123.643L123.641 85.1119H132.097L132.098 92.3099Z" fill="black"/>
<path d="M153.294 94.5777C153.294 95.8295 154.487 96.8452 155.959 96.8452H169.741C171.213 96.8452 172.407 95.8295 172.407 94.5777V82.8425C172.407 81.5906 171.213 80.575 169.741 80.575H155.959C154.487 80.575 153.294 81.5906 153.294 82.8425V94.5777ZM158.623 85.1112H167.077V92.3092H158.623V85.1112Z" fill="black"/>
<path d="M147.803 64.298V52.5671C147.803 51.3142 146.609 50.2986 145.137 50.2986C143.667 50.2986 142.473 51.3142 142.473 52.5671V64.3002V64.2991C142.473 65.5521 143.667 66.5677 145.137 66.5677C146.609 66.5677 147.803 65.5521 147.803 64.2991V64.298Z" fill="black"/>
<path d="M155.961 75.9023H169.744C171.216 75.9023 172.409 74.8866 172.409 73.6337C172.409 72.3818 171.216 71.3662 169.744 71.3662H155.961C154.489 71.3662 153.296 72.3818 153.296 73.6337C153.296 74.8866 154.489 75.9023 155.961 75.9023Z" fill="black"/>
<path d="M145.138 89.4073C143.667 89.4073 142.474 90.4219 142.474 91.6749V94.5783C142.474 95.8302 143.667 96.8459 145.138 96.8459C146.61 96.8459 147.803 95.8302 147.803 94.5783V91.6749C147.803 90.4219 146.61 89.4073 145.138 89.4073V89.4073Z" fill="black"/>
<path d="M134.315 73.6343C134.315 74.8873 135.508 75.9029 136.98 75.9029H142.467V84.7379V84.7368C142.467 85.9897 143.66 87.0054 145.132 87.0054C146.603 87.0054 147.796 85.9897 147.796 84.7368V73.6344C147.796 72.3826 146.603 71.3669 145.132 71.3669H136.98C135.508 71.3669 134.315 72.3826 134.315 73.6344L134.315 73.6343Z" fill="black"/>
<path d="M120.383 75.9023H127.869C129.341 75.9023 130.534 74.8866 130.534 73.6337C130.534 72.3818 129.341 71.3662 127.869 71.3662H120.383C118.911 71.3662 117.719 72.3818 117.719 73.6337C117.719 74.8866 118.911 75.9023 120.383 75.9023Z" fill="black"/>
<path d="M189.161 32.0048H100.967C99.4945 32.0048 98.3013 33.0193 98.3013 34.2723V93.595L75.3134 111.971C72.8661 113.934 71.4758 116.669 71.471 119.531V162.786C71.471 164.039 72.6642 165.054 74.1363 165.054C75.6071 165.054 76.8003 164.039 76.8003 162.786V119.526C76.8028 117.916 77.586 116.379 78.9626 115.275L98.3013 99.8172V110.975C98.3013 112.227 99.4946 113.243 100.967 113.243C102.437 113.243 103.631 112.227 103.631 110.975V36.5359H186.496V130.153H143.209C141.738 130.153 140.545 131.169 140.545 132.421C140.545 133.673 141.738 134.689 143.209 134.689H189.16C190.632 134.689 191.825 133.673 191.825 132.421V34.2675C191.825 33.0146 190.632 32 189.16 32L189.161 32.0048Z" fill="black"/>
<path d="M139.736 105.974C137.117 103.933 133.667 102.842 130.118 102.931C126.569 103.021 123.2 104.284 120.728 106.453L94.971 128.905C93.9413 129.802 93.9587 131.239 95.0119 132.116C96.0651 132.992 97.7528 132.977 98.7838 132.081L124.545 109.622C126.514 107.908 129.365 107.153 132.129 107.613C134.894 108.073 137.201 109.686 138.265 111.906C139.331 114.125 139.013 116.652 137.418 118.628L102.772 161.5C101.938 162.533 102.246 163.946 103.459 164.656C104.672 165.366 106.332 165.104 107.166 164.072L141.806 121.2V121.199C143.672 118.874 144.491 116.054 144.11 113.257C143.73 110.46 142.177 107.874 139.736 105.974L139.736 105.974Z" fill="black"/>
<path d="M48.7842 196.504C48.4769 196.639 48.156 196.74 47.8227 196.808C47.4918 196.877 47.1449 196.913 46.7818 196.913C45.7038 196.913 44.8501 196.658 44.2194 196.145C43.5874 195.631 43.2727 194.934 43.2727 194.057C43.2727 193.177 43.5874 192.481 44.2194 191.969C44.8501 191.454 45.7038 191.197 46.7818 191.197C47.1449 191.197 47.4918 191.233 47.8227 191.302C48.156 191.37 48.4769 191.471 48.7842 191.606V192.745C48.4732 192.568 48.1671 192.437 47.8673 192.353C47.5662 192.268 47.249 192.226 46.9156 192.226C46.3209 192.226 45.8525 192.39 45.513 192.716C45.1722 193.039 45.0024 193.486 45.0024 194.057C45.0024 194.626 45.1722 195.073 45.513 195.399C45.8525 195.722 46.3209 195.884 46.9156 195.884C47.249 195.884 47.5662 195.844 47.8673 195.761C48.1671 195.677 48.4732 195.545 48.7842 195.365V196.504Z" fill="black"/>
<path d="M53.7069 193.8C53.5681 193.747 53.4306 193.707 53.2955 193.681C53.1629 193.654 53.0291 193.639 52.8941 193.639C52.4938 193.639 52.1865 193.749 51.9722 193.968C51.7566 194.186 51.65 194.496 51.65 194.901V196.807H50.0987V192.673H51.65V193.352C51.8483 193.082 52.0763 192.886 52.334 192.762C52.5942 192.635 52.9052 192.572 53.2658 192.572C53.3178 192.572 53.3748 192.575 53.4343 192.58C53.4963 192.584 53.5855 192.591 53.702 192.602L53.7069 193.8Z" fill="black"/>
<path d="M59.3265 194.728V195.107H55.6935C55.7331 195.417 55.8645 195.65 56.09 195.803C56.3143 195.959 56.6302 196.036 57.0367 196.036C57.3638 196.036 57.6971 195.995 58.0378 195.913C58.3811 195.829 58.733 195.704 59.0936 195.538V196.554C58.7268 196.673 58.36 196.761 57.9932 196.82C57.6265 196.881 57.2597 196.913 56.8929 196.913C56.0131 196.913 55.3291 196.723 54.8409 196.343C54.3552 195.964 54.1123 195.431 54.1123 194.745C54.1123 194.07 54.3515 193.54 54.831 193.154C55.3093 192.766 55.9672 192.572 56.8036 192.572C57.5669 192.572 58.1778 192.769 58.6375 193.163C59.096 193.554 59.3265 194.076 59.3265 194.728L59.3265 194.728ZM57.7305 194.289C57.7305 194.039 57.6438 193.838 57.4728 193.686C57.3006 193.532 57.0763 193.454 56.7987 193.454C56.4976 193.454 56.2535 193.525 56.0652 193.669C55.8769 193.812 55.7591 194.019 55.7133 194.289H57.7305Z" fill="black"/>
<path d="M62.6782 194.947C62.3535 194.947 62.1094 194.994 61.9446 195.086C61.7823 195.179 61.7018 195.317 61.7018 195.5C61.7018 195.668 61.7674 195.801 61.9 195.896C62.0314 195.989 62.2135 196.036 62.4452 196.036C62.7389 196.036 62.9855 195.947 63.1837 195.77C63.3845 195.59 63.4861 195.367 63.4861 195.099V194.947L62.6782 194.947ZM65.0473 194.449V196.808H63.4861V196.196C63.2779 196.447 63.0425 196.629 62.7822 196.744C62.5208 196.856 62.2036 196.913 61.8306 196.913C61.3275 196.913 60.9199 196.79 60.6064 196.542C60.2916 196.292 60.1355 195.967 60.1355 195.567C60.1355 195.084 60.33 194.73 60.7204 194.504C61.1132 194.276 61.729 194.162 62.5691 194.162H63.486V194.057C63.486 193.849 63.3881 193.697 63.1936 193.601C62.9978 193.503 62.6955 193.454 62.2866 193.454C61.952 193.454 61.6423 193.482 61.3548 193.538C61.0698 193.595 60.8058 193.679 60.5617 193.791V192.783C60.8914 192.715 61.2234 192.664 61.558 192.627C61.895 192.591 62.232 192.572 62.5691 192.572C63.4439 192.572 64.0758 192.72 64.4624 193.015C64.8515 193.308 65.0473 193.786 65.0473 194.449L65.0473 194.449Z" fill="black"/>
<path d="M68.1909 191.501V192.673H69.7918V193.618H68.1909V195.373C68.1909 195.565 68.2355 195.694 68.3247 195.761C68.4139 195.829 68.5899 195.863 68.8551 195.863H69.653V196.808H68.3247C67.7101 196.808 67.274 196.7 67.0162 196.483C66.761 196.263 66.6346 195.894 66.6346 195.373V193.618H65.8663V192.673H66.6346V191.501H68.1909Z" fill="black"/>
<path d="M75.5897 194.728V195.107H71.9567C71.9964 195.417 72.1277 195.65 72.3532 195.803C72.5775 195.959 72.8935 196.036 73.2999 196.036C73.627 196.036 73.9603 195.995 74.3011 195.913C74.6443 195.829 74.9962 195.704 75.3568 195.538V196.554C74.99 196.673 74.6233 196.761 74.2565 196.82C73.8897 196.881 73.5229 196.913 73.1561 196.913C72.2764 196.913 71.5924 196.723 71.1042 196.343C70.6184 195.964 70.3755 195.431 70.3755 194.745C70.3755 194.07 70.6147 193.54 71.0942 193.154C71.5725 192.766 72.2305 192.572 73.0669 192.572C73.8302 192.572 74.441 192.769 74.9007 193.163C75.3592 193.554 75.5897 194.076 75.5897 194.728L75.5897 194.728ZM73.9938 194.289C73.9938 194.039 73.907 193.838 73.736 193.686C73.5638 193.532 73.3395 193.454 73.062 193.454C72.7609 193.454 72.5168 193.525 72.3284 193.669C72.1401 193.812 72.0224 194.019 71.9765 194.289H73.9938Z" fill="black"/>
<path d="M80.0666 193.277V191.062H81.6279V196.807H80.0666V196.208C79.8547 196.453 79.6205 196.632 79.3628 196.744C79.105 196.856 78.8052 196.913 78.4657 196.913C77.8672 196.913 77.3765 196.71 76.9936 196.305C76.6095 195.9 76.4187 195.381 76.4187 194.745C76.4187 194.106 76.6095 193.584 76.9936 193.179C77.3765 192.774 77.8672 192.572 78.4657 192.572C78.8027 192.572 79.1001 192.63 79.3578 192.745C79.618 192.861 79.8547 193.038 80.0666 193.276V193.277ZM79.0456 195.955C79.3752 195.955 79.6279 195.853 79.8039 195.647C79.9786 195.44 80.0666 195.139 80.0666 194.745C80.0666 194.351 79.9786 194.052 79.8039 193.846C79.6279 193.638 79.3752 193.534 79.0456 193.534C78.7147 193.534 78.462 193.638 78.2872 193.846C78.1113 194.052 78.0246 194.351 78.0246 194.745C78.0246 195.139 78.1113 195.44 78.2872 195.647C78.462 195.853 78.7148 195.955 79.0456 195.955Z" fill="black"/>
<path d="M88.7985 195.955C89.1318 195.955 89.3858 195.853 89.5617 195.647C89.7364 195.44 89.8244 195.139 89.8244 194.745C89.8244 194.351 89.7364 194.052 89.5617 193.846C89.3858 193.638 89.1317 193.534 88.7985 193.534C88.4639 193.534 88.2086 193.638 88.0302 193.846C87.8543 194.055 87.7675 194.354 87.7675 194.745C87.7675 195.136 87.8543 195.435 88.0302 195.643C88.2086 195.852 88.4639 195.955 88.7985 195.955V195.955ZM87.7675 193.276C87.9819 193.038 88.2186 192.861 88.4763 192.745C88.7365 192.63 89.0364 192.572 89.3734 192.572C89.9744 192.572 90.4663 192.774 90.8504 193.179C91.2333 193.584 91.4253 194.106 91.4253 194.745C91.4253 195.381 91.2333 195.9 90.8504 196.305C90.4663 196.71 89.9744 196.913 89.3734 196.913C89.0364 196.913 88.7365 196.856 88.4763 196.744C88.2186 196.629 87.9819 196.451 87.7675 196.208V196.807H86.2162V191.062H87.7675V193.276Z" fill="black"/>
<path d="M91.9346 192.673H93.486L94.7945 195.479L95.9047 192.673H97.4561L95.414 197.2C95.2083 197.658 94.9692 197.978 94.6953 198.162C94.4203 198.347 94.0609 198.44 93.6149 198.44H92.7128V197.571H93.1985C93.4624 197.571 93.6545 197.534 93.7734 197.462C93.8949 197.391 93.989 197.264 94.0559 197.082L94.1006 196.968L91.9346 192.673Z" fill="black"/>
<path d="M100.97 191.298H102.571L103.691 195.302L104.801 191.298H106.412L107.523 195.302L108.638 191.298H110.229L108.702 196.808H106.774L105.599 192.618L104.44 196.808H102.512L100.97 191.298Z" fill="black"/>
<path d="M113.428 194.947C113.103 194.947 112.859 194.994 112.695 195.086C112.532 195.179 112.452 195.317 112.452 195.5C112.452 195.668 112.517 195.801 112.65 195.896C112.781 195.989 112.963 196.036 113.195 196.036C113.489 196.036 113.735 195.947 113.934 195.77C114.134 195.59 114.236 195.367 114.236 195.099V194.947L113.428 194.947ZM115.797 194.449V196.808H114.236V196.196C114.028 196.447 113.792 196.629 113.532 196.744C113.271 196.856 112.954 196.913 112.581 196.913C112.078 196.913 111.67 196.79 111.356 196.542C111.042 196.292 110.885 195.967 110.885 195.567C110.885 195.084 111.08 194.73 111.47 194.504C111.863 194.276 112.479 194.162 113.319 194.162H114.236V194.057C114.236 193.849 114.138 193.697 113.944 193.601C113.748 193.503 113.445 193.454 113.037 193.454C112.702 193.454 112.392 193.482 112.105 193.538C111.82 193.595 111.556 193.679 111.312 193.791V192.783C111.641 192.715 111.973 192.664 112.308 192.627C112.645 192.591 112.982 192.572 113.319 192.572C114.194 192.572 114.826 192.72 115.212 193.015C115.602 193.308 115.797 193.786 115.797 194.449L115.797 194.449Z" fill="black"/>
<path d="M122.128 194.289V196.808H120.567V194.888C120.567 194.525 120.557 194.276 120.537 194.141C120.517 194.006 120.484 193.907 120.438 193.842C120.378 193.757 120.295 193.692 120.19 193.644C120.087 193.596 119.969 193.572 119.838 193.572C119.513 193.572 119.259 193.679 119.075 193.892C118.889 194.103 118.797 194.398 118.797 194.774V196.807H117.246V191.062H118.797V193.277C119.031 193.038 119.279 192.861 119.541 192.745C119.805 192.63 120.096 192.572 120.413 192.572C120.974 192.572 121.401 192.72 121.692 193.015C121.982 193.308 122.128 193.732 122.128 194.289V194.289Z" fill="black"/>
<path d="M123.569 192.673H125.12V196.808H123.569V192.673ZM123.569 191.062H125.12V192.142H123.569V191.062Z" fill="black"/>
<path d="M129.915 193.277V191.062H131.476V196.807H129.915V196.208C129.703 196.453 129.468 196.632 129.211 196.744C128.953 196.856 128.653 196.913 128.314 196.913C127.715 196.913 127.224 196.71 126.842 196.305C126.457 195.9 126.267 195.381 126.267 194.745C126.267 194.106 126.457 193.584 126.842 193.179C127.224 192.774 127.715 192.572 128.314 192.572C128.651 192.572 128.948 192.63 129.206 192.745C129.466 192.861 129.703 193.038 129.915 193.276V193.277ZM128.893 195.955C129.223 195.955 129.476 195.853 129.652 195.647C129.827 195.44 129.914 195.139 129.914 194.745C129.914 194.351 129.827 194.052 129.652 193.846C129.476 193.638 129.223 193.534 128.893 193.534C128.563 193.534 128.31 193.638 128.135 193.846C127.959 194.052 127.872 194.351 127.872 194.745C127.872 195.139 127.959 195.44 128.135 195.647C128.31 195.853 128.563 195.955 128.893 195.955Z" fill="black"/>
<path d="M136.133 191.298H137.799V196.808H136.133V191.298Z" fill="black"/>
<path d="M139.368 191.062H140.919V196.807H139.368V191.062Z" fill="black"/>
<path d="M147.295 194.289V196.808H145.734V194.888C145.734 194.525 145.724 194.276 145.704 194.141C145.684 194.006 145.651 193.907 145.605 193.842C145.546 193.757 145.463 193.692 145.357 193.644C145.254 193.596 145.137 193.572 145.005 193.572C144.681 193.572 144.427 193.679 144.242 193.892C144.056 194.103 143.965 194.398 143.965 194.774V196.807H142.413V191.062H143.965V193.277C144.199 193.038 144.447 192.861 144.708 192.745C144.972 192.63 145.263 192.572 145.58 192.572C146.142 192.572 146.568 192.72 146.859 193.015C147.149 193.308 147.295 193.732 147.295 194.289V194.289Z" fill="black"/>
<path d="M150.911 194.947C150.586 194.947 150.342 194.994 150.177 195.086C150.015 195.179 149.935 195.317 149.935 195.5C149.935 195.668 150 195.801 150.133 195.896C150.264 195.989 150.446 196.036 150.678 196.036C150.972 196.036 151.218 195.947 151.417 195.77C151.617 195.59 151.719 195.367 151.719 195.099V194.947L150.911 194.947ZM153.28 194.449V196.808H151.719V196.196C151.511 196.447 151.275 196.629 151.015 196.744C150.754 196.856 150.436 196.913 150.063 196.913C149.56 196.913 149.153 196.79 148.839 196.542C148.524 196.292 148.368 195.967 148.368 195.567C148.368 195.084 148.563 194.73 148.953 194.504C149.346 194.276 149.962 194.162 150.802 194.162H151.719V194.057C151.719 193.849 151.621 193.697 151.426 193.601C151.231 193.503 150.928 193.454 150.519 193.454C150.185 193.454 149.875 193.482 149.588 193.538C149.303 193.595 149.039 193.679 148.795 193.791V192.783C149.124 192.715 149.456 192.664 149.791 192.627C150.128 192.591 150.465 192.572 150.802 192.572C151.677 192.572 152.309 192.72 152.695 193.015C153.084 193.308 153.28 193.786 153.28 194.449L153.28 194.449Z" fill="black"/>
<path d="M159.23 193.361C159.425 193.106 159.658 192.91 159.929 192.775C160.199 192.64 160.497 192.572 160.821 192.572C161.379 192.572 161.804 192.72 162.095 193.015C162.389 193.308 162.536 193.732 162.536 194.289V196.808H160.975V194.652V194.555C160.978 194.519 160.98 194.468 160.98 194.403C160.98 194.111 160.928 193.9 160.826 193.77C160.727 193.638 160.565 193.572 160.341 193.572C160.046 193.572 159.818 193.676 159.657 193.884C159.494 194.09 159.411 194.388 159.409 194.778V196.807H157.848V194.652C157.848 194.194 157.8 193.9 157.709 193.77C157.616 193.638 157.451 193.572 157.213 193.572C156.916 193.572 156.685 193.676 156.524 193.884C156.362 194.09 156.281 194.386 156.281 194.774V196.807H154.72V192.673H156.281V193.277C156.472 193.044 156.69 192.867 156.936 192.749C157.183 192.631 157.456 192.572 157.753 192.572C158.09 192.572 158.388 192.642 158.646 192.779C158.903 192.917 159.098 193.111 159.23 193.361L159.23 193.361Z" fill="black"/>
<path d="M167.146 191.298H169.267L170.744 194.247L172.226 191.298H174.347V196.808H172.766V192.774L171.274 195.749H170.219L168.727 192.774V196.808H167.146V191.298Z" fill="black"/>
<path d="M176.074 195.377H177.635V196.808H176.074V195.377Z" fill="black"/>
<path d="M184.82 193.741C185.17 193.741 185.421 193.686 185.574 193.576C185.725 193.464 185.802 193.281 185.802 193.028C185.802 192.778 185.725 192.599 185.574 192.492C185.421 192.382 185.17 192.327 184.82 192.327H184.117V193.741L184.82 193.741ZM184.117 194.724V196.808H182.451V191.298H184.999C185.851 191.298 186.476 191.42 186.872 191.665C187.271 191.908 187.472 192.292 187.472 192.817C187.472 193.183 187.368 193.482 187.16 193.715C186.954 193.949 186.644 194.12 186.228 194.23C186.456 194.275 186.659 194.377 186.838 194.534C187.018 194.689 187.202 194.925 187.388 195.242L188.295 196.808H186.515L185.727 195.437C185.569 195.161 185.406 194.975 185.242 194.875C185.079 194.774 184.862 194.724 184.592 194.724L184.117 194.724Z" fill="black"/>
<path d="M189.22 192.673H190.772V196.808H189.22V192.673ZM189.22 191.062H190.772V192.142H189.22V191.062Z" fill="black"/>
<path d="M195.457 191.062V191.931H194.599C194.381 191.931 194.228 191.965 194.138 192.032C194.052 192.1 194.01 192.218 194.01 192.386V192.673H195.338V193.618H194.01V196.807H192.458V193.618H191.685V192.673H192.458V192.386C192.458 191.937 192.604 191.604 192.899 191.387C193.193 191.17 193.65 191.062 194.272 191.062L195.457 191.062Z" fill="black"/>
<path d="M198.304 194.947C197.98 194.947 197.736 194.994 197.571 195.086C197.408 195.179 197.328 195.317 197.328 195.5C197.328 195.668 197.394 195.801 197.526 195.896C197.657 195.989 197.84 196.036 198.071 196.036C198.365 196.036 198.612 195.947 198.81 195.77C199.011 195.59 199.112 195.367 199.112 195.099V194.947L198.304 194.947ZM200.673 194.449V196.808H199.112V196.196C198.904 196.447 198.669 196.629 198.408 196.744C198.147 196.856 197.83 196.913 197.457 196.913C196.954 196.913 196.546 196.79 196.232 196.542C195.918 196.292 195.762 195.967 195.762 195.567C195.762 195.084 195.956 194.73 196.346 194.504C196.739 194.276 197.355 194.162 198.195 194.162H199.112V194.057C199.112 193.849 199.014 193.697 198.82 193.601C198.624 193.503 198.322 193.454 197.913 193.454C197.578 193.454 197.268 193.482 196.981 193.538C196.696 193.595 196.432 193.679 196.188 193.791V192.783C196.517 192.715 196.85 192.664 197.184 192.627C197.521 192.591 197.858 192.572 198.195 192.572C199.07 192.572 199.702 192.72 200.089 193.015C200.478 193.308 200.673 193.786 200.673 194.449L200.673 194.449Z" fill="black"/>
<path d="M202.123 192.673H203.675V196.808H202.123V192.673ZM202.123 191.062H203.675V192.142H202.123V191.062Z" fill="black"/>
<path d="M46.7718 198.622V199.491H45.9144C45.6963 199.491 45.5426 199.524 45.4534 199.592C45.3667 199.659 45.3246 199.778 45.3246 199.946V200.233H46.6529V201.178H45.3246V204.367H43.7732V201.178H43V200.233H43.7732V199.946C43.7732 199.497 43.9194 199.164 44.2143 198.946C44.508 198.73 44.9652 198.622 45.5872 198.622L46.7718 198.622Z" fill="black"/>
<path d="M51.0528 201.359C50.914 201.307 50.7764 201.267 50.6414 201.241C50.5088 201.214 50.375 201.199 50.2399 201.199C49.8397 201.199 49.5324 201.309 49.318 201.528C49.1024 201.745 48.9959 202.055 48.9959 202.46V204.367H47.4445V200.233H48.9959V200.912C49.1941 200.642 49.4221 200.446 49.6798 200.322C49.94 200.195 50.2511 200.132 50.6116 200.132C50.6637 200.132 50.7207 200.135 50.7802 200.14C50.8421 200.143 50.9313 200.151 51.0478 200.161L51.0528 201.359Z" fill="black"/>
<path d="M54.1345 201.077C53.7901 201.077 53.5273 201.182 53.3464 201.393C53.1643 201.604 53.0738 201.908 53.0738 202.304C53.0738 202.701 53.1643 203.005 53.3464 203.216C53.5273 203.424 53.79 203.528 54.1345 203.528C54.4716 203.528 54.7293 203.424 54.9077 203.216C55.0886 203.005 55.1803 202.701 55.1803 202.304C55.1803 201.908 55.0886 201.604 54.9077 201.393C54.7293 201.182 54.4716 201.077 54.1345 201.077V201.077ZM54.1345 200.132C54.9697 200.132 55.6227 200.325 56.0923 200.71C56.5607 201.093 56.7961 201.624 56.7961 202.304C56.7961 202.982 56.5607 203.514 56.0923 203.899C55.6227 204.282 54.9697 204.473 54.1345 204.473C53.2944 204.473 52.6389 204.282 52.1668 203.899C51.6935 203.514 51.4581 202.982 51.4581 202.304C51.4581 201.624 51.6935 201.092 52.1668 200.71C52.6389 200.325 53.2944 200.132 54.1345 200.132V200.132Z" fill="black"/>
<path d="M62.4266 200.921C62.6212 200.665 62.8541 200.469 63.1255 200.334C63.3956 200.199 63.693 200.132 64.0176 200.132C64.5752 200.132 65.0003 200.279 65.2914 200.575C65.5851 200.868 65.7326 201.292 65.7326 201.849V204.367H64.1713V202.211V202.114C64.1737 202.079 64.1762 202.028 64.1762 201.963C64.1762 201.67 64.1242 201.46 64.0226 201.33C63.9234 201.198 63.7611 201.132 63.5369 201.132C63.242 201.132 63.014 201.236 62.8529 201.444C62.6906 201.649 62.6076 201.948 62.6051 202.338V204.367H61.0438V202.211C61.0438 201.754 60.9967 201.459 60.905 201.33C60.8121 201.198 60.6473 201.131 60.4094 201.131C60.112 201.131 59.8815 201.236 59.7204 201.444C59.5581 201.649 59.4776 201.946 59.4776 202.334V204.367H57.9163V200.233H59.4776V200.836C59.6684 200.603 59.8865 200.427 60.1318 200.309C60.3796 200.191 60.6522 200.132 60.9496 200.132C61.2866 200.132 61.584 200.201 61.8418 200.339C62.0995 200.477 62.294 200.671 62.4266 200.921L62.4266 200.921Z" fill="black"/>
<path d="M71.9689 199.06V200.233H73.5699V201.178H71.9689V202.933C71.9689 203.125 72.0135 203.254 72.1028 203.321C72.192 203.389 72.3679 203.422 72.6331 203.422H73.4311V204.367H72.1028C71.4882 204.367 71.052 204.26 70.7943 204.043C70.539 203.823 70.4126 203.454 70.4126 202.933V201.178H69.6444V200.233H70.4126V199.06H71.9689Z" fill="black"/>
<path d="M79.4011 201.849V204.367H77.8398V202.448C77.8398 202.085 77.8299 201.836 77.8101 201.701C77.7902 201.566 77.7568 201.467 77.7109 201.402C77.6515 201.317 77.5684 201.252 77.4631 201.203C77.3603 201.156 77.2426 201.132 77.1112 201.132C76.7866 201.132 76.5326 201.239 76.3479 201.452C76.1621 201.663 76.0704 201.957 76.0704 202.334V204.367H74.519V198.622H76.0704V200.836C76.3046 200.598 76.5524 200.421 76.8139 200.305C77.0778 200.19 77.369 200.132 77.6862 200.132C78.2475 200.132 78.6738 200.279 78.9649 200.575C79.2549 200.868 79.4011 201.292 79.4011 201.849V201.849Z" fill="black"/>
<path d="M85.6897 202.288V202.667H82.0566C82.0963 202.977 82.2276 203.209 82.4532 203.363C82.6774 203.518 82.9934 203.595 83.3998 203.595C83.7269 203.595 84.0603 203.555 84.401 203.473C84.7442 203.389 85.0962 203.264 85.4567 203.098V204.114C85.09 204.232 84.7232 204.321 84.3564 204.38C83.9896 204.441 83.6228 204.473 83.256 204.473C82.3763 204.473 81.6923 204.283 81.2041 203.903C80.7184 203.524 80.4755 202.991 80.4755 202.304C80.4755 201.629 80.7146 201.1 81.1941 200.714C81.6724 200.326 82.3304 200.132 83.1668 200.132C83.9301 200.132 84.541 200.329 85.0007 200.722C85.4591 201.114 85.6896 201.636 85.6896 202.288L85.6897 202.288ZM84.0937 201.849C84.0937 201.599 84.007 201.397 83.836 201.246C83.6637 201.092 83.4395 201.014 83.1619 201.014C82.8608 201.014 82.6167 201.085 82.4284 201.229C82.24 201.372 82.1223 201.579 82.0764 201.849H84.0937Z" fill="black"/>
<path d="M90.0276 198.858H91.8912L94.2456 202.638V198.858H95.8267V204.367H93.963L91.6087 200.587V204.367H90.0276V198.858Z" fill="black"/>
<path d="M99.7013 201.077C99.3569 201.077 99.0941 201.182 98.9132 201.393C98.7311 201.604 98.6406 201.908 98.6406 202.304C98.6406 202.701 98.7311 203.005 98.9132 203.216C99.0942 203.424 99.3568 203.528 99.7013 203.528C100.038 203.528 100.296 203.424 100.475 203.216C100.655 203.005 100.747 202.701 100.747 202.304C100.747 201.908 100.655 201.604 100.475 201.393C100.296 201.182 100.038 201.077 99.7013 201.077V201.077ZM99.7013 200.132C100.536 200.132 101.189 200.325 101.659 200.71C102.128 201.093 102.363 201.624 102.363 202.304C102.363 202.982 102.128 203.514 101.659 203.899C101.189 204.282 100.536 204.473 99.7013 204.473C98.8612 204.473 98.2057 204.282 97.7336 203.899C97.2603 203.514 97.0249 202.982 97.0249 202.304C97.0249 201.624 97.2603 201.092 97.7336 200.71C98.2057 200.325 98.8612 200.132 99.7013 200.132V200.132Z" fill="black"/>
<path d="M103.44 202.756V200.233H105.001V200.646C105.001 200.872 104.999 201.153 104.996 201.49C104.992 201.828 104.991 202.053 104.991 202.165C104.991 202.501 105.001 202.741 105.021 202.887C105.043 203.033 105.078 203.139 105.125 203.203C105.191 203.29 105.275 203.358 105.378 203.405C105.479 203.451 105.597 203.473 105.73 203.473C106.053 203.473 106.307 203.367 106.493 203.157C106.677 202.946 106.77 202.652 106.77 202.275V200.233H108.322V204.367H106.77V203.768C106.535 204.011 106.287 204.189 106.027 204.304C105.765 204.416 105.477 204.473 105.16 204.473C104.601 204.473 104.174 204.327 103.881 204.034C103.586 203.742 103.44 203.316 103.44 202.756V202.756Z" fill="black"/>
<path d="M114.699 201.849V204.367H113.138V202.439C113.138 202.083 113.128 201.836 113.108 201.701C113.089 201.566 113.055 201.467 113.009 201.402C112.95 201.317 112.867 201.252 112.761 201.203C112.659 201.156 112.541 201.132 112.41 201.132C112.085 201.132 111.831 201.239 111.646 201.452C111.46 201.663 111.369 201.957 111.369 202.334V204.367H109.817V200.233H111.369V200.836C111.603 200.598 111.851 200.421 112.112 200.305C112.376 200.19 112.667 200.132 112.985 200.132C113.546 200.132 113.972 200.28 114.263 200.575C114.553 200.868 114.699 201.292 114.699 201.849V201.849Z" fill="black"/>
<path d="M119.301 198.858H122.072C122.895 198.858 123.526 199.014 123.965 199.326C124.408 199.636 124.63 200.079 124.63 200.655C124.63 201.232 124.408 201.676 123.965 201.988C123.526 202.3 122.895 202.456 122.072 202.456H120.967V204.367H119.301V198.858ZM120.967 199.887V201.427H121.894C122.217 201.427 122.466 201.359 122.642 201.224C122.821 201.089 122.91 200.9 122.91 200.655C122.91 200.408 122.821 200.218 122.642 200.085C122.466 199.954 122.217 199.887 121.894 199.887L120.967 199.887Z" fill="black"/>
<path d="M129.35 201.359C129.212 201.307 129.074 201.267 128.939 201.241C128.807 201.214 128.673 201.199 128.538 201.199C128.137 201.199 127.83 201.309 127.616 201.528C127.4 201.745 127.294 202.055 127.294 202.46V204.367H125.742V200.233H127.294V200.912C127.492 200.642 127.72 200.446 127.978 200.322C128.238 200.195 128.549 200.132 128.909 200.132C128.961 200.132 129.018 200.135 129.078 200.14C129.14 200.143 129.229 200.151 129.346 200.161L129.35 201.359Z" fill="black"/>
<path d="M132.431 201.077C132.087 201.077 131.824 201.182 131.643 201.393C131.461 201.604 131.37 201.908 131.37 202.304C131.37 202.701 131.461 203.005 131.643 203.216C131.824 203.424 132.087 203.528 132.431 203.528C132.768 203.528 133.026 203.424 133.204 203.216C133.385 203.005 133.477 202.701 133.477 202.304C133.477 201.908 133.385 201.604 133.204 201.393C133.026 201.182 132.768 201.077 132.431 201.077V201.077ZM132.431 200.132C133.266 200.132 133.919 200.325 134.389 200.71C134.857 201.093 135.093 201.624 135.093 202.304C135.093 202.982 134.857 203.514 134.389 203.899C133.919 204.282 133.266 204.473 132.431 204.473C131.591 204.473 130.935 204.282 130.463 203.899C129.99 203.514 129.755 202.982 129.755 202.304C129.755 201.624 129.99 201.092 130.463 200.71C130.935 200.325 131.591 200.132 132.431 200.132V200.132Z" fill="black"/>
<path d="M136.224 200.233H137.775V204.291C137.775 204.845 137.618 205.268 137.304 205.561C136.993 205.853 136.541 206 135.946 206H135.178V205.131H135.451C135.744 205.131 135.946 205.074 136.055 204.962C136.167 204.849 136.224 204.626 136.224 204.291L136.224 200.233ZM136.224 198.622H137.775V199.702H136.224V198.622Z" fill="black"/>
<path d="M144.116 202.288V202.667H140.483C140.523 202.977 140.654 203.209 140.879 203.363C141.104 203.518 141.42 203.595 141.826 203.595C142.153 203.595 142.486 203.555 142.827 203.473C143.17 203.389 143.522 203.264 143.883 203.098V204.114C143.516 204.232 143.149 204.321 142.783 204.38C142.416 204.441 142.049 204.473 141.682 204.473C140.803 204.473 140.119 204.283 139.63 203.903C139.145 203.524 138.902 202.991 138.902 202.304C138.902 201.629 139.141 201.1 139.62 200.714C140.099 200.326 140.757 200.132 141.593 200.132C142.356 200.132 142.967 200.329 143.427 200.722C143.885 201.114 144.116 201.636 144.116 202.288L144.116 202.288ZM142.52 201.849C142.52 201.599 142.433 201.397 142.262 201.246C142.09 201.092 141.866 201.014 141.588 201.014C141.287 201.014 141.043 201.085 140.855 201.229C140.666 201.372 140.549 201.579 140.503 201.849H142.52Z" fill="black"/>
<path d="M149.214 200.364V201.44C149.005 201.316 148.793 201.225 148.579 201.165C148.367 201.106 148.148 201.077 147.92 201.077C147.486 201.077 147.148 201.186 146.904 201.402C146.662 201.616 146.542 201.916 146.542 202.305C146.542 202.691 146.662 202.991 146.904 203.207C147.148 203.421 147.486 203.528 147.92 203.528C148.16 203.528 148.391 203.498 148.609 203.439C148.827 203.378 149.028 203.286 149.214 203.165V204.245C148.972 204.321 148.725 204.377 148.475 204.414C148.227 204.453 147.976 204.473 147.722 204.473C146.846 204.473 146.16 204.282 145.665 203.899C145.172 203.517 144.926 202.986 144.926 202.305C144.926 201.621 145.172 201.089 145.665 200.706C146.16 200.324 146.846 200.132 147.722 200.132C147.976 200.132 148.227 200.152 148.475 200.191C148.723 200.228 148.968 200.286 149.214 200.364V200.364Z" fill="black"/>
<path d="M152.252 199.06V200.233H153.853V201.178H152.252V202.933C152.252 203.125 152.296 203.254 152.386 203.321C152.475 203.389 152.651 203.422 152.916 203.422H153.714V204.367H152.386C151.771 204.367 151.335 204.26 151.077 204.043C150.822 203.823 150.695 203.454 150.695 202.933V201.178H149.927V200.233H150.695V199.06H152.252Z" fill="black"/>
<path d="M258.657 45H218.009C217.269 45 216.666 45.6204 216.666 46.3826V88.2422C216.666 89.0043 217.269 89.6248 218.009 89.6248H258.657C259.398 89.6248 260 89.0044 260 88.2422V46.3826C260 45.6204 259.398 45 258.657 45V45ZM259.105 88.2421C259.105 88.4964 258.905 88.7031 258.657 88.7031H218.009C217.762 88.7031 217.561 88.4967 217.561 88.2421L217.562 46.3825C217.562 46.1286 217.763 45.9216 218.009 45.9216H258.658C258.905 45.9216 259.105 46.1286 259.105 46.3825L259.105 88.2421Z" fill="black"/>
<path d="M236.051 55.5615H233.008V53.9947H236.051V52.4279H234.529V50.8608H237.572V47.7272H236.051V49.2936H233.008V47.7272H231.486V50.8608H233.008V52.4279H231.486V58.6954H233.008V57.1282H234.529V60.2622H236.051V55.5615Z" fill="black"/>
<path d="M239.094 60.262V53.9945H240.616V47.7271H239.094V50.8606H237.573V60.2619L239.094 60.262Z" fill="black"/>
<path d="M229.965 47.7271H219.314V58.6952H229.965V47.7271ZM228.443 57.1283H220.835V49.2937H228.443V57.1283Z" fill="black"/>
<path d="M243.659 53.9945H245.18V49.2935H242.137V50.8606H243.659V53.9945Z" fill="black"/>
<path d="M246.701 58.6952H257.352V47.7271H246.701V58.6952ZM248.223 49.2931H255.831L255.831 57.1277H248.223L248.223 49.2931Z" fill="black"/>
<path d="M222.357 50.8605H226.922V55.5612H222.357V50.8605Z" fill="black"/>
<path d="M249.745 50.8605H254.309V55.5612H249.745V50.8605Z" fill="black"/>
<path d="M242.137 60.2619V63.3955H246.701V61.8287H243.658V60.2619H245.18V55.5612H243.658V58.6951H242.137V53.9944H240.615V60.2619H242.137Z" fill="black"/>
<path d="M229.965 66.5294H228.443V64.9623H229.965V63.3952H225.4V60.2616H223.879V61.8284H219.314V68.0959H220.835V64.9623H222.357V63.3952H223.879V64.9623H226.921V66.5294H223.879V68.0959H220.835V69.6633H222.357V71.2298H223.879V72.7966H226.921V71.2298H229.965V72.7966H226.921V74.3634H231.486V69.6633H226.921V68.0959H231.486V64.9623H229.965V66.5294Z" fill="black"/>
<path d="M228.443 60.262H229.965V61.8284H228.443V60.262Z" fill="black"/>
<path d="M234.529 63.3957V60.2621H233.008V61.8289H231.486V64.9628H233.008V63.3957H234.529Z" fill="black"/>
<path d="M236.051 63.3957H239.093V61.8289H237.572V60.2621H236.051V63.3957Z" fill="black"/>
<path d="M248.223 60.262H252.788V61.8284H248.223V60.262Z" fill="black"/>
<path d="M254.309 64.9627H255.831V68.0962H257.352V63.3955H255.831V61.8288H257.352V60.262H254.309V64.9627Z" fill="black"/>
<path d="M234.529 63.3956H236.051V64.9624H234.529V63.3956Z" fill="black"/>
<path d="M240.615 63.3956H242.137V64.9624H240.615V63.3956Z" fill="black"/>
<path d="M251.266 63.3956H252.787V64.9624H251.266V63.3956Z" fill="black"/>
<path d="M222.357 64.9626H223.878V66.5294H222.357V64.9626Z" fill="black"/>
<path d="M233.008 64.9626H234.529V66.5294H233.008V64.9626Z" fill="black"/>
<path d="M240.615 66.5294H239.094V64.9623H236.051V68.0959H240.615V66.5294Z" fill="black"/>
<path d="M231.486 68.0963H233.008V69.6631H231.486V68.0963Z" fill="black"/>
<path d="M237.572 69.6639H236.051V68.0964H234.529V71.2303H236.051V72.7971H239.094V71.2303H237.572V69.6639Z" fill="black"/>
<path d="M242.137 68.0963H245.18V69.6631H242.137V68.0963Z" fill="black"/>
<path d="M219.314 69.6641H220.835V71.2305H219.314V69.6641Z" fill="black"/>
<path d="M239.094 69.6641H242.137V71.2305H239.094V69.6641Z" fill="black"/>
<path d="M255.831 72.7968H254.309V74.3636H257.352V69.6636H255.831V72.7968Z" fill="black"/>
<path d="M220.835 72.7969H219.314V74.3637H222.357V71.2301H220.835V72.7969Z" fill="black"/>
<path d="M242.137 71.2301H243.658V72.7969H242.137V71.2301Z" fill="black"/>
<path d="M236.051 74.3638V72.797H234.529V77.498H233.008V80.6313H234.529V79.0648H236.051V75.9306H237.572V79.0648H239.093V77.498H240.615V72.797H239.093V74.3638H236.051Z" fill="black"/>
<path d="M231.486 74.3638H233.008V75.9306H231.486V74.3638Z" fill="black"/>
<path d="M251.266 74.3639V71.2303H254.309L254.309 66.5299H252.788V69.6635H249.745V68.0967H251.267V64.9632H249.745V63.3964H248.224V66.5306H246.702V64.9638H243.659V66.5306H245.18V68.0964H248.223V69.6632H246.702V71.2303H248.223V72.7971H246.702V71.2303H245.18V72.7971H243.659V74.3639H242.137V75.9307H243.659V79.0649H240.615V82.1985H242.137V85.3321H243.658V83.7653L245.18 83.7656V80.632H248.223V82.1988H249.744V80.632H251.266V77.4985L252.788 77.4981V74.3639H251.266ZM249.745 79.0649H245.18V74.3639H249.745V79.0649Z" fill="black"/>
<path d="M246.701 75.9305H248.222V77.4973H246.701V75.9305Z" fill="black"/>
<path d="M254.309 77.4984H252.788V80.6316H254.309V79.0651H255.831V77.4984H257.352V75.9309H254.309V77.4984Z" fill="black"/>
<path d="M219.314 86.8987H229.965V75.9305H219.314V86.8987ZM220.835 77.4982H228.443V85.3325H220.835V77.4982Z" fill="black"/>
<path d="M222.357 79.0645H226.922V83.7645H222.357V79.0645Z" fill="black"/>
<path d="M236.051 79.0645H237.572V80.6309H236.051V79.0645Z" fill="black"/>
<path d="M231.486 80.6312H233.008V82.198H231.486V80.6312Z" fill="black"/>
<path d="M234.529 80.6312H236.051V82.198H234.529V80.6312Z" fill="black"/>
<path d="M254.309 80.6312H255.831V82.198H254.309V80.6312Z" fill="black"/>
<path d="M233.008 82.1989H234.529V85.3324H233.008V82.1989Z" fill="black"/>
<path d="M240.615 83.7651H239.094V82.1986H237.573V83.7651H236.051V85.3322H237.573V86.8987H242.137V85.3322H240.615V83.7651Z" fill="black"/>
<path d="M248.223 83.7651V82.1986H246.701V85.3322H243.658V86.8987H248.223V85.3322H249.745V86.8987H251.266V85.3322H252.788V82.1986H249.745V83.7651H248.223Z" fill="black"/>
<path d="M255.831 82.1989H257.352V83.7653H255.831V82.1989Z" fill="black"/>
<path d="M254.309 85.3319H257.352V86.8984H254.309V85.3319Z" fill="black"/>
<path d="M217.457 97.1752C217.38 97.2164 217.299 97.2472 217.215 97.2678C217.132 97.289 217.044 97.2999 216.953 97.2999C216.681 97.2999 216.466 97.2221 216.307 97.0659C216.148 96.909 216.069 96.6969 216.069 96.4294C216.069 96.1613 216.148 95.9492 216.307 95.7929C216.466 95.6361 216.681 95.5576 216.953 95.5576C217.044 95.5576 217.132 95.5685 217.215 95.5898C217.299 95.6103 217.38 95.6412 217.457 95.6823V96.0295C217.379 95.9755 217.302 95.9357 217.226 95.9099C217.15 95.8842 217.07 95.8714 216.986 95.8714C216.837 95.8714 216.719 95.9212 216.633 96.0205C216.547 96.1192 216.504 96.2555 216.504 96.4294C216.504 96.6027 216.547 96.739 216.633 96.8383C216.719 96.937 216.837 96.9862 216.986 96.9862C217.07 96.9862 217.15 96.974 217.226 96.9489C217.302 96.9232 217.379 96.883 217.457 96.828V97.1752Z" fill="black"/>
<path d="M218.697 96.3508C218.662 96.3347 218.628 96.3225 218.594 96.3148C218.56 96.3065 218.527 96.302 218.493 96.302C218.392 96.302 218.314 96.3354 218.26 96.4023C218.206 96.4685 218.179 96.563 218.179 96.6864V97.2676H217.788V96.0075H218.179V96.2146C218.229 96.1323 218.287 96.0725 218.351 96.0345C218.417 95.996 218.495 95.9767 218.586 95.9767C218.599 95.9767 218.614 95.9776 218.629 95.9793C218.644 95.9802 218.667 95.9825 218.696 95.9857L218.697 96.3508Z" fill="black"/>
<path d="M220.113 96.6338V96.7495H219.198C219.208 96.844 219.241 96.9147 219.298 96.9616C219.354 97.0089 219.434 97.0324 219.536 97.0324C219.619 97.0324 219.703 97.0201 219.788 96.9951C219.875 96.9694 219.964 96.9314 220.054 96.8806V97.1905C219.962 97.2265 219.87 97.2535 219.777 97.2715C219.685 97.2902 219.592 97.2998 219.5 97.2998C219.278 97.2998 219.106 97.2419 218.983 97.1262C218.861 97.0105 218.799 96.8482 218.799 96.6389C218.799 96.4332 218.86 96.2718 218.981 96.1541C219.101 96.0358 219.267 95.9767 219.477 95.9767C219.67 95.9767 219.824 96.0368 219.939 96.1567C220.055 96.276 220.113 96.4351 220.113 96.6338L220.113 96.6338ZM219.711 96.5C219.711 96.4238 219.689 96.3624 219.646 96.3161C219.603 96.2692 219.546 96.2454 219.476 96.2454C219.4 96.2454 219.339 96.2673 219.291 96.311C219.244 96.3547 219.214 96.4177 219.203 96.5H219.711Z" fill="black"/>
<path d="M220.957 96.7006C220.876 96.7006 220.814 96.7148 220.773 96.7431C220.732 96.7713 220.711 96.8134 220.711 96.8691C220.711 96.9205 220.728 96.961 220.761 96.9899C220.794 97.0182 220.84 97.0324 220.899 97.0324C220.973 97.0324 221.035 97.0054 221.085 96.9514C221.135 96.8967 221.161 96.8286 221.161 96.7469V96.7006L220.957 96.7006ZM221.554 96.5489V97.2677H221.161V97.0812C221.108 97.1577 221.049 97.2133 220.984 97.2484C220.918 97.2825 220.838 97.2998 220.744 97.2998C220.617 97.2998 220.514 97.2622 220.435 97.1867C220.356 97.1105 220.317 97.0115 220.317 96.8896C220.317 96.7424 220.366 96.6344 220.464 96.5656C220.563 96.4962 220.718 96.4614 220.93 96.4614H221.161V96.4293C221.161 96.366 221.136 96.3197 221.087 96.2904C221.038 96.2605 220.962 96.2454 220.859 96.2454C220.774 96.2454 220.696 96.2541 220.624 96.2711C220.552 96.2885 220.486 96.3142 220.424 96.3483V96.041C220.507 96.0204 220.591 96.0047 220.675 95.9934C220.76 95.9825 220.845 95.9767 220.93 95.9767C221.15 95.9767 221.31 96.0217 221.407 96.1117C221.505 96.2011 221.554 96.3467 221.554 96.5489L221.554 96.5489Z" fill="black"/>
<path d="M222.346 95.6503V96.0077H222.75V96.2958H222.346V96.8307C222.346 96.8892 222.357 96.9284 222.38 96.949C222.402 96.9695 222.447 96.9798 222.514 96.9798H222.715V97.2679H222.38C222.225 97.2679 222.115 97.2351 222.05 97.1689C221.986 97.102 221.954 96.9895 221.954 96.8307V96.2958H221.761V96.0077H221.954V95.6503H222.346Z" fill="black"/>
<path d="M224.21 96.6338V96.7495H223.295C223.305 96.844 223.338 96.9147 223.395 96.9616C223.451 97.0089 223.531 97.0324 223.633 97.0324C223.716 97.0324 223.8 97.0201 223.885 96.9951C223.972 96.9694 224.061 96.9314 224.151 96.8806V97.1905C224.059 97.2265 223.967 97.2535 223.874 97.2715C223.782 97.2902 223.689 97.2998 223.597 97.2998C223.375 97.2998 223.203 97.2419 223.08 97.1262C222.958 97.0105 222.897 96.8482 222.897 96.6389C222.897 96.4332 222.957 96.2718 223.078 96.1541C223.198 96.0358 223.364 95.9767 223.575 95.9767C223.767 95.9767 223.921 96.0368 224.037 96.1567C224.152 96.276 224.21 96.4351 224.21 96.6338L224.21 96.6338ZM223.808 96.5C223.808 96.4238 223.786 96.3624 223.743 96.3161C223.7 96.2692 223.643 96.2454 223.573 96.2454C223.497 96.2454 223.436 96.2673 223.389 96.311C223.341 96.3547 223.311 96.4177 223.3 96.5H223.808Z" fill="black"/>
<path d="M225.338 96.1915V95.5165H225.731V97.2678H225.338V97.0852C225.285 97.1598 225.226 97.2144 225.161 97.2485C225.096 97.2826 225.02 97.2999 224.935 97.2999C224.784 97.2999 224.66 97.2382 224.564 97.1148C224.467 96.9913 224.419 96.8328 224.419 96.639C224.419 96.4445 224.467 96.2854 224.564 96.162C224.66 96.0385 224.784 95.9768 224.935 95.9768C225.02 95.9768 225.094 95.9945 225.159 96.0295C225.225 96.0649 225.285 96.1189 225.338 96.1915V96.1915ZM225.081 97.0081C225.164 97.0081 225.227 96.9769 225.272 96.9142C225.316 96.8509 225.338 96.7592 225.338 96.639C225.338 96.5191 225.316 96.4278 225.272 96.3651C225.227 96.3018 225.164 96.27 225.081 96.27C224.997 96.27 224.934 96.3018 224.89 96.3651C224.845 96.4278 224.824 96.5191 224.824 96.639C224.824 96.7592 224.845 96.8509 224.89 96.9142C224.934 96.9769 224.997 97.0081 225.081 97.0081Z" fill="black"/>
<path d="M227.538 97.008C227.622 97.008 227.686 96.9769 227.73 96.9142C227.774 96.8508 227.796 96.7592 227.796 96.639C227.796 96.5191 227.774 96.4278 227.73 96.3651C227.686 96.3018 227.622 96.27 227.538 96.27C227.453 96.27 227.389 96.3018 227.344 96.3651C227.3 96.4288 227.278 96.5201 227.278 96.639C227.278 96.7583 227.3 96.8496 227.344 96.9129C227.389 96.9765 227.453 97.008 227.538 97.008V97.008ZM227.278 96.1915C227.332 96.1189 227.392 96.0649 227.457 96.0295C227.522 95.9945 227.598 95.9768 227.683 95.9768C227.834 95.9768 227.958 96.0385 228.055 96.162C228.151 96.2854 228.199 96.4445 228.199 96.639C228.199 96.8328 228.151 96.9913 228.055 97.1148C227.958 97.2382 227.834 97.2999 227.683 97.2999C227.598 97.2999 227.522 97.2826 227.457 97.2485C227.392 97.2134 227.332 97.1591 227.278 97.0852V97.2678H226.887V95.5165H227.278V96.1915Z" fill="black"/>
<path d="M228.328 96.0077H228.719L229.048 96.8628L229.328 96.0077H229.719L229.204 97.3874C229.153 97.5269 229.092 97.6247 229.023 97.6806C228.954 97.7372 228.863 97.7655 228.751 97.7655H228.524V97.5006H228.646C228.713 97.5006 228.761 97.4893 228.791 97.4671C228.822 97.4456 228.845 97.407 228.862 97.3514L228.873 97.3167L228.328 96.0077Z" fill="black"/>
<path d="M232.21 97.1431C232.105 97.1955 231.996 97.235 231.883 97.2614C231.77 97.2871 231.654 97.2999 231.533 97.2999C231.261 97.2999 231.046 97.2221 230.888 97.0659C230.728 96.909 230.649 96.6969 230.649 96.4294C230.649 96.1587 230.73 95.9456 230.891 95.7904C231.054 95.6354 231.275 95.5576 231.557 95.5576C231.665 95.5576 231.768 95.5685 231.868 95.5898C231.968 95.6103 232.062 95.6412 232.15 95.6823V96.0295C232.058 95.9765 231.968 95.9369 231.878 95.9112C231.788 95.8849 231.698 95.8714 231.608 95.8714C231.44 95.8714 231.31 95.9199 231.22 96.0167C231.13 96.1128 231.085 96.2504 231.085 96.4294C231.085 96.6069 231.129 96.7441 231.216 96.8409C231.303 96.938 231.427 96.9862 231.588 96.9862C231.631 96.9862 231.672 96.9836 231.709 96.9785C231.747 96.9727 231.781 96.9637 231.81 96.9515V96.6249H231.554V96.3355H232.21L232.21 97.1431Z" fill="black"/>
<path d="M233.111 96.7006C233.029 96.7006 232.968 96.7148 232.926 96.7431C232.885 96.7713 232.865 96.8134 232.865 96.8691C232.865 96.9205 232.882 96.961 232.915 96.9899C232.948 97.0182 232.994 97.0324 233.052 97.0324C233.126 97.0324 233.188 97.0054 233.238 96.9514C233.289 96.8967 233.315 96.8286 233.315 96.7469V96.7006L233.111 96.7006ZM233.708 96.5489V97.2677H233.315V97.0812C233.262 97.1577 233.203 97.2133 233.137 97.2484C233.071 97.2825 232.991 97.2998 232.898 97.2998C232.771 97.2998 232.668 97.2622 232.589 97.1867C232.51 97.1105 232.47 97.0115 232.47 96.8896C232.47 96.7424 232.519 96.6344 232.618 96.5656C232.717 96.4962 232.872 96.4614 233.084 96.4614H233.315V96.4293C233.315 96.366 233.29 96.3197 233.241 96.2904C233.192 96.2605 233.115 96.2454 233.012 96.2454C232.928 96.2454 232.85 96.2541 232.778 96.2711C232.706 96.2885 232.639 96.3142 232.578 96.3483V96.041C232.661 96.0204 232.745 96.0047 232.829 95.9934C232.914 95.9825 232.999 95.9767 233.084 95.9767C233.304 95.9767 233.463 96.0217 233.561 96.1117C233.659 96.2011 233.708 96.3467 233.708 96.5489L233.708 96.5489Z" fill="black"/>
<path d="M235.06 96.0474V96.3753C235.008 96.3377 234.955 96.3097 234.901 96.2917C234.847 96.2737 234.792 96.2647 234.735 96.2647C234.625 96.2647 234.54 96.2978 234.479 96.3637C234.418 96.429 234.387 96.5206 234.387 96.6389C234.387 96.7565 234.418 96.8482 234.479 96.9141C234.54 96.9793 234.625 97.0118 234.735 97.0118C234.795 97.0118 234.853 97.0028 234.908 96.9848C234.963 96.9661 235.014 96.9382 235.06 96.9012V97.2304C235 97.2535 234.937 97.2706 234.874 97.2818C234.812 97.2937 234.749 97.2998 234.685 97.2998C234.464 97.2998 234.291 97.2416 234.166 97.1249C234.042 97.0086 233.98 96.8466 233.98 96.6389C233.98 96.4306 234.042 96.2683 234.166 96.1516C234.291 96.0352 234.464 95.9767 234.685 95.9767C234.749 95.9767 234.812 95.9828 234.874 95.9947C234.937 96.0059 234.999 96.0236 235.06 96.0474V96.0474Z" fill="black"/>
<path d="M236.62 96.6338V96.7495H235.705C235.715 96.844 235.748 96.9147 235.805 96.9616C235.862 97.0089 235.941 97.0324 236.043 97.0324C236.126 97.0324 236.21 97.0201 236.296 96.9951C236.382 96.9694 236.471 96.9314 236.562 96.8806V97.1905C236.469 97.2265 236.377 97.2535 236.284 97.2715C236.192 97.2902 236.1 97.2998 236.007 97.2998C235.786 97.2998 235.613 97.2419 235.49 97.1262C235.368 97.0105 235.307 96.8482 235.307 96.6389C235.307 96.4332 235.367 96.2718 235.488 96.1541C235.608 96.0358 235.774 95.9767 235.985 95.9767C236.177 95.9767 236.331 96.0368 236.447 96.1567C236.562 96.276 236.62 96.4351 236.62 96.6338L236.62 96.6338ZM236.218 96.5C236.218 96.4238 236.196 96.3624 236.153 96.3161C236.11 96.2692 236.053 96.2454 235.984 96.2454C235.908 96.2454 235.846 96.2673 235.799 96.311C235.751 96.3547 235.722 96.4177 235.71 96.5H236.218Z" fill="black"/>
<path d="M238.05 96.2171C238.099 96.1393 238.158 96.0796 238.226 96.0384C238.294 95.9973 238.369 95.9767 238.451 95.9767C238.592 95.9767 238.699 96.0217 238.772 96.1117C238.846 96.2011 238.883 96.3303 238.883 96.5V97.2677H238.49V96.6106V96.581C238.49 96.5701 238.491 96.5547 238.491 96.5347C238.491 96.4457 238.478 96.3814 238.452 96.3419C238.427 96.3017 238.387 96.2814 238.33 96.2814C238.256 96.2814 238.198 96.3132 238.158 96.3766C238.117 96.4393 238.096 96.5302 238.095 96.6492V97.2677H237.702V96.6106C237.702 96.4711 237.69 96.3814 237.667 96.3418C237.644 96.3017 237.602 96.2814 237.542 96.2814C237.467 96.2814 237.409 96.3132 237.369 96.3766C237.328 96.4392 237.307 96.5296 237.307 96.6479V97.2676H236.914V96.0076H237.307V96.1914C237.355 96.1204 237.41 96.0667 237.472 96.0307C237.535 95.9947 237.603 95.9767 237.678 95.9767C237.763 95.9767 237.838 95.9979 237.903 96.0397C237.968 96.0818 238.017 96.141 238.05 96.2172L238.05 96.2171Z" fill="black"/>
<path d="M239.85 95.5885H241.353V95.9151H240.813V97.2679H240.392V95.9151H239.85L239.85 95.5885Z" fill="black"/>
<path d="M242.102 96.7006C242.02 96.7006 241.958 96.7148 241.917 96.7431C241.876 96.7713 241.856 96.8134 241.856 96.8691C241.856 96.9205 241.872 96.961 241.905 96.9899C241.939 97.0182 241.984 97.0324 242.043 97.0324C242.117 97.0324 242.179 97.0054 242.229 96.9514C242.279 96.8967 242.305 96.8286 242.305 96.7469V96.7006L242.102 96.7006ZM242.698 96.5489V97.2677H242.305V97.0812C242.253 97.1577 242.193 97.2133 242.128 97.2484C242.062 97.2825 241.982 97.2998 241.888 97.2998C241.761 97.2998 241.659 97.2622 241.58 97.1867C241.5 97.1105 241.461 97.0115 241.461 96.8896C241.461 96.7424 241.51 96.6344 241.608 96.5656C241.707 96.4962 241.862 96.4614 242.074 96.4614H242.305V96.4293C242.305 96.366 242.28 96.3197 242.231 96.2904C242.182 96.2605 242.106 96.2454 242.003 96.2454C241.919 96.2454 241.841 96.2541 241.768 96.2711C241.696 96.2885 241.63 96.3142 241.568 96.3483V96.041C241.651 96.0204 241.735 96.0047 241.819 95.9934C241.904 95.9825 241.989 95.9767 242.074 95.9767C242.294 95.9767 242.454 96.0217 242.551 96.1117C242.649 96.2011 242.698 96.3467 242.698 96.5489L242.698 96.5489Z" fill="black"/>
<path d="M244.051 96.0474V96.3753C243.999 96.3377 243.945 96.3097 243.891 96.2917C243.838 96.2737 243.783 96.2647 243.725 96.2647C243.616 96.2647 243.531 96.2978 243.469 96.3637C243.409 96.429 243.378 96.5206 243.378 96.6389C243.378 96.7565 243.409 96.8482 243.469 96.9141C243.531 96.9793 243.616 97.0118 243.725 97.0118C243.786 97.0118 243.844 97.0028 243.899 96.9848C243.954 96.9661 244.004 96.9382 244.051 96.9012V97.2304C243.99 97.2535 243.928 97.2706 243.865 97.2818C243.803 97.2937 243.739 97.2998 243.675 97.2998C243.455 97.2998 243.282 97.2416 243.157 97.1249C243.033 97.0086 242.971 96.8466 242.971 96.6389C242.971 96.4306 243.033 96.2683 243.157 96.1516C243.282 96.0352 243.455 95.9767 243.675 95.9767C243.739 95.9767 243.803 95.9828 243.865 95.9947C243.928 96.0059 243.99 96.0236 244.051 96.0474V96.0474Z" fill="black"/>
<path d="M245.62 96.5001V97.2678H245.226V96.6827C245.226 96.5721 245.224 96.4963 245.219 96.4551C245.214 96.414 245.205 96.3838 245.194 96.3638C245.179 96.3381 245.158 96.3182 245.131 96.3034C245.105 96.2889 245.076 96.2815 245.043 96.2815C244.961 96.2815 244.897 96.3143 244.85 96.3793C244.804 96.4436 244.78 96.5332 244.78 96.648V97.2678H244.39V95.5165H244.78V96.1915C244.839 96.1189 244.902 96.0649 244.968 96.0295C245.034 95.9945 245.108 95.9768 245.188 95.9768C245.329 95.9768 245.436 96.0218 245.51 96.1118C245.583 96.2012 245.62 96.3304 245.62 96.5001V96.5001Z" fill="black"/>
<path d="M246.787 95.5165V95.7814H246.571C246.516 95.7814 246.477 95.7917 246.455 95.8122C246.433 95.8328 246.422 95.8688 246.422 95.9202V96.0077H246.757V96.2957H246.422V97.2678H246.032V96.2957H245.837V96.0077H246.032V95.9202C246.032 95.7833 246.068 95.6817 246.143 95.6155C246.217 95.5496 246.332 95.5165 246.489 95.5165L246.787 95.5165Z" fill="black"/>
<path d="M246.956 96.0077H247.347V97.2678H246.956V96.0077ZM246.956 95.5165H247.347V95.8457H246.956V95.5165Z" fill="black"/>
<path d="M248.953 96.5V97.2676H248.56V96.68C248.56 96.5714 248.557 96.4961 248.552 96.455C248.547 96.4138 248.539 96.3836 248.527 96.3637C248.512 96.338 248.491 96.318 248.465 96.3033C248.439 96.2888 248.409 96.2814 248.376 96.2814C248.294 96.2814 248.23 96.3142 248.184 96.3791C248.137 96.4434 248.114 96.5331 248.114 96.6479V97.2676H247.723V96.0075H248.114V96.1914C248.173 96.1188 248.235 96.0648 248.301 96.0294C248.368 95.9944 248.441 95.9767 248.521 95.9767C248.663 95.9767 248.77 96.0217 248.843 96.1117C248.916 96.2011 248.953 96.3303 248.953 96.5V96.5Z" fill="black"/>
<path d="M216.95 97.8208V98.0857H216.734C216.679 98.0857 216.641 98.096 216.618 98.1165C216.596 98.1371 216.586 98.1731 216.586 98.2246V98.312H216.92V98.6H216.586V99.5721H216.195V98.6H216V98.312H216.195V98.2246C216.195 98.0876 216.232 97.986 216.306 97.9198C216.38 97.8539 216.495 97.8208 216.652 97.8208L216.95 97.8208Z" fill="black"/>
<path d="M218.029 98.6553C217.994 98.6392 217.959 98.627 217.925 98.6193C217.892 98.6109 217.858 98.6064 217.824 98.6064C217.723 98.6064 217.646 98.6398 217.592 98.7067C217.537 98.7729 217.511 98.8674 217.511 98.9909V99.5721H217.12V98.312H217.511V98.519C217.56 98.4367 217.618 98.3769 217.683 98.339C217.748 98.3004 217.827 98.2811 217.918 98.2811C217.931 98.2811 217.945 98.2821 217.96 98.2837C217.976 98.2847 217.998 98.2869 218.027 98.2901L218.029 98.6553Z" fill="black"/>
<path d="M218.805 98.569C218.718 98.569 218.652 98.6012 218.607 98.6655C218.561 98.7298 218.538 98.8223 218.538 98.9432C218.538 99.0641 218.561 99.1567 218.607 99.221C218.652 99.2846 218.718 99.3161 218.805 99.3161C218.89 99.3161 218.955 99.2846 219 99.221C219.045 99.1567 219.069 99.0641 219.069 98.9432C219.069 98.8223 219.045 98.7298 219 98.6655C218.955 98.6012 218.89 98.569 218.805 98.569V98.569ZM218.805 98.281C219.015 98.281 219.18 98.3398 219.298 98.4572C219.416 98.5739 219.476 98.7359 219.476 98.9432C219.476 99.1499 219.416 99.3119 219.298 99.4293C219.18 99.5459 219.015 99.6041 218.805 99.6041C218.593 99.6041 218.428 99.5459 218.309 99.4293C218.19 99.3119 218.131 99.1499 218.131 98.9432C218.131 98.7359 218.19 98.5738 218.309 98.4572C218.428 98.3398 218.593 98.281 218.805 98.281V98.281Z" fill="black"/>
<path d="M220.894 98.5215C220.943 98.4437 221.002 98.3839 221.07 98.3427C221.138 98.3016 221.213 98.281 221.295 98.281C221.435 98.281 221.542 98.326 221.616 98.416C221.69 98.5054 221.727 98.6346 221.727 98.8043V99.572H221.334V98.9149V98.8853C221.334 98.8744 221.335 98.859 221.335 98.8391C221.335 98.75 221.322 98.6857 221.296 98.6462C221.271 98.606 221.23 98.5857 221.174 98.5857C221.099 98.5857 221.042 98.6176 221.001 98.6809C220.961 98.7436 220.94 98.8345 220.939 98.9535V99.572H220.546V98.9149C220.546 98.7754 220.534 98.6857 220.511 98.6462C220.487 98.606 220.446 98.5857 220.386 98.5857C220.311 98.5857 220.253 98.6176 220.212 98.6809C220.171 98.7436 220.151 98.8339 220.151 98.9522V99.572H219.758V98.3119H220.151V98.4958C220.199 98.4247 220.254 98.371 220.316 98.335C220.378 98.299 220.447 98.281 220.522 98.281C220.607 98.281 220.682 98.3022 220.747 98.344C220.812 98.3861 220.861 98.4453 220.894 98.5215L220.894 98.5215Z" fill="black"/>
<path d="M223.298 97.9543V98.3118H223.701V98.5998H223.298V99.1348C223.298 99.1933 223.309 99.2325 223.332 99.253C223.354 99.2736 223.398 99.2839 223.465 99.2839H223.666V99.5719H223.332C223.177 99.5719 223.067 99.5391 223.002 99.4729C222.938 99.4061 222.906 99.2936 222.906 99.1348V98.5998H222.712V98.3118H222.906V97.9543H223.298Z" fill="black"/>
<path d="M225.17 98.8042V99.5719H224.777V98.9868C224.777 98.8762 224.774 98.8004 224.769 98.7592C224.764 98.7181 224.756 98.6878 224.745 98.6679C224.73 98.6422 224.709 98.6223 224.682 98.6075C224.656 98.593 224.627 98.5856 224.593 98.5856C224.512 98.5856 224.448 98.6184 224.401 98.6833C224.354 98.7476 224.331 98.8373 224.331 98.9521V99.5719H223.94V97.8206H224.331V98.4956C224.39 98.423 224.453 98.369 224.519 98.3336C224.585 98.2986 224.658 98.2809 224.738 98.2809C224.88 98.2809 224.987 98.3259 225.06 98.4159C225.133 98.5053 225.17 98.6345 225.17 98.8042V98.8042Z" fill="black"/>
<path d="M226.755 98.9382V99.0539H225.839C225.849 99.1484 225.882 99.2191 225.939 99.2661C225.996 99.3133 226.075 99.3368 226.178 99.3368C226.26 99.3368 226.344 99.3246 226.43 99.2995C226.516 99.2738 226.605 99.2359 226.696 99.1851V99.495C226.603 99.531 226.511 99.558 226.419 99.576C226.326 99.5946 226.234 99.6043 226.141 99.6043C225.92 99.6043 225.748 99.5464 225.625 99.4307C225.502 99.3149 225.441 99.1526 225.441 98.9433C225.441 98.7376 225.501 98.5762 225.622 98.4586C225.743 98.3403 225.908 98.2811 226.119 98.2811C226.311 98.2811 226.465 98.3412 226.581 98.4611C226.696 98.5804 226.755 98.7395 226.755 98.9382L226.755 98.9382ZM226.352 98.8045C226.352 98.7283 226.331 98.6669 226.288 98.6206C226.244 98.5737 226.188 98.5499 226.118 98.5499C226.042 98.5499 225.98 98.5717 225.933 98.6154C225.885 98.6592 225.856 98.7222 225.844 98.8045H226.352Z" fill="black"/>
<path d="M227.847 97.8926H228.317L228.91 99.0447V97.8926H229.308V99.5719H228.839L228.246 98.4198V99.5719H227.847V97.8926Z" fill="black"/>
<path d="M230.284 98.569C230.198 98.569 230.131 98.6012 230.086 98.6655C230.04 98.7298 230.017 98.8223 230.017 98.9432C230.017 99.0641 230.04 99.1567 230.086 99.221C230.131 99.2846 230.198 99.3161 230.284 99.3161C230.369 99.3161 230.434 99.2846 230.479 99.221C230.525 99.1567 230.548 99.0641 230.548 98.9432C230.548 98.8223 230.525 98.7298 230.479 98.6655C230.434 98.6012 230.369 98.569 230.284 98.569V98.569ZM230.284 98.281C230.495 98.281 230.659 98.3398 230.778 98.4572C230.896 98.5739 230.955 98.7359 230.955 98.9432C230.955 99.1499 230.896 99.3119 230.778 99.4293C230.659 99.5459 230.495 99.6041 230.284 99.6041C230.073 99.6041 229.908 99.5459 229.789 99.4293C229.669 99.3119 229.61 99.1499 229.61 98.9432C229.61 98.7359 229.669 98.5738 229.789 98.4572C229.908 98.3398 230.073 98.281 230.284 98.281V98.281Z" fill="black"/>
<path d="M231.226 99.0808V98.3119H231.62V98.4379C231.62 98.5067 231.619 98.5922 231.618 98.6951C231.617 98.7979 231.617 98.8667 231.617 98.9008C231.617 99.003 231.62 99.0763 231.625 99.1207C231.63 99.1654 231.639 99.1975 231.651 99.2171C231.667 99.2438 231.689 99.2644 231.714 99.2788C231.74 99.2927 231.77 99.2994 231.803 99.2994C231.885 99.2994 231.949 99.2673 231.995 99.203C232.042 99.1387 232.065 99.0493 232.065 98.9342V98.3119H232.456V99.572H232.065V99.3894C232.006 99.4633 231.944 99.5176 231.878 99.5527C231.812 99.5868 231.739 99.6041 231.659 99.6041C231.519 99.6041 231.411 99.5598 231.337 99.4704C231.263 99.3813 231.226 99.2515 231.226 99.0808V99.0808Z" fill="black"/>
<path d="M234.063 98.8044V99.5721H233.669V98.9845C233.669 98.8758 233.667 98.8006 233.662 98.7594C233.657 98.7183 233.649 98.6881 233.637 98.6681C233.622 98.6424 233.601 98.6225 233.575 98.6077C233.549 98.5932 233.519 98.5858 233.486 98.5858C233.404 98.5858 233.34 98.6186 233.294 98.6836C233.247 98.7479 233.224 98.8375 233.224 98.9523V99.5721H232.833V98.312H233.224V98.4959C233.283 98.4232 233.345 98.3692 233.411 98.3338C233.477 98.2988 233.551 98.2811 233.631 98.2811C233.772 98.2811 233.88 98.3261 233.953 98.4161C234.026 98.5055 234.063 98.6347 234.063 98.8045V98.8044Z" fill="black"/>
<path d="M235.222 97.8926H235.92C236.127 97.8926 236.286 97.9402 236.397 98.0353C236.509 98.1298 236.564 98.2648 236.564 98.4404C236.564 98.6162 236.509 98.7515 236.397 98.8467C236.286 98.9418 236.127 98.9894 235.92 98.9894H235.642V99.5719H235.222V97.8926ZM235.642 98.2063V98.6757H235.875C235.957 98.6757 236.019 98.6551 236.064 98.6139C236.109 98.5728 236.131 98.5149 236.131 98.4403C236.131 98.3651 236.109 98.3073 236.064 98.2668C236.019 98.2266 235.957 98.2063 235.875 98.2063L235.642 98.2063Z" fill="black"/>
<path d="M237.754 98.6553C237.719 98.6392 237.684 98.627 237.65 98.6193C237.617 98.6109 237.583 98.6064 237.549 98.6064C237.448 98.6064 237.371 98.6398 237.317 98.7067C237.262 98.7729 237.236 98.8674 237.236 98.9909V99.5721H236.845V98.312H237.236V98.519C237.286 98.4367 237.343 98.3769 237.408 98.339C237.473 98.3004 237.552 98.2811 237.643 98.2811C237.656 98.2811 237.67 98.2821 237.685 98.2837C237.701 98.2847 237.723 98.2869 237.752 98.2901L237.754 98.6553Z" fill="black"/>
<path d="M238.53 98.569C238.443 98.569 238.377 98.6012 238.331 98.6655C238.285 98.7298 238.263 98.8223 238.263 98.9432C238.263 99.0641 238.285 99.1567 238.331 99.221C238.377 99.2846 238.443 99.3161 238.53 99.3161C238.615 99.3161 238.68 99.2846 238.725 99.221C238.77 99.1567 238.793 99.0641 238.793 98.9432C238.793 98.8223 238.77 98.7298 238.725 98.6655C238.68 98.6012 238.615 98.569 238.53 98.569V98.569ZM238.53 98.281C238.74 98.281 238.905 98.3398 239.023 98.4572C239.141 98.5739 239.2 98.7359 239.2 98.9432C239.2 99.1499 239.141 99.3119 239.023 99.4293C238.905 99.5459 238.74 99.6041 238.53 99.6041C238.318 99.6041 238.153 99.5459 238.034 99.4293C237.915 99.3119 237.856 99.1499 237.856 98.9432C237.856 98.7359 237.915 98.5738 238.034 98.4572C238.153 98.3398 238.318 98.281 238.53 98.281V98.281Z" fill="black"/>
<path d="M239.485 98.312H239.876V99.549C239.876 99.7177 239.836 99.8466 239.758 99.936C239.679 100.025 239.565 100.07 239.415 100.07H239.222V99.8048H239.291C239.365 99.8048 239.415 99.7875 239.443 99.7534C239.471 99.719 239.485 99.6508 239.485 99.5489L239.485 98.312ZM239.485 97.8208H239.876V98.15H239.485V97.8208Z" fill="black"/>
<path d="M241.473 98.9382V99.0539H240.558C240.568 99.1484 240.601 99.2191 240.658 99.2661C240.715 99.3133 240.794 99.3368 240.897 99.3368C240.979 99.3368 241.063 99.3246 241.149 99.2995C241.235 99.2738 241.324 99.2359 241.415 99.1851V99.495C241.322 99.531 241.23 99.558 241.138 99.576C241.045 99.5946 240.953 99.6043 240.86 99.6043C240.639 99.6043 240.466 99.5464 240.343 99.4307C240.221 99.3149 240.16 99.1526 240.16 98.9433C240.16 98.7376 240.22 98.5762 240.341 98.4586C240.461 98.3403 240.627 98.2811 240.838 98.2811C241.03 98.2811 241.184 98.3412 241.3 98.4611C241.415 98.5804 241.473 98.7395 241.473 98.9382L241.473 98.9382ZM241.071 98.8045C241.071 98.7283 241.05 98.6669 241.007 98.6206C240.963 98.5737 240.907 98.5499 240.837 98.5499C240.761 98.5499 240.699 98.5717 240.652 98.6154C240.604 98.6592 240.575 98.7222 240.563 98.8045H241.071Z" fill="black"/>
<path d="M242.758 98.3518V98.6797C242.705 98.6421 242.652 98.6141 242.598 98.5961C242.545 98.5781 242.489 98.5691 242.432 98.5691C242.323 98.5691 242.237 98.6023 242.176 98.6682C242.115 98.7334 242.085 98.825 242.085 98.9433C242.085 99.061 242.115 99.1526 242.176 99.2185C242.237 99.2838 242.323 99.3162 242.432 99.3162C242.492 99.3162 242.55 99.3072 242.605 99.2892C242.66 99.2706 242.711 99.2426 242.758 99.2056V99.5348C242.697 99.558 242.635 99.575 242.572 99.5863C242.509 99.5981 242.446 99.6043 242.382 99.6043C242.161 99.6043 241.989 99.5461 241.864 99.4294C241.739 99.313 241.678 99.151 241.678 98.9433C241.678 98.735 241.739 98.5727 241.864 98.456C241.989 98.3396 242.161 98.2811 242.382 98.2811C242.446 98.2811 242.509 98.2872 242.572 98.2991C242.634 98.3104 242.696 98.3281 242.758 98.3518V98.3518Z" fill="black"/>
<path d="M243.523 97.9543V98.3118H243.926V98.5998H243.523V99.1348C243.523 99.1933 243.534 99.2325 243.557 99.253C243.579 99.2736 243.624 99.2839 243.69 99.2839H243.891V99.5719H243.557C243.402 99.5719 243.292 99.5391 243.227 99.4729C243.163 99.4061 243.131 99.2936 243.131 99.1348V98.5998H242.938V98.3118H243.131V97.9543H243.523Z" fill="black"/>
<rect x="213" y="94" width="49" height="10" fill="white"/>
<rect x="213" y="94" width="49" height="10" fill="white"/>
<rect x="213" y="94" width="49" height="10" fill="white"/>
<rect x="40" y="184" width="172" height="22" fill="white"/>
<rect x="40" y="184" width="172" height="22" fill="white"/>
<rect x="40" y="184" width="172" height="22" fill="white"/>
<defs>
<clipPath id="clip0_420_18">
<rect width="66" height="66" fill="white" transform="translate(20 32)"/>
</clipPath>
</defs>
</svg>