<svg width="281" height="205" viewBox="0 0 281 205" fill="none" xmlns="http://www.w3.org/2000/svg">
<rect width="281" height="186" fill="white"/>
<path d="M135.762 49.2988H121.977C120.505 49.2988 119.313 50.3145 119.313 51.5674V63.3004V63.2994C119.313 64.5523 120.505 65.5679 121.977 65.5679H135.762C137.233 65.5679 138.426 64.5523 138.426 63.2994V51.5674C138.426 50.3145 137.233 49.2989 135.762 49.2989V49.2988ZM133.098 61.0319H124.643L124.641 53.835H133.097L133.098 61.0319Z" fill="black"/>
<path d="M156.961 65.5659H170.744C172.216 65.5659 173.409 64.5503 173.409 63.2984V51.5675C173.409 50.3146 172.216 49.299 170.744 49.299H156.961C155.489 49.299 154.296 50.3146 154.296 51.5675V63.3006V63.2995C154.297 64.5514 155.491 65.566 156.961 65.566V65.5659ZM159.625 53.8329H168.08V61.0298H159.625V53.8329Z" fill="black"/>
<path d="M135.762 79.5758H121.977C120.505 79.5758 119.313 80.5914 119.313 81.8433V93.5785C119.313 94.8304 120.505 95.846 121.977 95.846H135.762C137.233 95.846 138.426 94.8304 138.426 93.5785V81.8433C138.426 80.5914 137.233 79.5758 135.762 79.5758ZM133.098 91.3099H124.643L124.641 84.1119H133.097L133.098 91.3099Z" fill="black"/>
<path d="M154.294 93.5777C154.294 94.8295 155.487 95.8452 156.959 95.8452H170.741C172.213 95.8452 173.407 94.8295 173.407 93.5777V81.8425C173.407 80.5906 172.213 79.575 170.741 79.575H156.959C155.487 79.575 154.294 80.5906 154.294 81.8425V93.5777ZM159.623 84.1112H168.077V91.3092H159.623V84.1112Z" fill="black"/>
<path d="M148.803 63.298V51.5671C148.803 50.3142 147.609 49.2986 146.137 49.2986C144.667 49.2986 143.473 50.3142 143.473 51.5671V63.3002V63.2991C143.473 64.5521 144.667 65.5677 146.137 65.5677C147.609 65.5677 148.803 64.5521 148.803 63.2991V63.298Z" fill="black"/>
<path d="M156.961 74.9023H170.744C172.216 74.9023 173.409 73.8866 173.409 72.6337C173.409 71.3818 172.216 70.3662 170.744 70.3662H156.961C155.489 70.3662 154.296 71.3818 154.296 72.6337C154.296 73.8866 155.489 74.9023 156.961 74.9023Z" fill="black"/>
<path d="M146.138 88.4073C144.667 88.4073 143.474 89.4219 143.474 90.6749V93.5783C143.474 94.8302 144.667 95.8459 146.138 95.8459C147.61 95.8459 148.803 94.8302 148.803 93.5783V90.6749C148.803 89.4219 147.61 88.4073 146.138 88.4073V88.4073Z" fill="black"/>
<path d="M135.315 72.6343C135.315 73.8873 136.508 74.9029 137.98 74.9029H143.467V83.7379V83.7368C143.467 84.9897 144.66 86.0054 146.132 86.0054C147.603 86.0054 148.796 84.9897 148.796 83.7368V72.6344C148.796 71.3826 147.603 70.3669 146.132 70.3669H137.98C136.508 70.3669 135.315 71.3826 135.315 72.6344L135.315 72.6343Z" fill="black"/>
<path d="M121.383 74.9023H128.869C130.341 74.9023 131.534 73.8866 131.534 72.6337C131.534 71.3818 130.341 70.3662 128.869 70.3662H121.383C119.911 70.3662 118.719 71.3818 118.719 72.6337C118.719 73.8866 119.911 74.9023 121.383 74.9023Z" fill="black"/>
<path d="M190.161 31.0048H101.967C100.495 31.0048 99.3013 32.0193 99.3013 33.2723V92.595L76.3134 110.971C73.8661 112.934 72.4758 115.669 72.471 118.531V161.786C72.471 163.039 73.6642 164.054 75.1363 164.054C76.6071 164.054 77.8003 163.039 77.8003 161.786V118.526C77.8028 116.916 78.586 115.379 79.9626 114.275L99.3013 98.8172V109.975C99.3013 111.227 100.495 112.243 101.967 112.243C103.437 112.243 104.631 111.227 104.631 109.975V35.5359H187.496V129.153H144.209C142.738 129.153 141.545 130.169 141.545 131.421C141.545 132.673 142.738 133.689 144.209 133.689H190.16C191.632 133.689 192.825 132.673 192.825 131.421V33.2675C192.825 32.0146 191.632 31 190.16 31L190.161 31.0048Z" fill="black"/>
<path d="M140.736 104.974C138.117 102.933 134.667 101.842 131.118 101.931C127.569 102.021 124.2 103.284 121.728 105.453L95.971 127.905C94.9413 128.802 94.9587 130.239 96.0119 131.116C97.0651 131.992 98.7528 131.977 99.7838 131.081L125.545 108.622C127.514 106.908 130.365 106.153 133.129 106.613C135.894 107.073 138.201 108.686 139.265 110.906C140.331 113.125 140.013 115.652 138.418 117.628L103.772 160.5C102.938 161.533 103.246 162.946 104.459 163.656C105.672 164.366 107.332 164.104 108.166 163.072L142.806 120.2V120.199C144.672 117.874 145.491 115.054 145.11 112.257C144.73 109.46 143.177 106.874 140.736 104.974L140.736 104.974Z" fill="black"/>
<path d="M49.7842 195.504C49.4769 195.639 49.156 195.74 48.8227 195.808C48.4918 195.877 48.1449 195.913 47.7818 195.913C46.7038 195.913 45.8501 195.658 45.2194 195.145C44.5874 194.631 44.2727 193.934 44.2727 193.057C44.2727 192.177 44.5874 191.481 45.2194 190.969C45.8501 190.454 46.7038 190.197 47.7818 190.197C48.1449 190.197 48.4918 190.233 48.8227 190.302C49.156 190.37 49.4769 190.471 49.7842 190.606V191.745C49.4732 191.568 49.1671 191.437 48.8673 191.353C48.5662 191.268 48.249 191.226 47.9156 191.226C47.3209 191.226 46.8525 191.39 46.513 191.716C46.1722 192.039 46.0024 192.486 46.0024 193.057C46.0024 193.626 46.1722 194.073 46.513 194.399C46.8525 194.722 47.3209 194.884 47.9156 194.884C48.249 194.884 48.5662 194.844 48.8673 194.761C49.1671 194.677 49.4732 194.545 49.7842 194.365V195.504Z" fill="black"/>
<path d="M54.7069 192.8C54.5681 192.747 54.4306 192.707 54.2955 192.681C54.1629 192.654 54.0291 192.639 53.8941 192.639C53.4938 192.639 53.1865 192.749 52.9722 192.968C52.7566 193.186 52.65 193.496 52.65 193.901V195.807H51.0987V191.673H52.65V192.352C52.8483 192.082 53.0763 191.886 53.334 191.762C53.5942 191.635 53.9052 191.572 54.2658 191.572C54.3178 191.572 54.3748 191.575 54.4343 191.58C54.4963 191.584 54.5855 191.591 54.702 191.602L54.7069 192.8Z" fill="black"/>
<path d="M60.3265 193.728V194.107H56.6935C56.7331 194.417 56.8645 194.65 57.09 194.803C57.3143 194.959 57.6302 195.036 58.0367 195.036C58.3638 195.036 58.6971 194.995 59.0378 194.913C59.3811 194.829 59.733 194.704 60.0936 194.538V195.554C59.7268 195.673 59.36 195.761 58.9932 195.82C58.6265 195.881 58.2597 195.913 57.8929 195.913C57.0131 195.913 56.3291 195.723 55.8409 195.343C55.3552 194.964 55.1123 194.431 55.1123 193.745C55.1123 193.07 55.3515 192.54 55.831 192.154C56.3093 191.766 56.9672 191.572 57.8036 191.572C58.5669 191.572 59.1778 191.769 59.6375 192.163C60.096 192.554 60.3265 193.076 60.3265 193.728L60.3265 193.728ZM58.7305 193.289C58.7305 193.039 58.6438 192.838 58.4728 192.686C58.3006 192.532 58.0763 192.454 57.7987 192.454C57.4976 192.454 57.2535 192.525 57.0652 192.669C56.8769 192.812 56.7591 193.019 56.7133 193.289H58.7305Z" fill="black"/>
<path d="M63.6782 193.947C63.3535 193.947 63.1094 193.994 62.9446 194.086C62.7823 194.179 62.7018 194.317 62.7018 194.5C62.7018 194.668 62.7674 194.801 62.9 194.896C63.0314 194.989 63.2135 195.036 63.4452 195.036C63.7389 195.036 63.9855 194.947 64.1837 194.77C64.3845 194.59 64.4861 194.367 64.4861 194.099V193.947L63.6782 193.947ZM66.0473 193.449V195.808H64.4861V195.196C64.2779 195.447 64.0425 195.629 63.7822 195.744C63.5208 195.856 63.2036 195.913 62.8306 195.913C62.3275 195.913 61.9199 195.79 61.6064 195.542C61.2916 195.292 61.1355 194.967 61.1355 194.567C61.1355 194.084 61.33 193.73 61.7204 193.504C62.1132 193.276 62.729 193.162 63.5691 193.162H64.486V193.057C64.486 192.849 64.3881 192.697 64.1936 192.601C63.9978 192.503 63.6955 192.454 63.2866 192.454C62.952 192.454 62.6423 192.482 62.3548 192.538C62.0698 192.595 61.8058 192.679 61.5617 192.791V191.783C61.8914 191.715 62.2234 191.664 62.558 191.627C62.895 191.591 63.232 191.572 63.5691 191.572C64.4439 191.572 65.0758 191.72 65.4624 192.015C65.8515 192.308 66.0473 192.786 66.0473 193.449L66.0473 193.449Z" fill="black"/>
<path d="M69.1909 190.501V191.673H70.7918V192.618H69.1909V194.373C69.1909 194.565 69.2355 194.694 69.3247 194.761C69.4139 194.829 69.5899 194.863 69.8551 194.863H70.653V195.808H69.3247C68.7101 195.808 68.274 195.7 68.0162 195.483C67.761 195.263 67.6346 194.894 67.6346 194.373V192.618H66.8663V191.673H67.6346V190.501H69.1909Z" fill="black"/>
<path d="M76.5897 193.728V194.107H72.9567C72.9964 194.417 73.1277 194.65 73.3532 194.803C73.5775 194.959 73.8935 195.036 74.2999 195.036C74.627 195.036 74.9603 194.995 75.3011 194.913C75.6443 194.829 75.9962 194.704 76.3568 194.538V195.554C75.99 195.673 75.6233 195.761 75.2565 195.82C74.8897 195.881 74.5229 195.913 74.1561 195.913C73.2764 195.913 72.5924 195.723 72.1042 195.343C71.6184 194.964 71.3755 194.431 71.3755 193.745C71.3755 193.07 71.6147 192.54 72.0942 192.154C72.5725 191.766 73.2305 191.572 74.0669 191.572C74.8302 191.572 75.441 191.769 75.9007 192.163C76.3592 192.554 76.5897 193.076 76.5897 193.728L76.5897 193.728ZM74.9938 193.289C74.9938 193.039 74.907 192.838 74.736 192.686C74.5638 192.532 74.3395 192.454 74.062 192.454C73.7609 192.454 73.5168 192.525 73.3284 192.669C73.1401 192.812 73.0224 193.019 72.9765 193.289H74.9938Z" fill="black"/>
<path d="M81.0666 192.277V190.062H82.6279V195.807H81.0666V195.208C80.8547 195.453 80.6205 195.632 80.3628 195.744C80.105 195.856 79.8052 195.913 79.4657 195.913C78.8672 195.913 78.3765 195.71 77.9936 195.305C77.6095 194.9 77.4187 194.381 77.4187 193.745C77.4187 193.106 77.6095 192.584 77.9936 192.179C78.3765 191.774 78.8672 191.572 79.4657 191.572C79.8027 191.572 80.1001 191.63 80.3578 191.745C80.618 191.861 80.8547 192.038 81.0666 192.276V192.277ZM80.0456 194.955C80.3752 194.955 80.6279 194.853 80.8039 194.647C80.9786 194.44 81.0666 194.139 81.0666 193.745C81.0666 193.351 80.9786 193.052 80.8039 192.846C80.6279 192.638 80.3752 192.534 80.0456 192.534C79.7147 192.534 79.462 192.638 79.2872 192.846C79.1113 193.052 79.0246 193.351 79.0246 193.745C79.0246 194.139 79.1113 194.44 79.2872 194.647C79.462 194.853 79.7148 194.955 80.0456 194.955Z" fill="black"/>
<path d="M89.7985 194.955C90.1318 194.955 90.3858 194.853 90.5617 194.647C90.7364 194.44 90.8244 194.139 90.8244 193.745C90.8244 193.351 90.7364 193.052 90.5617 192.846C90.3858 192.638 90.1317 192.534 89.7985 192.534C89.4639 192.534 89.2086 192.638 89.0302 192.846C88.8543 193.055 88.7675 193.354 88.7675 193.745C88.7675 194.136 88.8543 194.435 89.0302 194.643C89.2086 194.852 89.4639 194.955 89.7985 194.955V194.955ZM88.7675 192.276C88.9819 192.038 89.2186 191.861 89.4763 191.745C89.7365 191.63 90.0364 191.572 90.3734 191.572C90.9744 191.572 91.4663 191.774 91.8504 192.179C92.2333 192.584 92.4253 193.106 92.4253 193.745C92.4253 194.381 92.2333 194.9 91.8504 195.305C91.4663 195.71 90.9744 195.913 90.3734 195.913C90.0364 195.913 89.7365 195.856 89.4763 195.744C89.2186 195.629 88.9819 195.451 88.7675 195.208V195.807H87.2162V190.062H88.7675V192.276Z" fill="black"/>
<path d="M92.9346 191.673H94.486L95.7945 194.479L96.9047 191.673H98.4561L96.414 196.2C96.2083 196.658 95.9692 196.978 95.6953 197.162C95.4203 197.347 95.0609 197.44 94.6149 197.44H93.7128V196.571H94.1985C94.4624 196.571 94.6545 196.534 94.7734 196.462C94.8949 196.391 94.989 196.264 95.0559 196.082L95.1006 195.968L92.9346 191.673Z" fill="black"/>
<path d="M101.97 190.298H103.571L104.691 194.302L105.801 190.298H107.412L108.523 194.302L109.638 190.298H111.229L109.702 195.808H107.774L106.599 191.618L105.44 195.808H103.512L101.97 190.298Z" fill="black"/>
<path d="M114.428 193.947C114.103 193.947 113.859 193.994 113.695 194.086C113.532 194.179 113.452 194.317 113.452 194.5C113.452 194.668 113.517 194.801 113.65 194.896C113.781 194.989 113.963 195.036 114.195 195.036C114.489 195.036 114.735 194.947 114.934 194.77C115.134 194.59 115.236 194.367 115.236 194.099V193.947L114.428 193.947ZM116.797 193.449V195.808H115.236V195.196C115.028 195.447 114.792 195.629 114.532 195.744C114.271 195.856 113.954 195.913 113.581 195.913C113.078 195.913 112.67 195.79 112.356 195.542C112.042 195.292 111.885 194.967 111.885 194.567C111.885 194.084 112.08 193.73 112.47 193.504C112.863 193.276 113.479 193.162 114.319 193.162H115.236V193.057C115.236 192.849 115.138 192.697 114.944 192.601C114.748 192.503 114.445 192.454 114.037 192.454C113.702 192.454 113.392 192.482 113.105 192.538C112.82 192.595 112.556 192.679 112.312 192.791V191.783C112.641 191.715 112.973 191.664 113.308 191.627C113.645 191.591 113.982 191.572 114.319 191.572C115.194 191.572 115.826 191.72 116.212 192.015C116.602 192.308 116.797 192.786 116.797 193.449L116.797 193.449Z" fill="black"/>
<path d="M123.128 193.289V195.808H121.567V193.888C121.567 193.525 121.557 193.276 121.537 193.141C121.517 193.006 121.484 192.907 121.438 192.842C121.378 192.757 121.295 192.692 121.19 192.644C121.087 192.596 120.969 192.572 120.838 192.572C120.513 192.572 120.259 192.679 120.075 192.892C119.889 193.103 119.797 193.398 119.797 193.774V195.807H118.246V190.062H119.797V192.277C120.031 192.038 120.279 191.861 120.541 191.745C120.805 191.63 121.096 191.572 121.413 191.572C121.974 191.572 122.401 191.72 122.692 192.015C122.982 192.308 123.128 192.732 123.128 193.289V193.289Z" fill="black"/>
<path d="M124.569 191.673H126.12V195.808H124.569V191.673ZM124.569 190.062H126.12V191.142H124.569V190.062Z" fill="black"/>
<path d="M130.915 192.277V190.062H132.476V195.807H130.915V195.208C130.703 195.453 130.468 195.632 130.211 195.744C129.953 195.856 129.653 195.913 129.314 195.913C128.715 195.913 128.224 195.71 127.842 195.305C127.457 194.9 127.267 194.381 127.267 193.745C127.267 193.106 127.457 192.584 127.842 192.179C128.224 191.774 128.715 191.572 129.314 191.572C129.651 191.572 129.948 191.63 130.206 191.745C130.466 191.861 130.703 192.038 130.915 192.276V192.277ZM129.893 194.955C130.223 194.955 130.476 194.853 130.652 194.647C130.827 194.44 130.914 194.139 130.914 193.745C130.914 193.351 130.827 193.052 130.652 192.846C130.476 192.638 130.223 192.534 129.893 192.534C129.563 192.534 129.31 192.638 129.135 192.846C128.959 193.052 128.872 193.351 128.872 193.745C128.872 194.139 128.959 194.44 129.135 194.647C129.31 194.853 129.563 194.955 129.893 194.955Z" fill="black"/>
<path d="M137.133 190.298H138.799V195.808H137.133V190.298Z" fill="black"/>
<path d="M140.368 190.062H141.919V195.807H140.368V190.062Z" fill="black"/>
<path d="M148.295 193.289V195.808H146.734V193.888C146.734 193.525 146.724 193.276 146.704 193.141C146.684 193.006 146.651 192.907 146.605 192.842C146.546 192.757 146.463 192.692 146.357 192.644C146.254 192.596 146.137 192.572 146.005 192.572C145.681 192.572 145.427 192.679 145.242 192.892C145.056 193.103 144.965 193.398 144.965 193.774V195.807H143.413V190.062H144.965V192.277C145.199 192.038 145.447 191.861 145.708 191.745C145.972 191.63 146.263 191.572 146.58 191.572C147.142 191.572 147.568 191.72 147.859 192.015C148.149 192.308 148.295 192.732 148.295 193.289V193.289Z" fill="black"/>
<path d="M151.911 193.947C151.586 193.947 151.342 193.994 151.177 194.086C151.015 194.179 150.935 194.317 150.935 194.5C150.935 194.668 151 194.801 151.133 194.896C151.264 194.989 151.446 195.036 151.678 195.036C151.972 195.036 152.218 194.947 152.417 194.77C152.617 194.59 152.719 194.367 152.719 194.099V193.947L151.911 193.947ZM154.28 193.449V195.808H152.719V195.196C152.511 195.447 152.275 195.629 152.015 195.744C151.754 195.856 151.436 195.913 151.063 195.913C150.56 195.913 150.153 195.79 149.839 195.542C149.524 195.292 149.368 194.967 149.368 194.567C149.368 194.084 149.563 193.73 149.953 193.504C150.346 193.276 150.962 193.162 151.802 193.162H152.719V193.057C152.719 192.849 152.621 192.697 152.426 192.601C152.231 192.503 151.928 192.454 151.519 192.454C151.185 192.454 150.875 192.482 150.588 192.538C150.303 192.595 150.039 192.679 149.795 192.791V191.783C150.124 191.715 150.456 191.664 150.791 191.627C151.128 191.591 151.465 191.572 151.802 191.572C152.677 191.572 153.309 191.72 153.695 192.015C154.084 192.308 154.28 192.786 154.28 193.449L154.28 193.449Z" fill="black"/>
<path d="M160.23 192.361C160.425 192.106 160.658 191.91 160.929 191.775C161.199 191.64 161.497 191.572 161.821 191.572C162.379 191.572 162.804 191.72 163.095 192.015C163.389 192.308 163.536 192.732 163.536 193.289V195.808H161.975V193.652V193.555C161.978 193.519 161.98 193.468 161.98 193.403C161.98 193.111 161.928 192.9 161.826 192.77C161.727 192.638 161.565 192.572 161.341 192.572C161.046 192.572 160.818 192.676 160.657 192.884C160.494 193.09 160.411 193.388 160.409 193.778V195.807H158.848V193.652C158.848 193.194 158.8 192.9 158.709 192.77C158.616 192.638 158.451 192.572 158.213 192.572C157.916 192.572 157.685 192.676 157.524 192.884C157.362 193.09 157.281 193.386 157.281 193.774V195.807H155.72V191.673H157.281V192.277C157.472 192.044 157.69 191.867 157.936 191.749C158.183 191.631 158.456 191.572 158.753 191.572C159.09 191.572 159.388 191.642 159.646 191.779C159.903 191.917 160.098 192.111 160.23 192.361L160.23 192.361Z" fill="black"/>
<path d="M168.146 190.298H170.267L171.744 193.247L173.226 190.298H175.347V195.808H173.766V191.774L172.274 194.749H171.219L169.727 191.774V195.808H168.146V190.298Z" fill="black"/>
<path d="M177.074 194.377H178.635V195.808H177.074V194.377Z" fill="black"/>
<path d="M185.82 192.741C186.17 192.741 186.421 192.686 186.574 192.576C186.725 192.464 186.802 192.281 186.802 192.028C186.802 191.778 186.725 191.599 186.574 191.492C186.421 191.382 186.17 191.327 185.82 191.327H185.117V192.741L185.82 192.741ZM185.117 193.724V195.808H183.451V190.298H185.999C186.851 190.298 187.476 190.42 187.872 190.665C188.271 190.908 188.472 191.292 188.472 191.817C188.472 192.183 188.368 192.482 188.16 192.715C187.954 192.949 187.644 193.12 187.228 193.23C187.456 193.275 187.659 193.377 187.838 193.534C188.018 193.689 188.202 193.925 188.388 194.242L189.295 195.808H187.515L186.727 194.437C186.569 194.161 186.406 193.975 186.242 193.875C186.079 193.774 185.862 193.724 185.592 193.724L185.117 193.724Z" fill="black"/>
<path d="M190.22 191.673H191.772V195.808H190.22V191.673ZM190.22 190.062H191.772V191.142H190.22V190.062Z" fill="black"/>
<path d="M196.457 190.062V190.931H195.599C195.381 190.931 195.228 190.965 195.138 191.032C195.052 191.1 195.01 191.218 195.01 191.386V191.673H196.338V192.618H195.01V195.807H193.458V192.618H192.685V191.673H193.458V191.386C193.458 190.937 193.604 190.604 193.899 190.387C194.193 190.17 194.65 190.062 195.272 190.062L196.457 190.062Z" fill="black"/>
<path d="M199.304 193.947C198.98 193.947 198.736 193.994 198.571 194.086C198.408 194.179 198.328 194.317 198.328 194.5C198.328 194.668 198.394 194.801 198.526 194.896C198.657 194.989 198.84 195.036 199.071 195.036C199.365 195.036 199.612 194.947 199.81 194.77C200.011 194.59 200.112 194.367 200.112 194.099V193.947L199.304 193.947ZM201.673 193.449V195.808H200.112V195.196C199.904 195.447 199.669 195.629 199.408 195.744C199.147 195.856 198.83 195.913 198.457 195.913C197.954 195.913 197.546 195.79 197.232 195.542C196.918 195.292 196.762 194.967 196.762 194.567C196.762 194.084 196.956 193.73 197.346 193.504C197.739 193.276 198.355 193.162 199.195 193.162H200.112V193.057C200.112 192.849 200.014 192.697 199.82 192.601C199.624 192.503 199.322 192.454 198.913 192.454C198.578 192.454 198.268 192.482 197.981 192.538C197.696 192.595 197.432 192.679 197.188 192.791V191.783C197.517 191.715 197.85 191.664 198.184 191.627C198.521 191.591 198.858 191.572 199.195 191.572C200.07 191.572 200.702 191.72 201.089 192.015C201.478 192.308 201.673 192.786 201.673 193.449L201.673 193.449Z" fill="black"/>
<path d="M203.123 191.673H204.675V195.808H203.123V191.673ZM203.123 190.062H204.675V191.142H203.123V190.062Z" fill="black"/>
<path d="M47.7718 197.622V198.491H46.9144C46.6963 198.491 46.5426 198.524 46.4534 198.592C46.3667 198.659 46.3246 198.778 46.3246 198.946V199.233H47.6529V200.178H46.3246V203.367H44.7732V200.178H44V199.233H44.7732V198.946C44.7732 198.497 44.9194 198.164 45.2143 197.946C45.508 197.73 45.9652 197.622 46.5872 197.622L47.7718 197.622Z" fill="black"/>
<path d="M52.0528 200.359C51.914 200.307 51.7764 200.267 51.6414 200.241C51.5088 200.214 51.375 200.199 51.2399 200.199C50.8397 200.199 50.5324 200.309 50.318 200.528C50.1024 200.745 49.9959 201.055 49.9959 201.46V203.367H48.4445V199.233H49.9959V199.912C50.1941 199.642 50.4221 199.446 50.6798 199.322C50.94 199.195 51.2511 199.132 51.6116 199.132C51.6637 199.132 51.7207 199.135 51.7802 199.14C51.8421 199.143 51.9313 199.151 52.0478 199.161L52.0528 200.359Z" fill="black"/>
<path d="M55.1345 200.077C54.7901 200.077 54.5273 200.182 54.3464 200.393C54.1643 200.604 54.0738 200.908 54.0738 201.304C54.0738 201.701 54.1643 202.005 54.3464 202.216C54.5273 202.424 54.79 202.528 55.1345 202.528C55.4716 202.528 55.7293 202.424 55.9077 202.216C56.0886 202.005 56.1803 201.701 56.1803 201.304C56.1803 200.908 56.0886 200.604 55.9077 200.393C55.7293 200.182 55.4716 200.077 55.1345 200.077V200.077ZM55.1345 199.132C55.9697 199.132 56.6227 199.325 57.0923 199.71C57.5607 200.093 57.7961 200.624 57.7961 201.304C57.7961 201.982 57.5607 202.514 57.0923 202.899C56.6227 203.282 55.9697 203.473 55.1345 203.473C54.2944 203.473 53.6389 203.282 53.1668 202.899C52.6935 202.514 52.4581 201.982 52.4581 201.304C52.4581 200.624 52.6935 200.092 53.1668 199.71C53.6389 199.325 54.2944 199.132 55.1345 199.132V199.132Z" fill="black"/>
<path d="M63.4266 199.921C63.6212 199.665 63.8541 199.469 64.1255 199.334C64.3956 199.199 64.693 199.132 65.0176 199.132C65.5752 199.132 66.0003 199.279 66.2914 199.575C66.5851 199.868 66.7326 200.292 66.7326 200.849V203.367H65.1713V201.211V201.114C65.1737 201.079 65.1762 201.028 65.1762 200.963C65.1762 200.67 65.1242 200.46 65.0226 200.33C64.9234 200.198 64.7611 200.132 64.5369 200.132C64.242 200.132 64.014 200.236 63.8529 200.444C63.6906 200.649 63.6076 200.948 63.6051 201.338V203.367H62.0438V201.211C62.0438 200.754 61.9967 200.459 61.905 200.33C61.8121 200.198 61.6473 200.131 61.4094 200.131C61.112 200.131 60.8815 200.236 60.7204 200.444C60.5581 200.649 60.4776 200.946 60.4776 201.334V203.367H58.9163V199.233H60.4776V199.836C60.6684 199.603 60.8865 199.427 61.1318 199.309C61.3796 199.191 61.6522 199.132 61.9496 199.132C62.2866 199.132 62.584 199.201 62.8418 199.339C63.0995 199.477 63.294 199.671 63.4266 199.921L63.4266 199.921Z" fill="black"/>
<path d="M72.9689 198.06V199.233H74.5699V200.178H72.9689V201.933C72.9689 202.125 73.0135 202.254 73.1028 202.321C73.192 202.389 73.3679 202.422 73.6331 202.422H74.4311V203.367H73.1028C72.4882 203.367 72.052 203.26 71.7943 203.043C71.539 202.823 71.4126 202.454 71.4126 201.933V200.178H70.6444V199.233H71.4126V198.06H72.9689Z" fill="black"/>
<path d="M80.4011 200.849V203.367H78.8398V201.448C78.8398 201.085 78.8299 200.836 78.8101 200.701C78.7902 200.566 78.7568 200.467 78.7109 200.402C78.6515 200.317 78.5684 200.252 78.4631 200.203C78.3603 200.156 78.2426 200.132 78.1112 200.132C77.7866 200.132 77.5326 200.239 77.3479 200.452C77.1621 200.663 77.0704 200.957 77.0704 201.334V203.367H75.519V197.622H77.0704V199.836C77.3046 199.598 77.5524 199.421 77.8139 199.305C78.0778 199.19 78.369 199.132 78.6862 199.132C79.2475 199.132 79.6738 199.279 79.9649 199.575C80.2549 199.868 80.4011 200.292 80.4011 200.849V200.849Z" fill="black"/>
<path d="M86.6897 201.288V201.667H83.0566C83.0963 201.977 83.2276 202.209 83.4532 202.363C83.6774 202.518 83.9934 202.595 84.3998 202.595C84.7269 202.595 85.0603 202.555 85.401 202.473C85.7442 202.389 86.0962 202.264 86.4567 202.098V203.114C86.09 203.232 85.7232 203.321 85.3564 203.38C84.9896 203.441 84.6228 203.473 84.256 203.473C83.3763 203.473 82.6923 203.283 82.2041 202.903C81.7184 202.524 81.4755 201.991 81.4755 201.304C81.4755 200.629 81.7146 200.1 82.1941 199.714C82.6724 199.326 83.3304 199.132 84.1668 199.132C84.9301 199.132 85.541 199.329 86.0007 199.722C86.4591 200.114 86.6896 200.636 86.6896 201.288L86.6897 201.288ZM85.0937 200.849C85.0937 200.599 85.007 200.397 84.836 200.246C84.6637 200.092 84.4395 200.014 84.1619 200.014C83.8608 200.014 83.6167 200.085 83.4284 200.229C83.24 200.372 83.1223 200.579 83.0764 200.849H85.0937Z" fill="black"/>
<path d="M91.0276 197.858H92.8912L95.2456 201.638V197.858H96.8267V203.367H94.963L92.6087 199.587V203.367H91.0276V197.858Z" fill="black"/>
<path d="M100.701 200.077C100.357 200.077 100.094 200.182 99.9132 200.393C99.7311 200.604 99.6406 200.908 99.6406 201.304C99.6406 201.701 99.7311 202.005 99.9132 202.216C100.094 202.424 100.357 202.528 100.701 202.528C101.038 202.528 101.296 202.424 101.475 202.216C101.655 202.005 101.747 201.701 101.747 201.304C101.747 200.908 101.655 200.604 101.475 200.393C101.296 200.182 101.038 200.077 100.701 200.077V200.077ZM100.701 199.132C101.536 199.132 102.189 199.325 102.659 199.71C103.128 200.093 103.363 200.624 103.363 201.304C103.363 201.982 103.128 202.514 102.659 202.899C102.189 203.282 101.536 203.473 100.701 203.473C99.8612 203.473 99.2057 203.282 98.7336 202.899C98.2603 202.514 98.0249 201.982 98.0249 201.304C98.0249 200.624 98.2603 200.092 98.7336 199.71C99.2057 199.325 99.8612 199.132 100.701 199.132V199.132Z" fill="black"/>
<path d="M104.44 201.756V199.233H106.001V199.646C106.001 199.872 105.999 200.153 105.996 200.49C105.992 200.828 105.991 201.053 105.991 201.165C105.991 201.501 106.001 201.741 106.021 201.887C106.043 202.033 106.078 202.139 106.125 202.203C106.191 202.29 106.275 202.358 106.378 202.405C106.479 202.451 106.597 202.473 106.73 202.473C107.053 202.473 107.307 202.367 107.493 202.157C107.677 201.946 107.77 201.652 107.77 201.275V199.233H109.322V203.367H107.77V202.768C107.535 203.011 107.287 203.189 107.027 203.304C106.765 203.416 106.477 203.473 106.16 203.473C105.601 203.473 105.174 203.327 104.881 203.034C104.586 202.742 104.44 202.316 104.44 201.756V201.756Z" fill="black"/>
<path d="M115.699 200.849V203.367H114.138V201.439C114.138 201.083 114.128 200.836 114.108 200.701C114.089 200.566 114.055 200.467 114.009 200.402C113.95 200.317 113.867 200.252 113.761 200.203C113.659 200.156 113.541 200.132 113.41 200.132C113.085 200.132 112.831 200.239 112.646 200.452C112.46 200.663 112.369 200.957 112.369 201.334V203.367H110.817V199.233H112.369V199.836C112.603 199.598 112.851 199.421 113.112 199.305C113.376 199.19 113.667 199.132 113.985 199.132C114.546 199.132 114.972 199.28 115.263 199.575C115.553 199.868 115.699 200.292 115.699 200.849V200.849Z" fill="black"/>
<path d="M120.301 197.858H123.072C123.895 197.858 124.526 198.014 124.965 198.326C125.408 198.636 125.63 199.079 125.63 199.655C125.63 200.232 125.408 200.676 124.965 200.988C124.526 201.3 123.895 201.456 123.072 201.456H121.967V203.367H120.301V197.858ZM121.967 198.887V200.427H122.894C123.217 200.427 123.466 200.359 123.642 200.224C123.821 200.089 123.91 199.9 123.91 199.655C123.91 199.408 123.821 199.218 123.642 199.085C123.466 198.954 123.217 198.887 122.894 198.887L121.967 198.887Z" fill="black"/>
<path d="M130.35 200.359C130.212 200.307 130.074 200.267 129.939 200.241C129.807 200.214 129.673 200.199 129.538 200.199C129.137 200.199 128.83 200.309 128.616 200.528C128.4 200.745 128.294 201.055 128.294 201.46V203.367H126.742V199.233H128.294V199.912C128.492 199.642 128.72 199.446 128.978 199.322C129.238 199.195 129.549 199.132 129.909 199.132C129.961 199.132 130.018 199.135 130.078 199.14C130.14 199.143 130.229 199.151 130.346 199.161L130.35 200.359Z" fill="black"/>
<path d="M133.431 200.077C133.087 200.077 132.824 200.182 132.643 200.393C132.461 200.604 132.37 200.908 132.37 201.304C132.37 201.701 132.461 202.005 132.643 202.216C132.824 202.424 133.087 202.528 133.431 202.528C133.768 202.528 134.026 202.424 134.204 202.216C134.385 202.005 134.477 201.701 134.477 201.304C134.477 200.908 134.385 200.604 134.204 200.393C134.026 200.182 133.768 200.077 133.431 200.077V200.077ZM133.431 199.132C134.266 199.132 134.919 199.325 135.389 199.71C135.857 200.093 136.093 200.624 136.093 201.304C136.093 201.982 135.857 202.514 135.389 202.899C134.919 203.282 134.266 203.473 133.431 203.473C132.591 203.473 131.935 203.282 131.463 202.899C130.99 202.514 130.755 201.982 130.755 201.304C130.755 200.624 130.99 200.092 131.463 199.71C131.935 199.325 132.591 199.132 133.431 199.132V199.132Z" fill="black"/>
<path d="M137.224 199.233H138.775V203.291C138.775 203.845 138.618 204.268 138.304 204.561C137.993 204.853 137.541 205 136.946 205H136.178V204.131H136.451C136.744 204.131 136.946 204.074 137.055 203.962C137.167 203.849 137.224 203.626 137.224 203.291L137.224 199.233ZM137.224 197.622H138.775V198.702H137.224V197.622Z" fill="black"/>
<path d="M145.116 201.288V201.667H141.483C141.523 201.977 141.654 202.209 141.879 202.363C142.104 202.518 142.42 202.595 142.826 202.595C143.153 202.595 143.486 202.555 143.827 202.473C144.17 202.389 144.522 202.264 144.883 202.098V203.114C144.516 203.232 144.149 203.321 143.783 203.38C143.416 203.441 143.049 203.473 142.682 203.473C141.803 203.473 141.119 203.283 140.63 202.903C140.145 202.524 139.902 201.991 139.902 201.304C139.902 200.629 140.141 200.1 140.62 199.714C141.099 199.326 141.757 199.132 142.593 199.132C143.356 199.132 143.967 199.329 144.427 199.722C144.885 200.114 145.116 200.636 145.116 201.288L145.116 201.288ZM143.52 200.849C143.52 200.599 143.433 200.397 143.262 200.246C143.09 200.092 142.866 200.014 142.588 200.014C142.287 200.014 142.043 200.085 141.855 200.229C141.666 200.372 141.549 200.579 141.503 200.849H143.52Z" fill="black"/>
<path d="M150.214 199.364V200.44C150.005 200.316 149.793 200.225 149.579 200.165C149.367 200.106 149.148 200.077 148.92 200.077C148.486 200.077 148.148 200.186 147.904 200.402C147.662 200.616 147.542 200.916 147.542 201.305C147.542 201.691 147.662 201.991 147.904 202.207C148.148 202.421 148.486 202.528 148.92 202.528C149.16 202.528 149.391 202.498 149.609 202.439C149.827 202.378 150.028 202.286 150.214 202.165V203.245C149.972 203.321 149.725 203.377 149.475 203.414C149.227 203.453 148.976 203.473 148.722 203.473C147.846 203.473 147.16 203.282 146.665 202.899C146.172 202.517 145.926 201.986 145.926 201.305C145.926 200.621 146.172 200.089 146.665 199.706C147.16 199.324 147.846 199.132 148.722 199.132C148.976 199.132 149.227 199.152 149.475 199.191C149.723 199.228 149.968 199.286 150.214 199.364V199.364Z" fill="black"/>
<path d="M153.252 198.06V199.233H154.853V200.178H153.252V201.933C153.252 202.125 153.296 202.254 153.386 202.321C153.475 202.389 153.651 202.422 153.916 202.422H154.714V203.367H153.386C152.771 203.367 152.335 203.26 152.077 203.043C151.822 202.823 151.695 202.454 151.695 201.933V200.178H150.927V199.233H151.695V198.06H153.252Z" fill="black"/>
<rect x="42" y="184" width="172" height="21" fill="white"/>
<rect x="42" y="184" width="172" height="21" fill="white"/>
<rect x="42" y="184" width="172" height="21" fill="white"/>
</svg>
