<svg width="281" height="186" viewBox="0 0 281 186" fill="none" xmlns="http://www.w3.org/2000/svg">
<rect width="281" height="186" fill="white"/>
<path fill-rule="evenodd" clip-rule="evenodd" d="M192.314 34.9564C179.336 34.9564 168.377 43.7536 165.084 55.6984H160.096C159.466 55.7022 158.89 56.0584 158.605 56.6216C158.32 57.184 158.375 57.8588 158.745 58.3689L165.896 68.1505C166.213 68.5856 166.718 68.8422 167.256 68.8422C167.793 68.8422 168.299 68.5856 168.615 68.1505L175.753 58.3689C176.124 57.8581 176.178 57.1827 175.892 56.6196C175.606 56.0565 175.029 55.7009 174.398 55.6983H169.794C172.923 46.2591 181.805 39.4764 192.315 39.4764C205.447 39.4764 216.053 50.0651 216.053 63.1983C216.053 76.3315 205.446 86.9235 192.315 86.9235C184.489 86.9235 177.174 83.0661 172.748 76.6122C172.041 75.5863 170.637 75.3258 169.61 76.0302C169.113 76.3695 168.772 76.8928 168.663 77.4843C168.553 78.0758 168.685 78.6868 169.027 79.1819C174.294 86.8604 183.004 91.4442 192.316 91.4442C207.892 91.4442 220.579 78.774 220.579 63.199C220.579 47.6241 207.891 34.9571 192.316 34.9571L192.314 34.9564ZM190.747 48.8872C190.147 48.8897 189.573 49.13 189.151 49.5556C188.729 49.9813 188.493 50.557 188.496 51.1561V65.1354C188.495 65.8827 188.863 66.5814 189.48 67.0025L197.085 72.1934C198.114 72.8972 199.518 72.6342 200.224 71.6064C200.924 70.5785 200.661 69.178 199.637 68.4724L193.015 63.9348V51.1561C193.017 50.5539 192.78 49.9757 192.353 49.5494C191.927 49.1237 191.349 48.8854 190.747 48.8873L190.747 48.8872Z" fill="black"/>
<path d="M122.098 37H85.3974C80.495 37 76.5067 41.328 76.5067 46.6486V132.786C76.5067 138.106 80.4948 142.434 85.3974 142.434H122.098C127 142.434 130.989 138.106 130.989 132.786V46.6486C130.989 41.3282 127 37 122.098 37V37ZM115.763 40.3077L114.353 44.0364C114.117 44.6596 113.564 45.0627 112.943 45.0627H94.5529C93.9318 45.0627 93.3787 44.6596 93.1433 44.0364L91.7329 40.3077H115.763ZM127.941 132.786C127.941 136.282 125.319 139.127 122.098 139.127H85.3974C82.176 139.127 79.5547 136.282 79.5547 132.786V46.6491C79.5547 43.1531 82.176 40.3083 85.3974 40.3083H88.4386L90.3223 45.2928C91.0292 47.1622 92.69 48.3709 94.552 48.3709H112.942C114.805 48.3709 116.465 47.1622 117.172 45.2928L119.056 40.3083H122.098C125.319 40.3083 127.94 43.1531 127.94 46.6491L127.941 132.786Z" fill="black"/>
<path d="M120.13 71.5245H116.32C115.478 71.5245 114.796 72.2651 114.796 73.1784C114.796 74.0917 115.478 74.8323 116.32 74.8323H119.368V78.14C119.368 79.0533 120.05 79.7939 120.892 79.7939C121.733 79.7939 122.416 79.0533 122.416 78.14V74.0053C122.416 72.6372 121.39 71.5245 120.13 71.5245Z" fill="black"/>
<path d="M120.893 103.776C120.051 103.776 119.369 104.516 119.369 105.43V108.737H116.321C115.479 108.737 114.797 109.478 114.797 110.391C114.797 111.305 115.479 112.045 116.321 112.045H120.131C121.391 112.045 122.417 110.933 122.417 109.564V105.43C122.417 104.516 121.734 103.776 120.893 103.776Z" fill="black"/>
<path d="M91.1746 108.736H88.1267V105.428C88.1267 104.514 87.4443 103.774 86.6027 103.774C85.7611 103.774 85.0787 104.514 85.0787 105.428V109.562C85.0787 110.931 86.104 112.043 87.3647 112.043H91.1746C92.0161 112.043 92.6985 111.303 92.6985 110.389C92.6985 109.476 92.0161 108.736 91.1746 108.736Z" fill="black"/>
<path d="M86.6027 79.7939C87.4443 79.7939 88.1267 79.0533 88.1267 78.14V74.8323H91.1746C92.0161 74.8323 92.6985 74.0917 92.6985 73.1784C92.6985 72.2651 92.0161 71.5245 91.1746 71.5245H87.3647C86.104 71.5245 85.0787 72.6372 85.0787 74.0053V78.14C85.0787 79.0533 85.7611 79.7939 86.6027 79.7939Z" fill="black"/>
<path d="M115.176 93.4387C116.018 93.4387 116.7 92.6981 116.7 91.7848C116.7 90.8715 116.018 90.1309 115.176 90.1309H105.271V79.3808C105.271 78.4675 104.588 77.7269 103.747 77.7269C102.905 77.7269 102.223 78.4675 102.223 79.3808V90.1309H92.3171C91.4755 90.1309 90.7931 90.8715 90.7931 91.7848C90.7931 92.6981 91.4755 93.4387 92.3171 93.4387H102.223V104.189C102.223 105.102 102.905 105.843 103.747 105.843C104.588 105.843 105.271 105.102 105.271 104.189V93.4387H115.176Z" fill="black"/>
<path d="M109.843 87.6492H114.415C115.676 87.6492 116.701 86.5365 116.701 85.1684V80.2068C116.701 78.8386 115.676 77.726 114.415 77.726H109.843C108.583 77.726 107.558 78.8386 107.558 80.2068V85.1684C107.558 86.5365 108.583 87.6492 109.843 87.6492ZM110.605 81.0337H113.653V84.3414H110.605V81.0337Z" fill="black"/>
<path d="M116.702 103.362V98.4002C116.702 97.0321 115.677 95.9194 114.416 95.9194H109.844C108.584 95.9194 107.558 97.0321 107.558 98.4002V103.362C107.558 104.73 108.584 105.843 109.844 105.843H114.416C115.677 105.843 116.702 104.73 116.702 103.362ZM113.654 102.535H110.606V99.2272H113.654V102.535Z" fill="black"/>
<path d="M90.7931 80.2077V85.1693C90.7931 86.5375 91.8184 87.6501 93.0791 87.6501H97.6509C98.9116 87.6501 99.9369 86.5375 99.9369 85.1693V80.2077C99.9369 78.8396 98.9116 77.7269 97.6509 77.7269H93.0791C91.8184 77.7269 90.7931 78.8396 90.7931 80.2077ZM93.841 81.0347H96.889V84.3424H93.841V81.0347Z" fill="black"/>
<path d="M97.6518 95.9186H93.0799C91.8193 95.9186 90.794 97.0312 90.794 98.3994V103.361C90.794 104.729 91.8193 105.842 93.0799 105.842H97.6518C98.9125 105.842 99.9378 104.729 99.9378 103.361V98.3994C99.9378 97.0312 98.9125 95.9186 97.6518 95.9186ZM96.8898 102.534H93.8419V99.2263H96.8898V102.534Z" fill="black"/>
<path d="M55.6177 145.701C55.5851 145.718 55.5504 145.732 55.5143 145.742C55.4796 145.751 55.4436 145.757 55.4055 145.757C55.2891 145.757 55.1966 145.723 55.1279 145.653C55.0605 145.582 55.0272 145.487 55.0272 145.367C55.0272 145.245 55.0605 145.15 55.1279 145.08C55.1966 145.009 55.2891 144.974 55.4055 144.974C55.4436 144.974 55.4796 144.979 55.5143 144.989C55.5504 144.999 55.5851 145.012 55.6177 145.03V145.187C55.5851 145.163 55.5524 145.145 55.5198 145.133C55.4885 145.122 55.4551 145.116 55.4191 145.116C55.3551 145.116 55.3048 145.139 55.2667 145.184C55.2299 145.227 55.2123 145.289 55.2123 145.367C55.2123 145.444 55.2299 145.505 55.2667 145.55C55.3048 145.593 55.3551 145.615 55.4191 145.615C55.4551 145.615 55.4885 145.61 55.5198 145.6C55.5524 145.588 55.5851 145.57 55.6177 145.544V145.701Z" fill="black"/>
<path d="M56.1477 145.331C56.1328 145.324 56.1185 145.318 56.1042 145.314C56.0892 145.31 56.0749 145.308 56.0606 145.308C56.0171 145.308 55.9831 145.324 55.96 145.355C55.9382 145.384 55.9273 145.427 55.9273 145.482V145.742H55.7586V145.178H55.9273V145.269C55.947 145.232 55.9708 145.206 55.9981 145.19C56.0266 145.172 56.0606 145.163 56.0987 145.163H56.1178C56.1246 145.163 56.1341 145.164 56.145 145.166L56.1477 145.331Z" fill="black"/>
<path d="M56.7485 145.458V145.509H56.3593C56.3647 145.552 56.379 145.585 56.4028 145.606C56.426 145.626 56.46 145.635 56.5035 145.635C56.5396 145.635 56.5757 145.631 56.6124 145.621C56.6484 145.609 56.6859 145.591 56.724 145.568V145.706C56.6859 145.724 56.6464 145.737 56.6069 145.745C56.5668 145.752 56.528 145.757 56.4899 145.757C56.3954 145.757 56.3219 145.731 56.2695 145.68C56.2164 145.627 56.1906 145.553 56.1906 145.458C56.1906 145.368 56.2158 145.296 56.2668 145.243C56.3192 145.19 56.3899 145.163 56.4791 145.163C56.5607 145.163 56.626 145.19 56.675 145.243C56.724 145.296 56.7485 145.368 56.7485 145.458L56.7485 145.458ZM56.5797 145.396C56.5797 145.363 56.5695 145.336 56.5498 145.317C56.5314 145.295 56.5076 145.284 56.479 145.284C56.4464 145.284 56.4199 145.294 56.4001 145.314C56.3797 145.334 56.3675 145.361 56.362 145.396L56.5797 145.396Z" fill="black"/>
<path d="M57.1084 145.488C57.0737 145.488 57.0471 145.495 57.0294 145.509C57.0131 145.52 57.005 145.54 57.005 145.565C57.005 145.587 57.0111 145.604 57.024 145.618C57.0383 145.63 57.058 145.636 57.0839 145.636C57.1145 145.636 57.141 145.624 57.1628 145.6C57.1846 145.576 57.1955 145.546 57.1955 145.509V145.488H57.1084ZM57.3642 145.42V145.742H57.1955V145.659C57.1737 145.693 57.1478 145.717 57.1193 145.733C57.092 145.748 57.058 145.757 57.0186 145.757C56.9641 145.757 56.9192 145.74 56.8852 145.706C56.8526 145.671 56.8362 145.627 56.8362 145.573C56.8362 145.507 56.8567 145.458 56.8988 145.426C56.9403 145.395 57.0063 145.379 57.0975 145.379H57.1955V145.367C57.1955 145.337 57.1846 145.317 57.1628 145.305C57.1424 145.291 57.1111 145.284 57.0676 145.284C57.0308 145.284 56.9975 145.288 56.9669 145.296C56.9356 145.304 56.9077 145.315 56.8825 145.328V145.192C56.9165 145.183 56.9519 145.176 56.9886 145.172C57.0247 145.166 57.0608 145.163 57.0975 145.163C57.1914 145.163 57.2594 145.184 57.3016 145.225C57.3431 145.265 57.3642 145.33 57.3642 145.42L57.3642 145.42Z" fill="black"/>
<path d="M57.6996 145.015V145.178H57.871V145.305H57.6996V145.547C57.6996 145.573 57.7037 145.591 57.7132 145.6C57.7241 145.608 57.7438 145.612 57.7731 145.612H57.8574V145.742H57.7159C57.6486 145.742 57.6016 145.727 57.5744 145.698C57.5472 145.668 57.5336 145.618 57.5336 145.547V145.305H57.4519V145.178H57.5336V145.015L57.6996 145.015Z" fill="black"/>
<path d="M58.4922 145.458V145.509H58.103C58.1085 145.552 58.1227 145.585 58.1466 145.606C58.1697 145.626 58.2037 145.635 58.2472 145.635C58.2833 145.635 58.3194 145.631 58.3561 145.621C58.3922 145.609 58.4296 145.591 58.4677 145.568V145.706C58.4296 145.724 58.3901 145.737 58.3507 145.745C58.3105 145.752 58.2717 145.757 58.2336 145.757C58.1391 145.757 58.0656 145.731 58.0132 145.68C57.9601 145.627 57.9343 145.553 57.9343 145.458C57.9343 145.368 57.9595 145.296 58.0105 145.243C58.0629 145.19 58.1336 145.163 58.2228 145.163C58.3044 145.163 58.3697 145.19 58.4187 145.243C58.4677 145.296 58.4922 145.368 58.4922 145.458L58.4922 145.458ZM58.3235 145.396C58.3235 145.363 58.3132 145.336 58.2935 145.317C58.2751 145.295 58.2513 145.284 58.2228 145.284C58.1901 145.284 58.1636 145.294 58.1438 145.314C58.1234 145.334 58.1112 145.361 58.1057 145.396L58.3235 145.396Z" fill="black"/>
<path d="M58.9752 145.26V144.956H59.1412V145.742H58.9752V145.659C58.9514 145.693 58.9262 145.718 58.899 145.733C58.8718 145.749 58.8398 145.757 58.8037 145.757C58.7384 145.757 58.6847 145.729 58.6432 145.674C58.603 145.619 58.5833 145.547 58.5833 145.458C58.5833 145.372 58.603 145.301 58.6432 145.246C58.6847 145.191 58.7384 145.163 58.8037 145.163C58.8378 145.163 58.8691 145.171 58.8963 145.187C58.9248 145.203 58.9514 145.227 58.9752 145.26L58.9752 145.26ZM58.8636 145.627C58.8997 145.627 58.9269 145.613 58.9453 145.585C58.965 145.556 58.9752 145.514 58.9752 145.458C58.9752 145.405 58.965 145.365 58.9453 145.337C58.9269 145.308 58.8997 145.293 58.8636 145.293C58.8289 145.293 58.8017 145.308 58.782 145.337C58.7636 145.365 58.7548 145.405 58.7548 145.458C58.7548 145.514 58.7636 145.556 58.782 145.585C58.8017 145.613 58.8289 145.627 58.8636 145.627V145.627Z" fill="black"/>
<path d="M59.9093 145.627C59.9453 145.627 59.9726 145.613 59.9909 145.585C60.0107 145.556 60.0209 145.514 60.0209 145.458C60.0209 145.405 60.0107 145.365 59.9909 145.337C59.9726 145.308 59.9453 145.293 59.9093 145.293C59.8746 145.293 59.8474 145.308 59.8277 145.337C59.8093 145.365 59.8004 145.405 59.8004 145.458C59.8004 145.514 59.8093 145.556 59.8277 145.585C59.8474 145.613 59.8746 145.627 59.9093 145.627V145.627ZM59.8004 145.26C59.8222 145.227 59.8467 145.203 59.8739 145.187C59.9025 145.171 59.9351 145.163 59.9719 145.163C60.0352 145.163 60.0875 145.191 60.1297 145.246C60.1712 145.301 60.1923 145.372 60.1923 145.458C60.1923 145.547 60.1712 145.619 60.1297 145.674C60.0875 145.729 60.0352 145.757 59.9719 145.757C59.9351 145.757 59.9025 145.749 59.8739 145.733C59.8467 145.718 59.8222 145.693 59.8004 145.659V145.742H59.6317V144.956H59.8004V145.26Z" fill="black"/>
<path d="M60.2461 145.178H60.4121L60.5536 145.559L60.6733 145.178H60.8393L60.6189 145.795C60.5972 145.858 60.5713 145.902 60.5427 145.928C60.5135 145.953 60.4747 145.966 60.4257 145.966H60.3305V145.845H60.3822C60.4107 145.845 60.4318 145.84 60.4448 145.83C60.457 145.82 60.4672 145.804 60.4747 145.78L60.4801 145.762L60.2461 145.178Z" fill="black"/>
<path d="M61.2666 145.178H61.4353V145.742H61.2666V145.178ZM61.2666 144.956H61.4353V145.104H61.2666V144.956Z" fill="black"/>
<path d="M62.0143 145.195V145.34C61.9925 145.325 61.9694 145.313 61.9463 145.305C61.9224 145.297 61.8986 145.293 61.8755 145.293C61.8279 145.293 61.7918 145.308 61.7666 145.337C61.7408 145.367 61.7285 145.407 61.7285 145.458C61.7285 145.511 61.7408 145.553 61.7666 145.582C61.7918 145.612 61.8279 145.627 61.8755 145.627C61.9007 145.627 61.9252 145.623 61.949 145.615C61.9721 145.607 61.9939 145.594 62.0143 145.576V145.724C61.9884 145.736 61.9626 145.743 61.9354 145.748C61.9082 145.754 61.8809 145.757 61.8537 145.757C61.7592 145.757 61.6857 145.731 61.6333 145.68C61.5802 145.627 61.5544 145.553 61.5544 145.458C61.5544 145.366 61.5802 145.294 61.6333 145.243C61.6857 145.19 61.7592 145.163 61.8537 145.163C61.8809 145.163 61.9082 145.166 61.9354 145.172C61.9626 145.176 61.9884 145.184 62.0143 145.195H62.0143Z" fill="black"/>
<path d="M62.4048 145.293C62.3681 145.293 62.3402 145.308 62.3205 145.337C62.3021 145.365 62.2932 145.405 62.2932 145.458C62.2932 145.514 62.3021 145.556 62.3205 145.585C62.3402 145.613 62.3681 145.627 62.4048 145.627C62.4409 145.627 62.4688 145.613 62.4892 145.585C62.5089 145.556 62.5191 145.514 62.5191 145.458C62.5191 145.405 62.5089 145.365 62.4892 145.337C62.4688 145.308 62.4409 145.293 62.4048 145.293V145.293ZM62.4048 145.163C62.4953 145.163 62.5654 145.19 62.6144 145.243C62.6647 145.294 62.6906 145.366 62.6906 145.458C62.6906 145.553 62.6647 145.627 62.6144 145.68C62.5654 145.731 62.4953 145.757 62.4048 145.757C62.3157 145.757 62.2456 145.731 62.1953 145.68C62.1443 145.627 62.1191 145.553 62.1191 145.458C62.1191 145.366 62.1443 145.294 62.1953 145.243C62.2456 145.19 62.3157 145.163 62.4048 145.163Z" fill="black"/>
<path d="M63.3369 145.396V145.742H63.1681V145.479C63.1681 145.43 63.1668 145.396 63.1654 145.379C63.1634 145.359 63.16 145.345 63.1545 145.337C63.1491 145.325 63.1396 145.317 63.1273 145.311C63.1164 145.303 63.1042 145.299 63.0919 145.299C63.0552 145.299 63.0273 145.314 63.0076 145.343C62.9892 145.373 62.9804 145.413 62.9804 145.464V145.742H62.8116V145.178H62.9804V145.26C63.0035 145.227 63.03 145.203 63.0593 145.187C63.0879 145.171 63.1192 145.163 63.1518 145.163C63.2117 145.163 63.2566 145.184 63.2879 145.225C63.3205 145.265 63.3369 145.322 63.3369 145.396L63.3369 145.396Z" fill="black"/>
<path d="M63.8328 144.956V145.074H63.743C63.7192 145.074 63.7022 145.08 63.6913 145.089C63.6818 145.1 63.6777 145.115 63.6777 145.136V145.178H63.822V145.305H63.6777V145.742H63.5117V145.305H63.4301V145.178H63.5117V145.136C63.5117 145.076 63.5267 145.03 63.558 145.001C63.5906 144.971 63.6403 144.956 63.7077 144.956L63.8328 144.956Z" fill="black"/>
<path d="M63.9043 145.178H64.073V145.742H63.9043V145.178ZM63.9043 144.956H64.073V145.104H63.9043V144.956Z" fill="black"/>
<path d="M64.7506 145.458V145.509H64.3615C64.3669 145.552 64.3812 145.585 64.405 145.606C64.4281 145.626 64.4622 145.635 64.5057 145.635C64.5418 145.635 64.5778 145.631 64.6146 145.621C64.6506 145.609 64.688 145.591 64.7261 145.568V145.706C64.688 145.724 64.6486 145.737 64.6091 145.745C64.569 145.752 64.5302 145.757 64.4921 145.757C64.3975 145.757 64.324 145.731 64.2717 145.68C64.2186 145.627 64.1927 145.553 64.1927 145.458C64.1927 145.368 64.2179 145.296 64.2689 145.243C64.3213 145.19 64.3921 145.163 64.4812 145.163C64.5629 145.163 64.6282 145.19 64.6772 145.243C64.7261 145.296 64.7506 145.368 64.7506 145.458L64.7506 145.458ZM64.5819 145.396C64.5819 145.363 64.5717 145.336 64.552 145.317C64.5336 145.295 64.5098 145.284 64.4812 145.284C64.4486 145.284 64.422 145.294 64.4023 145.314C64.3819 145.334 64.3696 145.361 64.3642 145.396L64.5819 145.396Z" fill="black"/>
<path d="M64.8765 144.956H65.0452V145.742H64.8765V144.956Z" fill="black"/>
<path d="M65.5595 145.26V144.956H65.7255V145.742H65.5595V145.659C65.5357 145.693 65.5106 145.718 65.4833 145.733C65.4561 145.749 65.4242 145.757 65.3881 145.757C65.3228 145.757 65.269 145.729 65.2275 145.674C65.1874 145.619 65.1677 145.547 65.1677 145.458C65.1677 145.372 65.1874 145.301 65.2275 145.246C65.269 145.191 65.3228 145.163 65.3881 145.163C65.4221 145.163 65.4534 145.171 65.4806 145.187C65.5092 145.203 65.5357 145.227 65.5595 145.26L65.5595 145.26ZM65.448 145.627C65.484 145.627 65.5112 145.613 65.5296 145.585C65.5493 145.556 65.5595 145.514 65.5595 145.458C65.5595 145.405 65.5493 145.365 65.5296 145.337C65.5112 145.308 65.484 145.293 65.448 145.293C65.4133 145.293 65.3861 145.308 65.3663 145.337C65.348 145.365 65.3391 145.405 65.3391 145.458C65.3391 145.514 65.348 145.556 65.3663 145.585C65.3861 145.613 65.4133 145.627 65.448 145.627V145.627Z" fill="black"/>
<path d="M55.4028 145.99V146.108H55.313C55.2891 146.108 55.2721 146.113 55.2612 146.123C55.2517 146.133 55.2476 146.149 55.2476 146.17V146.211H55.3919V146.338H55.2476V146.776H55.0816V146.338H55V146.211H55.0816V146.17C55.0816 146.11 55.0966 146.064 55.1279 146.034C55.1606 146.005 55.2102 145.99 55.2776 145.99L55.4028 145.99Z" fill="black"/>
<path d="M55.8633 146.365C55.8484 146.358 55.8341 146.352 55.8198 146.347C55.8048 146.344 55.7905 146.341 55.7763 146.341C55.7327 146.341 55.6987 146.358 55.6756 146.389C55.6538 146.418 55.6429 146.461 55.6429 146.516V146.776H55.4742V146.211H55.6429V146.303C55.6626 146.266 55.6864 146.239 55.7137 146.223C55.7422 146.206 55.7763 146.197 55.8144 146.197H55.8334C55.8402 146.197 55.8497 146.198 55.8606 146.2L55.8633 146.365Z" fill="black"/>
<path d="M56.192 146.327C56.1552 146.327 56.1273 146.341 56.1076 146.371C56.0892 146.399 56.0804 146.439 56.0804 146.492C56.0804 146.547 56.0892 146.589 56.1076 146.619C56.1273 146.647 56.1552 146.66 56.192 146.66C56.228 146.66 56.2559 146.647 56.2763 146.619C56.296 146.589 56.3063 146.547 56.3063 146.492C56.3063 146.439 56.2961 146.399 56.2763 146.371C56.2559 146.341 56.228 146.327 56.192 146.327V146.327ZM56.192 146.197C56.2824 146.197 56.3525 146.223 56.4015 146.276C56.4518 146.328 56.4777 146.4 56.4777 146.492C56.4777 146.586 56.4518 146.66 56.4015 146.713C56.3525 146.765 56.2824 146.79 56.192 146.79C56.1028 146.79 56.0328 146.765 55.9824 146.713C55.9314 146.66 55.9062 146.586 55.9062 146.492C55.9062 146.4 55.9314 146.328 55.9824 146.276C56.0328 146.223 56.1028 146.197 56.192 146.197Z" fill="black"/>
<path d="M57.0825 146.303C57.1022 146.27 57.1267 146.244 57.156 146.226C57.1846 146.207 57.2172 146.197 57.254 146.197C57.3118 146.197 57.356 146.217 57.3873 146.259C57.42 146.299 57.4363 146.355 57.4363 146.43V146.776H57.2676V146.48C57.2689 146.476 57.2703 146.473 57.2703 146.468V146.448C57.2703 146.406 57.2648 146.377 57.254 146.359C57.2431 146.341 57.2254 146.333 57.2023 146.333C57.1696 146.333 57.1437 146.347 57.1261 146.377C57.1097 146.405 57.1016 146.445 57.1016 146.498V146.776H56.9328V146.48C56.9328 146.417 56.9274 146.377 56.9165 146.359C56.907 146.341 56.89 146.333 56.8648 146.333C56.8335 146.333 56.809 146.347 56.7913 146.377C56.775 146.405 56.7668 146.445 56.7668 146.498V146.776H56.5981V146.211H56.7668V146.294C56.7866 146.261 56.809 146.237 56.8349 146.22C56.8621 146.205 56.892 146.197 56.9247 146.197C56.9607 146.197 56.9927 146.207 57.0199 146.226C57.0471 146.244 57.0675 146.27 57.0825 146.303L57.0825 146.303Z" fill="black"/>
<path d="M58.1051 146.049V146.211H58.2765V146.338H58.1051V146.581C58.1051 146.606 58.1091 146.624 58.1187 146.634C58.1296 146.642 58.1493 146.646 58.1785 146.646H58.2629V146.775H58.1214C58.054 146.775 58.0071 146.761 57.9799 146.731C57.9527 146.702 57.9391 146.651 57.9391 146.581V146.338H57.8574V146.211H57.9391V146.049L58.1051 146.049Z" fill="black"/>
<path d="M58.9031 146.43V146.776H58.7344V146.513C58.7344 146.464 58.733 146.43 58.7317 146.412C58.7296 146.393 58.7262 146.379 58.7208 146.371C58.7153 146.359 58.7058 146.35 58.6936 146.344C58.6827 146.337 58.6704 146.333 58.6582 146.333C58.6215 146.333 58.5936 146.347 58.5738 146.377C58.5555 146.406 58.5466 146.447 58.5466 146.498V146.776H58.3779V145.99H58.5466V146.294C58.5698 146.261 58.5963 146.237 58.6255 146.22C58.6541 146.205 58.6854 146.197 58.7181 146.197C58.7779 146.197 58.8228 146.217 58.8541 146.259C58.8868 146.299 58.9031 146.355 58.9031 146.43L58.9031 146.43Z" fill="black"/>
<path d="M59.5753 146.492V146.542H59.1861C59.1916 146.586 59.2058 146.618 59.2297 146.64C59.2528 146.66 59.2868 146.669 59.3303 146.669C59.3664 146.669 59.4025 146.665 59.4392 146.654C59.4753 146.643 59.5127 146.625 59.5508 146.601V146.74C59.5127 146.758 59.4732 146.771 59.4338 146.778C59.3936 146.786 59.3548 146.79 59.3167 146.79C59.2222 146.79 59.1487 146.765 59.0963 146.713C59.0432 146.66 59.0174 146.586 59.0174 146.492C59.0174 146.402 59.0426 146.33 59.0936 146.276C59.146 146.223 59.2167 146.197 59.3059 146.197C59.3875 146.197 59.4528 146.223 59.5018 146.276C59.5508 146.33 59.5753 146.402 59.5753 146.492L59.5753 146.492ZM59.4066 146.43C59.4066 146.397 59.3963 146.37 59.3766 146.35C59.3582 146.329 59.3344 146.318 59.3059 146.318C59.2732 146.318 59.2467 146.328 59.2269 146.347C59.2065 146.367 59.1943 146.395 59.1888 146.43L59.4066 146.43Z" fill="black"/>
<path d="M60.0413 146.022H60.2427L60.4931 146.539V146.022H60.6645V146.775H60.4631L60.2128 146.259V146.775H60.0413V146.022Z" fill="black"/>
<path d="M61.0781 146.327C61.0414 146.327 61.0135 146.341 60.9938 146.371C60.9754 146.399 60.9666 146.439 60.9666 146.492C60.9666 146.547 60.9754 146.589 60.9938 146.619C61.0135 146.647 61.0414 146.66 61.0781 146.66C61.1142 146.66 61.1421 146.647 61.1625 146.619C61.1822 146.589 61.1924 146.547 61.1924 146.492C61.1924 146.439 61.1822 146.399 61.1625 146.371C61.1421 146.341 61.1142 146.327 61.0781 146.327V146.327ZM61.0781 146.197C61.1686 146.197 61.2387 146.223 61.2877 146.276C61.338 146.328 61.3639 146.4 61.3639 146.492C61.3639 146.586 61.338 146.66 61.2877 146.713C61.2387 146.765 61.1686 146.79 61.0781 146.79C60.989 146.79 60.9189 146.765 60.8686 146.713C60.8176 146.66 60.7924 146.586 60.7924 146.492C60.7924 146.4 60.8176 146.328 60.8686 146.276C60.9189 146.223 60.989 146.197 61.0781 146.197Z" fill="black"/>
<path d="M61.4796 146.554V146.211H61.6483V146.268V146.383V146.474C61.6483 146.52 61.649 146.553 61.651 146.575C61.6524 146.595 61.6564 146.609 61.6619 146.616C61.6687 146.628 61.6782 146.638 61.6891 146.646C61.7 146.651 61.7122 146.654 61.7272 146.654C61.7612 146.654 61.7884 146.64 61.8088 146.61C61.8286 146.581 61.8388 146.541 61.8388 146.489V146.211H62.0048V146.776H61.8388V146.693C61.8129 146.727 61.7857 146.751 61.7571 146.767C61.7299 146.782 61.6986 146.79 61.6646 146.79C61.6047 146.79 61.5585 146.771 61.5258 146.731C61.4945 146.69 61.4796 146.631 61.4796 146.554L61.4796 146.554Z" fill="black"/>
<path d="M62.6885 146.43V146.775H62.5198V146.513C62.5198 146.464 62.5184 146.43 62.5171 146.412C62.515 146.393 62.5116 146.379 62.5062 146.371C62.5007 146.359 62.4912 146.35 62.479 146.344C62.4681 146.337 62.4558 146.333 62.4436 146.333C62.4069 146.333 62.379 146.347 62.3592 146.377C62.3409 146.406 62.332 146.447 62.332 146.498V146.776H62.1633V146.211H62.332V146.294C62.3552 146.261 62.3817 146.237 62.4109 146.22C62.4395 146.205 62.4708 146.197 62.5035 146.197C62.5633 146.197 62.6082 146.217 62.6395 146.259C62.6722 146.299 62.6885 146.355 62.6885 146.43L62.6885 146.43Z" fill="black"/>
<path d="M63.1811 146.022H63.4777C63.5661 146.022 63.6342 146.044 63.6818 146.087C63.7287 146.129 63.7525 146.189 63.7525 146.267C63.7525 146.346 63.7287 146.408 63.6818 146.451C63.6342 146.492 63.5661 146.513 63.4777 146.513H63.3607V146.775H63.1811L63.1811 146.022ZM63.3607 146.164V146.374H63.4586C63.4926 146.374 63.5192 146.365 63.5375 146.347C63.5573 146.328 63.5675 146.301 63.5675 146.267C63.5675 146.234 63.5573 146.208 63.5375 146.191C63.5192 146.173 63.4926 146.164 63.4586 146.164L63.3607 146.164Z" fill="black"/>
<path d="M64.2601 146.365C64.2451 146.358 64.2308 146.352 64.2165 146.347C64.2016 146.344 64.1873 146.341 64.173 146.341C64.1294 146.341 64.0954 146.358 64.0723 146.389C64.0505 146.418 64.0396 146.461 64.0396 146.516V146.776H63.8709V146.211H64.0396V146.303C64.0594 146.266 64.0832 146.239 64.1104 146.223C64.139 146.206 64.173 146.197 64.2111 146.197H64.2301C64.2369 146.197 64.2465 146.198 64.2573 146.2L64.2601 146.365Z" fill="black"/>
<path d="M64.588 146.327C64.5513 146.327 64.5234 146.341 64.5037 146.371C64.4853 146.399 64.4764 146.439 64.4764 146.492C64.4764 146.547 64.4853 146.589 64.5037 146.619C64.5234 146.647 64.5513 146.66 64.588 146.66C64.6241 146.66 64.652 146.647 64.6724 146.619C64.6921 146.589 64.7023 146.547 64.7023 146.492C64.7023 146.439 64.6921 146.399 64.6724 146.371C64.652 146.341 64.6241 146.327 64.588 146.327V146.327ZM64.588 146.197C64.6785 146.197 64.7486 146.223 64.7976 146.276C64.8479 146.328 64.8738 146.4 64.8738 146.492C64.8738 146.586 64.8479 146.66 64.7976 146.713C64.7486 146.765 64.6785 146.79 64.588 146.79C64.4989 146.79 64.4288 146.765 64.3785 146.713C64.3274 146.66 64.3023 146.586 64.3023 146.492C64.3023 146.4 64.3274 146.328 64.3785 146.276C64.4288 146.223 64.4989 146.197 64.588 146.197Z" fill="black"/>
<path d="M64.9948 146.211H65.1636V146.767C65.1636 146.841 65.1459 146.898 65.1119 146.938C65.0792 146.979 65.0309 147 64.9676 147H64.8833V146.879H64.9132C64.9438 146.879 64.9649 146.871 64.9758 146.855C64.988 146.841 64.9948 146.812 64.9948 146.767L64.9948 146.211ZM64.9948 145.99H65.1636V146.138H64.9948V145.99Z" fill="black"/>
<path d="M65.8412 146.492V146.542H65.452C65.4575 146.586 65.4718 146.618 65.4956 146.64C65.5187 146.66 65.5527 146.669 65.5963 146.669C65.6323 146.669 65.6684 146.665 65.7051 146.654C65.7412 146.643 65.7786 146.625 65.8167 146.601V146.74C65.7786 146.758 65.7391 146.771 65.6997 146.778C65.6595 146.786 65.6208 146.79 65.5827 146.79C65.4881 146.79 65.4146 146.765 65.3622 146.713C65.3092 146.66 65.2833 146.586 65.2833 146.492C65.2833 146.402 65.3085 146.33 65.3595 146.276C65.4119 146.223 65.4827 146.197 65.5718 146.197C65.6534 146.197 65.7188 146.223 65.7677 146.276C65.8167 146.33 65.8412 146.402 65.8412 146.492L65.8412 146.492ZM65.6725 146.43C65.6725 146.397 65.6623 146.37 65.6425 146.35C65.6242 146.329 65.6004 146.318 65.5718 146.318C65.5391 146.318 65.5126 146.328 65.4929 146.347C65.4725 146.367 65.4602 146.395 65.4548 146.43L65.6725 146.43Z" fill="black"/>
<path d="M66.3889 146.229V146.374C66.3671 146.358 66.344 146.347 66.3209 146.338C66.297 146.331 66.2732 146.327 66.2501 146.327C66.2025 146.327 66.1664 146.341 66.1412 146.371C66.1154 146.4 66.1031 146.441 66.1031 146.492C66.1031 146.545 66.1154 146.586 66.1412 146.616C66.1664 146.646 66.2025 146.66 66.2501 146.66C66.2753 146.66 66.2998 146.657 66.3236 146.649C66.3467 146.641 66.3685 146.628 66.3889 146.61V146.758C66.363 146.77 66.3372 146.777 66.31 146.781C66.2828 146.787 66.2555 146.79 66.2283 146.79C66.1338 146.79 66.0603 146.765 66.0079 146.713C65.9548 146.66 65.929 146.586 65.929 146.492C65.929 146.4 65.9548 146.328 66.0079 146.276C66.0603 146.223 66.1338 146.197 66.2283 146.197C66.2555 146.197 66.2828 146.2 66.31 146.206C66.3372 146.21 66.363 146.217 66.3889 146.229H66.3889Z" fill="black"/>
<path d="M66.714 146.049V146.211H66.8855V146.338H66.714V146.581C66.714 146.606 66.7181 146.624 66.7277 146.634C66.7385 146.642 66.7583 146.646 66.7875 146.646H66.8719V146.775H66.7304C66.663 146.775 66.6161 146.761 66.5889 146.731C66.5616 146.702 66.548 146.651 66.548 146.581V146.338H66.4664V146.211H66.548V146.049L66.714 146.049Z" fill="black"/>
<rect x="54" y="143" width="15" height="6" fill="white"/>
</svg>
