<svg width="281" height="186" viewBox="0 0 281 186" fill="none" xmlns="http://www.w3.org/2000/svg">
<rect width="281" height="186" fill="white"/>
<g clip-path="url(#clip0_410_990)">
<path fill-rule="evenodd" clip-rule="evenodd" d="M168.982 51.2979C170.261 39.5161 179.802 30.3632 191.382 30.3632C203.833 30.3632 213.927 40.9452 213.927 54C213.927 67.0548 203.833 77.6368 191.382 77.6368C183.041 77.6368 175.759 72.8887 171.859 65.83H169.292C173.398 74.2423 181.748 80 191.382 80C205.079 80 216.182 68.3594 216.182 54C216.182 39.6406 205.079 28 191.382 28C178.494 28 167.903 38.3062 166.696 51.4864L162.991 47.6016L161.397 49.2726L166.155 54.2616L166.131 54.287L167.725 55.958L167.75 55.933L167.774 55.958L169.368 54.287L169.344 54.2616L174.102 49.2726L172.508 47.6016L168.982 51.2979ZM190.254 54.8264L202.002 62.087L203.147 60.0507L192.509 53.4197V37.53H190.254L190.254 54.8264Z" fill="black"/>
</g>
<path d="M66.6569 81.1166H75.8734C76.3341 81.1166 76.7067 81.5111 76.7067 81.9989V91.7576C76.7067 92.2453 76.3341 92.6399 75.8734 92.6399H66.6569C66.1962 92.6399 65.8236 92.2453 65.8236 91.7576V81.9989C65.8236 81.5111 66.1962 81.1166 66.6569 81.1166ZM83.0088 111.916V121.675H80.5112V111.916H83.0088ZM92.635 117.305V122.186H90.1375V117.305H92.635ZM103.114 106.396V111.087H92.635V114.176H90.1375V108.446H100.617V106.4H103.114V106.396ZM103.114 96.3139V101.195H100.617V96.3139H103.114ZM95.2466 96.0335V105.792H92.7491V96.0335H95.2466ZM94.3086 88.2139V93.0948H91.8111V88.2139H94.3086ZM80.5112 91.7577V82.3703L90.747 82.2731L90.7659 84.9073L83.0052 84.9812V91.7576H80.5076L80.5112 91.7577ZM73.8744 102.031H80.2994V96.9625H88.5399V99.6069H82.7933V104.675H73.8705V102.031H73.8744ZM72.3368 107.684V112.565H69.8393V107.684H72.3368ZM72.3368 94.2882V99.1692H69.8393V94.2882H72.3368ZM93.8326 134.067V139.081H139.773V60.116H93.8326V70.2048H92.169V58.3505C108.593 58.3505 125.013 58.3537 141.438 58.3505V140.84H92.169V134.063H93.8326V134.067ZM116.801 143.328C117.985 143.328 119.055 143.835 119.832 144.658C120.609 145.48 121.089 146.614 121.089 147.868C121.089 149.122 120.609 150.255 119.832 151.077C119.056 151.899 117.985 152.408 116.801 152.408C115.617 152.408 114.547 151.9 113.77 151.077C112.993 150.255 112.513 149.122 112.513 147.868C112.513 146.614 112.993 145.481 113.77 144.658C114.546 143.836 115.617 143.328 116.801 143.328V143.328ZM118.654 145.901C118.181 145.4 117.524 145.089 116.801 145.089C116.078 145.089 115.421 145.4 114.948 145.901C114.474 146.403 114.18 147.098 114.18 147.864C114.18 148.63 114.474 149.325 114.948 149.826C115.421 150.328 116.078 150.639 116.801 150.639C117.524 150.639 118.181 150.328 118.654 149.826C119.128 149.325 119.422 148.63 119.422 147.864C119.422 147.098 119.128 146.403 118.654 145.901V145.901ZM109.321 52.7129C108.86 52.7129 108.488 52.3184 108.488 51.8306C108.488 51.3428 108.86 50.9483 109.321 50.9483H109.612C110.072 50.9483 110.445 51.3428 110.445 51.8306C110.445 52.3184 110.072 52.7129 109.612 52.7129H109.321ZM114.979 52.7129C114.518 52.7129 114.146 52.3184 114.146 51.8306C114.146 51.3428 114.518 50.9483 114.979 50.9483H124.277C124.738 50.9483 125.11 51.3428 125.11 51.8306C125.11 52.3184 124.738 52.7129 124.277 52.7129H114.979ZM85.1269 70.9894V54.3683C85.1269 50.9652 86.4406 47.8731 88.5556 45.6326C90.6708 43.393 93.5911 42.0022 96.806 42.0022H136.79C140.004 42.0022 142.924 43.3932 145.04 45.6326C147.155 47.8723 148.469 50.9643 148.469 54.3683V144.833C148.469 148.236 147.155 151.328 145.04 153.569C142.925 155.808 140.005 157.199 136.79 157.199H96.806C93.5919 157.199 90.6716 155.808 88.5556 153.569C86.4404 151.329 85.1269 148.237 85.1269 144.833V134.523H87.6244V144.833C87.6244 147.504 88.6565 149.938 90.324 151.7C91.9876 153.461 94.2833 154.558 96.8091 154.558H136.793C139.316 154.558 141.614 153.465 143.278 151.7C144.942 149.938 145.978 147.508 145.978 144.833V54.3683C145.978 51.6973 144.946 49.2633 143.278 47.5018C141.615 45.7403 139.319 44.6434 136.793 44.6434H96.8091C94.2865 44.6434 91.9877 45.7362 90.324 47.5018C88.6604 49.2632 87.6244 51.694 87.6244 54.3683V70.9894H85.1269ZM66.6507 113.336H75.8672C76.3279 113.336 76.7005 113.73 76.7005 114.218V123.977C76.7005 124.464 76.3279 124.859 75.8672 124.859H66.6507C66.19 124.859 65.8174 124.464 65.8174 123.977V114.218C65.8174 113.73 66.19 113.336 66.6507 113.336ZM75.0331 115.097H67.481V123.093H75.0331V115.097ZM97.0768 113.336H106.293C106.754 113.336 107.127 113.73 107.127 114.218V123.977C107.127 124.464 106.754 124.859 106.293 124.859H97.0768C96.6161 124.859 96.2435 124.464 96.2435 123.977V114.218C96.2435 113.73 96.6161 113.336 97.0768 113.336ZM105.459 115.097H97.9072V123.093H105.459V115.097ZM74.663 72.3271C75.1237 72.3271 75.4963 72.7216 75.4963 73.2094C75.4963 73.6972 75.1237 74.0917 74.663 74.0917H62.7348C61.7847 74.0917 60.8975 74.5297 60.247 75.2183C59.5936 75.9102 59.18 76.8528 59.18 77.8556V90.4854C59.18 90.9732 58.8073 91.3677 58.3466 91.3677C57.886 91.3677 57.5133 90.9732 57.5133 90.4854V77.8556C57.5133 76.3682 58.1167 74.9803 59.0669 73.9711C60.017 72.965 61.321 72.3262 62.7325 72.3262H74.6606L74.663 72.3271ZM115.424 90.483C115.424 90.9708 115.052 91.3653 114.591 91.3653C114.13 91.3653 113.758 90.9708 113.758 90.483V77.8532C113.758 76.8165 113.36 75.874 112.716 75.1916C112.071 74.5094 111.184 74.0883 110.202 74.0883H98.2737C97.813 74.0883 97.4404 73.6938 97.4404 73.206C97.4404 72.7182 97.813 72.3237 98.2737 72.3237H110.202C111.642 72.3237 112.945 72.9456 113.889 73.9453C114.833 74.9449 115.421 76.3287 115.421 77.8497V90.4796L115.424 90.483ZM98.2769 133.642C97.8162 133.642 97.4436 133.247 97.4436 132.76C97.4436 132.272 97.8162 131.877 98.2769 131.877H110.205C111.152 131.877 112.042 131.439 112.696 130.747C113.346 130.059 113.76 129.119 113.76 128.113V115.483C113.76 114.996 114.132 114.601 114.593 114.601C115.054 114.601 115.426 114.996 115.426 115.483V128.113C115.426 129.608 114.823 130.988 113.873 131.994C112.92 133.004 111.612 133.639 110.204 133.639H98.2761L98.2769 133.642ZM57.5157 115.486C57.5157 114.998 57.8884 114.604 58.3491 114.604C58.8097 114.604 59.1824 114.998 59.1824 115.486V128.116C59.1824 129.145 59.5831 130.089 60.2304 130.77C60.8778 131.455 61.765 131.88 62.7371 131.88H74.6653C75.126 131.88 75.4986 132.274 75.4986 132.762C75.4986 133.25 75.126 133.644 74.6653 133.644H62.7371C61.3035 133.644 59.9996 133.019 59.0525 132.019C58.1053 131.017 57.5179 129.636 57.5179 128.118V115.488L57.5157 115.486ZM75.0325 82.8781H67.4805V90.8745H75.0325V82.8781ZM97.0762 81.1167H106.293C106.753 81.1167 107.126 81.5113 107.126 81.999V91.7577C107.126 92.2455 106.753 92.64 106.293 92.64H97.0762C96.6155 92.64 96.2429 92.2455 96.2429 91.7577V81.999C96.2429 81.5113 96.6155 81.1167 97.0762 81.1167V81.1167ZM105.459 82.8781H97.9066V90.8745H105.459V82.8781Z" fill="black"/>
<path d="M58.5822 162.147C58.5275 162.177 58.4706 162.2 58.4122 162.214C58.353 162.229 58.2915 162.237 58.227 162.237C58.0365 162.237 57.8847 162.18 57.7716 162.066C57.6601 161.953 57.6047 161.8 57.6047 161.607C57.6047 161.412 57.6601 161.258 57.7716 161.144C57.8847 161.031 58.0365 160.974 58.227 160.974C58.2915 160.974 58.353 160.982 58.4122 160.996C58.4706 161.011 58.5275 161.034 58.5822 161.064V161.317C58.5275 161.277 58.4729 161.248 58.4183 161.231C58.3651 161.211 58.3097 161.202 58.2513 161.202C58.1458 161.202 58.0631 161.239 58.0024 161.311C57.9417 161.382 57.9113 161.481 57.9113 161.607C57.9113 161.731 57.9417 161.83 58.0024 161.902C58.0631 161.976 58.1458 162.012 58.2513 162.012C58.3097 162.012 58.3651 162.002 58.4183 161.983C58.4729 161.964 58.5275 161.935 58.5822 161.896V162.147Z" fill="black"/>
<path d="M59.458 161.549C59.4337 161.536 59.4094 161.528 59.3851 161.523C59.3608 161.517 59.3366 161.514 59.3123 161.514C59.2409 161.514 59.1863 161.538 59.1483 161.587C59.1119 161.635 59.0937 161.703 59.0937 161.793V162.214H58.8174V161.301H59.0937V161.449C59.1279 161.39 59.1681 161.346 59.2151 161.321C59.2614 161.293 59.3161 161.279 59.3791 161.279C59.3889 161.279 59.3988 161.281 59.4094 161.282C59.4216 161.282 59.4375 161.284 59.458 161.285V161.549Z" fill="black"/>
<path d="M60.4582 161.755V161.838H59.8116C59.8177 161.907 59.8405 161.959 59.8815 161.992C59.9217 162.027 59.9771 162.044 60.0484 162.044C60.1069 162.044 60.1668 162.036 60.2275 162.018C60.2883 161.999 60.3505 161.972 60.4158 161.935V162.16C60.3505 162.185 60.2852 162.205 60.2184 162.218C60.1532 162.23 60.0887 162.237 60.0241 162.237C59.8678 162.237 59.7464 162.195 59.6599 162.111C59.5726 162.028 59.5293 161.911 59.5293 161.758C59.5293 161.608 59.5718 161.491 59.6568 161.408C59.7418 161.322 59.8587 161.279 60.009 161.279C60.1441 161.279 60.2526 161.323 60.3338 161.411C60.4165 161.497 60.4583 161.612 60.4583 161.755L60.4582 161.755ZM60.1729 161.658C60.1729 161.603 60.1577 161.558 60.1273 161.523C60.097 161.489 60.0575 161.472 60.0089 161.472C59.9543 161.472 59.9095 161.488 59.8754 161.52C59.8427 161.552 59.8223 161.599 59.8147 161.658L60.1729 161.658Z" fill="black"/>
<path d="M61.0525 161.803C60.9956 161.803 60.9523 161.814 60.922 161.835C60.8931 161.854 60.8795 161.885 60.8795 161.925C60.8795 161.962 60.8901 161.991 60.9129 162.012C60.9371 162.033 60.9705 162.044 61.013 162.044C61.0631 162.044 61.1056 162.025 61.1405 161.986C61.177 161.946 61.1952 161.895 61.1952 161.835V161.803H61.0525ZM61.4745 161.693V162.214H61.1952V162.079C61.1588 162.135 61.117 162.176 61.0707 162.201C61.0237 162.225 60.9683 162.237 60.9038 162.237C60.8127 162.237 60.7383 162.21 60.6822 162.156C60.6275 162.101 60.6002 162.029 60.6002 161.941C60.6002 161.834 60.6343 161.756 60.7034 161.706C60.774 161.655 60.884 161.629 61.0343 161.629H61.1952V161.607C61.1952 161.56 61.1777 161.526 61.1436 161.504C61.1087 161.483 61.0555 161.472 60.9827 161.472C60.9235 161.472 60.8688 161.478 60.8188 161.491C60.7679 161.504 60.7201 161.523 60.6761 161.549V161.324C60.7345 161.309 60.793 161.298 60.8521 161.292C60.9129 161.284 60.9736 161.279 61.0343 161.279C61.1899 161.279 61.3022 161.311 61.3713 161.375C61.4396 161.44 61.4745 161.546 61.4745 161.693L61.4745 161.693Z" fill="black"/>
<path d="M62.033 161.041V161.301H62.3184V161.51H62.033V161.896C62.033 161.939 62.0406 161.968 62.0573 161.983C62.0733 161.998 62.1044 162.005 62.1514 162.005H62.2941V162.214H62.0573C61.948 162.214 61.8699 162.191 61.8236 162.144C61.7788 162.094 61.7568 162.012 61.7568 161.896V161.51H61.6202V161.301H61.7568V161.041L62.033 161.041Z" fill="black"/>
<path d="M63.349 161.755V161.838H62.7024C62.7085 161.907 62.7313 161.959 62.7722 161.992C62.8125 162.027 62.8679 162.044 62.9392 162.044C62.9976 162.044 63.0576 162.036 63.1183 162.018C63.179 161.999 63.2413 161.972 63.3065 161.935V162.16C63.2413 162.185 63.176 162.205 63.1092 162.218C63.0439 162.23 62.9794 162.237 62.9149 162.237C62.7586 162.237 62.6372 162.195 62.5506 162.111C62.4634 162.028 62.4201 161.911 62.4201 161.758C62.4201 161.608 62.4626 161.491 62.5476 161.408C62.6326 161.322 62.7495 161.279 62.8997 161.279C63.0348 161.279 63.1434 161.323 63.2246 161.411C63.3073 161.497 63.349 161.612 63.349 161.755L63.349 161.755ZM63.0637 161.658C63.0637 161.603 63.0485 161.558 63.0181 161.523C62.9878 161.489 62.9483 161.472 62.8997 161.472C62.8451 161.472 62.8003 161.488 62.7662 161.52C62.7335 161.552 62.713 161.599 62.7054 161.658L63.0637 161.658Z" fill="black"/>
<path d="M64.1436 161.433V160.945H64.4229V162.214H64.1436V162.082C64.1049 162.136 64.0624 162.176 64.0161 162.201C63.9713 162.225 63.919 162.237 63.8583 162.237C63.7528 162.237 63.6655 162.193 63.5972 162.105C63.5281 162.015 63.494 161.899 63.494 161.758C63.494 161.616 63.5281 161.502 63.5972 161.414C63.6655 161.324 63.7528 161.279 63.8583 161.279C63.919 161.279 63.9713 161.292 64.0161 161.317C64.0624 161.342 64.1049 161.38 64.1436 161.433V161.433ZM63.9615 162.025C64.0199 162.025 64.0647 162.002 64.095 161.957C64.1269 161.912 64.1436 161.846 64.1436 161.758C64.1436 161.67 64.1269 161.604 64.095 161.559C64.0647 161.514 64.0199 161.491 63.9615 161.491C63.9023 161.491 63.8583 161.514 63.8279 161.559C63.7975 161.604 63.7824 161.67 63.7824 161.758C63.7824 161.846 63.7975 161.912 63.8279 161.957C63.8583 162.002 63.9023 162.025 63.9615 162.025V162.025Z" fill="black"/>
<path d="M65.6956 162.025C65.754 162.025 65.7988 162.002 65.8292 161.957C65.8611 161.912 65.8778 161.846 65.8778 161.758C65.8778 161.67 65.8611 161.604 65.8292 161.559C65.7988 161.514 65.754 161.491 65.6956 161.491C65.6364 161.491 65.5909 161.515 65.559 161.562C65.5286 161.607 65.5135 161.673 65.5135 161.758C65.5135 161.844 65.5286 161.91 65.559 161.957C65.5909 162.002 65.6364 162.025 65.6956 162.025ZM65.5135 161.433C65.5499 161.38 65.5909 161.342 65.6379 161.317C65.6842 161.292 65.7381 161.279 65.7988 161.279C65.9036 161.279 65.9908 161.324 66.0599 161.414C66.1282 161.502 66.1631 161.616 66.1631 161.758C66.1631 161.899 66.1282 162.015 66.0599 162.105C65.9908 162.193 65.9036 162.237 65.7988 162.237C65.7381 162.237 65.6842 162.225 65.6379 162.201C65.5909 162.176 65.5499 162.136 65.5135 162.082V162.214H65.2372V160.945H65.5135V161.433Z" fill="black"/>
<path d="M66.2519 161.301H66.5282L66.7619 161.922L66.9592 161.301H67.2355L66.8712 162.301C66.8348 162.401 66.7923 162.472 66.7437 162.513C66.6951 162.553 66.6314 162.574 66.5525 162.574H66.3916V162.385H66.4766C66.5251 162.385 66.5593 162.376 66.5798 162.359C66.6018 162.344 66.6192 162.315 66.6314 162.275L66.6375 162.25L66.2519 161.301Z" fill="black"/>
<path d="M68.2221 162.083V162.561H67.9458V161.301H68.2221V161.433C68.2585 161.38 68.2995 161.342 68.3465 161.318C68.3928 161.292 68.4467 161.279 68.5074 161.279C68.6122 161.279 68.6995 161.324 68.7685 161.414C68.8368 161.502 68.8717 161.616 68.8717 161.758C68.8717 161.899 68.8368 162.015 68.7685 162.105C68.6995 162.193 68.6122 162.237 68.5074 162.237C68.4467 162.237 68.3928 162.225 68.3465 162.201C68.2995 162.176 68.2585 162.136 68.2221 162.083V162.083ZM68.4042 161.491C68.345 161.491 68.2995 161.515 68.2676 161.562C68.2373 161.607 68.2221 161.673 68.2221 161.758C68.2221 161.844 68.2373 161.911 68.2676 161.957C68.2995 162.002 68.345 162.025 68.4042 162.025C68.4627 162.025 68.5074 162.002 68.5378 161.957C68.5697 161.912 68.5864 161.846 68.5864 161.758C68.5864 161.67 68.5697 161.604 68.5378 161.559C68.5074 161.514 68.4627 161.491 68.4042 161.491Z" fill="black"/>
<path d="M69.4857 161.488C69.425 161.488 69.3779 161.512 69.3461 161.559C69.3134 161.604 69.2975 161.67 69.2975 161.758C69.2975 161.846 69.3134 161.914 69.3461 161.96C69.3779 162.005 69.425 162.028 69.4857 162.028C69.5464 162.028 69.592 162.005 69.6223 161.96C69.6542 161.914 69.6709 161.846 69.6709 161.758C69.6709 161.67 69.6542 161.604 69.6223 161.559C69.5919 161.512 69.5464 161.488 69.4857 161.488ZM69.4857 161.279C69.6329 161.279 69.7483 161.322 69.8318 161.408C69.9168 161.491 69.9593 161.608 69.9593 161.758C69.9593 161.908 69.9168 162.026 69.8318 162.111C69.7483 162.195 69.6329 162.237 69.4857 162.237C69.3354 162.237 69.2186 162.195 69.1336 162.111C69.0501 162.026 69.0091 161.908 69.0091 161.758C69.0091 161.608 69.0501 161.491 69.1336 161.408C69.2186 161.322 69.3354 161.279 69.4857 161.279Z" fill="black"/>
<path d="M70.4367 162.083V162.561H70.1604V161.301H70.4367V161.433C70.4731 161.38 70.5141 161.342 70.5611 161.318C70.6074 161.292 70.6613 161.279 70.722 161.279C70.8267 161.279 70.914 161.324 70.9831 161.414C71.0514 161.502 71.0863 161.616 71.0863 161.758C71.0863 161.899 71.0514 162.015 70.9831 162.105C70.914 162.193 70.8268 162.237 70.722 162.237C70.6613 162.237 70.6074 162.225 70.5611 162.201C70.5141 162.176 70.4731 162.136 70.4367 162.083V162.083ZM70.6188 161.491C70.5596 161.491 70.5141 161.515 70.4822 161.562C70.4518 161.607 70.4367 161.673 70.4367 161.758C70.4367 161.844 70.4518 161.911 70.4822 161.957C70.5141 162.002 70.5596 162.025 70.6188 162.025C70.6772 162.025 70.722 162.002 70.7524 161.957C70.7842 161.912 70.8009 161.846 70.8009 161.758C70.8009 161.67 70.7842 161.604 70.7524 161.559C70.722 161.514 70.6772 161.491 70.6188 161.491Z" fill="black"/>
<path d="M71.9856 161.33V161.568C71.9492 161.541 71.9112 161.52 71.8733 161.507C71.8369 161.494 71.7982 161.488 71.7579 161.488C71.679 161.488 71.6183 161.512 71.5758 161.558C71.5333 161.606 71.5121 161.673 71.5121 161.758C71.5121 161.844 71.5333 161.91 71.5758 161.957C71.6183 162.004 71.679 162.028 71.7579 162.028C71.8004 162.028 71.8407 162.021 71.8794 162.008C71.9173 161.996 71.953 161.976 71.9856 161.947V162.188C71.9431 162.204 71.8991 162.215 71.8551 162.224C71.8103 162.232 71.7655 162.237 71.7215 162.237C71.5652 162.237 71.443 162.195 71.3542 162.111C71.2669 162.026 71.2237 161.908 71.2237 161.758C71.2237 161.608 71.2669 161.491 71.3542 161.407C71.443 161.322 71.5652 161.279 71.7215 161.279C71.7655 161.279 71.8103 161.284 71.8551 161.292C71.8991 161.301 71.9431 161.313 71.9856 161.33L71.9856 161.33Z" fill="black"/>
<path d="M72.636 161.488C72.5753 161.488 72.5283 161.512 72.4964 161.559C72.4638 161.604 72.4478 161.67 72.4478 161.758C72.4478 161.846 72.4638 161.914 72.4964 161.96C72.5283 162.005 72.5753 162.028 72.636 162.028C72.6967 162.028 72.7423 162.005 72.7726 161.96C72.8045 161.914 72.8212 161.846 72.8212 161.758C72.8212 161.67 72.8045 161.604 72.7726 161.559C72.7423 161.512 72.6967 161.488 72.636 161.488ZM72.636 161.279C72.7833 161.279 72.8986 161.322 72.9821 161.408C73.0671 161.491 73.1096 161.608 73.1096 161.758C73.1096 161.908 73.0671 162.026 72.9821 162.111C72.8986 162.195 72.7833 162.237 72.636 162.237C72.4858 162.237 72.3689 162.195 72.2839 162.111C72.2004 162.026 72.1594 161.908 72.1594 161.758C72.1594 161.608 72.2004 161.491 72.2839 161.408C72.3689 161.322 72.4858 161.279 72.636 161.279Z" fill="black"/>
<path d="M73.9512 161.549C73.927 161.536 73.9027 161.528 73.8784 161.523C73.8541 161.517 73.8298 161.514 73.8055 161.514C73.7342 161.514 73.6795 161.538 73.6416 161.587C73.6052 161.635 73.587 161.703 73.587 161.793V162.214H73.3107V161.301H73.587V161.449C73.6211 161.39 73.6613 161.346 73.7084 161.321C73.7547 161.293 73.8093 161.279 73.8723 161.279C73.8822 161.279 73.892 161.281 73.9027 161.282C73.9148 161.282 73.9307 161.284 73.9512 161.285V161.549Z" fill="black"/>
<path d="M74.9576 161.658V162.214H74.6783V161.787C74.6783 161.71 74.676 161.657 74.6722 161.626C74.6699 161.596 74.6646 161.574 74.657 161.559C74.6449 161.539 74.6297 161.525 74.6115 161.514C74.5933 161.503 74.5728 161.498 74.5508 161.498C74.4916 161.498 74.4461 161.522 74.4142 161.568C74.3815 161.616 74.3656 161.681 74.3656 161.764V162.214H74.0894V161.301H74.3656V161.433C74.4058 161.38 74.4491 161.342 74.4961 161.318C74.5424 161.292 74.594 161.279 74.651 161.279C74.7519 161.279 74.8278 161.311 74.8787 161.375C74.931 161.44 74.9576 161.534 74.9576 161.658L74.9576 161.658Z" fill="black"/>
<path d="M75.5989 161.803C75.542 161.803 75.4987 161.814 75.4684 161.835C75.4395 161.854 75.4259 161.885 75.4259 161.925C75.4259 161.962 75.4365 161.991 75.4592 162.012C75.4835 162.033 75.5169 162.044 75.5594 162.044C75.6095 162.044 75.652 162.025 75.6869 161.986C75.7234 161.946 75.7416 161.895 75.7416 161.835V161.803H75.5989ZM76.0209 161.693V162.214H75.7416V162.079C75.7051 162.135 75.6634 162.176 75.6171 162.201C75.5701 162.225 75.5147 162.237 75.4501 162.237C75.3591 162.237 75.2847 162.21 75.2285 162.156C75.1739 162.101 75.1466 162.029 75.1466 161.941C75.1466 161.834 75.1807 161.756 75.2498 161.706C75.3204 161.655 75.4304 161.629 75.5807 161.629H75.7416V161.607C75.7416 161.56 75.7241 161.526 75.69 161.504C75.6551 161.483 75.6019 161.472 75.5291 161.472C75.4699 161.472 75.4152 161.478 75.3651 161.491C75.3143 161.504 75.2665 161.523 75.2225 161.549V161.324C75.2809 161.309 75.3393 161.298 75.3985 161.292C75.4592 161.284 75.52 161.279 75.5807 161.279C75.7363 161.279 75.8486 161.311 75.9176 161.375C75.986 161.44 76.0209 161.546 76.0209 161.693L76.0209 161.693Z" fill="black"/>
<path d="M76.9186 161.549C76.8944 161.536 76.8701 161.528 76.8458 161.523C76.8215 161.517 76.7972 161.514 76.7729 161.514C76.7016 161.514 76.647 161.538 76.609 161.587C76.5726 161.635 76.5544 161.703 76.5544 161.793V162.214H76.2781V161.301H76.5544V161.449C76.5885 161.39 76.6287 161.346 76.6758 161.321C76.7221 161.293 76.7767 161.279 76.8397 161.279C76.8496 161.279 76.8595 161.281 76.8701 161.282C76.8822 161.282 76.8982 161.284 76.9186 161.285V161.549Z" fill="black"/>
<path d="M77.3573 161.041V161.301H77.6427V161.51H77.3573V161.896C77.3573 161.939 77.3649 161.968 77.3816 161.983C77.3975 161.998 77.4287 162.005 77.4757 162.005H77.6184V162.214H77.3816C77.2723 162.214 77.1941 162.191 77.1478 162.144C77.1031 162.094 77.0811 162.012 77.0811 161.896V161.51H76.9445V161.301H77.0811V161.041L77.3573 161.041Z" fill="black"/>
<path d="M78.4858 161.33V161.552C78.4266 161.525 78.369 161.504 78.3128 161.491C78.2582 161.478 78.2066 161.472 78.158 161.472C78.1049 161.472 78.0654 161.48 78.0396 161.494C78.0153 161.507 78.0032 161.529 78.0032 161.558C78.0032 161.583 78.0123 161.6 78.0305 161.613C78.0502 161.624 78.0859 161.632 78.1367 161.639L78.1853 161.645C78.3265 161.665 78.4221 161.697 78.4707 161.742C78.5192 161.785 78.5435 161.853 78.5435 161.944C78.5435 162.043 78.5086 162.117 78.4403 162.166C78.3735 162.213 78.2718 162.237 78.1367 162.237C78.0798 162.237 78.0214 162.231 77.9607 162.221C77.9 162.213 77.837 162.2 77.7725 162.182V161.96C77.8271 161.988 77.8833 162.01 77.9425 162.025C78.0009 162.037 78.0593 162.044 78.1185 162.044C78.1732 162.044 78.2134 162.037 78.24 162.021C78.268 162.004 78.2825 161.981 78.2825 161.951C78.2825 161.925 78.2718 161.906 78.2521 161.893C78.2339 161.88 78.1959 161.869 78.1398 161.861L78.0912 161.854C77.9698 161.84 77.8833 161.811 77.8332 161.767C77.7846 161.722 77.7603 161.655 77.7603 161.565C77.7603 161.467 77.7914 161.395 77.8544 161.35C77.9167 161.303 78.013 161.279 78.1428 161.279C78.1929 161.279 78.246 161.284 78.3007 161.292C78.3568 161.298 78.4191 161.311 78.4859 161.33L78.4858 161.33Z" fill="black"/>
<path d="M58.227 162.616V162.809H58.0752C58.0343 162.809 58.0062 162.817 57.9902 162.831C57.9758 162.847 57.969 162.872 57.969 162.908V162.973H58.2058V163.182H57.969V163.886H57.6927V163.182H57.5561V162.973H57.6927V162.908C57.6927 162.808 57.7185 162.734 57.7717 162.687C57.824 162.64 57.9052 162.616 58.0145 162.616L58.227 162.616Z" fill="black"/>
<path d="M58.9867 163.22C58.9624 163.207 58.9381 163.199 58.9138 163.195C58.8896 163.188 58.8653 163.185 58.841 163.185C58.7696 163.185 58.715 163.21 58.6771 163.259C58.6406 163.306 58.6224 163.375 58.6224 163.465V163.886H58.3462V162.973H58.6224V163.121C58.6566 163.061 58.6968 163.018 58.7438 162.992C58.7901 162.965 58.8448 162.95 58.9078 162.95C58.9176 162.95 58.9275 162.952 58.9381 162.954C58.9503 162.954 58.9662 162.955 58.9867 162.957V163.22Z" fill="black"/>
<path d="M59.5347 163.159C59.4739 163.159 59.4269 163.183 59.395 163.23C59.3624 163.275 59.3464 163.342 59.3464 163.429C59.3464 163.518 59.3624 163.585 59.395 163.632C59.4269 163.677 59.4739 163.699 59.5347 163.699C59.5954 163.699 59.6409 163.677 59.6713 163.632C59.7031 163.585 59.7198 163.518 59.7198 163.429C59.7198 163.342 59.7031 163.275 59.6713 163.23C59.6409 163.183 59.5954 163.159 59.5347 163.159ZM59.5347 162.95C59.6819 162.95 59.7972 162.994 59.8807 163.079C59.9657 163.162 60.0082 163.28 60.0082 163.429C60.0082 163.58 59.9657 163.698 59.8807 163.783C59.7972 163.866 59.6819 163.908 59.5347 163.908C59.3844 163.908 59.2675 163.866 59.1825 163.783C59.099 163.698 59.058 163.58 59.058 163.429C59.058 163.28 59.099 163.162 59.1825 163.079C59.2675 162.994 59.3844 162.95 59.5347 162.95Z" fill="black"/>
<path d="M61.0077 163.124C61.0419 163.066 61.0836 163.023 61.1322 162.995C61.1808 162.966 61.2331 162.95 61.29 162.95C61.3887 162.95 61.4646 162.982 61.5177 163.047C61.5701 163.111 61.5967 163.206 61.5967 163.33V163.886H61.3174V163.41C61.3189 163.402 61.3204 163.394 61.3204 163.387V163.355C61.3204 163.289 61.3113 163.242 61.2931 163.214C61.2749 163.184 61.2453 163.169 61.205 163.169C61.1519 163.169 61.1117 163.193 61.0836 163.24C61.0548 163.285 61.0411 163.35 61.0411 163.436V163.886H60.7618V163.41C60.7618 163.307 60.7535 163.242 60.7375 163.214C60.7209 163.184 60.692 163.169 60.6495 163.169C60.5964 163.169 60.5562 163.193 60.5281 163.24C60.4992 163.285 60.4856 163.35 60.4856 163.436V163.886H60.2063V162.973H60.4856V163.105C60.5175 163.053 60.5562 163.015 60.6009 162.989C60.645 162.963 60.6935 162.95 60.7467 162.95C60.8051 162.95 60.8575 162.966 60.9045 162.995C60.9508 163.026 60.985 163.068 61.0077 163.124L61.0077 163.124Z" fill="black"/>
<path d="M62.7039 162.712V162.973H62.9893V163.182H62.7039V163.567C62.7039 163.611 62.7115 163.64 62.7282 163.654C62.7442 163.669 62.7753 163.677 62.8223 163.677H62.965V163.886H62.7282C62.6189 163.886 62.5408 163.862 62.4945 163.815C62.4497 163.766 62.4277 163.683 62.4277 163.567V163.182H62.2911V162.973H62.4277V162.712L62.7039 162.712Z" fill="black"/>
<path d="M64.0267 163.33V163.886H63.7474V163.461C63.7474 163.383 63.7452 163.328 63.7414 163.297C63.7391 163.268 63.7338 163.245 63.7262 163.23C63.714 163.211 63.6989 163.196 63.6807 163.185C63.6624 163.174 63.6419 163.169 63.6199 163.169C63.5607 163.169 63.5152 163.193 63.4833 163.24C63.4507 163.287 63.4348 163.352 63.4348 163.436V163.886H63.1585V162.616H63.4348V163.105C63.475 163.052 63.5182 163.013 63.5653 162.989C63.6116 162.963 63.6632 162.95 63.7201 162.95C63.8211 162.95 63.897 162.982 63.9478 163.047C64.0002 163.111 64.0267 163.206 64.0267 163.33L64.0267 163.33Z" fill="black"/>
<path d="M65.1439 163.426V163.51H64.4973C64.5034 163.579 64.5261 163.63 64.5671 163.664C64.6073 163.698 64.6627 163.715 64.7341 163.715C64.7925 163.715 64.8525 163.707 64.9132 163.69C64.9739 163.67 65.0361 163.643 65.1014 163.606V163.831C65.0361 163.857 64.9709 163.876 64.9041 163.889C64.8388 163.902 64.7743 163.908 64.7098 163.908C64.5534 163.908 64.432 163.866 64.3455 163.783C64.2582 163.699 64.215 163.582 64.215 163.429C64.215 163.28 64.2575 163.162 64.3425 163.079C64.4275 162.994 64.5443 162.95 64.6946 162.95C64.8297 162.95 64.9382 162.995 65.0194 163.082C65.1022 163.168 65.1439 163.283 65.1439 163.426L65.1439 163.426ZM64.8585 163.33C64.8585 163.274 64.8433 163.229 64.813 163.195C64.7826 163.161 64.7432 163.143 64.6946 163.143C64.6399 163.143 64.5952 163.159 64.561 163.191C64.5284 163.224 64.5079 163.27 64.5003 163.33L64.8585 163.33Z" fill="black"/>
<path d="M65.9142 162.667H66.2451L66.664 163.503V162.667H66.9433V163.886H66.6124L66.1935 163.05V163.886H65.9142V162.667Z" fill="black"/>
<path d="M67.6332 163.159C67.5724 163.159 67.5254 163.183 67.4935 163.23C67.4609 163.275 67.4449 163.342 67.4449 163.429C67.4449 163.518 67.4609 163.585 67.4935 163.632C67.5254 163.677 67.5724 163.699 67.6332 163.699C67.6939 163.699 67.7394 163.677 67.7698 163.632C67.8016 163.585 67.8183 163.518 67.8183 163.429C67.8183 163.342 67.8016 163.275 67.7698 163.23C67.7394 163.183 67.6939 163.159 67.6332 163.159ZM67.6332 162.95C67.7804 162.95 67.8958 162.994 67.9792 163.079C68.0642 163.162 68.1067 163.28 68.1067 163.429C68.1067 163.58 68.0642 163.698 67.9792 163.783C67.8957 163.866 67.7804 163.908 67.6332 163.908C67.4829 163.908 67.366 163.866 67.281 163.783C67.1975 163.698 67.1566 163.58 67.1566 163.429C67.1566 163.28 67.1975 163.162 67.281 163.079C67.366 162.994 67.4829 162.95 67.6332 162.95Z" fill="black"/>
<path d="M68.2987 163.529V162.973H68.575V163.063V163.249V163.4C68.575 163.473 68.5758 163.526 68.578 163.558C68.5818 163.59 68.5879 163.614 68.5962 163.628C68.6084 163.648 68.6236 163.663 68.6418 163.673C68.66 163.685 68.6812 163.69 68.7055 163.69C68.7617 163.69 68.8065 163.666 68.8391 163.619C68.8733 163.572 68.8907 163.506 68.8907 163.423V162.973H69.167V163.886H68.8907V163.754C68.8482 163.808 68.8034 163.847 68.7571 163.873C68.7101 163.896 68.6585 163.908 68.6023 163.908C68.5029 163.908 68.427 163.876 68.3746 163.812C68.3238 163.747 68.2987 163.653 68.2987 163.529L68.2987 163.529Z" fill="black"/>
<path d="M70.3 163.33V163.886H70.0208V163.458C70.0208 163.381 70.0185 163.328 70.0147 163.297C70.0124 163.268 70.0071 163.245 69.9995 163.23C69.9874 163.211 69.9722 163.196 69.954 163.185C69.9358 163.175 69.9153 163.169 69.8933 163.169C69.8341 163.169 69.7885 163.193 69.7566 163.24C69.724 163.287 69.7081 163.352 69.7081 163.436V163.886H69.4318V162.973H69.7081V163.105C69.7483 163.052 69.7916 163.013 69.8386 162.989C69.8849 162.963 69.9365 162.95 69.9934 162.95C70.0944 162.95 70.1703 162.982 70.2211 163.047C70.2735 163.111 70.3 163.206 70.3 163.33L70.3 163.33Z" fill="black"/>
<path d="M71.1174 162.667H71.6092C71.7549 162.667 71.8672 162.702 71.9461 162.77C72.0251 162.839 72.0645 162.937 72.0645 163.066C72.0645 163.193 72.0251 163.29 71.9461 163.359C71.8672 163.428 71.7549 163.461 71.6092 163.461H71.4119V163.886H71.1174V162.667ZM71.4119 162.896V163.236H71.5788C71.635 163.236 71.679 163.222 71.7094 163.191C71.7412 163.162 71.7579 163.12 71.7579 163.066C71.7579 163.011 71.7412 162.969 71.7094 162.941C71.679 162.911 71.635 162.896 71.5788 162.896L71.4119 162.896Z" fill="black"/>
<path d="M72.9032 163.22C72.8789 163.207 72.8546 163.199 72.8303 163.195C72.806 163.188 72.7817 163.185 72.7575 163.185C72.6861 163.185 72.6315 163.21 72.5935 163.259C72.5571 163.306 72.5389 163.375 72.5389 163.465V163.886H72.2626V162.973H72.5389V163.121C72.573 163.061 72.6133 163.018 72.6603 162.992C72.7066 162.965 72.7613 162.95 72.8242 162.95C72.8341 162.95 72.844 162.952 72.8546 162.954C72.8667 162.954 72.8827 162.955 72.9032 162.957V163.22Z" fill="black"/>
<path d="M73.4511 163.159C73.3904 163.159 73.3434 163.183 73.3115 163.23C73.2788 163.275 73.2629 163.342 73.2629 163.429C73.2629 163.518 73.2788 163.585 73.3115 163.632C73.3434 163.677 73.3904 163.699 73.4511 163.699C73.5118 163.699 73.5574 163.677 73.5877 163.632C73.6196 163.585 73.6363 163.518 73.6363 163.429C73.6363 163.342 73.6196 163.275 73.5877 163.23C73.5574 163.183 73.5118 163.159 73.4511 163.159ZM73.4511 162.95C73.5984 162.95 73.7137 162.994 73.7972 163.079C73.8822 163.162 73.9247 163.28 73.9247 163.429C73.9247 163.58 73.8822 163.698 73.7972 163.783C73.7137 163.866 73.5984 163.908 73.4511 163.908C73.3009 163.908 73.184 163.866 73.099 163.783C73.0155 163.698 72.9745 163.58 72.9745 163.429C72.9745 163.28 73.0155 163.162 73.099 163.079C73.184 162.994 73.3009 162.95 73.4511 162.95Z" fill="black"/>
<path d="M74.1258 162.973H74.402V163.87C74.402 163.992 74.3732 164.085 74.317 164.149C74.2624 164.213 74.182 164.246 74.0772 164.246H73.9406V164.056H73.9861C74.0385 164.056 74.0749 164.043 74.0954 164.017C74.1152 163.992 74.1258 163.942 74.1258 163.87L74.1258 162.973ZM74.1258 162.616H74.402V162.854H74.1258V162.616Z" fill="black"/>
<path d="M75.529 163.426V163.51H74.8824C74.8885 163.579 74.9113 163.63 74.9523 163.664C74.9925 163.698 75.0479 163.715 75.1192 163.715C75.1777 163.715 75.2376 163.707 75.2983 163.69C75.3591 163.67 75.4213 163.643 75.4866 163.606V163.831C75.4213 163.857 75.356 163.876 75.2892 163.889C75.224 163.902 75.1595 163.908 75.095 163.908C74.9386 163.908 74.8172 163.866 74.7307 163.783C74.6434 163.699 74.6001 163.582 74.6001 163.429C74.6001 163.28 74.6426 163.162 74.7276 163.079C74.8126 162.994 74.9295 162.95 75.0798 162.95C75.2149 162.95 75.3234 162.995 75.4046 163.082C75.4873 163.168 75.5291 163.283 75.5291 163.426L75.529 163.426ZM75.2437 163.33C75.2437 163.274 75.2285 163.229 75.1981 163.195C75.1678 163.161 75.1283 163.143 75.0797 163.143C75.0251 163.143 74.9803 163.159 74.9462 163.191C74.9135 163.224 74.8931 163.27 74.8855 163.33L75.2437 163.33Z" fill="black"/>
<path d="M76.4322 163.002V163.24C76.3958 163.212 76.3578 163.191 76.3199 163.179C76.2834 163.166 76.2447 163.159 76.2045 163.159C76.1256 163.159 76.0649 163.183 76.0224 163.23C75.9799 163.277 75.9586 163.344 75.9586 163.429C75.9586 163.515 75.9799 163.582 76.0224 163.629C76.0649 163.676 76.1256 163.699 76.2045 163.699C76.247 163.699 76.2872 163.693 76.3259 163.68C76.3639 163.667 76.3996 163.647 76.4322 163.619V163.86C76.3897 163.875 76.3457 163.886 76.3017 163.895C76.2569 163.903 76.2121 163.908 76.1681 163.908C76.0117 163.908 75.8896 163.866 75.8008 163.783C75.7135 163.698 75.6702 163.58 75.6702 163.429C75.6702 163.28 75.7135 163.162 75.8008 163.079C75.8896 162.994 76.0117 162.95 76.1681 162.95C76.2121 162.95 76.2569 162.955 76.3017 162.963C76.3457 162.972 76.3897 162.985 76.4322 163.002L76.4322 163.002Z" fill="black"/>
<path d="M76.9733 162.712V162.973H77.2587V163.182H76.9733V163.567C76.9733 163.611 76.9809 163.64 76.9976 163.654C77.0135 163.669 77.0446 163.677 77.0917 163.677H77.2344V163.886H76.9976C76.8883 163.886 76.8101 163.862 76.7638 163.815C76.719 163.766 76.697 163.683 76.697 163.567V163.182H76.5604V162.973H76.697V162.712L76.9733 162.712Z" fill="black"/>
<rect x="51" y="157" width="33" height="11" fill="white"/>
<defs>
<clipPath id="clip0_410_990">
<rect width="62" height="65" fill="white" transform="translate(157 28)"/>
</clipPath>
</defs>
</svg>
