<svg width="281" height="197" viewBox="0 0 281 197" fill="none" xmlns="http://www.w3.org/2000/svg">
<rect width="281" height="186" fill="white"/>
<path d="M215.896 43.6354C215.431 43.6354 215.054 44.0124 215.054 44.4774V64.8973C215.054 65.3623 215.431 65.7393 215.896 65.7393C216.361 65.7393 216.738 65.3623 216.738 64.8973V44.4774C216.738 44.2541 216.649 44.0399 216.491 43.882C216.333 43.7241 216.119 43.6354 215.896 43.6354Z" fill="black"/>
<path d="M218.177 43.6354C217.712 43.6354 217.335 44.0124 217.335 44.4774V64.8973C217.335 65.3623 217.712 65.7393 218.177 65.7393C218.643 65.7393 219.019 65.3623 219.019 64.8973V44.4774C219.019 44.2541 218.931 44.0399 218.773 43.882C218.615 43.7241 218.401 43.6354 218.177 43.6354Z" fill="black"/>
<path d="M220.46 43.6354C219.995 43.6354 219.618 44.0124 219.618 44.4774V64.8973C219.618 65.3623 219.995 65.7393 220.46 65.7393C220.925 65.7393 221.302 65.3623 221.302 64.8973V44.4774C221.302 44.2541 221.213 44.0399 221.055 43.882C220.898 43.7241 220.683 43.6354 220.46 43.6354Z" fill="black"/>
<path d="M239.473 43.6354C239.008 43.6354 238.631 44.0124 238.631 44.4774V64.8973C238.631 65.3623 239.008 65.7393 239.473 65.7393C239.938 65.7393 240.315 65.3623 240.315 64.8973V44.4774C240.315 44.2541 240.226 44.0399 240.068 43.882C239.911 43.7241 239.696 43.6354 239.473 43.6354Z" fill="black"/>
<path d="M241.755 43.6354C241.29 43.6354 240.913 44.0124 240.913 44.4774V64.8973C240.913 65.3623 241.29 65.7393 241.755 65.7393C242.22 65.7393 242.597 65.3623 242.597 64.8973V44.4774C242.597 44.2541 242.508 44.0399 242.35 43.882C242.192 43.7241 241.978 43.6354 241.755 43.6354Z" fill="black"/>
<path d="M244.037 43.6354C243.572 43.6354 243.195 44.0124 243.195 44.4774V64.8973C243.195 65.3623 243.572 65.7393 244.037 65.7393C244.502 65.7393 244.879 65.3623 244.879 64.8973V44.4774C244.879 44.2541 244.791 44.0399 244.633 43.882C244.475 43.7241 244.261 43.6354 244.037 43.6354Z" fill="black"/>
<path d="M223.584 43.6354C223.119 43.6354 222.742 44.0124 222.742 44.4774V64.8973C222.742 65.3623 223.119 65.7393 223.584 65.7393C224.049 65.7393 224.426 65.3623 224.426 64.8973V44.4774C224.426 44.2541 224.337 44.0399 224.179 43.882C224.021 43.7241 223.807 43.6354 223.584 43.6354Z" fill="black"/>
<path d="M225.865 43.6354C225.4 43.6354 225.023 44.0124 225.023 44.4774V64.8973C225.023 65.3623 225.4 65.7393 225.865 65.7393C226.33 65.7393 226.708 65.3623 226.708 64.8973V44.4774C226.708 44.2541 226.619 44.0399 226.461 43.882C226.303 43.7241 226.089 43.6354 225.865 43.6354Z" fill="black"/>
<path d="M228.207 43.6354C227.742 43.6354 227.365 44.0124 227.365 44.4774V64.8973C227.365 65.3623 227.742 65.7393 228.207 65.7393C228.672 65.7393 229.049 65.3623 229.049 64.8973V44.4774C229.049 44.2541 228.96 44.0399 228.802 43.882C228.644 43.7241 228.43 43.6354 228.207 43.6354Z" fill="black"/>
<path d="M230.489 43.6354C230.024 43.6354 229.646 44.0124 229.646 44.4774V64.8973C229.646 65.3623 230.024 65.7393 230.489 65.7393C230.954 65.7393 231.331 65.3623 231.331 64.8973V44.4774C231.331 44.2541 231.242 44.0399 231.084 43.882C230.926 43.7241 230.712 43.6354 230.489 43.6354Z" fill="black"/>
<path d="M233.823 43.6354C233.358 43.6354 232.981 44.0124 232.981 44.4774V64.8973C232.981 65.3623 233.358 65.7393 233.823 65.7393C234.288 65.7393 234.665 65.3623 234.665 64.8973V44.4774C234.665 44.2541 234.576 44.0399 234.418 43.882C234.26 43.7241 234.046 43.6354 233.823 43.6354Z" fill="black"/>
<path d="M236.105 43.6354C235.64 43.6354 235.263 44.0124 235.263 44.4774V64.8973C235.263 65.3623 235.64 65.7393 236.105 65.7393C236.57 65.7393 236.947 65.3623 236.947 64.8973V44.4774C236.947 44.2541 236.858 44.0399 236.7 43.882C236.542 43.7241 236.328 43.6354 236.105 43.6354Z" fill="black"/>
<path d="M247.296 43.6354C246.83 43.6354 246.454 44.0124 246.454 44.4774V64.8973C246.454 65.3623 246.83 65.7393 247.296 65.7393C247.761 65.7393 248.138 65.3623 248.138 64.8973V44.4774C248.138 44.2541 248.049 44.0399 247.891 43.882C247.733 43.7241 247.519 43.6354 247.296 43.6354Z" fill="black"/>
<path d="M249.577 65.7393C249.801 65.7393 250.015 65.6506 250.173 65.4927C250.331 65.3349 250.42 65.1206 250.42 64.8973V44.4774C250.42 44.0124 250.042 43.6354 249.577 43.6354C249.112 43.6354 248.735 44.0124 248.735 44.4774V64.8973C248.735 65.1206 248.824 65.3349 248.982 65.4927C249.14 65.6506 249.354 65.7393 249.577 65.7393Z" fill="black"/>
<path d="M215.896 37H209.159C208.694 37 208.317 37.377 208.317 37.842V44.5784C208.317 45.0434 208.694 45.4205 209.159 45.4205C209.624 45.4205 210.001 45.0434 210.001 44.5784V38.6841H215.896C216.361 38.6841 216.738 38.307 216.738 37.842C216.738 37.377 216.361 37 215.896 37Z" fill="black"/>
<path d="M215.896 70.7915H210.001V64.8972C210.001 64.4322 209.624 64.0552 209.159 64.0552C208.694 64.0552 208.317 64.4322 208.317 64.8972V71.6336C208.317 71.8569 208.406 72.0712 208.564 72.229C208.722 72.3869 208.936 72.4756 209.159 72.4756H215.896C216.361 72.4756 216.738 72.0986 216.738 71.6336C216.738 71.1686 216.361 70.7915 215.896 70.7915Z" fill="black"/>
<path d="M256.314 37H249.577C249.112 37 248.735 37.377 248.735 37.842C248.735 38.307 249.112 38.6841 249.577 38.6841H255.472V44.5784C255.472 45.0434 255.849 45.4205 256.314 45.4205C256.779 45.4205 257.156 45.0434 257.156 44.5784V37.842C257.156 37.6188 257.067 37.4045 256.909 37.2466C256.751 37.0887 256.537 37 256.314 37Z" fill="black"/>
<path d="M256.314 64.0552C255.849 64.0552 255.472 64.4322 255.472 64.8972V70.7915H249.577C249.112 70.7915 248.735 71.1686 248.735 71.6336C248.735 72.0986 249.112 72.4756 249.577 72.4756H256.314C256.537 72.4756 256.751 72.3869 256.909 72.229C257.067 72.0712 257.156 71.8569 257.156 71.6336V64.8972C257.156 64.6739 257.067 64.4597 256.909 64.3018C256.751 64.1439 256.537 64.0552 256.314 64.0552Z" fill="black"/>
<path d="M208.612 94.0908C208.466 94.1659 208.315 94.2227 208.156 94.2607C207.999 94.2998 207.835 94.3193 207.665 94.3193C207.153 94.3193 206.748 94.1765 206.448 93.8908C206.149 93.6051 206 93.2171 206 92.7269C206 92.2367 206.149 91.8488 206.448 91.5631C206.748 91.2774 207.153 91.1345 207.665 91.1345C207.835 91.1345 207.999 91.1537 208.156 91.1917C208.315 91.23 208.466 91.2871 208.612 91.3631V91.9976C208.465 91.8976 208.319 91.8243 208.177 91.7781C208.035 91.7311 207.885 91.7074 207.728 91.7074C207.445 91.7074 207.223 91.7984 207.062 91.9796C206.9 92.16 206.82 92.4092 206.82 92.7269C206.82 93.0438 206.9 93.293 207.062 93.4742C207.223 93.6546 207.445 93.7449 207.728 93.7449C207.885 93.7449 208.035 93.7219 208.177 93.6757C208.319 93.6287 208.465 93.555 208.612 93.4547V94.0908Z" fill="black"/>
<path d="M210.946 92.5841C210.88 92.554 210.816 92.5322 210.752 92.518C210.688 92.5029 210.625 92.4954 210.561 92.4954C210.371 92.4954 210.225 92.5563 210.123 92.6773C210.022 92.7988 209.971 92.9728 209.971 93.1991V94.2592H209.234V91.9571H209.971V92.3345C210.065 92.1842 210.173 92.0744 210.296 92.0052C210.419 91.9361 210.567 91.9015 210.738 91.9015C210.762 91.9015 210.788 91.9026 210.818 91.9045C210.847 91.9068 210.888 91.9113 210.943 91.918L210.946 92.5841Z" fill="black"/>
<path d="M213.61 93.1014V93.3119H211.888C211.906 93.4845 211.968 93.6138 212.074 93.6999C212.182 93.7863 212.332 93.8292 212.524 93.8292C212.678 93.8292 212.837 93.8066 212.999 93.7615C213.162 93.7157 213.328 93.6457 213.5 93.5525V94.1194C213.326 94.1855 213.153 94.2352 212.978 94.2682C212.804 94.3021 212.63 94.3194 212.456 94.3194C212.039 94.3194 211.715 94.2137 211.483 94.0021C211.253 93.7897 211.138 93.4924 211.138 93.1104C211.138 92.7345 211.251 92.4394 211.477 92.2248C211.705 92.0094 212.017 91.9015 212.414 91.9015C212.776 91.9015 213.066 92.0109 213.283 92.2293C213.501 92.4469 213.61 92.7375 213.61 93.1014L213.61 93.1014ZM212.853 92.8578C212.853 92.7176 212.812 92.6048 212.73 92.5195C212.649 92.4334 212.542 92.3902 212.411 92.3902C212.268 92.3902 212.151 92.4304 212.062 92.5105C211.974 92.5909 211.919 92.7067 211.897 92.8578H212.853Z" fill="black"/>
<path d="M215.198 93.223C215.044 93.223 214.929 93.2493 214.852 93.3012C214.774 93.3534 214.736 93.4301 214.736 93.5312C214.736 93.6245 214.767 93.6978 214.829 93.7508C214.891 93.803 214.978 93.8289 215.089 93.8289C215.228 93.8289 215.344 93.7793 215.438 93.6801C215.533 93.5808 215.581 93.4568 215.581 93.3072V93.223L215.198 93.223ZM216.322 92.9448V94.259H215.581V93.9176C215.482 94.0571 215.371 94.159 215.247 94.2229C215.124 94.2868 214.974 94.3191 214.798 94.3191C214.559 94.3191 214.365 94.2496 214.216 94.1101C214.067 93.971 213.993 93.7906 213.993 93.5688C213.993 93.2981 214.086 93.1004 214.271 92.9748C214.458 92.8485 214.75 92.7854 215.147 92.7854H215.581V92.7267C215.581 92.6106 215.535 92.5252 215.443 92.4711C215.351 92.417 215.208 92.3899 215.013 92.3899C214.855 92.3899 214.709 92.4061 214.574 92.438C214.438 92.4692 214.312 92.5162 214.195 92.5794V92.0185C214.353 91.9794 214.511 91.9505 214.67 91.9313C214.829 91.9114 214.988 91.9012 215.147 91.9012C215.562 91.9012 215.862 91.9836 216.046 92.1478C216.23 92.3114 216.322 92.5771 216.322 92.9448L216.322 92.9448Z" fill="black"/>
<path d="M217.812 91.3029V91.9569H218.569V92.4832H217.812V93.4591C217.812 93.5667 217.833 93.6392 217.875 93.6772C217.917 93.7144 218.001 93.7328 218.127 93.7328H218.506V94.2591H217.875C217.584 94.2591 217.378 94.1986 217.257 94.0771C217.135 93.9561 217.075 93.7501 217.075 93.4591V92.4832H216.709V91.957H217.075V91.3029L217.812 91.3029Z" fill="black"/>
<path d="M221.319 93.1014V93.3119H219.597C219.615 93.4845 219.677 93.6138 219.784 93.6999C219.891 93.7863 220.041 93.8292 220.233 93.8292C220.387 93.8292 220.546 93.8066 220.708 93.7615C220.871 93.7157 221.038 93.6457 221.209 93.5525V94.1194C221.035 94.1855 220.862 94.2352 220.687 94.2682C220.513 94.3021 220.339 94.3194 220.166 94.3194C219.748 94.3194 219.424 94.2137 219.193 94.0021C218.962 93.7897 218.847 93.4924 218.847 93.1104C218.847 92.7345 218.96 92.4394 219.187 92.2248C219.414 92.0094 219.727 91.9015 220.123 91.9015C220.485 91.9015 220.775 92.0109 220.993 92.2293C221.21 92.4469 221.319 92.7375 221.319 93.1014L221.319 93.1014ZM220.563 92.8578C220.563 92.7176 220.521 92.6048 220.439 92.5195C220.358 92.4334 220.252 92.3902 220.12 92.3902C219.977 92.3902 219.861 92.4304 219.772 92.5105C219.683 92.5909 219.628 92.7067 219.606 92.8578H220.563Z" fill="black"/>
<path d="M223.442 92.294V91.061H224.182V94.2593H223.442V93.927C223.341 94.0623 223.229 94.1615 223.107 94.2247C222.984 94.2878 222.843 94.3194 222.683 94.3194C222.399 94.3194 222.166 94.2066 221.984 93.9811C221.802 93.7556 221.711 93.4654 221.711 93.1105C221.711 92.7556 221.802 92.4654 221.984 92.2399C222.166 92.0143 222.399 91.9015 222.683 91.9015C222.842 91.9015 222.983 91.9339 223.105 91.9978C223.229 92.0609 223.341 92.1598 223.442 92.294V92.294ZM222.956 93.7841C223.115 93.7841 223.235 93.7266 223.317 93.6111C223.4 93.4961 223.442 93.3292 223.442 93.1104C223.442 92.8909 223.4 92.7236 223.317 92.6082C223.235 92.4932 223.115 92.4353 222.956 92.4353C222.8 92.4353 222.68 92.4932 222.597 92.6082C222.515 92.7236 222.474 92.8909 222.474 93.1104C222.474 93.3292 222.515 93.4961 222.597 93.6111C222.68 93.7266 222.8 93.7841 222.956 93.7841Z" fill="black"/>
<path d="M227.58 93.7841C227.737 93.7841 227.858 93.7266 227.941 93.6112C228.024 93.4961 228.066 93.3292 228.066 93.1104C228.066 92.8909 228.024 92.7236 227.941 92.6082C227.858 92.4932 227.737 92.4353 227.58 92.4353C227.423 92.4353 227.302 92.4936 227.218 92.6097C227.134 92.7251 227.091 92.892 227.091 93.1104C227.091 93.3281 227.134 93.495 227.218 93.6111C227.302 93.7266 227.423 93.7841 227.58 93.7841V93.7841ZM227.091 92.294C227.193 92.1598 227.305 92.0609 227.428 91.9978C227.552 91.9339 227.693 91.9015 227.854 91.9015C228.137 91.9015 228.37 92.0143 228.553 92.2399C228.735 92.4654 228.827 92.7556 228.827 93.1105C228.827 93.4653 228.735 93.7555 228.553 93.9811C228.37 94.2067 228.137 94.3194 227.854 94.3194C227.693 94.3194 227.552 94.2871 227.428 94.2232C227.305 94.1593 227.193 94.0604 227.091 93.927V94.2593H226.355V91.061H227.091V92.294Z" fill="black"/>
<path d="M229.066 91.9572H229.803L230.421 93.5194L230.947 91.9572H231.684L230.716 94.4773C230.618 94.7337 230.504 94.9126 230.374 95.0141C230.245 95.1164 230.074 95.1675 229.862 95.1675H229.436V94.6848H229.666C229.791 94.6848 229.882 94.6645 229.938 94.6247C229.995 94.5856 230.04 94.5142 230.072 94.4112L230.092 94.348L229.066 91.9572Z" fill="black"/>
<path d="M233.612 91.1902H234.403V93.6607H235.793V94.2592H233.612L233.612 91.1902Z" fill="black"/>
<path d="M237.293 93.223C237.14 93.223 237.024 93.2493 236.947 93.3012C236.87 93.3534 236.831 93.4301 236.831 93.5312C236.831 93.6245 236.862 93.6978 236.925 93.7508C236.987 93.803 237.074 93.8289 237.185 93.8289C237.323 93.8289 237.439 93.7793 237.534 93.6801C237.629 93.5808 237.676 93.4568 237.676 93.3072V93.223L237.293 93.223ZM238.418 92.9448V94.259H237.677V93.9176C237.577 94.0571 237.466 94.159 237.343 94.2229C237.219 94.2868 237.069 94.3191 236.893 94.3191C236.654 94.3191 236.46 94.2496 236.311 94.1101C236.163 93.971 236.089 93.7906 236.089 93.5688C236.089 93.2981 236.181 93.1004 236.367 92.9748C236.553 92.8485 236.845 92.7854 237.242 92.7854H237.677V92.7267C237.677 92.6106 237.63 92.5252 237.538 92.4711C237.447 92.417 237.304 92.3899 237.108 92.3899C236.951 92.3899 236.804 92.4061 236.669 92.438C236.534 92.4692 236.407 92.5162 236.29 92.5794V92.0185C236.448 91.9794 236.607 91.9505 236.765 91.9313C236.925 91.9114 237.083 91.9012 237.242 91.9012C237.658 91.9012 237.958 91.9836 238.141 92.1478C238.325 92.3114 238.418 92.5771 238.418 92.9448L238.418 92.9448Z" fill="black"/>
<path d="M240.669 92.294V91.061H241.409V94.2593H240.669V93.927C240.568 94.0623 240.456 94.1615 240.334 94.2247C240.212 94.2878 240.07 94.3194 239.91 94.3194C239.626 94.3194 239.393 94.2066 239.211 93.9811C239.029 93.7556 238.939 93.4654 238.939 93.1105C238.939 92.7556 239.029 92.4654 239.211 92.2399C239.393 92.0143 239.626 91.9015 239.91 91.9015C240.069 91.9015 240.21 91.9339 240.333 91.9978C240.456 92.0609 240.568 92.1598 240.669 92.294V92.294ZM240.184 93.7841C240.342 93.7841 240.462 93.7266 240.545 93.6111C240.628 93.4961 240.669 93.3292 240.669 93.1104C240.669 92.8909 240.628 92.7236 240.545 92.6082C240.462 92.4932 240.342 92.4353 240.184 92.4353C240.027 92.4353 239.907 92.4932 239.824 92.6082C239.742 92.7236 239.701 92.8909 239.701 93.1104C239.701 93.3292 239.742 93.4961 239.824 93.6111C239.907 93.7266 240.027 93.7841 240.184 93.7841Z" fill="black"/>
<path d="M243.148 93.223C242.995 93.223 242.879 93.2493 242.802 93.3012C242.725 93.3534 242.686 93.4301 242.686 93.5312C242.686 93.6245 242.717 93.6978 242.78 93.7508C242.842 93.803 242.928 93.8289 243.04 93.8289C243.178 93.8289 243.294 93.7793 243.388 93.6801C243.484 93.5808 243.531 93.4568 243.531 93.3072V93.223L243.148 93.223ZM244.273 92.9448V94.259H243.531V93.9176C243.432 94.0571 243.321 94.159 243.198 94.2229C243.074 94.2868 242.924 94.3191 242.748 94.3191C242.509 94.3191 242.315 94.2496 242.166 94.1101C242.018 93.971 241.944 93.7906 241.944 93.5688C241.944 93.2981 242.036 93.1004 242.222 92.9748C242.408 92.8485 242.7 92.7854 243.097 92.7854H243.531V92.7267C243.531 92.6106 243.485 92.5252 243.393 92.4711C243.302 92.417 243.158 92.3899 242.963 92.3899C242.805 92.3899 242.659 92.4061 242.524 92.438C242.389 92.4692 242.262 92.5162 242.145 92.5794V92.0185C242.303 91.9794 242.462 91.9505 242.62 91.9313C242.78 91.9114 242.938 91.9012 243.097 91.9012C243.513 91.9012 243.813 91.9836 243.996 92.1478C244.18 92.3114 244.273 92.5771 244.273 92.9448L244.273 92.9448Z" fill="black"/>
<path d="M244.958 91.061H245.694V94.2593H244.958V91.061Z" fill="black"/>
<path d="M246.401 91.061H247.137V94.2593H246.401V91.061Z" fill="black"/>
<path d="M250.143 93.1014V93.3119H248.421C248.439 93.4845 248.501 93.6138 248.608 93.6999C248.715 93.7863 248.865 93.8292 249.057 93.8292C249.211 93.8292 249.37 93.8066 249.532 93.7615C249.695 93.7157 249.862 93.6457 250.033 93.5525V94.1194C249.859 94.1855 249.686 94.2352 249.511 94.2682C249.337 94.3021 249.163 94.3194 248.989 94.3194C248.572 94.3194 248.248 94.2137 248.017 94.0021C247.786 93.7897 247.671 93.4924 247.671 93.1104C247.671 92.7345 247.784 92.4394 248.011 92.2248C248.238 92.0094 248.55 91.9015 248.947 91.9015C249.309 91.9015 249.599 92.0109 249.817 92.2293C250.034 92.4469 250.143 92.7375 250.143 93.1014L250.143 93.1014ZM249.386 92.8578C249.386 92.7176 249.345 92.6048 249.263 92.5195C249.182 92.4334 249.076 92.3902 248.944 92.3902C248.801 92.3902 248.685 92.4304 248.596 92.5105C248.507 92.5909 248.452 92.7067 248.43 92.8578H249.386Z" fill="black"/>
<path d="M254.632 94.0908C254.487 94.1659 254.335 94.2227 254.177 94.2607C254.019 94.2998 253.855 94.3193 253.685 94.3193C253.174 94.3193 252.768 94.1765 252.469 93.8908C252.17 93.6051 252.02 93.2171 252.02 92.7269C252.02 92.2367 252.17 91.8488 252.469 91.5631C252.768 91.2774 253.174 91.1345 253.685 91.1345C253.855 91.1345 254.019 91.1537 254.177 91.1917C254.335 91.23 254.487 91.2871 254.632 91.3631V91.9976C254.485 91.8976 254.34 91.8243 254.198 91.7781C254.055 91.7311 253.905 91.7074 253.748 91.7074C253.466 91.7074 253.243 91.7984 253.082 91.9796C252.92 92.16 252.84 92.4092 252.84 92.7269C252.84 93.0438 252.92 93.293 253.082 93.4742C253.243 93.6546 253.466 93.7449 253.748 93.7449C253.905 93.7449 254.055 93.7219 254.198 93.6757C254.34 93.6287 254.485 93.555 254.632 93.4547V94.0908Z" fill="black"/>
<path d="M133.982 50H132.294L135.366 41.2727H137.318L140.395 50H138.707L136.376 43.0625H136.308L133.982 50ZM134.037 46.5781H138.639V47.848H134.037V46.5781ZM143.125 41.2727V50H141.544V41.2727H143.125Z" fill="black"/>
<path d="M190.615 129.183C185.748 123.71 186.575 118.2 187.621 111.237C188.473 105.589 189.435 99.1686 187.256 91.7507C186.502 89.4884 184.519 85.748 182.231 81.4263C178.922 75.1708 174.797 67.3739 173.835 62.8108C173.835 62.76 173.811 62.7093 173.798 62.6596C172.715 59.007 172.46 55.7472 172.253 53.1307C171.973 49.5798 171.767 46.7735 169.284 45.8766C169.223 45.8518 169.151 45.8382 169.09 45.8134C167.398 45.4095 165.72 45.7751 164.15 46.7996V30.5603C164.15 26.946 161.315 24.0011 157.835 24.0011L117.049 24C113.57 24 110.734 26.9449 110.734 30.5591V41.6045C109.481 41.2637 108.228 41.1114 107.011 41.2006C106.038 41.2638 104.03 41.415 102.399 43.033C100.355 45.055 100.16 48.1005 100.611 50.1101C100.952 51.5758 101.95 53.6735 106.793 56.8711C108.082 57.7174 109.397 58.4508 110.735 59.1459V59.4867C110.59 59.4867 110.455 59.4618 110.31 59.4618C105.868 59.4618 102.242 63.2147 102.242 67.841C102.242 70.6461 103.58 73.124 105.625 74.6405C103.58 76.157 102.242 78.6461 102.242 81.44C102.242 84.2326 103.496 86.5458 105.418 88.0748C103.495 89.6037 102.242 92.0047 102.242 94.7096C102.242 99.3224 105.855 103.089 110.31 103.089C110.455 103.089 110.59 103.076 110.735 103.064V117.609C110.735 121.224 113.571 124.169 117.051 124.169H130.24C132.309 128.706 136.409 135.315 143.065 136.592C143.296 136.63 143.637 136.718 144.038 136.82C145.827 137.262 148.674 137.97 150.937 137.692C150.961 137.692 150.974 137.717 150.974 137.717C151.047 137.831 151.12 137.982 151.254 138.222C151.474 138.64 151.814 139.272 152.373 140.232C153.31 141.85 154.004 143.606 154.442 145.464C154.648 146.336 155.391 146.905 156.218 146.905C156.364 146.905 156.51 146.892 156.656 146.854C157.629 146.601 158.238 145.578 157.994 144.567C157.471 142.343 156.632 140.232 155.512 138.287C154.976 137.377 154.672 136.782 154.454 136.391C153.882 135.317 153.712 135.076 152.762 134.42L152.373 134.142C151.935 133.826 151.376 133.725 150.864 133.865C149.404 134.256 146.35 133.51 144.878 133.145C144.392 133.018 143.99 132.93 143.711 132.879C139.269 132.033 136.13 127.584 134.33 124.184H157.825C161.305 124.184 164.14 121.239 164.14 117.625V95.3446C164.444 94.8391 164.748 94.3211 165.041 93.8405C166.281 91.7937 167.352 90.0244 167.766 88.747C168.995 85.2593 167.146 81.2402 165.017 76.5901C164.676 75.8443 164.324 75.0736 163.971 74.2905C162.328 70.6009 160.807 66.6063 160.77 62.4236C160.77 62.3356 160.77 62.2589 160.758 62.1709C160.527 60.4896 161.634 55.7258 163.824 52.3892C164.797 50.9111 166.306 49.2176 168.046 49.4703C168.35 50.0006 168.495 51.8963 168.617 53.4262C168.823 56.0677 169.104 59.6818 170.283 63.701C171.379 68.7944 175.443 76.4772 179.02 83.2509C181.138 87.2565 183.133 91.0354 183.765 92.9188C185.675 99.4395 184.812 105.127 183.985 110.636C182.878 117.978 181.844 124.917 187.915 131.741C188.28 132.145 188.767 132.348 189.254 132.348C189.692 132.348 190.142 132.183 190.494 131.842C191.236 131.135 191.285 129.934 190.592 129.164L190.615 129.183ZM117.051 27.8049H157.85C159.322 27.8049 160.515 29.0438 160.515 30.5727V32.228H114.387V30.5727C114.387 29.0438 115.58 27.8049 117.052 27.8049H117.051ZM108.74 53.6872C106.026 51.8931 104.396 50.3257 104.153 49.2642C103.91 48.19 104.043 46.6487 104.907 45.8013C105.539 45.1819 106.416 45.0679 107.256 45.0047C108.363 44.9291 109.531 45.1311 110.735 45.5734V54.9004C110.066 54.5213 109.397 54.1173 108.74 53.6874L108.74 53.6872ZM110.309 63.2793C112.743 63.2793 114.727 65.3397 114.727 67.8673C114.727 70.3949 112.743 72.4552 110.309 72.4552C107.876 72.4552 105.892 70.3949 105.892 67.8673C105.892 65.3397 107.876 63.2793 110.309 63.2793ZM110.309 86.0518C107.876 86.0518 105.892 83.9915 105.892 81.4639C105.892 78.9363 107.876 76.8759 110.309 76.8759C112.743 76.8759 114.727 78.9363 114.727 81.4639C114.727 83.9915 112.743 86.0518 110.309 86.0518ZM105.892 94.7471C105.892 92.2196 107.876 90.1591 110.309 90.1591C112.743 90.1591 114.727 92.2195 114.727 94.7471C114.727 97.2746 112.743 99.335 110.309 99.335C107.876 99.335 105.892 97.2746 105.892 94.7471ZM118.364 94.7471C118.364 92.0424 117.11 89.6412 115.188 88.1123C117.111 86.5833 118.364 84.1823 118.364 81.4775C118.364 78.7728 117.025 76.1945 114.981 74.678C117.025 73.1615 118.364 70.6724 118.364 67.8786C118.364 64.8071 116.758 62.1161 114.372 60.6629L114.373 36.0318H160.502V50.8055C158.105 54.7355 156.839 59.9046 157.132 62.5832C157.192 67.2974 158.835 71.7331 160.502 75.5119V112.313L114.387 112.314V101.963C116.772 100.51 118.379 97.8176 118.379 94.7476L118.364 94.7471ZM157.837 120.414H117.051C115.579 120.414 114.386 119.175 114.386 117.646V116.104H160.514V117.646C160.514 119.175 159.321 120.414 157.849 120.414H157.837ZM164.346 87.4924C164.297 87.6312 164.236 87.7959 164.152 87.9731V84.2066C164.517 85.4952 164.65 86.6326 164.346 87.4924V87.4924Z" fill="black"/>
<path d="M129.146 78.2282C129.681 78.2282 130.107 77.7351 130.021 77.1664C129.96 76.6992 129.523 76.3833 129.072 76.3833H125.653C125.203 76.3833 124.764 76.6993 124.703 77.1664C124.631 77.7351 125.045 78.2282 125.579 78.2282H129.146Z" fill="black"/>
<path d="M129.73 80.071H126.493C125.3 80.071 124.327 81.0821 124.327 82.321V85.6825C124.327 86.9214 125.3 87.9324 126.493 87.9324H129.73C130.923 87.9324 131.896 86.9214 131.896 85.6825V82.321C131.896 81.0821 130.923 80.071 129.73 80.071ZM130.107 85.2907C130.107 85.4679 129.973 85.6067 129.803 85.6067H126.858C126.688 85.6067 126.554 85.4679 126.554 85.2907V82.2329C126.554 82.0557 126.688 81.9169 126.858 81.9169H129.803C129.973 81.9169 130.107 82.0557 130.107 82.2329V85.2907Z" fill="black"/>
<path d="M135.617 77.1796C135.557 76.7124 135.119 76.3965 134.668 76.3965H133.025C132.576 76.3965 132.137 76.7124 132.076 77.1796C132.003 77.7483 132.417 78.2413 132.951 78.2413H134.728C135.263 78.2413 135.689 77.7483 135.603 77.1796H135.617Z" fill="black"/>
<path d="M138.49 83.7741H135.034C134.524 83.7741 134.11 84.204 134.11 84.7343V86.5419C134.11 87.0982 134.585 87.5405 135.132 87.4514C135.582 87.3882 135.886 86.9334 135.886 86.4652V85.6189H138.551C139.087 85.6189 139.513 85.1258 139.427 84.5571C139.366 84.09 138.928 83.774 138.477 83.774L138.49 83.7741Z" fill="black"/>
<path d="M119.96 93.4683H127.333C127.333 93.4683 127.443 93.4435 127.479 93.4051C128.281 92.5961 127.746 91.6234 126.992 91.6234H121.346C121.03 91.6234 120.761 91.3583 120.761 91.0164V85.1522C120.761 84.3692 119.812 83.8129 119.046 84.6467C119.009 84.6851 118.985 84.7483 118.985 84.7979V92.4562C118.985 93.0124 119.423 93.4672 119.958 93.4672L119.96 93.4683Z" fill="black"/>
<path d="M120.774 63.4529V57.5888C120.774 57.2604 121.03 56.9817 121.359 56.9817H127.005C127.759 56.9817 128.294 55.9955 127.492 55.2C127.455 55.1617 127.394 55.1368 127.346 55.1368H119.973C119.437 55.1368 118.999 55.5916 118.999 56.1478V63.8061C118.999 63.8061 119.023 63.92 119.06 63.9573C119.839 64.7911 120.776 64.2349 120.776 63.4518L120.774 63.4529Z" fill="black"/>
<path d="M134.816 66.691H136.593C137.128 66.691 137.554 66.198 137.468 65.6293C137.407 65.1621 136.97 64.8462 136.519 64.8462H134.876C134.426 64.8462 133.988 65.1621 133.927 65.6293C133.854 66.198 134.268 66.691 134.802 66.691H134.816Z" fill="black"/>
<path d="M145.171 68.5341H148.407C149.6 68.5341 150.573 67.5231 150.573 66.2841V62.9227C150.573 61.6837 149.6 60.6727 148.407 60.6727H145.171C143.978 60.6727 143.004 61.6837 143.004 62.9227V66.2841C143.004 67.5231 143.978 68.5341 145.171 68.5341ZM145.231 63.3144C145.231 63.1372 145.365 62.9984 145.536 62.9984H148.48C148.65 62.9984 148.784 63.1372 148.784 63.3144V66.3723C148.784 66.5494 148.65 66.6882 148.48 66.6882H145.536C145.365 66.6882 145.231 66.5494 145.231 66.3723V63.3144Z" fill="black"/>
<path d="M124.329 62.9244V66.2858C124.329 67.5248 125.302 68.5358 126.495 68.5358H129.731C130.924 68.5358 131.898 67.5248 131.898 66.2858V62.9244C131.898 61.6854 130.924 60.6744 129.731 60.6744H126.495C125.302 60.6744 124.329 61.6854 124.329 62.9244ZM126.556 63.3035C126.556 63.1264 126.689 62.9876 126.86 62.9876H129.804C129.975 62.9876 130.108 63.1264 130.108 63.3035V66.3614C130.108 66.5385 129.975 66.6773 129.804 66.6773H126.86C126.689 66.6773 126.556 66.5385 126.556 66.3614V63.3035Z" fill="black"/>
<path d="M141.23 77.3412C141.23 76.8109 140.816 76.381 140.305 76.381H138.565C138.029 76.381 137.603 76.8741 137.689 77.4428C137.75 77.9099 138.188 78.2258 138.639 78.2258H139.454V80.0707H135.012C134.477 80.0707 134.051 80.5638 134.137 81.1325C134.198 81.5996 134.635 81.9156 135.086 81.9156H140.318C140.829 81.9156 141.243 81.4856 141.243 80.9553V77.3411L141.23 77.3412Z" fill="black"/>
<path d="M131.882 71.2521C131.882 70.7714 131.505 70.3799 131.043 70.3799H129.205C128.573 70.3799 128.098 71.075 128.427 71.77C128.572 72.0611 128.876 72.2372 129.194 72.2372H130.094V73.1218C130.094 73.3114 130.155 73.4761 130.253 73.6273H126.42C126.481 73.4885 126.53 73.3362 126.53 73.1726V71.4665C126.53 70.9994 126.226 70.5435 125.776 70.4803C125.228 70.4047 124.754 70.8346 124.754 71.3898V73.2346C124.754 73.3734 124.777 73.4998 124.838 73.6138H119.983C119.642 73.6138 119.375 73.8913 119.375 74.2456C119.375 74.6 119.642 74.8775 119.983 74.8775H142.992V75.1179C142.992 75.6741 143.466 76.1164 144.014 76.0273C144.464 75.9641 144.768 75.5094 144.768 75.0411V74.8764H148.771V74.9903C148.771 75.647 149.441 76.1401 150.11 75.7994C150.39 75.6482 150.56 75.3322 150.56 75.0028V74.8764H155.025C155.366 74.8764 155.633 74.5988 155.633 74.2445C155.633 73.8902 155.366 73.6126 155.025 73.6126H150.56V71.2995C150.56 70.6428 149.89 70.1497 149.221 70.4905C148.941 70.6417 148.771 70.9576 148.771 71.2871V72.2225H147.883C147.25 72.2225 146.776 72.9175 147.104 73.6126H144.768V71.489C144.768 71.0219 144.464 70.5661 144.014 70.5028C143.467 70.4272 142.992 70.8572 142.992 71.4123V73.6115H141.082C141.228 73.3587 141.264 73.0179 141.106 72.6885C140.96 72.3849 140.656 72.2213 140.327 72.2213H139.426V70.3765H140.315C140.851 70.3765 141.276 69.8834 141.191 69.3147C141.13 68.8475 140.692 68.5316 140.241 68.5316H134.972C134.437 68.5316 134.011 69.0247 134.097 69.5934C134.157 70.0606 134.595 70.3765 135.046 70.3765H137.65V72.2213H136.761C136.129 72.2213 135.654 72.904 135.983 73.599H133.512C133.61 73.4343 133.683 73.2323 133.646 73.0055C133.585 72.5384 133.147 72.2225 132.696 72.2225H131.881V71.2363L131.882 71.2521Z" fill="black"/>
<path d="M135.072 62.5313H139.453V65.2992C139.453 65.8555 139.927 66.2978 140.475 66.2086C140.925 66.1454 141.229 65.6907 141.229 65.2224V61.6331C141.229 61.1028 140.815 60.6729 140.304 60.6729H135C134.464 60.6729 134.038 61.1659 134.124 61.7346C134.185 62.2018 134.623 62.5177 135.073 62.5177L135.072 62.5313Z" fill="black"/>
<path d="M150.561 86.5935V84.6978C150.561 84.0411 149.903 83.548 149.234 83.8888C148.942 84.04 148.784 84.3695 148.784 84.6978V85.6332H146.557V84.673C146.557 84.0659 146.034 83.5864 145.45 83.7376C145.036 83.8391 144.769 84.2555 144.769 84.6978V85.6332H142.993V84.7102C142.993 84.154 142.518 83.7117 141.97 83.8008C141.521 83.864 141.217 84.3187 141.217 84.787V86.5314C141.217 87.0618 141.63 87.4917 142.141 87.4917H149.709C150.172 87.4917 150.549 87.1001 150.549 86.6195L150.561 86.5935Z" fill="black"/>
<path d="M147.896 56.9825H153.542C153.858 56.9825 154.127 57.2477 154.127 57.5896V63.4537C154.127 64.2368 155.076 64.7931 155.842 63.9592C155.879 63.9209 155.903 63.8577 155.903 63.808V56.1498C155.903 55.5935 155.465 55.1388 154.929 55.1388H147.556C147.556 55.1388 147.446 55.1636 147.411 55.202C146.608 56.011 147.143 56.9837 147.897 56.9837L147.896 56.9825Z" fill="black"/>
<path d="M143.686 78.101C143.272 78.2025 143.004 78.6189 143.004 79.0612V80.9693C143.004 81.4872 143.418 81.9171 143.917 81.9171H147.859C148.37 81.9171 148.784 81.4872 148.784 80.9569V80.0722H149.234C149.769 80.0722 150.195 79.5791 150.109 79.0104C150.049 78.5433 149.611 78.2274 149.16 78.2274H147.48C146.97 78.2274 146.556 78.6573 146.556 79.1876V80.0722H144.78V79.0364C144.78 78.4293 144.256 77.9498 143.673 78.101H143.686Z" fill="black"/>
<path d="M154.126 85.152V91.0161C154.126 91.3444 153.871 91.6232 153.541 91.6232H147.895C147.141 91.6232 146.606 92.6093 147.409 93.4048C147.446 93.4432 147.507 93.468 147.554 93.468H154.928C155.463 93.468 155.901 93.0133 155.901 92.457V84.7988C155.901 84.7988 155.877 84.6848 155.84 84.6476C155.061 83.8137 154.125 84.37 154.125 85.1531L154.126 85.152Z" fill="black"/>
<path d="M71.9587 185.066C71.7469 185.181 71.5263 185.266 71.2982 185.323C71.0722 185.379 70.8354 185.409 70.5899 185.409C69.8511 185.409 69.2656 185.195 68.8343 184.768C68.4019 184.338 68.1868 183.755 68.1868 183.021C68.1868 182.284 68.4019 181.702 68.8343 181.274C69.2656 180.844 69.8511 180.629 70.5899 180.629C70.8354 180.629 71.0722 180.658 71.2982 180.715C71.5263 180.772 71.7469 180.858 71.9587 180.972V181.924C71.7469 181.774 71.5383 181.665 71.333 181.595C71.1265 181.526 70.9093 181.491 70.6811 181.491C70.2726 181.491 69.9511 181.626 69.7164 181.897C69.4839 182.168 69.3687 182.542 69.3687 183.021C69.3687 183.497 69.4839 183.869 69.7164 184.14C69.951 184.411 70.2726 184.546 70.6811 184.546C70.9092 184.546 71.1265 184.513 71.333 184.443C71.5383 184.374 71.7469 184.264 71.9587 184.113V185.066Z" fill="black"/>
<path d="M75.3288 182.804C75.2354 182.759 75.143 182.727 75.0507 182.705C74.9605 182.681 74.8682 182.669 74.7726 182.669C74.4999 182.669 74.2902 182.762 74.1425 182.944C73.9947 183.125 73.9209 183.385 73.9209 183.725V185.318H72.8606V181.861H73.9209V182.43C74.0567 182.204 74.2131 182.04 74.3902 181.938C74.5694 181.833 74.7824 181.78 75.029 181.78C75.0659 181.78 75.105 181.782 75.1463 181.784C75.1865 181.788 75.2473 181.793 75.3288 181.802L75.3288 182.804Z" fill="black"/>
<path d="M79.1799 183.581V183.897H76.6943C76.7203 184.156 76.8094 184.35 76.9637 184.479C77.1169 184.609 77.333 184.673 77.6112 184.673C77.8339 184.673 78.0631 184.639 78.2978 184.569C78.5324 184.5 78.7736 184.396 79.0235 184.258V185.111C78.7714 185.208 78.5194 185.281 78.2673 185.332C78.0153 185.383 77.7633 185.409 77.5112 185.409C76.9115 185.409 76.4433 185.251 76.1076 184.935C75.7741 184.616 75.6078 184.17 75.6078 183.594C75.6078 183.032 75.7708 182.59 76.0989 182.267C76.4259 181.942 76.8778 181.78 77.4547 181.78C77.9762 181.78 78.3933 181.945 78.7062 182.272C79.0213 182.597 79.1799 183.033 79.1799 183.581L79.1799 183.581ZM78.0848 183.215C78.0848 183.005 78.0251 182.836 77.9067 182.71C77.7904 182.581 77.6372 182.515 77.4461 182.515C77.2396 182.515 77.0723 182.576 76.942 182.696C76.8138 182.817 76.7345 182.989 76.703 183.215L78.0848 183.215Z" fill="black"/>
<path d="M81.4777 183.761C81.2539 183.761 81.0866 183.801 80.9736 183.879C80.8628 183.957 80.8085 184.073 80.8085 184.226C80.8085 184.365 80.853 184.474 80.9432 184.556C81.0323 184.634 81.1583 184.673 81.3212 184.673C81.5211 184.673 81.6884 184.6 81.8253 184.452C81.9611 184.302 82.0296 184.113 82.0296 183.888V183.761L81.4777 183.761ZM83.1029 183.346V185.318H82.0296V184.808C81.8872 185.016 81.7265 185.168 81.5472 185.264C81.3701 185.36 81.1528 185.409 80.8954 185.409C80.5499 185.409 80.2707 185.305 80.0567 185.097C79.8416 184.887 79.7351 184.614 79.7351 184.28C79.7351 183.877 79.8677 183.581 80.1349 183.391C80.4043 183.202 80.8269 183.107 81.4038 183.107H82.0296V183.021C82.0296 182.847 81.9622 182.719 81.8297 182.637C81.696 182.556 81.4885 182.515 81.2082 182.515C80.9823 182.515 80.7704 182.54 80.5738 182.588C80.3761 182.633 80.1936 182.704 80.0263 182.8V181.956C80.2544 181.899 80.4836 181.855 80.7129 181.825C80.941 181.796 81.1713 181.78 81.4038 181.78C82.0035 181.78 82.4359 181.904 82.7031 182.15C82.9693 182.394 83.1029 182.793 83.1029 183.346L83.1029 183.346Z" fill="black"/>
<path d="M85.2518 180.882V181.861H86.3468V182.651H85.2518V184.118C85.2518 184.278 85.2822 184.386 85.343 184.443C85.4039 184.5 85.5255 184.528 85.708 184.528H86.2556V185.318H85.3431C84.9226 185.318 84.6239 185.228 84.4479 185.047C84.274 184.865 84.1871 184.554 84.1871 184.118V182.651H83.657V181.861H84.1871V180.882L85.2518 180.882Z" fill="black"/>
<path d="M90.3197 183.581V183.897H87.834C87.8601 184.156 87.9492 184.35 88.1035 184.479C88.2566 184.609 88.4728 184.673 88.7509 184.673C88.9736 184.673 89.2029 184.639 89.4375 184.569C89.6722 184.5 89.9134 184.396 90.1633 184.258V185.111C89.9112 185.208 89.6592 185.281 89.4071 185.332C89.1551 185.383 88.903 185.409 88.651 185.409C88.0513 185.409 87.5831 185.251 87.2474 184.935C86.9139 184.616 86.7476 184.17 86.7476 183.594C86.7476 183.032 86.9106 182.59 87.2387 182.267C87.5657 181.942 88.0176 181.78 88.5945 181.78C89.1159 181.78 89.5331 181.945 89.846 182.272C90.161 182.597 90.3196 183.033 90.3196 183.581L90.3197 183.581ZM89.2246 183.215C89.2246 183.005 89.1649 182.836 89.0464 182.71C88.9302 182.581 88.777 182.515 88.5858 182.515C88.3794 182.515 88.2121 182.576 88.0817 182.696C87.9536 182.817 87.8742 182.989 87.8427 183.215L89.2246 183.215Z" fill="black"/>
<path d="M93.3856 182.366V180.516H94.4589V185.318H93.3856V184.817C93.24 185.023 93.0792 185.173 92.9032 185.269C92.7261 185.361 92.5219 185.409 92.2905 185.409C91.882 185.409 91.5452 185.24 91.2823 184.903C91.0183 184.563 90.8869 184.127 90.8869 183.594C90.8869 183.062 91.0183 182.627 91.2823 182.29C91.5452 181.95 91.882 181.78 92.2905 181.78C92.5219 181.78 92.7261 181.828 92.9032 181.924C93.0792 182.018 93.24 182.166 93.3856 182.367V182.366ZM92.6859 184.605C92.9141 184.605 93.0879 184.519 93.2074 184.348C93.3258 184.174 93.3856 183.922 93.3856 183.594C93.3856 183.264 93.3258 183.012 93.2074 182.84C93.0879 182.669 92.9141 182.583 92.6859 182.583C92.46 182.583 92.2872 182.669 92.1688 182.84C92.0493 183.012 91.9906 183.263 91.9906 183.594C91.9906 183.922 92.0493 184.174 92.1688 184.348C92.2872 184.519 92.46 184.605 92.6859 184.605Z" fill="black"/>
<path d="M99.3682 184.605C99.5964 184.605 99.7702 184.519 99.8897 184.348C100.008 184.174 100.068 183.923 100.068 183.594C100.068 183.264 100.008 183.012 99.8897 182.84C99.7702 182.669 99.5964 182.583 99.3682 182.583C99.139 182.583 98.9641 182.671 98.8424 182.845C98.7208 183.016 98.6599 183.267 98.6599 183.594C98.6599 183.923 98.7208 184.174 98.8424 184.348C98.9641 184.519 99.139 184.605 99.3682 184.605V184.605ZM98.6599 182.367C98.8077 182.166 98.9695 182.018 99.1466 181.924C99.3259 181.828 99.5312 181.78 99.7637 181.78C100.172 181.78 100.508 181.95 100.772 182.29C101.035 182.627 101.167 183.062 101.167 183.594C101.167 184.127 101.035 184.563 100.772 184.903C100.508 185.24 100.172 185.409 99.7637 185.409C99.5312 185.409 99.3259 185.36 99.1466 185.264C98.9695 185.168 98.8077 185.019 98.6599 184.817V185.318H97.5996V180.516H98.6599V182.367Z" fill="black"/>
<path d="M101.515 181.861H102.58L103.475 184.208L104.235 181.861H105.296L103.896 185.643C103.757 186.028 103.593 186.298 103.405 186.451C103.22 186.605 102.973 186.681 102.667 186.681H102.049V185.959H102.384C102.563 185.959 102.694 185.929 102.775 185.869C102.859 185.808 102.923 185.702 102.966 185.548L102.997 185.449L101.515 181.861Z" fill="black"/>
<path d="M109.228 181.608V184.42H109.637C110.103 184.42 110.459 184.3 110.706 184.059C110.955 183.819 111.08 183.47 111.08 183.012C111.08 182.555 110.956 182.207 110.71 181.969C110.464 181.729 110.106 181.608 109.637 181.608H109.228ZM108.085 180.71H109.289C109.96 180.71 110.462 180.762 110.793 180.863C111.123 180.963 111.405 181.132 111.64 181.369C111.849 181.577 112.003 181.818 112.105 182.091C112.206 182.362 112.257 182.669 112.257 183.012C112.257 183.358 112.206 183.668 112.105 183.942C112.003 184.212 111.849 184.452 111.64 184.659C111.402 184.901 111.116 185.07 110.784 185.169C110.454 185.269 109.955 185.318 109.289 185.318H108.085V180.71Z" fill="black"/>
<path d="M114.579 183.761C114.355 183.761 114.188 183.801 114.075 183.879C113.964 183.957 113.91 184.073 113.91 184.226C113.91 184.365 113.954 184.474 114.044 184.556C114.133 184.634 114.259 184.673 114.422 184.673C114.622 184.673 114.789 184.6 114.926 184.452C115.062 184.302 115.131 184.113 115.131 183.888V183.761L114.579 183.761ZM116.204 183.346V185.318H115.131V184.808C114.988 185.016 114.828 185.168 114.648 185.264C114.471 185.36 114.254 185.409 113.996 185.409C113.651 185.409 113.372 185.305 113.158 185.097C112.943 184.887 112.836 184.614 112.836 184.28C112.836 183.877 112.969 183.581 113.236 183.391C113.505 183.202 113.928 183.107 114.505 183.107H115.131V183.021C115.131 182.847 115.063 182.719 114.931 182.637C114.797 182.556 114.59 182.515 114.309 182.515C114.083 182.515 113.871 182.54 113.675 182.588C113.477 182.633 113.295 182.704 113.127 182.8V181.956C113.355 181.899 113.585 181.855 113.814 181.825C114.042 181.796 114.272 181.78 114.505 181.78C115.105 181.78 115.537 181.904 115.804 182.15C116.07 182.394 116.204 182.793 116.204 183.346L116.204 183.346Z" fill="black"/>
<path d="M120.535 183.215V185.318H119.466V183.707C119.466 183.409 119.459 183.205 119.445 183.093C119.433 182.979 119.411 182.895 119.379 182.84C119.338 182.768 119.282 182.713 119.21 182.674C119.14 182.632 119.059 182.61 118.966 182.61C118.746 182.61 118.572 182.701 118.445 182.881C118.317 183.059 118.254 183.304 118.254 183.617V185.318H117.194V181.861H118.254V182.367C118.416 182.166 118.586 182.018 118.767 181.924C118.946 181.828 119.145 181.78 119.362 181.78C119.747 181.78 120.038 181.904 120.235 182.15C120.435 182.394 120.535 182.749 120.535 183.215L120.535 183.215Z" fill="black"/>
<path d="M121.524 181.861H122.584V185.318H121.524V181.861ZM121.524 180.516H122.584V181.419H121.524V180.516Z" fill="black"/>
<path d="M126.93 183.581V183.897H124.444C124.47 184.156 124.559 184.35 124.714 184.479C124.867 184.609 125.083 184.673 125.361 184.673C125.584 184.673 125.813 184.639 126.048 184.569C126.282 184.5 126.523 184.396 126.773 184.258V185.111C126.521 185.208 126.269 185.281 126.017 185.332C125.765 185.383 125.513 185.409 125.261 185.409C124.661 185.409 124.193 185.251 123.857 184.935C123.524 184.616 123.358 184.17 123.358 183.594C123.358 183.032 123.521 182.59 123.849 182.267C124.176 181.942 124.628 181.78 125.205 181.78C125.726 181.78 126.143 181.945 126.456 182.272C126.771 182.597 126.93 183.033 126.93 183.581L126.93 183.581ZM125.835 183.215C125.835 183.005 125.775 182.836 125.657 182.71C125.54 182.581 125.387 182.515 125.196 182.515C124.989 182.515 124.822 182.576 124.692 182.696C124.564 182.817 124.484 182.989 124.453 183.215L125.835 183.215Z" fill="black"/>
<path d="M127.736 180.516H128.796V185.318H127.736V180.516Z" fill="black"/>
<path d="M131.457 180.71H135.542V181.608H134.073V185.318H132.93V181.608H131.457L131.457 180.71Z" fill="black"/>
<path d="M136.198 184.122H137.267V185.318H136.198V184.122Z" fill="black"/>
<path d="M70.5812 186.835V187.561H69.9946C69.8436 187.561 69.7382 187.591 69.6774 187.647C69.6187 187.705 69.5905 187.803 69.5905 187.941V188.18H70.4987V188.97H69.5905V191.637H68.5258V188.97H68V188.18H68.5258V187.941C68.5258 187.565 68.6268 187.286 68.83 187.106C69.0321 186.925 69.345 186.835 69.7686 186.835L70.5812 186.835Z" fill="black"/>
<path d="M73.5102 189.123C73.4168 189.078 73.3244 189.045 73.2321 189.024C73.1419 189 73.0496 188.988 72.954 188.988C72.6813 188.988 72.4716 189.08 72.3239 189.263C72.1761 189.444 72.1023 189.704 72.1023 190.044V191.637H71.0419V188.18H72.1023V188.748C72.2381 188.523 72.3945 188.359 72.5716 188.256C72.7508 188.152 72.9638 188.099 73.2104 188.099C73.2473 188.099 73.2864 188.101 73.3277 188.103C73.3679 188.106 73.4287 188.112 73.5102 188.121L73.5102 189.123Z" fill="black"/>
<path d="M75.6242 188.888C75.3896 188.888 75.2092 188.978 75.0854 189.155C74.9604 189.33 74.8985 189.582 74.8985 189.913C74.8985 190.245 74.9604 190.499 75.0854 190.676C75.2092 190.851 75.3896 190.937 75.6242 190.937C75.8556 190.937 76.0327 190.851 76.1544 190.676C76.2782 190.499 76.3412 190.245 76.3412 189.913C76.3412 189.582 76.2782 189.33 76.1544 189.155C76.0327 188.978 75.8556 188.888 75.6242 188.888ZM75.6242 188.099C76.1946 188.099 76.6411 188.26 76.9626 188.581C77.2864 188.901 77.4493 189.344 77.4493 189.913C77.4493 190.482 77.2864 190.927 76.9626 191.249C76.6411 191.568 76.1946 191.727 75.6242 191.727C75.0506 191.727 74.6008 191.568 74.2771 191.249C73.9523 190.927 73.7904 190.482 73.7904 189.913C73.7904 189.344 73.9523 188.901 74.2771 188.581C74.6008 188.26 75.0506 188.099 75.6242 188.099Z" fill="black"/>
<path d="M81.3028 188.757C81.4386 188.541 81.5983 188.377 81.7808 188.266C81.9655 188.155 82.1697 188.099 82.3935 188.099C82.7759 188.099 83.0671 188.223 83.267 188.469C83.4669 188.712 83.5668 189.068 83.5668 189.534V191.637H82.4978V189.836C82.5 189.809 82.5022 189.782 82.5022 189.755V189.629C82.5022 189.385 82.4674 189.208 82.3979 189.096C82.3283 188.985 82.2164 188.929 82.0633 188.929C81.8601 188.929 81.7037 189.017 81.5939 189.191C81.4864 189.362 81.4299 189.613 81.4245 189.94V191.637H80.3554V189.836C80.3554 189.455 80.3229 189.208 80.2598 189.096C80.1957 188.985 80.0828 188.929 79.9209 188.929C79.7177 188.929 79.5602 189.017 79.4472 189.191C79.3364 189.366 79.2821 189.614 79.2821 189.935V191.637H78.2131V188.18H79.2821V188.685C79.4125 188.493 79.5613 188.347 79.7297 188.247C79.9003 188.148 80.0882 188.098 80.2946 188.098C80.5227 188.098 80.7259 188.156 80.903 188.27C81.079 188.385 81.2126 188.547 81.3028 188.757L81.3028 188.757Z" fill="black"/>
<path d="M87.8395 187.2V188.18H88.9346V188.97H87.8395V190.437C87.8395 190.597 87.87 190.705 87.9308 190.762C87.9916 190.819 88.1133 190.847 88.2958 190.847H88.8434V191.637H87.9308C87.5104 191.637 87.2116 191.547 87.0356 191.366C86.8618 191.184 86.7749 190.873 86.7749 190.437V188.97H86.2447V188.18H86.7749V187.2L87.8395 187.2Z" fill="black"/>
<path d="M92.9291 189.534V191.637H91.8601V190.035C91.8601 189.731 91.8525 189.524 91.8384 189.412C91.8264 189.298 91.8047 189.213 91.7732 189.159C91.7319 189.087 91.6754 189.032 91.6037 188.992C91.5342 188.951 91.4527 188.929 91.3604 188.929C91.1398 188.929 90.966 189.019 90.8389 189.2C90.7107 189.378 90.6477 189.623 90.6477 189.936V191.637H89.5874V186.835H90.6477V188.685C90.8096 188.484 90.9801 188.337 91.1605 188.243C91.3398 188.147 91.5386 188.099 91.7558 188.099C92.1404 188.099 92.4316 188.223 92.6293 188.469C92.8292 188.712 92.9291 189.068 92.9291 189.534L92.9291 189.534Z" fill="black"/>
<path d="M97.2389 189.899V190.215H94.7532C94.7793 190.475 94.8684 190.669 95.0226 190.798C95.1758 190.927 95.392 190.992 95.6701 190.992C95.8928 190.992 96.1221 190.958 96.3567 190.888C96.5914 190.819 96.8326 190.715 97.0824 190.576V191.429C96.8304 191.526 96.5784 191.6 96.3263 191.651C96.0743 191.701 95.8222 191.727 95.5702 191.727C94.9705 191.727 94.5023 191.569 94.1666 191.253C93.833 190.935 93.6668 190.488 93.6668 189.913C93.6668 189.351 93.8298 188.909 94.1578 188.586C94.4849 188.261 94.9368 188.099 95.5137 188.099C96.0351 188.099 96.4523 188.263 96.7652 188.59C97.0802 188.915 97.2388 189.352 97.2388 189.899L97.2389 189.899ZM96.1438 189.534C96.1438 189.324 96.084 189.155 95.9656 189.028C95.8494 188.9 95.6962 188.834 95.505 188.834C95.2986 188.834 95.1313 188.895 95.0009 189.015C94.8727 189.135 94.7934 189.308 94.7619 189.534L96.1438 189.534Z" fill="black"/>
<path d="M100.21 187.029H101.483L103.1 190.188V187.029H104.182V191.637H102.904L101.292 188.477V191.637H100.21L100.21 187.029Z" fill="black"/>
<path d="M106.836 188.888C106.601 188.888 106.421 188.978 106.297 189.155C106.172 189.33 106.11 189.582 106.11 189.913C106.11 190.245 106.172 190.499 106.297 190.676C106.421 190.851 106.601 190.937 106.836 190.937C107.067 190.937 107.245 190.851 107.366 190.676C107.49 190.499 107.553 190.245 107.553 189.913C107.553 189.582 107.49 189.33 107.366 189.155C107.245 188.978 107.067 188.888 106.836 188.888ZM106.836 188.099C107.406 188.099 107.853 188.26 108.174 188.581C108.498 188.901 108.661 189.344 108.661 189.913C108.661 190.482 108.498 190.927 108.174 191.249C107.853 191.568 107.406 191.727 106.836 191.727C106.262 191.727 105.813 191.568 105.489 191.249C105.164 190.927 105.002 190.482 105.002 189.913C105.002 189.344 105.164 188.901 105.489 188.581C105.813 188.26 106.262 188.099 106.836 188.099Z" fill="black"/>
<path d="M109.394 190.292V188.18H110.463V188.527C110.463 188.715 110.461 188.949 110.459 189.232V189.8C110.459 190.078 110.466 190.278 110.481 190.401C110.495 190.521 110.518 190.61 110.55 190.667C110.594 190.739 110.65 190.795 110.72 190.834C110.792 190.873 110.873 190.892 110.963 190.892C111.186 190.892 111.36 190.804 111.485 190.626C111.612 190.449 111.676 190.202 111.676 189.886V188.18H112.741V191.637H111.676V191.136C111.516 191.338 111.347 191.487 111.167 191.583C110.987 191.679 110.79 191.728 110.576 191.728C110.191 191.728 109.896 191.606 109.694 191.362C109.494 191.116 109.395 190.759 109.395 190.292L109.394 190.292Z" fill="black"/>
<path d="M117.107 189.534V191.637H116.038V190.026C116.038 189.728 116.03 189.524 116.016 189.412C116.004 189.298 115.982 189.213 115.951 189.159C115.909 189.087 115.853 189.032 115.781 188.992C115.712 188.95 115.63 188.929 115.538 188.929C115.317 188.929 115.144 189.019 115.016 189.2C114.888 189.378 114.825 189.623 114.825 189.936V191.637H113.765V188.18H114.825V188.685C114.987 188.484 115.158 188.337 115.338 188.243C115.517 188.147 115.716 188.099 115.933 188.099C116.318 188.099 116.609 188.223 116.807 188.469C117.007 188.712 117.107 189.068 117.107 189.534L117.107 189.534Z" fill="black"/>
<path d="M120.262 187.029H122.156C122.721 187.029 123.154 187.16 123.456 187.421C123.76 187.681 123.912 188.051 123.912 188.532C123.912 189.017 123.76 189.389 123.456 189.651C123.154 189.911 122.721 190.039 122.156 190.039H121.404V191.637H120.262V187.029ZM121.404 187.891V189.177H122.035C122.257 189.177 122.428 189.122 122.547 189.01C122.669 188.9 122.73 188.739 122.73 188.532C122.73 188.328 122.669 188.17 122.547 188.058C122.428 187.947 122.257 187.891 122.035 187.891L121.404 187.891Z" fill="black"/>
<path d="M127.142 189.123C127.048 189.078 126.956 189.045 126.864 189.024C126.773 189 126.681 188.988 126.586 188.988C126.313 188.988 126.103 189.08 125.955 189.263C125.808 189.444 125.734 189.704 125.734 190.044V191.637H124.673V188.18H125.734V188.748C125.87 188.523 126.026 188.359 126.203 188.256C126.382 188.152 126.595 188.099 126.842 188.099C126.879 188.099 126.918 188.101 126.959 188.103C126.999 188.106 127.06 188.112 127.142 188.121L127.142 189.123Z" fill="black"/>
<path d="M129.255 188.888C129.02 188.888 128.84 188.978 128.716 189.155C128.591 189.33 128.529 189.582 128.529 189.913C128.529 190.245 128.591 190.499 128.716 190.676C128.84 190.851 129.02 190.937 129.255 190.937C129.486 190.937 129.663 190.851 129.785 190.676C129.909 190.499 129.972 190.245 129.972 189.913C129.972 189.582 129.909 189.33 129.785 189.155C129.663 188.978 129.486 188.888 129.255 188.888ZM129.255 188.099C129.825 188.099 130.272 188.26 130.593 188.581C130.917 188.901 131.08 189.344 131.08 189.913C131.08 190.482 130.917 190.927 130.593 191.249C130.272 191.568 129.825 191.727 129.255 191.727C128.681 191.727 128.231 191.568 127.908 191.249C127.583 190.927 127.421 190.482 127.421 189.913C127.421 189.344 127.583 188.901 127.908 188.581C128.231 188.26 128.681 188.099 129.255 188.099Z" fill="black"/>
<path d="M131.853 188.18H132.914V191.574C132.914 192.036 132.806 192.391 132.592 192.634C132.38 192.878 132.072 193 131.666 193H131.141V192.278H131.323C131.525 192.278 131.664 192.229 131.74 192.133C131.815 192.04 131.853 191.854 131.853 191.574L131.853 188.18ZM131.853 186.835H132.914V187.737H131.853V186.835Z" fill="black"/>
<path d="M137.258 189.899V190.215H134.772C134.798 190.475 134.888 190.669 135.042 190.798C135.195 190.927 135.411 190.992 135.689 190.992C135.912 190.992 136.141 190.958 136.376 190.888C136.611 190.819 136.852 190.715 137.102 190.576V191.429C136.85 191.526 136.598 191.6 136.345 191.651C136.093 191.701 135.841 191.727 135.589 191.727C134.99 191.727 134.521 191.569 134.186 191.253C133.852 190.935 133.686 190.488 133.686 189.913C133.686 189.351 133.849 188.909 134.177 188.586C134.504 188.261 134.956 188.099 135.533 188.099C136.054 188.099 136.471 188.263 136.784 188.59C137.099 188.915 137.258 189.352 137.258 189.899L137.258 189.899ZM136.163 189.534C136.163 189.324 136.103 189.155 135.985 189.028C135.869 188.9 135.715 188.834 135.524 188.834C135.318 188.834 135.15 188.895 135.02 189.015C134.892 189.135 134.813 189.308 134.781 189.534L136.163 189.534Z" fill="black"/>
<path d="M140.75 188.288V189.191C140.604 189.089 140.46 189.014 140.315 188.965C140.17 188.914 140.02 188.888 139.863 188.888C139.564 188.888 139.333 188.979 139.168 189.159C139.003 189.34 138.92 189.591 138.92 189.913C138.92 190.236 139.003 190.486 139.168 190.667C139.333 190.847 139.564 190.937 139.863 190.937C140.028 190.937 140.185 190.913 140.333 190.861C140.482 190.81 140.622 190.733 140.75 190.631V191.533C140.585 191.6 140.416 191.647 140.246 191.678C140.074 191.71 139.902 191.727 139.729 191.727C139.129 191.727 138.659 191.568 138.321 191.249C137.982 190.927 137.812 190.482 137.812 189.913C137.812 189.344 137.982 188.901 138.321 188.581C138.66 188.26 139.129 188.099 139.729 188.099C139.902 188.099 140.073 188.115 140.241 188.148C140.412 188.179 140.581 188.225 140.75 188.288V188.288Z" fill="black"/>
<path d="M142.831 187.2V188.18H143.926V188.97H142.831V190.437C142.831 190.597 142.862 190.705 142.922 190.762C142.983 190.819 143.105 190.847 143.287 190.847H143.835V191.637H142.922C142.502 191.637 142.203 191.547 142.027 191.366C141.853 191.184 141.767 190.873 141.767 190.437V188.97H141.236V188.18H141.767V187.2L142.831 187.2Z" fill="black"/>
<rect x="204" y="85" width="52" height="11" fill="white"/>
<rect x="61" y="173" width="104" height="24" fill="white"/>
<path d="M41.8948 38.5928V51.2232H29.4289V38.5928H41.8948ZM40.2544 40.2332H31.0693V49.5828H40.2544V40.2332Z" fill="black"/>
<path d="M66.1711 38.5928V51.2232H53.7052V38.5928H66.1711ZM64.5307 40.2332H55.3456V49.5828H64.5307V40.2332Z" fill="black"/>
<path d="M41.8948 62.5406V75.0065H29.4289V62.5406H41.8948ZM40.2544 64.181H31.0693V73.3662H40.2544V64.181Z" fill="black"/>
<path d="M50.7526 73.3667V71.3984H49.1122V73.3667H47.1439V69.9221H50.4246V68.2818H45.0115V66.8055H43.3714L43.5352 69.9221H45.5035V71.7262H43.3714V73.3666H45.5035V75.0069H52.3928V73.3666L50.7526 73.3667Z" fill="black"/>
<path d="M31.2334 54.1755H29.4289V52.5352H31.2334V54.1755Z" fill="black"/>
<path d="M45.1756 45.3177H43.5352V43.6774H45.1756V45.3177Z" fill="black"/>
<path d="M45.34 40.3972H43.5356V38.7568H45.34V40.3972Z" fill="black"/>
<path d="M61.4149 69.2659H59.7745V67.6255H61.4149V69.2659Z" fill="black"/>
<path d="M33.2015 57.62H34.8419V55.98H33.2015V54.3396H31.5611V55.8158H29.5928V59.7524H31.5611V61.0648H36.6462V57.9483H34.8418V59.4245H33.2014L33.2015 57.62Z" fill="black"/>
<path d="M64.6948 52.5347V54.175H66.171V55.8154H63.5466V57.9479H58.7897V59.4241H61.4141V63.1968H59.6097V61.0644H55.8369V59.424H57.149V57.9478H56.1648V56.3074H61.578V53.355H59.4455V52.535H64.6945L64.6948 52.5347Z" fill="black"/>
<path d="M44.8474 54.1755H39.7626V55.8159H36.3178V54.1755H34.5136V52.5352H44.8477L44.8474 54.1755Z" fill="black"/>
<path d="M45.1756 46.1385H43.5352V51.7154H46.98V48.9268H45.1756V46.1385Z" fill="black"/>
<path d="M46.98 47.9422H48.7841V50.8946H50.9166V48.9263H52.2287V46.3019H46.98V47.9422Z" fill="black"/>
<path d="M50.0963 41.2172H45.5036V43.0217H48.456V44.8261H50.5884V43.0217H52.3929V38.593H48.4563V40.3975H50.0967V41.2175L50.0963 41.2172Z" fill="black"/>
<path d="M47.6355 45.4823H45.9951V43.8419H47.6355V45.4823Z" fill="black"/>
<path d="M43.3711 56.8H41.7307V55.1597H43.3711V56.8Z" fill="black"/>
<path d="M50.7526 64.017H48.9485V61.0646H50.7526V64.017Z" fill="black"/>
<path d="M47.9645 63.5253H46.3241V61.8849H47.9645V63.5253Z" fill="black"/>
<path d="M58.7896 65.0015H57.1492V61.7212H58.7896V65.0015Z" fill="black"/>
<path d="M64.5311 73.3666H61.5784V75.007H66.1714V70.7422H64.531L64.5311 73.3666Z" fill="black"/>
<path d="M55.017 72.8748H53.2129V69.9224H55.017V72.8748Z" fill="black"/>
<path d="M45.1756 64.6734H43.5352V60.9006H45.1756V64.6734Z" fill="black"/>
<path d="M53.2134 66.1497H50.7527V64.5093H45.5037V66.1497H49.2765V67.79H51.2448V69.5942H58.7903V67.79H56.6578V66.1497H54.8533V67.79H53.2133L53.2134 66.1497Z" fill="black"/>
<path d="M55.3452 63.3608H53.2131V65.1652H51.5727V61.7207H55.3451L55.3452 63.3608Z" fill="black"/>
<path d="M57.4778 70.0859H59.1182V73.3666H60.5944V75.007H55.5096V73.3666H57.4779L57.4778 70.0859Z" fill="black"/>
<path d="M44.3556 59.4245H39.4345V61.0649H37.7941V57.7842H44.3555L44.3556 59.4245Z" fill="black"/>
<path d="M47.3082 54.1755V55.6518H50.7527V54.1755H52.8851V52.5352H45.832V54.1755H47.3082Z" fill="black"/>
<path d="M48.7845 58.1117H45.1759V56.4717H48.7845V58.1117Z" fill="black"/>
<path d="M50.9163 58.6045H49.1118V60.2446H52.7207V56.4722H50.9163V58.6045Z" fill="black"/>
<path d="M66.1711 64.1815H65.1866V65.4935H63.5466V64.1815H62.7263V60.5729H66.1711V64.1815Z" fill="black"/>
<path d="M61.4149 65.8214H59.6104V64.181H61.4149V65.8214Z" fill="black"/>
<path d="M62.3985 69.5941H66.1713V66.4775H64.5309V67.9538H62.3984L62.3985 69.5941Z" fill="black"/>
<path d="M63.8748 72.7103H62.0704V71.0699H63.8748V72.7103Z" fill="black"/>
<path d="M38.4504 47.4504H32.8735V42.2014H38.4504V47.4504Z" fill="black"/>
<path d="M62.7267 47.4504H57.1498V42.2014H62.7267V47.4504Z" fill="black"/>
<path d="M38.4504 71.3985H32.8735V66.1495H38.4504V71.3985Z" fill="black"/>
<path d="M55.017 75.0073H53.2129V73.3669H55.017V75.0073Z" fill="black"/>
<path d="M47.9645 60.5725H46.16V58.9321H47.9645V60.5725Z" fill="black"/>
<path d="M60.7586 55.652H59.1182V54.0116H60.7586V55.652Z" fill="black"/>
<path d="M56.6578 54.1755H54.8533V52.5352H56.6578V54.1755Z" fill="black"/>
<path d="M66.1711 60.0808H64.5307V58.4404H66.1711V60.0808Z" fill="black"/>
<path d="M25 42.6933V34H33.8578V35.6404H26.6405V42.6935L25 42.6933Z" fill="black"/>
<path d="M70.6 42.6933V34H61.7422V35.6404H68.9595V42.6935L70.6 42.6933Z" fill="black"/>
<path d="M25 70.9067V79.6H33.8578V77.9596H26.6405V70.9065L25 70.9067Z" fill="black"/>
<path d="M70.6 70.9067V79.6H61.7422V77.9596H68.9595V70.9065L70.6 70.9067Z" fill="black"/>
<path d="M25.5496 82.0273C25.5216 82.0419 25.4917 82.0527 25.4606 82.0604C25.43 82.068 25.3982 82.0718 25.3651 82.0718C25.2649 82.0718 25.1858 82.0445 25.1272 81.9891C25.0693 81.9331 25.0407 81.8574 25.0407 81.7614C25.0407 81.6666 25.0693 81.5909 25.1272 81.5349C25.1857 81.4789 25.2649 81.4509 25.3651 81.4509C25.3982 81.4509 25.43 81.4547 25.4606 81.4624C25.4917 81.47 25.5216 81.4811 25.5496 81.4955V81.6201C25.5207 81.6007 25.4924 81.5864 25.4644 81.5769C25.437 81.5677 25.4084 81.5629 25.3779 81.5629C25.3225 81.5629 25.279 81.5807 25.2468 81.6163C25.2153 81.6513 25.1997 81.6997 25.1997 81.7614C25.1997 81.8234 25.2153 81.8721 25.2468 81.9077C25.2789 81.9427 25.3225 81.9598 25.3779 81.9598C25.4084 81.9598 25.437 81.9557 25.4644 81.9471C25.4924 81.9379 25.5207 81.9236 25.5496 81.9039V82.0273Z" fill="black"/>
<path d="M26.0039 81.7334C25.9911 81.7277 25.9784 81.7232 25.9657 81.7207C25.9536 81.7181 25.9415 81.7168 25.9288 81.7168C25.8922 81.7168 25.8639 81.7289 25.8435 81.7525C25.8238 81.7763 25.8143 81.8097 25.8143 81.853V82.0604H25.6705V81.6113H25.8143V81.685C25.8327 81.6564 25.854 81.6351 25.8779 81.6214C25.9014 81.6081 25.9301 81.6011 25.9631 81.6011C25.9682 81.6011 25.9733 81.6017 25.9784 81.6023C25.9841 81.6023 25.9927 81.603 26.0039 81.6036V81.7334Z" fill="black"/>
<path d="M26.523 81.8352V81.8759H26.1884C26.1915 81.909 26.2036 81.9341 26.224 81.951C26.245 81.9681 26.2742 81.9764 26.3118 81.9764C26.3423 81.9764 26.3732 81.9723 26.4046 81.9637C26.4358 81.9545 26.4686 81.9408 26.5026 81.923V82.0337C26.4686 82.0464 26.4345 82.0559 26.4008 82.0617C26.3668 82.0683 26.3328 82.0718 26.299 82.0718C26.2176 82.0718 26.1543 82.0515 26.1095 82.0108C26.0643 81.9694 26.042 81.9112 26.042 81.8365C26.042 81.7636 26.064 81.7064 26.1082 81.6647C26.1521 81.6224 26.2128 81.6011 26.2901 81.6011C26.3604 81.6011 26.4167 81.6224 26.4594 81.6647C26.5017 81.7073 26.523 81.7639 26.523 81.8352L26.523 81.8352ZM26.3754 81.7868C26.3754 81.7598 26.3671 81.7382 26.3512 81.7219C26.3359 81.7051 26.3156 81.6965 26.2901 81.6965C26.2621 81.6965 26.2392 81.7048 26.2214 81.7207C26.2043 81.7359 26.1938 81.7582 26.1896 81.7868H26.3754Z" fill="black"/>
<path d="M26.8325 81.8581C26.8026 81.8581 26.7803 81.8632 26.765 81.8734C26.7498 81.8835 26.7421 81.8988 26.7421 81.9192C26.7421 81.937 26.7479 81.951 26.7599 81.9611C26.7727 81.9713 26.7898 81.9764 26.8121 81.9764C26.8382 81.9764 26.8608 81.9672 26.8795 81.9484C26.898 81.929 26.9075 81.9045 26.9075 81.8746V81.8581H26.8325ZM27.0526 81.8047V82.0604H26.9075V81.9942C26.8878 82.0216 26.8659 82.0413 26.8414 82.054C26.8175 82.0658 26.7886 82.0718 26.7549 82.0718C26.7081 82.0718 26.6702 82.0585 26.6416 82.0311C26.6127 82.0041 26.5984 81.9688 26.5984 81.9255C26.5984 81.873 26.6162 81.8345 26.6518 81.8097C26.6881 81.7852 26.745 81.7728 26.8223 81.7728H26.9075V81.7614C26.9075 81.7394 26.8986 81.7232 26.8808 81.713C26.863 81.7022 26.835 81.6965 26.7969 81.6965C26.7663 81.6965 26.7374 81.6997 26.7103 81.7054C26.6839 81.7115 26.6598 81.7207 26.6378 81.7334V81.624C26.6683 81.6163 26.6989 81.6109 26.7294 81.6074C26.7606 81.6033 26.7918 81.6011 26.8223 81.6011C26.9037 81.6011 26.9623 81.6173 26.9979 81.6494C27.0341 81.6809 27.0526 81.7328 27.0526 81.8046L27.0526 81.8047Z" fill="black"/>
<path d="M27.3414 81.4839V81.6111H27.4902V81.7142H27.3414V81.9038C27.3414 81.9251 27.3455 81.9394 27.3541 81.947C27.3624 81.954 27.3789 81.9572 27.4037 81.9572H27.4775V82.0602H27.3541C27.2972 82.0602 27.2568 82.0485 27.2332 82.0246C27.2103 82.0011 27.1989 81.9607 27.1989 81.9037V81.7142H27.1276V81.6111H27.1989V81.4839L27.3414 81.4839Z" fill="black"/>
<path d="M28.0246 81.8352V81.8759H27.69C27.6932 81.909 27.7053 81.9341 27.7256 81.951C27.7466 81.9681 27.7759 81.9764 27.8134 81.9764C27.844 81.9764 27.8748 81.9723 27.9063 81.9637C27.9375 81.9545 27.9702 81.9408 28.0043 81.923V82.0337C27.9702 82.0464 27.9362 82.0559 27.9025 82.0617C27.8684 82.0683 27.8344 82.0718 27.8007 82.0718C27.7193 82.0718 27.656 82.0515 27.6111 82.0108C27.566 81.9694 27.5437 81.9112 27.5437 81.8365C27.5437 81.7636 27.5656 81.7064 27.6098 81.6647C27.6537 81.6224 27.7145 81.6011 27.7918 81.6011C27.8621 81.6011 27.9184 81.6224 27.961 81.6647C28.0033 81.7073 28.0246 81.7639 28.0246 81.8352L28.0246 81.8352ZM27.877 81.7868C27.877 81.7598 27.8688 81.7382 27.8529 81.7219C27.8376 81.7051 27.8172 81.6965 27.7918 81.6965C27.7638 81.6965 27.7409 81.7048 27.7231 81.7207C27.7059 81.7359 27.6954 81.7582 27.6913 81.7868H27.877Z" fill="black"/>
<path d="M28.4385 81.6774V81.4369H28.5835V82.0603H28.4385V81.9954C28.4187 82.0218 28.3971 82.0412 28.3736 82.054C28.3497 82.0657 28.322 82.0718 28.2909 82.0718C28.2355 82.0718 28.1904 82.0501 28.1547 82.0069C28.1191 81.963 28.1013 81.9061 28.1013 81.8364C28.1013 81.767 28.1191 81.7104 28.1547 81.6672C28.1904 81.6233 28.2355 81.601 28.2909 81.601C28.3214 81.601 28.3484 81.6074 28.3723 81.6201C28.3968 81.6322 28.4187 81.6513 28.4385 81.6774L28.4385 81.6774ZM28.3443 81.9674C28.3748 81.9674 28.3981 81.9566 28.4143 81.9344C28.4302 81.9115 28.4385 81.879 28.4385 81.8364C28.4385 81.7941 28.4302 81.762 28.4143 81.7397C28.3981 81.7168 28.3748 81.7053 28.3443 81.7053C28.3138 81.7053 28.2902 81.7168 28.2743 81.7397C28.2581 81.762 28.2502 81.7941 28.2502 81.8364C28.2502 81.879 28.2581 81.9115 28.2743 81.9344C28.2902 81.9566 28.3138 81.9674 28.3443 81.9674Z" fill="black"/>
<path d="M29.2448 81.9674C29.2753 81.9674 29.2985 81.9566 29.3148 81.9344C29.3307 81.9115 29.3389 81.879 29.3389 81.8364C29.3389 81.7941 29.3307 81.762 29.3148 81.7397C29.2985 81.7168 29.2753 81.7053 29.2448 81.7053C29.2142 81.7053 29.1904 81.7168 29.1735 81.7397C29.1573 81.762 29.1494 81.7941 29.1494 81.8364C29.1494 81.879 29.1573 81.9115 29.1735 81.9344C29.1904 81.9566 29.2142 81.9674 29.2448 81.9674ZM29.1494 81.6774C29.1688 81.6513 29.1904 81.6322 29.2142 81.6201C29.2387 81.6074 29.2667 81.601 29.2982 81.601C29.3532 81.601 29.3987 81.6233 29.4344 81.6672C29.47 81.7104 29.4878 81.7671 29.4878 81.8364C29.4878 81.906 29.47 81.963 29.4344 82.0069C29.3987 82.0501 29.3532 82.0718 29.2982 82.0718C29.2667 82.0718 29.2387 82.0657 29.2142 82.054C29.1904 82.0412 29.1688 82.0218 29.1494 81.9954V82.0603H29.0056V81.4369H29.1494V81.6774Z" fill="black"/>
<path d="M29.5342 81.6112H29.678L29.7976 81.9166L29.9007 81.6112H30.0444L29.8549 82.1023C29.8361 82.1523 29.8141 82.1869 29.7887 82.2066C29.7639 82.227 29.7308 82.2372 29.6895 82.2372H29.6068V82.143H29.6513C29.6748 82.143 29.6923 82.1392 29.7034 82.1316C29.7152 82.1239 29.7241 82.11 29.7302 82.0896L29.734 82.0781L29.5342 81.6112Z" fill="black"/>
<path d="M30.4191 81.4624H30.8352V81.5782H30.5731V81.6901H30.8199V81.8072H30.5731V82.0604H30.4191V81.4624Z" fill="black"/>
<path d="M31.1743 81.8581C31.1444 81.8581 31.1221 81.8632 31.1068 81.8734C31.0916 81.8835 31.0839 81.8988 31.0839 81.9192C31.0839 81.937 31.0896 81.951 31.1017 81.9611C31.1145 81.9713 31.1316 81.9764 31.1539 81.9764C31.18 81.9764 31.2026 81.9672 31.2213 81.9484C31.2398 81.929 31.2493 81.9045 31.2493 81.8746V81.8581H31.1743ZM31.3944 81.8047V82.0604H31.2493V81.9942C31.2296 82.0216 31.2077 82.0413 31.1832 82.054C31.1593 82.0658 31.1304 82.0718 31.0966 82.0718C31.0499 82.0718 31.012 82.0585 30.9834 82.0311C30.9545 82.0041 30.9402 81.9688 30.9402 81.9255C30.9402 81.873 30.958 81.8345 30.9936 81.8097C31.0299 81.7852 31.0868 81.7728 31.1641 81.7728H31.2493V81.7614C31.2493 81.7394 31.2404 81.7232 31.2226 81.713C31.2048 81.7022 31.1768 81.6965 31.1386 81.6965C31.1081 81.6965 31.0792 81.6997 31.0521 81.7054C31.0257 81.7115 31.0016 81.7207 30.9796 81.7334V81.624C31.0101 81.6163 31.0407 81.6109 31.0712 81.6074C31.1024 81.6033 31.1336 81.6011 31.1641 81.6011C31.2455 81.6011 31.3041 81.6173 31.3397 81.6494C31.3759 81.6809 31.3944 81.7328 31.3944 81.8046L31.3944 81.8047Z" fill="black"/>
<path d="M31.4682 81.6112H31.6119L31.7315 81.9166L31.8346 81.6112H31.9784L31.7888 82.1023C31.77 82.1523 31.7481 82.1869 31.7226 82.2066C31.6978 82.227 31.6647 82.2372 31.6234 82.2372H31.5407V82.143H31.5852C31.6088 82.143 31.6262 82.1392 31.6374 82.1316C31.6491 82.1239 31.6581 82.11 31.6641 82.0896L31.6679 82.0781L31.4682 81.6112Z" fill="black"/>
<path d="M32.3944 81.7334C32.3817 81.7277 32.369 81.7232 32.3562 81.7207C32.3442 81.7181 32.3321 81.7168 32.3193 81.7168C32.2828 81.7168 32.2545 81.7289 32.2341 81.7525C32.2144 81.7763 32.2048 81.8097 32.2048 81.853V82.0604H32.0611V81.6113H32.2048V81.685C32.2233 81.6564 32.2446 81.6351 32.2685 81.6214C32.292 81.6081 32.3206 81.6011 32.3537 81.6011C32.3588 81.6011 32.3639 81.6017 32.369 81.6023C32.3747 81.6023 32.3833 81.603 32.3944 81.6036V81.7334Z" fill="black"/>
<path d="M32.6667 81.8581C32.6368 81.8581 32.6145 81.8632 32.5993 81.8734C32.584 81.8835 32.5764 81.8988 32.5764 81.9192C32.5764 81.937 32.5821 81.951 32.5942 81.9611C32.6069 81.9713 32.6241 81.9764 32.6463 81.9764C32.6724 81.9764 32.695 81.9672 32.7138 81.9484C32.7322 81.929 32.7418 81.9045 32.7418 81.8746V81.8581H32.6667ZM32.8868 81.8047V82.0604H32.7418V81.9942C32.722 82.0216 32.7001 82.0413 32.6756 82.054C32.6517 82.0658 32.6228 82.0718 32.5891 82.0718C32.5423 82.0718 32.5045 82.0585 32.4758 82.0311C32.4469 82.0041 32.4326 81.9688 32.4326 81.9255C32.4326 81.873 32.4504 81.8345 32.486 81.8097C32.5223 81.7852 32.5792 81.7728 32.6565 81.7728H32.7418V81.7614C32.7418 81.7394 32.7329 81.7232 32.715 81.713C32.6972 81.7022 32.6692 81.6965 32.6311 81.6965C32.6005 81.6965 32.5716 81.6997 32.5446 81.7054C32.5182 81.7115 32.494 81.7207 32.472 81.7334V81.624C32.5026 81.6163 32.5331 81.6109 32.5636 81.6074C32.5948 81.6033 32.626 81.6011 32.6565 81.6011C32.738 81.6011 32.7965 81.6173 32.8321 81.6494C32.8684 81.6809 32.8868 81.7328 32.8868 81.8046L32.8868 81.8047Z" fill="black"/>
<path d="M33.0255 81.4624H33.1794V81.9433H33.4504V82.0604H33.0255L33.0255 81.4624Z" fill="black"/>
<path d="M33.7555 81.7029C33.724 81.7029 33.6998 81.7143 33.683 81.7372C33.6658 81.7601 33.6575 81.7932 33.6575 81.8365C33.6575 81.8797 33.6658 81.9128 33.683 81.9357C33.6998 81.9586 33.724 81.9701 33.7555 81.9701C33.7867 81.9701 33.8105 81.9586 33.8267 81.9357C33.8436 81.9128 33.8522 81.8797 33.8522 81.8365C33.8522 81.7932 33.8436 81.7601 33.8267 81.7372C33.8105 81.7143 33.7867 81.7029 33.7555 81.7029ZM33.7555 81.6011C33.8325 81.6011 33.8929 81.6221 33.9362 81.6634C33.9794 81.7051 34.0011 81.7627 34.0011 81.8365C34.0011 81.9102 33.9794 81.9681 33.9362 82.0095C33.8929 82.0512 33.8325 82.0718 33.7555 82.0718C33.6782 82.0718 33.6174 82.0512 33.5735 82.0095C33.5303 81.9681 33.5087 81.9102 33.5087 81.8365C33.5087 81.7627 33.5303 81.7051 33.5735 81.6634C33.6174 81.6221 33.6782 81.6011 33.7555 81.6011Z" fill="black"/>
<path d="M34.0491 81.6112H34.1928L34.3035 81.9217L34.4155 81.6112H34.5593L34.3824 82.0603H34.2246L34.0491 81.6112Z" fill="black"/>
<path d="M35.0876 81.8352V81.8759H34.753C34.7562 81.909 34.7682 81.9341 34.7886 81.951C34.8096 81.9681 34.8389 81.9764 34.8764 81.9764C34.9069 81.9764 34.9378 81.9723 34.9693 81.9637C35.0004 81.9545 35.0332 81.9408 35.0672 81.923V82.0337C35.0332 82.0464 34.9992 82.0559 34.9655 82.0617C34.9314 82.0683 34.8974 82.0718 34.8637 82.0718C34.7822 82.0718 34.7189 82.0515 34.6741 82.0108C34.6289 81.9694 34.6067 81.9112 34.6067 81.8365C34.6067 81.7636 34.6286 81.7064 34.6728 81.6647C34.7167 81.6224 34.7775 81.6011 34.8548 81.6011C34.9251 81.6011 34.9814 81.6224 35.024 81.6647C35.0663 81.7073 35.0876 81.7639 35.0876 81.8352L35.0876 81.8352ZM34.94 81.7868C34.94 81.7598 34.9317 81.7382 34.9158 81.7219C34.9006 81.7051 34.8802 81.6965 34.8548 81.6965C34.8268 81.6965 34.8039 81.7048 34.7861 81.7207C34.7689 81.7359 34.7584 81.7582 34.7543 81.7868H34.94Z" fill="black"/>
<path d="M35.5294 81.7334C35.5167 81.7277 35.504 81.7232 35.4912 81.7207C35.4792 81.7181 35.4671 81.7168 35.4543 81.7168C35.4178 81.7168 35.3895 81.7289 35.3691 81.7525C35.3494 81.7763 35.3398 81.8097 35.3398 81.853V82.0604H35.1961V81.6113H35.3398V81.685C35.3583 81.6564 35.3796 81.6351 35.4035 81.6214C35.427 81.6081 35.4556 81.6011 35.4887 81.6011C35.4938 81.6011 35.4989 81.6017 35.504 81.6023C35.5097 81.6023 35.5183 81.603 35.5294 81.6036V81.7334Z" fill="black"/>
<path d="M35.9515 81.6253V81.7347C35.921 81.722 35.8911 81.7127 35.8624 81.7067C35.8335 81.7 35.8065 81.6965 35.781 81.6965C35.7537 81.6965 35.7333 81.7 35.7199 81.7067C35.7072 81.7137 35.7009 81.7239 35.7009 81.7372C35.7009 81.7493 35.7059 81.7585 35.7161 81.7652C35.7263 81.7713 35.7441 81.7754 35.7696 81.7779L35.795 81.7818C35.8688 81.7913 35.9178 81.8066 35.9426 81.8276C35.968 81.8489 35.9808 81.8823 35.9808 81.9281C35.9808 81.9758 35.963 82.0117 35.9273 82.0362C35.8923 82.0601 35.8402 82.0718 35.7708 82.0718C35.7409 82.0718 35.7101 82.0693 35.678 82.0642C35.6465 82.0601 35.6143 82.0534 35.5813 82.0439V81.9344C35.6092 81.9491 35.6379 81.9596 35.6678 81.9662C35.6983 81.9732 35.7292 81.9764 35.7607 81.9764C35.7886 81.9764 35.8093 81.9726 35.823 81.965C35.8373 81.9573 35.8446 81.9459 35.8446 81.9306C35.8446 81.9179 35.8395 81.9087 35.8294 81.9026C35.8198 81.8959 35.8007 81.8909 35.7721 81.8874L35.7467 81.8835C35.683 81.8759 35.6379 81.8616 35.6118 81.8403C35.5863 81.8183 35.5736 81.7852 35.5736 81.741C35.5736 81.6936 35.5895 81.6583 35.622 81.6354C35.6551 81.6125 35.7053 81.6011 35.7734 81.6011C35.7995 81.6011 35.8271 81.6033 35.8561 81.6074C35.8847 81.6109 35.9165 81.617 35.9515 81.6252L35.9515 81.6253Z" fill="black"/>
<path d="M25.3639 82.2573V82.3515H25.285C25.2646 82.3515 25.25 82.3553 25.2417 82.3629C25.2341 82.3699 25.2303 82.3826 25.2303 82.4011V82.4316H25.3524V82.5347H25.2303V82.8808H25.0865V82.5347H25.0153V82.4316H25.0865V82.4011C25.0865 82.3521 25.0999 82.3158 25.1272 82.2929C25.1552 82.2694 25.1975 82.2573 25.2545 82.2573L25.3639 82.2573Z" fill="black"/>
<path d="M25.7589 82.5536C25.7462 82.5479 25.7335 82.5434 25.7208 82.5409C25.7087 82.5383 25.6966 82.537 25.6839 82.537C25.6473 82.537 25.619 82.5491 25.5986 82.5727C25.5789 82.5965 25.5694 82.6299 25.5694 82.6732V82.8806H25.4256V82.4314H25.5694V82.5052C25.5878 82.4766 25.6091 82.4553 25.633 82.4416C25.6565 82.4283 25.6851 82.4213 25.7182 82.4213C25.7233 82.4213 25.7284 82.4219 25.7335 82.4225C25.7392 82.4225 25.7478 82.4232 25.7589 82.4238V82.5536Z" fill="black"/>
<path d="M26.0436 82.5231C26.0121 82.5231 25.988 82.5345 25.9711 82.5574C25.9539 82.5803 25.9457 82.6134 25.9457 82.6566C25.9457 82.6999 25.9539 82.733 25.9711 82.7559C25.988 82.7788 26.0121 82.7902 26.0436 82.7902C26.0748 82.7902 26.0987 82.7788 26.1149 82.7559C26.1317 82.733 26.1403 82.6999 26.1403 82.6566C26.1403 82.6134 26.1317 82.5803 26.1149 82.5574C26.0987 82.5345 26.0748 82.5231 26.0436 82.5231ZM26.0436 82.4213C26.1206 82.4213 26.181 82.4423 26.2243 82.4836C26.2676 82.5253 26.2892 82.5829 26.2892 82.6566C26.2892 82.7304 26.2676 82.7883 26.2243 82.8297C26.181 82.8713 26.1206 82.892 26.0436 82.892C25.9663 82.892 25.9056 82.8713 25.8617 82.8297C25.8184 82.7883 25.7968 82.7304 25.7968 82.6566C25.7968 82.5829 25.8184 82.5253 25.8617 82.4836C25.9056 82.4423 25.9663 82.4213 26.0436 82.4213Z" fill="black"/>
<path d="M26.8096 82.5065C26.8274 82.4785 26.8484 82.4575 26.8732 82.4429C26.8986 82.4286 26.9266 82.4213 26.9571 82.4213C27.008 82.4213 27.0468 82.4375 27.0742 82.4696C27.1012 82.5011 27.1149 82.5469 27.1149 82.607V82.8806H26.9711V82.6465V82.6363V82.6197C26.9711 82.5876 26.9664 82.5647 26.9571 82.551C26.9476 82.5367 26.933 82.5294 26.9126 82.5294C26.8853 82.5294 26.8643 82.5409 26.849 82.5638C26.8344 82.586 26.8267 82.6182 26.8261 82.6605V82.8806H26.6823V82.6465C26.6823 82.5965 26.6776 82.5647 26.6683 82.551C26.6597 82.5367 26.6448 82.5294 26.6238 82.5294C26.5958 82.5294 26.5742 82.5409 26.5589 82.5638C26.5443 82.586 26.5373 82.6178 26.5373 82.6592V82.8806H26.3935V82.4315H26.5373V82.4976C26.5551 82.4722 26.5754 82.4531 26.5984 82.4404C26.6213 82.4276 26.6461 82.4213 26.6734 82.4213C26.7046 82.4213 26.7323 82.4289 26.7561 82.4442C26.7797 82.4588 26.7975 82.4795 26.8096 82.5065L26.8096 82.5065Z" fill="black"/>
<path d="M27.69 82.3043V82.4316H27.8389V82.5346H27.69V82.7242C27.69 82.7455 27.6941 82.7598 27.7027 82.7674C27.711 82.7744 27.7275 82.7776 27.7524 82.7776H27.8261V82.8807H27.7027C27.6458 82.8807 27.6054 82.8689 27.5819 82.8451C27.559 82.8215 27.5475 82.7811 27.5475 82.7242V82.5346H27.4763V82.4316H27.5475V82.3043L27.69 82.3043Z" fill="black"/>
<path d="M28.3774 82.6072V82.8808H28.2323V82.6721C28.2323 82.6333 28.2314 82.6066 28.2298 82.5919C28.2279 82.5767 28.225 82.5659 28.2209 82.5589C28.2158 82.5496 28.2082 82.5423 28.198 82.5372C28.1884 82.5321 28.1779 82.5296 28.1662 82.5296C28.1356 82.5296 28.1118 82.541 28.0949 82.5639C28.0777 82.5868 28.0695 82.6187 28.0695 82.6594V82.8808H27.9257V82.2573H28.0695V82.4978C28.0905 82.4717 28.1134 82.4526 28.1382 82.4405C28.1627 82.4278 28.1894 82.4215 28.2183 82.4215C28.2699 82.4215 28.3093 82.4377 28.3367 82.4698C28.3637 82.5013 28.3774 82.5471 28.3774 82.6072L28.3774 82.6072Z" fill="black"/>
<path d="M28.9572 82.6554V82.6961H28.6226C28.6258 82.7292 28.6379 82.7543 28.6582 82.7712C28.6792 82.7883 28.7085 82.7966 28.746 82.7966C28.7766 82.7966 28.8074 82.7925 28.8389 82.7839C28.8701 82.7747 28.9028 82.761 28.9369 82.7432V82.8539C28.9028 82.8666 28.8688 82.8761 28.8351 82.8818C28.8011 82.8885 28.767 82.892 28.7333 82.892C28.6519 82.892 28.5886 82.8717 28.5437 82.831C28.4986 82.7896 28.4763 82.7314 28.4763 82.6566C28.4763 82.5838 28.4982 82.5265 28.5425 82.4849C28.5864 82.4426 28.6471 82.4213 28.7244 82.4213C28.7947 82.4213 28.851 82.4426 28.8936 82.4849C28.9359 82.5275 28.9572 82.5841 28.9572 82.6554L28.9572 82.6554ZM28.8096 82.607C28.8096 82.58 28.8014 82.5584 28.7855 82.5421C28.7702 82.5253 28.7498 82.5167 28.7244 82.5167C28.6964 82.5167 28.6735 82.525 28.6557 82.5409C28.6385 82.5561 28.628 82.5784 28.6239 82.607H28.8096Z" fill="black"/>
<path d="M29.3577 82.2826H29.5307L29.7483 82.6923V82.2826H29.8946V82.8806H29.7216L29.504 82.4696V82.8806H29.3577V82.2826Z" fill="black"/>
<path d="M30.2515 82.5231C30.22 82.5231 30.1959 82.5345 30.179 82.5574C30.1618 82.5803 30.1535 82.6134 30.1535 82.6566C30.1535 82.6999 30.1618 82.733 30.179 82.7559C30.1959 82.7788 30.22 82.7902 30.2515 82.7902C30.2827 82.7902 30.3065 82.7788 30.3228 82.7559C30.3396 82.733 30.3482 82.6999 30.3482 82.6566C30.3482 82.6134 30.3396 82.5803 30.3228 82.5574C30.3065 82.5345 30.2827 82.5231 30.2515 82.5231ZM30.2515 82.4213C30.3285 82.4213 30.3889 82.4423 30.4322 82.4836C30.4754 82.5253 30.4971 82.5829 30.4971 82.6566C30.4971 82.7304 30.4755 82.7883 30.4322 82.8297C30.3889 82.8713 30.3285 82.892 30.2515 82.892C30.1742 82.892 30.1135 82.8713 30.0696 82.8297C30.0263 82.7883 30.0047 82.7304 30.0047 82.6566C30.0047 82.5829 30.0263 82.5253 30.0696 82.4836C30.1135 82.4423 30.1742 82.4213 30.2515 82.4213Z" fill="black"/>
<path d="M30.596 82.7063V82.4315H30.741V82.4773C30.741 82.5012 30.7404 82.5317 30.7398 82.5689V82.6415C30.7398 82.678 30.7404 82.7044 30.7423 82.7203C30.7448 82.7356 30.748 82.7471 30.7525 82.7547C30.7582 82.7642 30.7658 82.7712 30.7754 82.7763C30.7846 82.7814 30.7957 82.784 30.8085 82.784C30.838 82.784 30.8613 82.7725 30.8784 82.7496C30.8953 82.7267 30.9039 82.6946 30.9039 82.6529V82.4315H31.0477V82.8806H30.9039V82.8158C30.8826 82.8422 30.8597 82.8616 30.8352 82.8743C30.8113 82.8861 30.7846 82.8921 30.755 82.8921C30.7032 82.8921 30.6637 82.8765 30.6367 82.845C30.6093 82.8129 30.596 82.7668 30.596 82.7063L30.596 82.7063Z" fill="black"/>
<path d="M31.6367 82.607V82.8806H31.4917V82.6719C31.4917 82.6331 31.4907 82.6064 31.4892 82.5917C31.4872 82.5765 31.4844 82.5657 31.4803 82.5587C31.4752 82.5494 31.4675 82.5421 31.4573 82.537C31.4478 82.5319 31.4373 82.5294 31.4255 82.5294C31.395 82.5294 31.3711 82.5409 31.3543 82.5638C31.3371 82.5867 31.3288 82.6185 31.3288 82.6592V82.8806H31.1851V82.4314H31.3288V82.4976C31.3498 82.4715 31.3727 82.4524 31.3975 82.4403C31.422 82.4276 31.4488 82.4213 31.4777 82.4213C31.5292 82.4213 31.5687 82.4375 31.596 82.4696C31.6231 82.5011 31.6367 82.5469 31.6367 82.607L31.6367 82.607Z" fill="black"/>
<path d="M32.0607 82.2826H32.3165C32.3928 82.2826 32.4513 82.2998 32.4921 82.3335C32.5328 82.3666 32.5531 82.4146 32.5531 82.4773C32.5531 82.5402 32.5328 82.5886 32.4921 82.6223C32.4513 82.6563 32.3928 82.6732 32.3165 82.6732H32.2147V82.8806H32.0607V82.2826ZM32.2147 82.3946V82.5612H32.3012C32.3308 82.5612 32.3537 82.5542 32.3699 82.5396C32.3858 82.5253 32.3941 82.5046 32.3941 82.4773C32.3941 82.4512 32.3858 82.4308 32.3699 82.4162C32.3537 82.4019 32.3308 82.3946 32.3012 82.3946L32.2147 82.3946Z" fill="black"/>
<path d="M32.9889 82.5536C32.9762 82.5479 32.9635 82.5434 32.9507 82.5409C32.9386 82.5383 32.9266 82.537 32.9138 82.537C32.8773 82.537 32.8489 82.5491 32.8286 82.5727C32.8089 82.5965 32.7993 82.6299 32.7993 82.6732V82.8806H32.6556V82.4314H32.7993V82.5052C32.8178 82.4766 32.8391 82.4553 32.8629 82.4416C32.8865 82.4283 32.9151 82.4213 32.9482 82.4213C32.9533 82.4213 32.9584 82.4219 32.9635 82.4225C32.9692 82.4225 32.9778 82.4232 32.9889 82.4238V82.5536Z" fill="black"/>
<path d="M33.2736 82.5231C33.2421 82.5231 33.2179 82.5345 33.2011 82.5574C33.1839 82.5803 33.1756 82.6134 33.1756 82.6566C33.1756 82.6999 33.1839 82.733 33.2011 82.7559C33.2179 82.7788 33.2421 82.7902 33.2736 82.7902C33.3048 82.7902 33.3286 82.7788 33.3448 82.7559C33.3617 82.733 33.3703 82.6999 33.3703 82.6566C33.3703 82.6134 33.3617 82.5803 33.3448 82.5574C33.3286 82.5345 33.3048 82.5231 33.2736 82.5231ZM33.2736 82.4213C33.3506 82.4213 33.411 82.4423 33.4543 82.4836C33.4975 82.5253 33.5192 82.5829 33.5192 82.6566C33.5192 82.7304 33.4975 82.7883 33.4543 82.8297C33.411 82.8713 33.3506 82.892 33.2736 82.892C33.1963 82.892 33.1356 82.8713 33.0917 82.8297C33.0484 82.7883 33.0268 82.7304 33.0268 82.6566C33.0268 82.5829 33.0484 82.5253 33.0917 82.4836C33.1355 82.4423 33.1963 82.4213 33.2736 82.4213Z" fill="black"/>
<path d="M33.6235 82.4316H33.7673V82.8731C33.7673 82.9332 33.7526 82.9791 33.724 83.0105C33.695 83.0417 33.6531 83.0576 33.598 83.0576H33.5281V82.9635H33.5522C33.5793 82.9635 33.598 82.9571 33.6082 82.9444C33.6184 82.9323 33.6235 82.9088 33.6235 82.8731L33.6235 82.4316ZM33.6235 82.2573H33.7673V82.3744H33.6235V82.2573Z" fill="black"/>
<path d="M34.3522 82.6554V82.6961H34.0176C34.0208 82.7292 34.0329 82.7543 34.0532 82.7712C34.0742 82.7883 34.1035 82.7966 34.141 82.7966C34.1715 82.7966 34.2024 82.7925 34.2339 82.7839C34.265 82.7747 34.2978 82.761 34.3318 82.7432V82.8539C34.2978 82.8666 34.2638 82.8761 34.2301 82.8818C34.196 82.8885 34.162 82.892 34.1283 82.892C34.0468 82.892 33.9835 82.8717 33.9387 82.831C33.8935 82.7896 33.8713 82.7314 33.8713 82.6566C33.8713 82.5838 33.8932 82.5265 33.9374 82.4849C33.9813 82.4426 34.0421 82.4213 34.1194 82.4213C34.1897 82.4213 34.246 82.4426 34.2886 82.4849C34.3309 82.5275 34.3522 82.5841 34.3522 82.6554L34.3522 82.6554ZM34.2046 82.607C34.2046 82.58 34.1963 82.5584 34.1804 82.5421C34.1652 82.5253 34.1448 82.5167 34.1194 82.5167C34.0914 82.5167 34.0685 82.525 34.0507 82.5409C34.0335 82.5561 34.023 82.5784 34.0189 82.607H34.2046Z" fill="black"/>
<path d="M34.8233 82.4454V82.5625C34.8036 82.5498 34.7842 82.5402 34.7648 82.5332C34.745 82.5266 34.7247 82.5231 34.7037 82.5231C34.6636 82.5231 34.6324 82.5351 34.6095 82.5587C34.5873 82.5825 34.5765 82.6153 34.5765 82.6566C34.5765 82.6983 34.5873 82.7311 34.6095 82.7546C34.6324 82.7785 34.6636 82.7902 34.7037 82.7902C34.7256 82.7902 34.7469 82.7871 34.7673 82.7801C34.7877 82.7734 34.8061 82.7632 34.8233 82.7495V82.8678C34.801 82.8755 34.7781 82.8812 34.7546 82.8857C34.7317 82.8898 34.7088 82.892 34.6859 82.892C34.6044 82.892 34.5408 82.8713 34.495 82.8297C34.4498 82.7883 34.4276 82.7304 34.4276 82.6566C34.4276 82.5829 34.4498 82.5253 34.495 82.4836C34.5408 82.4423 34.6044 82.4213 34.6859 82.4213C34.7094 82.4213 34.7323 82.4235 34.7546 82.4276C34.7775 82.4321 34.8004 82.4378 34.8233 82.4454V82.4454Z" fill="black"/>
<path d="M35.1035 82.3043V82.4316H35.2524V82.5346H35.1035V82.7242C35.1035 82.7455 35.1076 82.7598 35.1162 82.7674C35.1245 82.7744 35.141 82.7776 35.1658 82.7776H35.2396V82.8807H35.1162C35.0593 82.8807 35.0189 82.8689 34.9954 82.8451C34.9725 82.8215 34.961 82.7811 34.961 82.7242V82.5346H34.8898V82.4316H34.961V82.3043L35.1035 82.3043Z" fill="black"/>
<rect x="9" y="80" width="46" height="11" fill="white"/>
</svg>