<svg width="281" height="186" viewBox="0 0 281 186" fill="none" xmlns="http://www.w3.org/2000/svg">
<rect width="281" height="186" fill="white"/>
<path d="M201.46 126.337C195.845 121.22 196.8 116.069 198.007 109.559C198.989 104.278 200.098 98.276 197.585 91.3409C196.716 89.2258 194.427 85.7288 191.788 81.6885C187.97 75.8402 183.211 68.5508 182.101 64.2847C182.101 64.2372 182.074 64.1897 182.059 64.1433C180.809 60.7284 180.515 57.6808 180.277 55.2346C179.953 51.9148 179.715 49.2912 176.851 48.4527C176.781 48.4295 176.697 48.4168 176.627 48.3936C174.675 48.016 172.739 48.3577 170.928 49.3156V34.1333C170.928 30.7543 167.656 28.0011 163.642 28.0011L116.588 28C112.573 28 109.302 30.7532 109.302 34.1322V44.4587C107.856 44.1401 106.411 43.9977 105.007 44.081C103.884 44.1401 101.568 44.2814 99.6864 45.7942C97.3275 47.6846 97.1032 50.5318 97.6233 52.4106C98.0169 53.7809 99.1675 55.742 104.755 58.7316C106.243 59.5228 107.759 60.2085 109.304 60.8583V61.1769C109.136 61.1769 108.98 61.1537 108.812 61.1537C103.688 61.1537 99.5048 64.6622 99.5048 68.9875C99.5048 71.61 101.049 73.9266 103.408 75.3444C101.049 76.7622 99.5048 79.0893 99.5048 81.7013C99.5048 84.3122 100.951 86.4748 103.168 87.9042C100.95 89.3336 99.5048 91.5783 99.5048 94.1072C99.5048 98.4197 103.673 101.941 108.812 101.941C108.98 101.941 109.136 101.929 109.304 101.918V115.517C109.304 118.895 112.575 121.649 116.589 121.649H131.806C134.193 125.891 138.923 132.069 146.602 133.263C146.869 133.299 147.261 133.382 147.725 133.476C149.788 133.89 153.073 134.551 155.684 134.292C155.712 134.292 155.727 134.315 155.727 134.315C155.811 134.422 155.895 134.563 156.05 134.788C156.303 135.178 156.695 135.769 157.341 136.666C158.421 138.179 159.222 139.821 159.727 141.558C159.965 142.373 160.823 142.905 161.777 142.905C161.945 142.905 162.114 142.894 162.282 142.858C163.405 142.621 164.107 141.665 163.826 140.719C163.222 138.64 162.254 136.666 160.962 134.848C160.344 133.998 159.993 133.442 159.741 133.076C159.082 132.071 158.885 131.847 157.79 131.233L157.341 130.973C156.836 130.678 156.19 130.583 155.6 130.714C153.916 131.08 150.392 130.382 148.694 130.041C148.133 129.922 147.669 129.84 147.347 129.793C142.223 129.001 138.601 124.842 136.524 121.663H163.63C167.645 121.663 170.916 118.91 170.916 115.531V94.7008C171.267 94.2282 171.618 93.744 171.955 93.2946C173.387 91.381 174.622 89.7269 175.1 88.5327C176.517 85.272 174.384 81.5145 171.928 77.1671C171.534 76.4698 171.128 75.7493 170.721 75.0172C168.826 71.5677 167.071 67.8331 167.028 63.9227C167.028 63.8404 167.028 63.7687 167.014 63.6864C166.747 62.1146 168.025 57.6608 170.551 54.5414C171.674 53.1595 173.415 51.5762 175.422 51.8125C175.773 52.3083 175.941 54.0805 176.081 55.5109C176.319 57.9805 176.643 61.3593 178.004 65.1169C179.267 69.8788 183.956 77.0615 188.083 83.3944C190.526 87.1392 192.828 90.6721 193.558 92.4329C195.761 98.5292 194.765 103.846 193.811 108.997C192.534 115.861 191.341 122.348 198.346 128.728C198.767 129.106 199.328 129.296 199.89 129.296C200.395 129.296 200.915 129.142 201.321 128.823C202.177 128.162 202.234 127.039 201.434 126.319L201.46 126.337ZM116.589 31.5572H163.659C165.358 31.5572 166.734 32.7155 166.734 34.1449V35.6925H113.516V34.1449C113.516 32.7155 114.892 31.5572 116.591 31.5572H116.589ZM107.001 55.7549C103.87 54.0776 101.99 52.6122 101.709 51.6198C101.429 50.6155 101.583 49.1745 102.579 48.3823C103.309 47.8032 104.32 47.6966 105.289 47.6376C106.566 47.5669 107.914 47.7557 109.304 48.1692V56.8891C108.532 56.5347 107.759 56.157 107.001 55.7551L107.001 55.7549ZM108.812 64.7227C111.62 64.7227 113.908 66.649 113.908 69.012C113.908 71.3751 111.62 73.3013 108.812 73.3013C106.005 73.3013 103.716 71.3751 103.716 69.012C103.716 66.649 106.005 64.7227 108.812 64.7227ZM108.812 86.0129C106.005 86.0129 103.716 84.0867 103.716 81.7236C103.716 79.3606 106.005 77.4343 108.812 77.4343C111.62 77.4343 113.908 79.3606 113.908 81.7236C113.908 84.0867 111.62 86.0129 108.812 86.0129ZM103.716 94.1422C103.716 91.7792 106.005 89.8529 108.812 89.8529C111.62 89.8529 113.908 91.7792 113.908 94.1422C113.908 96.5053 111.62 98.4315 108.812 98.4315C106.005 98.4315 103.716 96.5053 103.716 94.1422ZM118.105 94.1422C118.105 91.6136 116.658 89.3687 114.441 87.9393C116.659 86.5099 118.105 84.2651 118.105 81.7363C118.105 79.2077 116.56 76.7972 114.202 75.3794C116.56 73.9616 118.105 71.6345 118.105 69.0225C118.105 66.151 116.252 63.6352 113.5 62.2765L113.501 39.2487H166.718V53.0608C163.954 56.7349 162.493 61.5676 162.831 64.0719C162.901 68.4792 164.796 72.6262 166.718 76.1591V110.564L113.517 110.565V100.889C116.268 99.5301 118.122 97.0129 118.122 94.1427L118.105 94.1422ZM163.644 118.138H116.59C114.892 118.138 113.516 116.98 113.516 115.55V114.109H166.733V115.55C166.733 116.98 165.357 118.138 163.659 118.138H163.644ZM171.154 87.3597C171.098 87.4895 171.027 87.6435 170.93 87.8091V84.2878C171.351 85.4925 171.505 86.5559 171.154 87.3598V87.3597Z" fill="black"/>
<path d="M130.543 78.6984C131.161 78.6984 131.653 78.2374 131.554 77.7057C131.483 77.269 130.978 76.9736 130.458 76.9736H126.514C125.995 76.9736 125.489 77.269 125.418 77.7057C125.334 78.2374 125.812 78.6984 126.429 78.6984H130.543Z" fill="black"/>
<path d="M131.217 80.4214H127.483C126.107 80.4214 124.984 81.3666 124.984 82.5249V85.6676C124.984 86.8259 126.107 87.7711 127.483 87.7711H131.217C132.593 87.7711 133.716 86.8259 133.716 85.6676V82.5249C133.716 81.3666 132.593 80.4214 131.217 80.4214ZM131.652 85.3013C131.652 85.4669 131.498 85.5967 131.301 85.5967H127.905C127.708 85.5967 127.554 85.467 127.554 85.3013V82.4425C127.554 82.2769 127.708 82.1471 127.905 82.1471H131.301C131.498 82.1471 131.652 82.2769 131.652 82.4425V85.3013Z" fill="black"/>
<path d="M138.01 77.7181C137.94 77.2813 137.435 76.986 136.914 76.986H135.019C134.5 76.986 133.994 77.2813 133.924 77.7181C133.84 78.2497 134.317 78.7107 134.934 78.7107H136.983C137.601 78.7107 138.092 78.2497 137.993 77.7181H138.01Z" fill="black"/>
<path d="M141.324 83.8836H137.337C136.748 83.8836 136.271 84.2855 136.271 84.7813V86.4713C136.271 86.9913 136.818 87.4049 137.45 87.3215C137.969 87.2624 138.32 86.8373 138.32 86.3995V85.6083H141.394C142.012 85.6083 142.504 85.1473 142.405 84.6156C142.334 84.1789 141.829 83.8835 141.309 83.8835L141.324 83.8836Z" fill="black"/>
<path d="M119.945 92.9467H128.452C128.452 92.9467 128.579 92.9235 128.62 92.8876C129.546 92.1313 128.928 91.2219 128.059 91.2219H121.545C121.18 91.2219 120.87 90.974 120.87 90.6544V85.1719C120.87 84.4398 119.775 83.9198 118.891 84.6993C118.849 84.7352 118.821 84.7943 118.821 84.8407V92.0005C118.821 92.5205 119.326 92.9457 119.944 92.9457L119.945 92.9467Z" fill="black"/>
<path d="M120.886 64.885V59.4026C120.886 59.0956 121.18 58.835 121.56 58.835H128.074C128.943 58.835 129.561 57.913 128.635 57.1693C128.593 57.1334 128.522 57.1102 128.467 57.1102H119.961C119.343 57.1102 118.838 57.5354 118.838 58.0554V65.2152C118.838 65.2152 118.865 65.3217 118.908 65.3566C119.806 66.1361 120.887 65.6161 120.887 64.884L120.886 64.885Z" fill="black"/>
<path d="M137.086 67.9124H139.135C139.753 67.9124 140.244 67.4514 140.145 66.9197C140.075 66.483 139.57 66.1876 139.05 66.1876H137.155C136.636 66.1876 136.129 66.483 136.059 66.9197C135.975 67.4514 136.453 67.9124 137.069 67.9124H137.086Z" fill="black"/>
<path d="M149.031 69.6353H152.765C154.141 69.6353 155.264 68.6901 155.264 67.5318V64.3891C155.264 63.2308 154.141 62.2856 152.765 62.2856H149.031C147.655 62.2856 146.532 63.2308 146.532 64.3891V67.5318C146.532 68.6901 147.655 69.6353 149.031 69.6353ZM149.101 64.7554C149.101 64.5898 149.256 64.46 149.452 64.46H152.849C153.046 64.46 153.2 64.5897 153.2 64.7554V67.6142C153.2 67.7798 153.046 67.9096 152.849 67.9096H149.452C149.256 67.9096 149.101 67.7798 149.101 67.6142V64.7554Z" fill="black"/>
<path d="M124.986 64.3909V67.5335C124.986 68.6918 126.109 69.637 127.485 69.637H131.219C132.595 69.637 133.718 68.6918 133.718 67.5335V64.3909C133.718 63.2326 132.595 62.2874 131.219 62.2874H127.485C126.109 62.2874 124.986 63.2326 124.986 64.3909ZM127.556 64.7453C127.556 64.5797 127.71 64.4499 127.906 64.4499H131.303C131.5 64.4499 131.654 64.5797 131.654 64.7453V67.6041C131.654 67.7698 131.5 67.8995 131.303 67.8995H127.906C127.71 67.8995 127.556 67.7698 127.556 67.6041V64.7453Z" fill="black"/>
<path d="M144.485 77.8693C144.485 77.3735 144.007 76.9716 143.418 76.9716H141.41C140.792 76.9716 140.301 77.4325 140.4 77.9642C140.47 78.401 140.975 78.6963 141.496 78.6963H142.436V80.4211H137.312C136.694 80.4211 136.203 80.8821 136.302 81.4138C136.372 81.8505 136.877 82.1459 137.397 82.1459H143.433C144.022 82.1459 144.5 81.744 144.5 81.2482V77.8692L144.485 77.8693Z" fill="black"/>
<path d="M133.701 72.1765C133.701 71.7271 133.266 71.361 132.732 71.361H130.612C129.883 71.361 129.335 72.0108 129.714 72.6607C129.882 72.9329 130.233 73.0974 130.599 73.0974H131.638V73.9245C131.638 74.1017 131.708 74.2557 131.821 74.3971H127.399C127.469 74.2673 127.525 74.1249 127.525 73.972V72.3769C127.525 71.9402 127.175 71.514 126.656 71.4549C126.024 71.3843 125.476 71.7862 125.476 72.3052V74.03C125.476 74.1597 125.504 74.2779 125.574 74.3844H119.973C119.579 74.3844 119.271 74.6439 119.271 74.9752C119.271 75.3064 119.579 75.5659 119.973 75.5659H146.517V75.7906C146.517 76.3107 147.065 76.7242 147.697 76.6409C148.216 76.5818 148.567 76.1566 148.567 75.7189V75.5648H153.185V75.6714C153.185 76.2853 153.957 76.7463 154.73 76.4278C155.053 76.2864 155.248 75.991 155.248 75.683V75.5648H160.4C160.793 75.5648 161.102 75.3053 161.102 74.9741C161.102 74.6428 160.793 74.3833 160.4 74.3833H155.248V72.2208C155.248 71.6068 154.476 71.1458 153.704 71.4644C153.381 71.6058 153.185 71.9011 153.185 72.2092V73.0837H152.16C151.431 73.0837 150.883 73.7335 151.262 74.3833H148.567V72.398C148.567 71.9613 148.216 71.5351 147.697 71.476C147.065 71.4053 146.518 71.8072 146.518 72.3262V74.3823H144.314C144.482 74.146 144.525 73.8274 144.342 73.5193C144.174 73.2356 143.823 73.0826 143.443 73.0826H142.404V71.3578H143.429C144.047 71.3578 144.539 70.8968 144.439 70.3652C144.369 69.9284 143.864 69.6331 143.344 69.6331H137.265C136.647 69.6331 136.156 70.094 136.255 70.6257C136.325 71.0625 136.83 71.3578 137.351 71.3578H140.355V73.0826H139.33C138.6 73.0826 138.053 73.7208 138.431 74.3707H135.581C135.694 74.2166 135.778 74.0278 135.735 73.8158C135.665 73.379 135.16 73.0837 134.64 73.0837H133.7V72.1617L133.701 72.1765Z" fill="black"/>
<path d="M137.381 64.0235H142.434V66.6112C142.434 67.1313 142.982 67.5448 143.614 67.4615C144.133 67.4024 144.484 66.9773 144.484 66.5395V63.1837C144.484 62.6879 144.006 62.286 143.417 62.286H137.297C136.679 62.286 136.188 62.747 136.287 63.2787C136.357 63.7154 136.862 64.0108 137.382 64.0108L137.381 64.0235Z" fill="black"/>
<path d="M155.25 86.5193V84.747C155.25 84.1331 154.491 83.672 153.719 83.9906C153.382 84.132 153.2 84.44 153.2 84.747V85.6215H150.631V84.7238C150.631 84.1563 150.027 83.7079 149.354 83.8493C148.876 83.9442 148.568 84.3335 148.568 84.747V85.6215H146.519V84.7586C146.519 84.2385 145.971 83.825 145.339 83.9084C144.82 83.9675 144.469 84.3926 144.469 84.8304V86.4613C144.469 86.9571 144.947 87.359 145.536 87.359H154.267C154.801 87.359 155.236 86.9929 155.236 86.5436L155.25 86.5193Z" fill="black"/>
<path d="M152.176 58.8357H158.689C159.054 58.8357 159.364 59.0836 159.364 59.4032V64.8857C159.364 65.6178 160.459 66.1378 161.343 65.3583C161.385 65.3224 161.413 65.2633 161.413 65.2169V58.0571C161.413 57.5371 160.908 57.1119 160.29 57.1119H151.783C151.783 57.1119 151.657 57.1351 151.615 57.171C150.689 57.9274 151.307 58.8367 152.177 58.8367L152.176 58.8357Z" fill="black"/>
<path d="M147.318 78.5796C146.84 78.6746 146.532 79.0638 146.532 79.4774V81.2612C146.532 81.7454 147.01 82.1473 147.585 82.1473H152.133C152.722 82.1473 153.2 81.7454 153.2 81.2496V80.4226H153.719C154.337 80.4226 154.828 79.9616 154.729 79.4299C154.659 78.9931 154.154 78.6978 153.634 78.6978H151.696C151.107 78.6978 150.629 79.0997 150.629 79.5955V80.4226H148.58V79.4542C148.58 78.8866 147.976 78.4383 147.303 78.5796H147.318Z" fill="black"/>
<path d="M159.363 85.1717V90.6542C159.363 90.9612 159.068 91.2217 158.689 91.2217H152.175C151.305 91.2217 150.687 92.1437 151.613 92.8874C151.656 92.9233 151.726 92.9465 151.781 92.9465H160.288C160.906 92.9465 161.411 92.5214 161.411 92.0013V84.8416C161.411 84.8416 161.383 84.735 161.341 84.7002C160.442 83.9206 159.362 84.4407 159.362 85.1728L159.363 85.1717Z" fill="black"/>
<path d="M64.5671 178.582C64.3227 178.69 64.0683 178.77 63.8051 178.822C63.5444 178.875 63.2712 178.903 62.9879 178.903C62.1356 178.903 61.4601 178.703 60.9625 178.303C60.4637 177.901 60.2155 177.357 60.2155 176.67C60.2155 175.982 60.4637 175.437 60.9625 175.037C61.4601 174.635 62.1356 174.434 62.9879 174.434C63.2712 174.434 63.5444 174.461 63.8051 174.514C64.0683 174.568 64.3228 174.648 64.5671 174.755V175.645C64.3227 175.505 64.0821 175.402 63.8452 175.337C63.6071 175.273 63.3564 175.24 63.0932 175.24C62.6219 175.24 62.2509 175.367 61.9802 175.62C61.712 175.873 61.5791 176.223 61.5791 176.67C61.5791 177.116 61.712 177.464 61.9802 177.717C62.2509 177.97 62.6219 178.097 63.0932 178.097C63.3564 178.097 63.6071 178.065 63.8452 178C64.0821 177.935 64.3228 177.833 64.5671 177.692V178.582Z" fill="black"/>
<path d="M68.4552 176.468C68.3474 176.426 68.2409 176.395 68.1343 176.375C68.0303 176.353 67.9238 176.341 67.8135 176.341C67.4989 176.341 67.257 176.428 67.0866 176.599C66.9161 176.767 66.8309 177.011 66.8309 177.329V178.818H65.6076V175.586H66.8309V176.118C66.9875 175.907 67.168 175.754 67.3723 175.658C67.5791 175.559 67.8248 175.51 68.1093 175.51C68.1519 175.51 68.197 175.512 68.2447 175.514C68.291 175.517 68.3612 175.523 68.4552 175.531L68.4552 176.468Z" fill="black"/>
<path d="M72.8982 177.194V177.489H70.0305C70.0606 177.732 70.1634 177.913 70.3413 178.033C70.5181 178.155 70.7675 178.215 71.0883 178.215C71.3453 178.215 71.6097 178.183 71.8805 178.118C72.1512 178.053 72.4294 177.956 72.7177 177.827V178.624C72.4269 178.715 72.1362 178.783 71.8454 178.831C71.5546 178.878 71.2638 178.903 70.973 178.903C70.2812 178.903 69.741 178.755 69.3537 178.46C68.9689 178.162 68.7771 177.744 68.7771 177.206C68.7771 176.681 68.9651 176.267 69.3436 175.966C69.7209 175.662 70.2423 175.51 70.9078 175.51C71.5094 175.51 71.9907 175.664 72.3517 175.97C72.7152 176.274 72.8981 176.682 72.8981 177.194L72.8982 177.194ZM71.6348 176.852C71.6348 176.656 71.5659 176.497 71.4293 176.379C71.2951 176.259 71.1184 176.198 70.8978 176.198C70.6597 176.198 70.4667 176.255 70.3163 176.367C70.1684 176.479 70.0769 176.641 70.0406 176.852L71.6348 176.852Z" fill="black"/>
<path d="M75.5491 177.362C75.2909 177.362 75.0979 177.399 74.9676 177.472C74.8397 177.546 74.777 177.654 74.777 177.797C74.777 177.927 74.8284 178.029 74.9325 178.105C75.0352 178.179 75.1806 178.215 75.3686 178.215C75.5993 178.215 75.7923 178.146 75.9502 178.008C76.1069 177.868 76.1858 177.692 76.1858 177.481V177.362L75.5491 177.362ZM77.4241 176.974V178.818H76.1858V178.341C76.0216 178.535 75.8361 178.678 75.6293 178.768C75.425 178.857 75.1743 178.903 74.8773 178.903C74.4787 178.903 74.1566 178.806 73.9097 178.611C73.6615 178.415 73.5387 178.16 73.5387 177.848C73.5387 177.471 73.6916 177.194 74 177.016C74.3108 176.839 74.7984 176.751 75.4639 176.751H76.1858V176.67C76.1858 176.508 76.1081 176.388 75.9552 176.312C75.801 176.236 75.5616 176.198 75.2383 176.198C74.9776 176.198 74.7332 176.221 74.5063 176.265C74.2782 176.308 74.0677 176.374 73.8746 176.464V175.675C74.1378 175.622 74.4023 175.581 74.6668 175.552C74.93 175.525 75.1957 175.51 75.4639 175.51C76.1557 175.51 76.6546 175.626 76.9629 175.856C77.27 176.084 77.4242 176.457 77.4242 176.974L77.4241 176.974Z" fill="black"/>
<path d="M79.9033 174.67V175.586H81.1666V176.325H79.9033V177.696C79.9033 177.846 79.9384 177.947 80.0085 178C80.0787 178.054 80.2191 178.08 80.4297 178.08H81.0614V178.818H80.0086C79.5235 178.818 79.1789 178.734 78.9758 178.565C78.7753 178.394 78.675 178.104 78.675 177.696V176.325H78.0634V175.586H78.675V174.67L79.9033 174.67Z" fill="black"/>
<path d="M85.7501 177.194V177.489H82.8824C82.9125 177.732 83.0153 177.913 83.1932 178.033C83.37 178.155 83.6194 178.215 83.9402 178.215C84.1972 178.215 84.4616 178.183 84.7324 178.118C85.0031 178.053 85.2813 177.956 85.5696 177.827V178.624C85.2788 178.715 84.9881 178.783 84.6973 178.831C84.4065 178.878 84.1157 178.903 83.8249 178.903C83.1331 178.903 82.5929 178.755 82.2056 178.46C81.8208 178.162 81.629 177.744 81.629 177.206C81.629 176.681 81.817 176.267 82.1955 175.966C82.5728 175.662 83.0942 175.51 83.7597 175.51C84.3613 175.51 84.8426 175.664 85.2036 175.97C85.5671 176.274 85.75 176.682 85.75 177.194L85.7501 177.194ZM84.4867 176.852C84.4867 176.656 84.4178 176.497 84.2812 176.379C84.147 176.259 83.9703 176.198 83.7498 176.198C83.5116 176.198 83.3186 176.255 83.1682 176.367C83.0203 176.479 82.9288 176.641 82.8925 176.852L84.4867 176.852Z" fill="black"/>
<path d="M89.2872 176.059V174.328H90.5255V178.818H89.2872V178.35C89.1192 178.542 88.9337 178.682 88.7307 178.772C88.5264 178.858 88.2907 178.903 88.0238 178.903C87.5525 178.903 87.164 178.745 86.8607 178.43C86.5561 178.112 86.4044 177.704 86.4044 177.206C86.4044 176.708 86.5561 176.302 86.8607 175.987C87.164 175.669 87.5525 175.51 88.0238 175.51C88.2907 175.51 88.5264 175.555 88.7307 175.645C88.9337 175.733 89.1192 175.871 89.2872 176.059V176.059ZM88.48 178.151C88.7432 178.151 88.9437 178.071 89.0816 177.911C89.2182 177.749 89.2872 177.513 89.2872 177.206C89.2872 176.897 89.2182 176.662 89.0816 176.502C88.9437 176.341 88.7432 176.261 88.48 176.261C88.2193 176.261 88.02 176.341 87.8834 176.502C87.7455 176.662 87.6778 176.897 87.6778 177.206C87.6778 177.513 87.7455 177.748 87.8834 177.911C88.02 178.071 88.2193 178.151 88.48 178.151V178.151Z" fill="black"/>
<path d="M96.1894 178.152C96.4526 178.152 96.6531 178.071 96.791 177.911C96.9276 177.749 96.9965 177.513 96.9965 177.206C96.9965 176.897 96.9276 176.662 96.791 176.502C96.6531 176.341 96.4526 176.261 96.1894 176.261C95.9249 176.261 95.7231 176.343 95.5827 176.506C95.4424 176.666 95.3722 176.9 95.3722 177.206C95.3722 177.513 95.4424 177.749 95.5827 177.911C95.7231 178.071 95.9249 178.152 96.1894 178.152V178.152ZM95.3722 176.059C95.5426 175.871 95.7294 175.733 95.9337 175.645C96.1405 175.555 96.3773 175.51 96.6456 175.51C97.1169 175.51 97.5041 175.669 97.8087 175.987C98.112 176.302 98.2649 176.708 98.2649 177.206C98.2649 177.704 98.112 178.112 97.8087 178.43C97.5041 178.745 97.1169 178.903 96.6456 178.903C96.3774 178.903 96.1405 178.857 95.9337 178.768C95.7294 178.678 95.5426 178.539 95.3722 178.35V178.818H94.1489V174.328H95.3722V176.059Z" fill="black"/>
<path d="M98.666 175.586H99.8943L100.927 177.78L101.804 175.586H103.028L101.413 179.122C101.253 179.482 101.064 179.734 100.847 179.877C100.633 180.021 100.348 180.093 99.9946 180.093H99.2827V179.417H99.6687C99.8755 179.417 100.026 179.389 100.12 179.333C100.216 179.276 100.29 179.177 100.34 179.033L100.376 178.941L98.666 175.586Z" fill="black"/>
<path d="M107.565 175.35V177.978H108.036C108.574 177.978 108.985 177.867 109.269 177.641C109.556 177.416 109.701 177.09 109.701 176.662C109.701 176.235 109.558 175.91 109.274 175.687C108.99 175.462 108.578 175.35 108.036 175.35H107.565ZM106.246 174.51H107.635C108.41 174.51 108.989 174.558 109.37 174.653C109.751 174.746 110.076 174.904 110.347 175.126C110.588 175.32 110.766 175.546 110.884 175.801C111 176.054 111.059 176.341 111.059 176.662C111.059 176.986 111 177.276 110.884 177.531C110.766 177.784 110.588 178.008 110.347 178.202C110.073 178.428 109.743 178.586 109.36 178.679C108.979 178.772 108.403 178.818 107.635 178.818H106.246V174.51Z" fill="black"/>
<path d="M113.738 177.362C113.479 177.362 113.286 177.399 113.156 177.472C113.028 177.546 112.966 177.654 112.966 177.797C112.966 177.927 113.017 178.029 113.121 178.105C113.224 178.179 113.369 178.215 113.557 178.215C113.788 178.215 113.981 178.146 114.139 178.008C114.295 177.868 114.374 177.692 114.374 177.481V177.362L113.738 177.362ZM115.613 176.974V178.818H114.374V178.341C114.21 178.535 114.025 178.678 113.818 178.768C113.613 178.857 113.363 178.903 113.066 178.903C112.667 178.903 112.345 178.806 112.098 178.611C111.85 178.415 111.727 178.16 111.727 177.848C111.727 177.471 111.88 177.194 112.188 177.016C112.499 176.839 112.987 176.751 113.652 176.751H114.374V176.67C114.374 176.508 114.297 176.388 114.144 176.312C113.99 176.236 113.75 176.198 113.427 176.198C113.166 176.198 112.922 176.221 112.695 176.265C112.467 176.308 112.256 176.374 112.063 176.464V175.675C112.326 175.622 112.591 175.581 112.855 175.552C113.118 175.525 113.384 175.51 113.652 175.51C114.344 175.51 114.843 175.626 115.151 175.856C115.458 176.084 115.613 176.457 115.613 176.974L115.613 176.974Z" fill="black"/>
<path d="M120.61 176.852V178.818H119.376V177.312C119.376 177.033 119.368 176.842 119.351 176.738C119.337 176.631 119.312 176.552 119.276 176.502C119.228 176.434 119.163 176.382 119.08 176.345C119 176.306 118.906 176.286 118.8 176.286C118.545 176.286 118.345 176.371 118.198 176.54C118.05 176.706 117.978 176.935 117.978 177.227V178.818H116.754V175.586H117.978V176.058C118.164 175.871 118.361 175.732 118.569 175.645C118.776 175.555 119.005 175.51 119.256 175.51C119.7 175.51 120.036 175.626 120.264 175.856C120.494 176.084 120.61 176.416 120.61 176.852L120.61 176.852Z" fill="black"/>
<path d="M121.75 175.586H122.974V178.818H121.75V175.586ZM121.75 174.328H122.974V175.172H121.75V174.328Z" fill="black"/>
<path d="M127.987 177.194V177.489H125.119C125.149 177.732 125.252 177.913 125.43 178.033C125.607 178.155 125.856 178.215 126.177 178.215C126.434 178.215 126.698 178.183 126.969 178.118C127.24 178.053 127.518 177.956 127.806 177.827V178.624C127.516 178.715 127.225 178.783 126.934 178.831C126.643 178.878 126.353 178.903 126.062 178.903C125.37 178.903 124.83 178.755 124.442 178.46C124.058 178.162 123.866 177.744 123.866 177.206C123.866 176.681 124.054 176.267 124.432 175.966C124.81 175.662 125.331 175.51 125.997 175.51C126.598 175.51 127.079 175.664 127.44 175.97C127.804 176.274 127.987 176.682 127.987 177.194L127.987 177.194ZM126.724 176.852C126.724 176.656 126.655 176.497 126.518 176.379C126.384 176.259 126.207 176.198 125.987 176.198C125.748 176.198 125.555 176.255 125.405 176.367C125.257 176.479 125.166 176.641 125.129 176.852L126.724 176.852Z" fill="black"/>
<path d="M128.917 174.328H130.14V178.818H128.917V174.328Z" fill="black"/>
<path d="M133.21 174.51H137.922V175.35H136.228V178.818H134.909V175.35H133.21L133.21 174.51Z" fill="black"/>
<path d="M138.679 177.7H139.913V178.818H138.679V177.7Z" fill="black"/>
<path d="M62.978 180.236V180.915H62.3011C62.1269 180.915 62.0053 180.943 61.9352 180.996C61.8675 181.049 61.8349 181.141 61.8349 181.27V181.494H62.8827V182.232H61.8349V184.726H60.6066V182.232H60V181.494H60.6066V181.27C60.6066 180.919 60.7232 180.658 60.9576 180.489C61.1907 180.32 61.5517 180.236 62.0405 180.236L62.978 180.236Z" fill="black"/>
<path d="M66.3571 182.375C66.2493 182.333 66.1428 182.303 66.0362 182.283C65.9322 182.26 65.8257 182.249 65.7154 182.249C65.4008 182.249 65.1589 182.335 64.9884 182.506C64.818 182.675 64.7328 182.919 64.7328 183.236V184.726H63.5095V181.493H64.7328V182.025C64.8894 181.814 65.0699 181.661 65.2742 181.565C65.481 181.467 65.7267 181.417 66.0112 181.417C66.0538 181.417 66.0989 181.42 66.1466 181.422C66.1929 181.425 66.2631 181.43 66.3571 181.439L66.3571 182.375Z" fill="black"/>
<path d="M68.796 182.156C68.5253 182.156 68.3172 182.239 68.1744 182.405C68.0302 182.568 67.9588 182.805 67.9588 183.114C67.9588 183.424 68.0302 183.661 68.1744 183.827C68.3172 183.99 68.5253 184.072 68.796 184.072C69.063 184.072 69.2673 183.99 69.4076 183.827C69.5505 183.661 69.6232 183.424 69.6232 183.114C69.6232 182.805 69.5505 182.568 69.4076 182.405C69.2673 182.239 69.063 182.156 68.796 182.156ZM68.796 181.417C69.454 181.417 69.9691 181.568 70.3402 181.869C70.7137 182.168 70.9017 182.582 70.9017 183.114C70.9017 183.645 70.7137 184.062 70.3402 184.363C69.9692 184.661 69.454 184.81 68.796 184.81C68.1343 184.81 67.6154 184.661 67.2418 184.363C66.8671 184.062 66.6803 183.645 66.6803 183.114C66.6803 182.582 66.8671 182.168 67.2418 181.869C67.6154 181.568 68.1342 181.417 68.796 181.417Z" fill="black"/>
<path d="M75.3474 182.034C75.504 181.831 75.6883 181.678 75.8989 181.574C76.1119 181.47 76.3475 181.418 76.6057 181.418C77.0469 181.418 77.3828 181.534 77.6134 181.764C77.8441 181.991 77.9594 182.324 77.9594 182.759V184.726H76.726V183.042C76.7285 183.017 76.731 182.991 76.731 182.966V182.848C76.731 182.62 76.6909 182.455 76.6107 182.35C76.5305 182.247 76.4014 182.194 76.2247 182.194C75.9903 182.194 75.8098 182.276 75.6833 182.439C75.5592 182.599 75.494 182.833 75.4877 183.139V184.726H74.2544V183.042C74.2544 182.686 74.2168 182.455 74.1441 182.35C74.0702 182.247 73.9398 182.194 73.7531 182.194C73.5187 182.194 73.3369 182.276 73.2066 182.439C73.0788 182.602 73.0161 182.834 73.0161 183.135V184.726H71.7828V181.493H73.0161V181.966C73.1665 181.787 73.3382 181.65 73.5325 181.557C73.7293 181.464 73.9461 181.417 74.1842 181.417C74.4474 181.417 74.6818 181.471 74.8861 181.578C75.0891 181.685 75.2433 181.837 75.3473 182.034L75.3474 182.034Z" fill="black"/>
<path d="M82.8888 180.578V181.494H84.1521V182.232H82.8888V183.603C82.8888 183.753 82.9238 183.854 82.994 183.907C83.0642 183.961 83.2046 183.987 83.4152 183.987H84.0469V184.726H82.9941C82.509 184.726 82.1644 184.641 81.9613 184.473C81.7607 184.302 81.6605 184.012 81.6605 183.603V182.232H81.0489V181.494H81.6605V180.578L82.8888 180.578Z" fill="black"/>
<path d="M88.7606 182.759V184.726H87.5273V183.228C87.5273 182.944 87.5185 182.75 87.5022 182.646C87.4884 182.539 87.4634 182.46 87.427 182.409C87.3794 182.342 87.3142 182.29 87.2315 182.253C87.1513 182.214 87.0573 182.194 86.9507 182.194C86.6963 182.194 86.4958 182.278 86.3491 182.447C86.2012 182.614 86.1285 182.843 86.1285 183.135V184.726H84.9053V180.236H86.1285V181.966C86.3153 181.778 86.5121 181.64 86.7201 181.553C86.9269 181.463 87.1563 181.418 87.407 181.418C87.8507 181.418 88.1866 181.534 88.4147 181.764C88.6453 181.991 88.7606 182.324 88.7606 182.759L88.7606 182.759Z" fill="black"/>
<path d="M93.7327 183.101V183.397H90.865C90.8951 183.639 90.9979 183.821 91.1759 183.941C91.3526 184.062 91.602 184.122 91.9229 184.122C92.1798 184.122 92.4443 184.091 92.715 184.025C92.9857 183.961 93.264 183.864 93.5522 183.734V184.532C93.2615 184.622 92.9707 184.691 92.6799 184.738C92.3891 184.786 92.0983 184.81 91.8075 184.81C91.1157 184.81 90.5755 184.662 90.1882 184.367C89.8034 184.07 89.6116 183.652 89.6116 183.114C89.6116 182.588 89.7997 182.175 90.1782 181.873C90.5554 181.569 91.0768 181.417 91.7423 181.417C92.344 181.417 92.8252 181.571 93.1862 181.877C93.5497 182.181 93.7327 182.589 93.7327 183.101L93.7327 183.101ZM92.4693 182.759C92.4693 182.563 92.4004 182.405 92.2638 182.287C92.1297 182.166 91.9529 182.105 91.7324 182.105C91.4942 182.105 91.3012 182.162 91.1508 182.274C91.0029 182.387 90.9114 182.548 90.8751 182.759L92.4693 182.759Z" fill="black"/>
<path d="M97.1607 180.417H98.6296L100.495 183.371V180.417H101.743V184.726H100.269L98.409 181.772V184.726H97.1607L97.1607 180.417Z" fill="black"/>
<path d="M104.805 182.156C104.534 182.156 104.326 182.239 104.183 182.405C104.039 182.568 103.968 182.805 103.968 183.114C103.968 183.424 104.039 183.661 104.183 183.827C104.326 183.99 104.534 184.072 104.805 184.072C105.072 184.072 105.276 183.99 105.417 183.827C105.559 183.661 105.632 183.424 105.632 183.114C105.632 182.805 105.559 182.568 105.417 182.405C105.276 182.239 105.072 182.156 104.805 182.156ZM104.805 181.417C105.463 181.417 105.978 181.568 106.349 181.869C106.723 182.168 106.911 182.582 106.911 183.114C106.911 183.645 106.723 184.062 106.349 184.363C105.978 184.661 105.463 184.81 104.805 184.81C104.143 184.81 103.624 184.661 103.251 184.363C102.876 184.062 102.689 183.645 102.689 183.114C102.689 182.582 102.876 182.168 103.251 181.869C103.624 181.568 104.143 181.417 104.805 181.417Z" fill="black"/>
<path d="M107.757 183.468V181.494H108.99V181.818C108.99 181.994 108.987 182.213 108.985 182.477V183.008C108.985 183.268 108.992 183.455 109.01 183.57C109.026 183.682 109.053 183.766 109.09 183.819C109.14 183.886 109.205 183.939 109.286 183.975C109.368 184.012 109.462 184.03 109.566 184.03C109.823 184.03 110.024 183.947 110.168 183.781C110.315 183.615 110.389 183.384 110.389 183.089V181.494H111.617V184.726H110.389V184.257C110.204 184.446 110.009 184.586 109.802 184.675C109.594 184.765 109.367 184.81 109.12 184.81C108.675 184.81 108.336 184.696 108.103 184.468C107.872 184.238 107.757 183.905 107.757 183.468L107.757 183.468Z" fill="black"/>
<path d="M116.654 182.759V184.726H115.421V183.219C115.421 182.941 115.412 182.75 115.396 182.645C115.382 182.539 115.357 182.46 115.32 182.409C115.273 182.342 115.208 182.29 115.125 182.253C115.045 182.214 114.951 182.194 114.844 182.194C114.59 182.194 114.389 182.278 114.243 182.447C114.095 182.614 114.022 182.843 114.022 183.135V184.726H112.799V181.493H114.022V181.966C114.209 181.778 114.405 181.64 114.614 181.553C114.82 181.463 115.05 181.417 115.3 181.417C115.744 181.417 116.08 181.534 116.308 181.763C116.539 181.991 116.654 182.324 116.654 182.759L116.654 182.759Z" fill="black"/>
<path d="M120.294 180.417H122.48C123.131 180.417 123.63 180.54 123.979 180.785C124.33 181.027 124.505 181.373 124.505 181.823C124.505 182.276 124.33 182.624 123.979 182.869C123.63 183.112 123.131 183.232 122.48 183.232H121.612V184.726H120.294V180.417ZM121.612 181.223V182.426H122.339C122.596 182.426 122.793 182.374 122.931 182.27C123.071 182.167 123.142 182.017 123.142 181.823C123.142 181.632 123.071 181.484 122.931 181.38C122.793 181.276 122.596 181.223 122.339 181.223L121.612 181.223Z" fill="black"/>
<path d="M128.231 182.375C128.124 182.333 128.017 182.303 127.911 182.283C127.807 182.26 127.7 182.249 127.59 182.249C127.275 182.249 127.033 182.335 126.863 182.506C126.692 182.675 126.607 182.919 126.607 183.236V184.726H125.384V181.493H126.607V182.025C126.764 181.814 126.944 181.661 127.149 181.565C127.355 181.467 127.601 181.417 127.886 181.417C127.928 181.417 127.973 181.42 128.021 181.422C128.067 181.425 128.137 181.43 128.231 181.439L128.231 182.375Z" fill="black"/>
<path d="M130.669 182.156C130.398 182.156 130.19 182.239 130.047 182.405C129.903 182.568 129.832 182.805 129.832 183.114C129.832 183.424 129.903 183.661 130.047 183.827C130.19 183.99 130.398 184.072 130.669 184.072C130.936 184.072 131.14 183.99 131.281 183.827C131.424 183.661 131.496 183.424 131.496 183.114C131.496 182.805 131.424 182.568 131.281 182.405C131.14 182.239 130.936 182.156 130.669 182.156ZM130.669 181.417C131.327 181.417 131.842 181.568 132.213 181.869C132.587 182.168 132.775 182.582 132.775 183.114C132.775 183.645 132.587 184.062 132.213 184.363C131.842 184.661 131.327 184.81 130.669 184.81C130.007 184.81 129.488 184.661 129.115 184.363C128.74 184.062 128.553 183.645 128.553 183.114C128.553 182.582 128.74 182.168 129.115 181.869C129.488 181.568 130.007 181.417 130.669 181.417Z" fill="black"/>
<path d="M133.667 181.493H134.89V184.667C134.89 185.099 134.766 185.43 134.519 185.658C134.275 185.886 133.919 186 133.452 186H132.845V185.325H133.056C133.289 185.325 133.449 185.279 133.537 185.19C133.623 185.102 133.667 184.928 133.667 184.667L133.667 181.493ZM133.667 180.236H134.89V181.08H133.667V180.236Z" fill="black"/>
<path d="M139.903 183.101V183.397H137.035C137.065 183.639 137.168 183.821 137.346 183.941C137.522 184.062 137.772 184.122 138.093 184.122C138.35 184.122 138.614 184.091 138.885 184.025C139.156 183.961 139.434 183.864 139.722 183.734V184.532C139.431 184.622 139.141 184.691 138.85 184.738C138.559 184.786 138.268 184.81 137.977 184.81C137.286 184.81 136.745 184.662 136.358 184.367C135.973 184.07 135.781 183.652 135.781 183.114C135.781 182.588 135.969 182.175 136.348 181.873C136.725 181.569 137.247 181.417 137.912 181.417C138.514 181.417 138.995 181.571 139.356 181.877C139.72 182.181 139.903 182.589 139.903 183.101L139.903 183.101ZM138.639 182.759C138.639 182.563 138.57 182.405 138.434 182.287C138.3 182.166 138.123 182.105 137.902 182.105C137.664 182.105 137.471 182.162 137.321 182.274C137.173 182.387 137.081 182.548 137.045 182.759L138.639 182.759Z" fill="black"/>
<path d="M143.931 181.595V182.439C143.763 182.344 143.596 182.273 143.43 182.228C143.262 182.18 143.089 182.156 142.908 182.156C142.564 182.156 142.297 182.24 142.106 182.409C141.916 182.578 141.82 182.813 141.82 183.114C141.82 183.415 141.916 183.65 142.106 183.818C142.297 183.987 142.564 184.072 142.908 184.072C143.099 184.072 143.279 184.048 143.45 184C143.623 183.952 143.783 183.881 143.931 183.785V184.629C143.74 184.691 143.546 184.735 143.349 184.764C143.151 184.794 142.953 184.81 142.753 184.81C142.061 184.81 141.519 184.661 141.128 184.363C140.737 184.062 140.542 183.645 140.542 183.114C140.542 182.582 140.737 182.168 141.128 181.869C141.519 181.568 142.061 181.417 142.753 181.417C142.953 181.417 143.15 181.433 143.344 181.464C143.541 181.492 143.737 181.536 143.931 181.595V181.595Z" fill="black"/>
<path d="M146.332 180.578V181.494H147.596V182.232H146.332V183.603C146.332 183.753 146.367 183.854 146.438 183.907C146.508 183.961 146.648 183.987 146.859 183.987H147.49V184.726H146.438C145.953 184.726 145.608 184.641 145.405 184.473C145.204 184.302 145.104 184.012 145.104 183.603V182.232H144.492V181.494H145.104V180.578L146.332 180.578Z" fill="black"/>
<path d="M56 135H162V186H56V135Z" fill="white"/>
<path d="M56 135H162V186H56V135Z" fill="white"/>
<path d="M56 135H162V186H56V135Z" fill="white"/>
</svg>
