<svg enable-background="new 0 0 512 512" viewBox="0 0 512 512" xmlns="http://www.w3.org/2000/svg"><path d="m68.267 56.889h375.467v455.111h-375.467z" fill="#c9e3f7"/><path d="m256 56.889h187.733v455.111h-187.733z" fill="#78b9eb"/><path d="m273.067 295.822h34.133v125.156h-34.133z" fill="#3c5d76"/><path d="m341.333 329.956h34.133v91.022h-34.133z" fill="#3c5d76"/><g fill="#78b9eb"><path d="m204.8 341.333h34.133v79.644h-34.133z"/><path d="m136.533 318.578h34.133v102.4h-34.133z"/><path d="m136.533 227.556h238.933v34.133h-238.933z"/></g><path d="m256 227.556h119.467v34.133h-119.467z" fill="#3c5d76"/><path d="m312.889 56.889c0-31.419-25.47-56.889-56.889-56.889s-56.889 25.47-56.889 56.889h-62.578v79.644h238.933v-79.644z" fill="#ff9811"/><path d="m312.889 56.889c0-31.419-25.47-56.889-56.889-56.889v136.533h119.467v-79.644z" fill="#ff5023"/></svg>