<svg enable-background="new 0 0 512 512" viewBox="0 0 512 512" xmlns="http://www.w3.org/2000/svg"><g fill="#2e36d2"><path d="m38.788 170.667h23.273 23.273c12.853 0 23.273-10.42 23.273-23.273s-10.42-23.273-23.273-23.273h-23.273-23.273c-12.853 0-23.273 10.42-23.273 23.273s10.42 23.273 23.273 23.273z"/><path d="m85.333 232.727h-23.272-23.273c-12.853 0-23.273 10.42-23.273 23.273s10.42 23.273 23.273 23.273h23.273 23.273c12.853 0 23.273-10.42 23.273-23.273-.001-12.853-10.421-23.273-23.274-23.273z"/><path d="m85.333 341.333h-23.272-23.273c-12.853 0-23.273 10.42-23.273 23.273s10.42 23.273 23.273 23.273h23.273 23.273c12.853 0 23.273-10.42 23.273-23.273s-10.421-23.273-23.274-23.273z"/></g><circle cx="279.273" cy="201.697" fill="#c9ddf4" r="69.818"/><path d="m279.273 271.514c-59.982 0-108.606 48.621-108.606 108.606h217.212c0-59.985-48.625-108.606-108.606-108.606z" fill="#c9ddf4"/><path d="m473.212 0h-193.939-116.364c-55.608 0-100.848 45.241-100.848 100.848v23.273h23.273c12.853 0 23.273 10.42 23.273 23.273s-10.42 23.273-23.273 23.273h-23.273v62.061h23.273c12.853 0 23.273 10.42 23.273 23.273s-10.42 23.273-23.273 23.273h-23.273v62.061h23.273c12.853 0 23.273 10.42 23.273 23.273s-10.42 23.273-23.273 23.273h-23.273v23.273c0 55.605 45.24 100.846 100.848 100.846h116.364 193.939c12.853 0 23.273-10.42 23.273-23.273v-465.454c0-12.853-10.42-23.273-23.273-23.273zm-193.939 380.121h-108.606c0-59.985 48.624-108.606 108.606-108.606-38.558 0-69.818-31.26-69.818-69.818 0-38.561 31.26-69.818 69.818-69.818s69.818 31.257 69.818 69.818c0 38.558-31.26 69.818-69.818 69.818 59.982 0 108.606 48.621 108.606 108.606z" fill="#5286fa"/><path d="m170.667 380.12c0-59.985 48.624-108.606 108.606-108.606-38.558 0-69.818-31.26-69.818-69.818 0-38.56 31.26-69.818 69.818-69.818v-131.878h-116.364c-55.608 0-100.848 45.241-100.848 100.848v23.273h23.273c12.853 0 23.273 10.42 23.273 23.273s-10.42 23.273-23.273 23.273h-23.273v62.061h23.273c12.853 0 23.273 10.42 23.273 23.273s-10.42 23.273-23.273 23.273h-23.273v62.061h23.273c12.853 0 23.273 10.42 23.273 23.273s-10.42 23.273-23.273 23.273h-23.273v23.273c0 55.605 45.24 100.846 100.848 100.846h116.364v-131.88z" fill="#3d6deb"/></svg>