<svg enable-background="new 0 0 512 512" viewBox="0 0 512 512" xmlns="http://www.w3.org/2000/svg"><path d="m0 44.612h471.249v322.821h-471.249z" fill="#67bfff"/><path d="m235.635 44.612h235.614v322.821h-235.614z" fill="#08f"/><path d="m471.249 44.612v1.161l-235.614 165.752-.011.009-235.603-166.922z" fill="#c9e8fa"/><path d="m471.249 44.612v1.161l-235.614 165.752v-166.913z" fill="#b6e0f7"/><path d="m512 361.989c0 58.211-47.188 105.399-105.399 105.399-.251 0-.502 0-.752-.01-28.473-.188-54.251-11.682-73.101-30.208-16.927-16.635-28.264-38.933-30.929-63.843-.397-3.72-.616-7.502-.616-11.337 0-31.587 13.908-59.925 35.913-79.245.24-.209.481-.418.721-.616 8.579-7.398 18.369-13.427 29.017-17.774 12.048-4.901 25.203-7.659 38.996-7.743.251-.01.502-.01.752-.01 58.21-.001 105.398 47.175 105.398 105.387z" fill="#67bfff"/><path d="m512 361.989c0 58.211-47.188 105.399-105.399 105.399-.251 0-.502 0-.752-.01v-210.767c.251-.01.502-.01.752-.01 58.211 0 105.399 47.176 105.399 105.388z" fill="#08f"/><path d="m462.064 347.339v31.347h-39.789v41.858h-31.347v-41.858h-39.79v-31.347h39.79v-41.847h31.347v41.847z" fill="#fff"/><path d="m462.064 347.339v31.347h-39.789v41.858h-16.426v-115.052h16.426v41.847z" fill="#d9d8db"/></svg>