<svg enable-background="new 0 0 356.744 356.744" viewBox="0 0 356.744 356.744" xmlns="http://www.w3.org/2000/svg"><path d="m356.744 321.73c0 14.57-11.921 26.491-26.491 26.491h-53.104c-14.57 0-26.491-11.921-26.491-26.491v-179.741c0-14.569 11.921-26.491 26.491-26.491h53.104c14.57 0 26.491 11.922 26.491 26.491z" fill="#77b8e8"/><path d="m321.07 115.498h-294.579c-14.57 0-26.491 11.922-26.491 26.491v179.741c0 14.57 11.921 26.491 26.491 26.491h294.579c14.57 0 26.491-11.921 26.491-26.491v-179.741c.001-14.569-11.92-26.491-26.491-26.491zm-115.919 24.393h-62.741c-2.309 0-4.181-1.872-4.181-4.182 0-2.308 1.872-4.18 4.181-4.18h62.741c2.309 0 4.181 1.872 4.181 4.18 0 2.31-1.872 4.182-4.181 4.182z" fill="#009bde"/><path d="m36.598 170.568h103.55v109.867h-103.55z" fill="#fff"/><circle cx="88.372" cy="213.757" fill="#3e4a57" r="25.366"/><path d="m88.372 248.16c-21.473 0-39.808 13.393-47.138 32.275h94.275c-7.329-18.883-25.662-32.275-47.137-32.275z" fill="#3e4a57"/><path d="m164.52 170.568h154.984v17.824h-154.984z" fill="#333e48"/><path d="m164.52 207.678h154.984v17.823h-154.984z" fill="#333e48"/><path d="m146.591 64.589h54.38v69.247h-54.38z" fill="#f6c65b"/><path d="m169.523 89.473c-22.355 0-40.476-18.121-40.476-40.476 0-22.353 18.12-40.475 40.476-40.475h8.517c22.356 0 40.476 18.122 40.476 40.475 0 22.354-18.12 40.476-40.476 40.476z" fill="#333e48"/><circle cx="169.522" cy="48.998" fill="#3e4a57" r="40.475"/><circle cx="169.522" cy="48.998" fill="#a4a9ad" r="22.574"/><path d="m250.658 261.148h68.846v19.287h-68.846z" fill="#fff"/></svg>