<svg width="631" height="631" viewBox="0 0 631 631" fill="none" xmlns="http://www.w3.org/2000/svg">
<path d="M175.439 606.667H58.772C49.4908 606.667 40.584 602.98 34.0227 596.417C27.4613 589.855 23.7727 580.948 23.7727 571.668V455.001C23.7727 448.558 18.5487 443.334 12.106 443.334C5.66333 443.334 0.439331 448.558 0.439331 455.001V571.668C0.439331 587.137 6.58519 601.975 17.522 612.919C28.4647 623.856 43.3033 630.001 58.7727 630.001H175.439C181.882 630.001 187.106 624.777 187.106 618.334C187.106 611.892 181.882 606.668 175.439 606.668L175.439 606.667Z" fill="black"/>
<path d="M12.1053 186.667C15.1991 186.667 18.1679 185.438 20.3553 183.251C22.5428 181.063 23.772 178.095 23.772 175.001V58.3341C23.772 49.0529 27.4595 40.1461 34.022 33.5848C40.5845 27.0235 49.4913 23.3348 58.7713 23.3348H175.438C181.881 23.3348 187.105 18.1108 187.105 11.6681C187.105 5.22547 181.881 0.00146484 175.438 0.00146484H58.7713C43.302 0.00146484 28.4647 6.14733 17.5207 17.0841C6.58319 28.0268 0.437988 42.8655 0.437988 58.3348V175.001C0.437988 178.095 1.66716 181.064 3.85466 183.251C6.04215 185.439 9.01092 186.668 12.1047 186.668L12.1053 186.667Z" fill="black"/>
<path d="M572.105 0.0006663H455.439C448.996 0.0006663 443.772 5.22467 443.772 11.6673C443.772 18.11 448.996 23.334 455.439 23.334H572.105C581.387 23.334 590.293 27.0215 596.855 33.584C603.416 40.1465 607.105 49.0533 607.105 58.3333V175C607.105 181.443 612.329 186.667 618.771 186.667C625.214 186.667 630.438 181.443 630.438 175V58.3333C630.438 42.864 624.292 28.0267 613.355 17.0827C602.413 6.1452 587.574 0 572.105 0L572.105 0.0006663Z" fill="black"/>
<path d="M618.772 443.334C612.329 443.334 607.105 448.558 607.105 455.001V571.667C607.105 580.949 603.418 589.856 596.855 596.417C590.293 602.978 581.386 606.667 572.106 606.667H455.439C448.997 606.667 443.773 611.891 443.773 618.334C443.773 624.776 448.997 630 455.439 630H572.106C587.575 630 602.413 623.854 613.357 612.917C624.294 601.975 630.439 587.136 630.439 571.667V455C630.439 451.906 629.21 448.938 627.023 446.75C624.835 444.563 621.866 443.333 618.773 443.333L618.772 443.334Z" fill="black"/>
<path d="M455.439 163.334H175.439C168.996 163.334 163.772 168.558 163.772 175.001V303.334H93.772C87.3293 303.334 82.1053 308.558 82.1053 315.001C82.1053 321.443 87.3293 326.667 93.772 326.667H163.772V455.001C163.772 458.094 165.001 461.063 167.189 463.251C169.376 465.438 172.345 466.667 175.439 466.667H455.439C458.532 466.667 461.501 465.438 463.689 463.251C465.876 461.063 467.105 458.094 467.105 455.001V326.667H537.105C543.548 326.667 548.772 321.443 548.772 315.001C548.772 308.558 543.548 303.334 537.105 303.334H467.105V175.001C467.105 171.907 465.876 168.938 463.689 166.751C461.501 164.563 458.532 163.334 455.439 163.334ZM187.105 186.667H443.772V303.334H187.105V186.667ZM443.772 443.334H187.105V326.667H443.772V443.334Z" fill="black"/>
</svg>
