<svg fill="none" height="24" viewBox="0 0 24 24" width="24" xmlns="http://www.w3.org/2000/svg"><path d="m9.00003 16c-.40446 0-.7691.2437-.92388.6173-.15478.3737-.06923.8038.21677 1.0898l2.99998 3c.1876.1876.4419.2929.7071.2929.2653 0 .5196-.1053.7071-.2929l3-3c.286-.286.3716-.7161.2168-1.0898s-.5194-.6173-.9239-.6173z" fill="#152c70"/><path d="m7 2c-2.76142 0-5 2.23858-5 5v6c0 2.7614 2.23858 5 5 5h10c2.7614 0 5-2.2386 5-5v-6c0-2.76142-2.2386-5-5-5z" fill="#4296ff"/><g clip-rule="evenodd" fill="#152c70" fill-rule="evenodd"><path d="m6 8c0-.55228.44772-1 1-1h8c.5523 0 1 .44772 1 1s-.4477 1-1 1h-8c-.55228 0-1-.44772-1-1z"/><path d="m6 12c0-.5523.44772-1 1-1h10c.5523 0 1 .4477 1 1s-.4477 1-1 1h-10c-.55228 0-1-.4477-1-1z"/></g></svg>