<svg enable-background="new 0 0 512.001 512.001" viewBox="0 0 512.001 512.001" xmlns="http://www.w3.org/2000/svg"><path d="m433.236 470.611 63.238-63.238c9.685-9.682 14.692-22.371 14.692-35.395 0-13.021-5.008-25.71-14.692-35.395l-69.455-69.12c-19.031-19.366-51.088-19.366-70.79 0l-39.512 39.514-11.686 11.686c-6.678 6.344-6.678 17.03 0 23.374z" fill="#003f84"/><path d="m251.522 84.229-69.455-69.453c-19.368-19.702-51.09-19.702-70.456 0l-45.997 41.098-23.706 23.709 128.874 128.57c6.465 6.45 16.933 6.443 23.391-.013l11.686-12.021 45.664-41.432c19.698-19.368 19.698-51.09-.001-70.458z" fill="#144f9b"/><path d="m316.717 306.978-11.686 11.686c-6.344 6.01-17.698 6.344-24.043 0l-86.816-87.485c-6.678-6.678-6.632-16.408 0-23.04l11.686-12.021-140.244-140.244-23.706 23.709-11.355 11.686c-19.7 19.367-29.718 42.407-29.718 67.785.334 68.786 73.127 141.579 131.896 200.014l19.702 19.7c29.384 29.718 62.442 62.776 96.5 88.822 34.393 25.711 69.788 44.077 104.515 44.41 25.712 0 48.417-10.018 67.785-29.384l35.395-35.395z" fill="#32bbff"/><path d="m248.933 467.589c34.393 25.712 69.788 44.078 104.515 44.412 25.712 0 48.417-10.018 67.785-29.384l35.395-35.395-139.91-140.243-11.686 11.686c-6.344 6.01-17.699 6.344-24.043 0l-43.076-43.406-94.497 94.496 9.017 9.015c29.384 29.717 62.442 62.774 96.5 88.819z" fill="#2c9fd9"/></svg>