<svg enable-background="new 0 0 309.267 309.267" viewBox="0 0 309.267 309.267" xmlns="http://www.w3.org/2000/svg"><path d="m38.658 0h164.23l87.049 86.711v203.227c0 10.679-8.659 19.329-19.329 19.329h-231.95c-10.67 0-19.329-8.65-19.329-19.329v-270.609c0-10.679 8.66-19.329 19.329-19.329z" fill="#e4e7e7"/><path d="m289.658 86.981h-67.372c-10.67 0-19.329-8.659-19.329-19.329v-67.459z" fill="#c2c5c7"/><path d="m57.988 125.64v19.329h193.292v-19.329zm0 57.997h193.292v-19.329h-193.292zm0 38.649h193.292v-19.329h-193.292zm0 38.658h193.292v-19.32h-193.292zm106.31-173.963h-106.31v19.329h106.311zm0-38.658h-106.31v19.329h106.311z" fill="#ccd0d2"/></svg>