<svg enable-background="new 0 0 100 100" height="100" viewBox="0 0 100 100" width="100" xmlns="http://www.w3.org/2000/svg"><path d="m96.421 21.122c-3.417 1.518-7.088 2.539-10.941 3 3.935-2.357 6.952-6.088 8.373-10.537-3.678 2.182-7.755 3.767-12.098 4.624-3.474-3.703-8.423-6.017-13.901-6.017-12.108-.162-21.417 11.667-18.552 23.385-15.829-.793-29.862-8.377-39.26-19.904-5.129 8.364-2.217 20.325 5.896 25.431-3.121-.1-6.06-.957-8.627-2.382-.119 9.305 6.482 17.161 15.279 18.914-2.703.754-5.817.872-8.602.328 2.425 7.566 9.459 13.076 17.793 13.229-7.535 6.021-18.084 9.16-28.201 7.888 40.682 25.037 85.655-7.765 83.333-48.101 3.723-2.688 6.955-6.041 9.508-9.858z" fill="#00aced"/></svg>