<svg enable-background="new 0 0 343.567 343.567" viewBox="0 0 343.567 343.567" xmlns="http://www.w3.org/2000/svg"><path d="m343.567 274.016c0 13.75-11.25 25-25 25h-293.567c-13.75 0-25-11.25-25-25v-204.465c0-13.75 11.25-25 25-25h293.567c13.75 0 25 11.25 25 25z" fill="#e8e8e8"/><path d="m318.567 44.551h-293.567c-13.75 0-25 11.25-25 25v11.82h343.567v-11.82c0-13.75-11.25-25-25-25z" fill="#333e48"/><circle cx="32.117" cy="62.961" fill="#fb7598" r="8.257"/><circle cx="62.527" cy="62.961" fill="#fee050" r="8.257"/><circle cx="92.937" cy="62.961" fill="#61b4e4" r="8.257"/><path d="m44.599 115.039h85.651v81.034h-85.651z" fill="#61b4e4"/><path d="m160.572 115.039h139.73v33.759h-139.73z" fill="#005cb9"/><path d="m160.572 162.313h139.73v33.76h-139.73z" fill="#fff"/><path d="m44.599 214.443h115.973v41.263h-115.973z" fill="#005cb9"/><path d="m252.788 214.443h47.514v41.263h-47.514z" fill="#005cb9"/><path d="m182.922 214.443h47.515v41.263h-47.515z" fill="#61b4e4"/><path d="m228.924 175.229 17.544-7.084-47.847-13.435 13.435 47.847 7.086-17.545 18.664 18.664 9.781-9.783z" fill="#1e252b"/></svg>