<svg enable-background="new 0 0 424.264 424.264" viewBox="0 0 424.264 424.264" xmlns="http://www.w3.org/2000/svg"><g fill="#2488ff"><path d="m212.132 32.132c-80.133 0-155.469 31.205-212.132 87.868l28.284 28.284c49.107-49.107 114.399-76.152 183.848-76.152s134.74 27.045 183.848 76.152l28.284-28.284c-56.663-56.663-131.999-87.868-212.132-87.868z"/><path d="m56.568 176.568 28.284 28.284c33.998-33.998 79.2-52.721 127.279-52.721s93.282 18.723 127.279 52.721l28.284-28.284c-41.553-41.553-96.799-64.437-155.563-64.437s-114.01 22.885-155.563 64.437z"/><path d="m113.137 233.137 28.284 28.284c38.99-38.989 102.432-38.989 141.422 0l28.284-28.284c-54.586-54.586-143.404-54.586-197.99 0z"/><path d="m152.132 332.132c0 33.084 26.916 60 60 60v-120c-33.084 0-60 26.916-60 60z"/></g><path d="m212.132 272.132v120c33.084 0 60-26.916 60-60s-26.916-60-60-60z" fill="#005ece"/></svg>