<svg enable-background="new 0 0 100 100" height="100" viewBox="0 0 100 100" width="100" xmlns="http://www.w3.org/2000/svg"><path d="m94.761 27.369c-1.075-4.045-4.24-7.231-8.26-8.312-7.285-1.965-36.501-1.965-36.501-1.965s-29.216 0-36.501 1.965c-4.02 1.081-7.186 4.267-8.26 8.312-1.953 7.333-1.953 22.631-1.953 22.631s0 15.298 1.952 22.631c1.074 4.045 4.24 7.231 8.26 8.312 7.286 1.965 36.502 1.965 36.502 1.965s29.216 0 36.502-1.965c4.02-1.082 7.185-4.267 8.26-8.312 1.952-7.333 1.952-22.631 1.952-22.631s0-15.298-1.953-22.631z" fill="#f00"/><path d="m40.284 35.877v28.246l24.83-14.122z" fill="#f1f1f1"/></svg>